<?xml version="1.0" encoding="UTF-8"?>
<svg version="1.1" xmlns="http://www.w3.org/2000/svg" width="168" height="168">
<path d="M0 0 C55.44 0 110.88 0 168 0 C168 55.44 168 110.88 168 168 C112.56 168 57.12 168 0 168 C0 112.56 0 57.12 0 0 Z " fill="#FEFEFE" transform="translate(0,0)"/>
<path d="M0 0 C3.32907325 0.38924549 6.66239824 0.6884905 10 1 C10 4.3 10 7.6 10 11 C8.02 11.33 6.04 11.66 4 12 C4.639375 12.165 5.27875 12.33 5.9375 12.5 C8 14 8 14 8.48828125 15.9140625 C8.7275978 17.93575155 8.86893028 19.96841939 9 22 C8.4225 21.814375 7.845 21.62875 7.25 21.4375 C4.77511403 20.95627217 3.39014524 21.32212267 1 22 C0.9729957 20.54176788 0.95360213 19.08339325 0.9375 17.625 C0.92589844 16.81289063 0.91429687 16.00078125 0.90234375 15.1640625 C1 13 1 13 2 11 C1.01 11 0.02 11 -1 11 C-1.495 8.525 -1.495 8.525 -2 6 C-2 7.65 -2 9.3 -2 11 C-4.31 11 -6.62 11 -9 11 C-8.505 11.99 -8.505 11.99 -8 13 C-5.69 13 -3.38 13 -1 13 C-1.33 14.65 -1.66 16.3 -2 18 C-2.99 18 -3.98 18 -5 18 C-5 18.66 -5 19.32 -5 20 C-3.68 20 -2.36 20 -1 20 C-1 20.66 -1 21.32 -1 22 C-3.31 22 -5.62 22 -8 22 C-8 20.68 -8 19.36 -8 18 C-8.86625 18.99 -8.86625 18.99 -9.75 20 C-12 22 -12 22 -16 22 C-16 21.34 -16 20.68 -16 20 C-21.55104982 22.16855792 -21.55104982 22.16855792 -26 26 C-26.66 26 -27.32 26 -28 26 C-28 26.66 -28 27.32 -28 28 C-26.97326172 28.38478516 -26.97326172 28.38478516 -25.92578125 28.77734375 C-20.17197635 31.18180427 -14.75711487 33.96055332 -10 38 C-8.91534065 41.24895648 -9.1116804 43.72005071 -10 47 C-14.53332201 45.36096823 -17.96686526 42.99332501 -21.81640625 40.14453125 C-24.21001805 38.58132242 -24.21001805 38.58132242 -28 40 C-27.505 44.455 -27.505 44.455 -27 49 C-27 46.36 -27 43.72 -27 41 C-22.77041433 42.51566766 -19.09097531 44.6704641 -15.3125 47.0625 C-11.23374532 49.66635416 -11.23374532 49.66635416 -7 52 C-7 43.42 -7 34.84 -7 26 C-4.69 26 -2.38 26 0 26 C0.07405295 30.80546679 0.12855497 35.6106029 0.16479492 40.41650391 C0.17989911 42.05197941 0.20038389 43.68741429 0.22631836 45.32275391 C0.26263145 47.67100024 0.27970932 50.01871205 0.29296875 52.3671875 C0.31619453 53.46726639 0.31619453 53.46726639 0.33988953 54.58956909 C0.34057617 56.65185547 0.34057617 56.65185547 0 60 C-3.8503105 62.56687367 -5.58569763 61.83288724 -10 61 C-9.67 61.66 -9.34 62.32 -9 63 C-5.97065509 63.65772428 -5.97065509 63.65772428 -3 64 C-3 64.66 -3 65.32 -3 66 C-2.01 66.495 -2.01 66.495 -1 67 C-0.34 67.350625 0.32 67.70125 1 68.0625 C2.93368221 69.14147796 2.93368221 69.14147796 5 69 C5 69.66 5 70.32 5 71 C6.06927734 70.87431641 6.06927734 70.87431641 7.16015625 70.74609375 C12.69019573 70.15810839 17.54028471 69.90805694 23 71 C23 71.99 23 72.98 23 74 C24.485 74.495 24.485 74.495 26 75 C26.66 72.69 27.32 70.38 28 68 C29.5 69.3125 29.5 69.3125 31 71 C31 71.99 31 72.98 31 74 C31.7734375 73.505 31.7734375 73.505 32.5625 73 C35.93843074 71.61500277 38.37415116 71.62491219 42 72 C47.53846154 75.07692308 47.53846154 75.07692308 49 78 C49.24343642 82.12000792 49.18520245 86.24860907 49.1875 90.375 C49.19974609 91.52484375 49.21199219 92.6746875 49.22460938 93.859375 C49.22654297 94.96539062 49.22847656 96.07140625 49.23046875 97.2109375 C49.23457764 98.22462402 49.23868652 99.23831055 49.24291992 100.28271484 C48.99429585 103.06380619 48.49552607 104.66459754 47 107 C45.01171875 108.51953125 45.01171875 108.51953125 42.6875 109.8125 C41.92824219 110.25207031 41.16898437 110.69164062 40.38671875 111.14453125 C37.51544788 112.17367744 35.89117534 111.83409129 33 111 C33 110.34 33 109.68 33 109 C31.35 108.67 29.7 108.34 28 108 C28 107.34 28 106.68 28 106 C27.01 106 26.02 106 25 106 C24.505 107.485 24.505 107.485 24 109 C21.36 109 18.72 109 16 109 C15.67 99.1 15.34 89.2 15 79 C13.68 79 12.36 79 11 79 C10.67 88.9 10.34 98.8 10 109 C7.69 109 5.38 109 3 109 C2.67 99.1 2.34 89.2 2 79 C0.68 79 -0.64 79 -2 79 C-2.33 88.9 -2.66 98.8 -3 109 C-5.97 109 -8.94 109 -12 109 C-14.5189267 110.31763329 -14.5189267 110.31763329 -16 112 C-16 111.34 -16 110.68 -16 110 C-17.2375 109.855625 -18.475 109.71125 -19.75 109.5625 C-22.56504499 109.21311498 -25.2701497 108.79620634 -28 108 C-28.495 108.99 -28.99 109.98 -29.5 111 C-32 114 -32 114 -33.90625 114.46875 C-37.69630495 114.52531798 -40.77523436 114.14984376 -44 112 C-44 111.34 -44 110.68 -44 110 C-44.66 109.67 -45.32 109.34 -46 109 C-46.33 108.01 -46.66 107.02 -47 106 C-47.66 105.67 -48.32 105.34 -49 105 C-49 105.66 -49 106.32 -49 107 C-49.66 107 -50.32 107 -51 107 C-51.99 107.99 -51.99 107.99 -53 109 C-55.97 109 -58.94 109 -62 109 C-62 92.5 -62 76 -62 59 C-59.36 58.34 -56.72 57.68 -54 57 C-53.970271 55.6070874 -53.970271 55.6070874 -53.93994141 54.18603516 C-53.86191387 50.7454948 -53.77522538 47.30540109 -53.68261719 43.86523438 C-53.64430002 42.37541111 -53.60945192 40.88549446 -53.578125 39.39550781 C-53.53253271 37.25551952 -53.47453126 35.11617564 -53.4140625 32.9765625 C-53.3826416 31.68830566 -53.3512207 30.40004883 -53.31884766 29.07275391 C-53 26 -53 26 -51 24 C-51.99 23.34 -52.98 22.68 -54 22 C-53.25 15.375 -53.25 15.375 -51 12 C-48.2539049 11.86923357 -45.72350533 11.85438684 -43 12 C-42.01 12 -41.02 12 -40 12 C-39.86722656 11.36191406 -39.73445313 10.72382812 -39.59765625 10.06640625 C-39.42105469 9.24011719 -39.24445312 8.41382813 -39.0625 7.5625 C-38.80146484 6.32693359 -38.80146484 6.32693359 -38.53515625 5.06640625 C-38 3 -38 3 -37 2 C-34.5625 1.75 -34.5625 1.75 -32 2 C-31.01 3.485 -31.01 3.485 -30 5 C-32.475 4.505 -32.475 4.505 -35 4 C-35 5.32 -35 6.64 -35 8 C-33.35 7.67 -31.7 7.34 -30 7 C-29.67 5.35 -29.34 3.7 -29 2 C-27.68 2 -26.36 2 -25 2 C-25 3.98 -25 5.96 -25 8 C-23.68 8 -22.36 8 -21 8 C-20.34 5.69 -19.68 3.38 -19 1 C-16 1 -13 1 -10 1 C-9.236875 0.649375 -8.47375 0.29875 -7.6875 -0.0625 C-4.46400347 -1.18697553 -3.29132858 -0.80454699 0 0 Z M-44 113 C-41 114 -41 114 -41 114 Z " fill="#F8FCFA" transform="translate(88,28)"/>
<path d="M0 0 C3.32907325 0.38924549 6.66239824 0.6884905 10 1 C10 4.3 10 7.6 10 11 C8.02 11.33 6.04 11.66 4 12 C4.639375 12.165 5.27875 12.33 5.9375 12.5 C8 14 8 14 8.48828125 15.9140625 C8.7275978 17.93575155 8.86893028 19.96841939 9 22 C8.4225 21.814375 7.845 21.62875 7.25 21.4375 C4.77511403 20.95627217 3.39014524 21.32212267 1 22 C0.9729957 20.54176788 0.95360213 19.08339325 0.9375 17.625 C0.92589844 16.81289063 0.91429687 16.00078125 0.90234375 15.1640625 C1 13 1 13 2 11 C1.01 11 0.02 11 -1 11 C-1.495 8.525 -1.495 8.525 -2 6 C-2 7.65 -2 9.3 -2 11 C-4.31 11 -6.62 11 -9 11 C-8.505 11.99 -8.505 11.99 -8 13 C-5.69 13 -3.38 13 -1 13 C-1.33 14.65 -1.66 16.3 -2 18 C-2.99 18 -3.98 18 -5 18 C-5 18.66 -5 19.32 -5 20 C-3.68 20 -2.36 20 -1 20 C-1 20.66 -1 21.32 -1 22 C-3.31 22 -5.62 22 -8 22 C-8 20.68 -8 19.36 -8 18 C-8.86625 18.99 -8.86625 18.99 -9.75 20 C-12 22 -12 22 -16 22 C-16 21.34 -16 20.68 -16 20 C-21.55104982 22.16855792 -21.55104982 22.16855792 -26 26 C-26.66 26 -27.32 26 -28 26 C-28 26.66 -28 27.32 -28 28 C-26.97326172 28.38478516 -26.97326172 28.38478516 -25.92578125 28.77734375 C-20.17197635 31.18180427 -14.75711487 33.96055332 -10 38 C-8.91534065 41.24895648 -9.1116804 43.72005071 -10 47 C-14.53332201 45.36096823 -17.96686526 42.99332501 -21.81640625 40.14453125 C-24.21001805 38.58132242 -24.21001805 38.58132242 -28 40 C-27.505 44.95 -27.505 44.95 -27 50 C-25.8553125 50.185625 -25.8553125 50.185625 -24.6875 50.375 C-22 51 -22 51 -19 53 C-19 54.32 -19 55.64 -19 57 C-18.34 57 -17.68 57 -17 57 C-17 57.66 -17 58.32 -17 59 C-20.465 59.495 -20.465 59.495 -24 60 C-24 62.31 -24 64.62 -24 67 C-23.01 67.495 -23.01 67.495 -22 68 C-22.99 68.99 -23.98 69.98 -25 71 C-25.99 70.505 -25.99 70.505 -27 70 C-27.20970559 74.14093698 -27.20970559 74.14093698 -26 78 C-25.34 77.67 -24.68 77.34 -24 77 C-24 80.96 -24 84.92 -24 89 C-25.32 89 -26.64 89 -28 89 C-27.65213292 90.97536745 -27.65213292 90.97536745 -27 93 C-26.01 93.495 -26.01 93.495 -25 94 C-24.76073447 100.22090367 -25.62808288 102.94212432 -29 108 C-29.99 107.67 -30.98 107.34 -32 107 C-31.01 106.01 -31.01 106.01 -30 105 C-29.37522796 101.26939005 -29.38358849 97.73091178 -30 94 C-32.8629861 90.79618222 -35.66891792 89.19006564 -39.375 87.0625 C-40.24125 86.381875 -41.1075 85.70125 -42 85 C-42.375 81.75 -42.375 81.75 -42 79 C-39.625 78.375 -39.625 78.375 -37 78 C-35 80 -35 80 -34.875 82.625 C-34.91625 83.40875 -34.9575 84.1925 -35 85 C-32.69 85 -30.38 85 -28 85 C-29.01323863 79.24260498 -29.01323863 79.24260498 -32.1875 74.5 C-35.75690368 72.59631804 -37.99938701 72.57136289 -42 73 C-43.67996742 73.63240153 -45.349792 74.29357534 -47 75 C-47.60580894 79.47625495 -47.87556361 83.54965005 -47 88 C-44.08080367 91.17937425 -40.81493082 93.04362522 -37 95 C-36 96 -36 96 -35.9375 99.5625 C-35.958125 100.696875 -35.97875 101.83125 -36 103 C-37.875 103.625 -37.875 103.625 -40 104 C-42 102 -42 102 -42.125 99.375 C-42.08375 98.59125 -42.0425 97.8075 -42 97 C-43.98 97 -45.96 97 -48 97 C-47.979375 98.27875 -47.95875 99.5575 -47.9375 100.875 C-47.875 104.75 -47.875 104.75 -49 107 C-49.66 107 -50.32 107 -51 107 C-51.99 107.99 -51.99 107.99 -53 109 C-55.97 109 -58.94 109 -62 109 C-62 92.5 -62 76 -62 59 C-59.36 58.34 -56.72 57.68 -54 57 C-53.970271 55.6070874 -53.970271 55.6070874 -53.93994141 54.18603516 C-53.86191387 50.7454948 -53.77522538 47.30540109 -53.68261719 43.86523438 C-53.64430002 42.37541111 -53.60945192 40.88549446 -53.578125 39.39550781 C-53.53253271 37.25551952 -53.47453126 35.11617564 -53.4140625 32.9765625 C-53.3826416 31.68830566 -53.3512207 30.40004883 -53.31884766 29.07275391 C-53 26 -53 26 -51 24 C-51.99 23.34 -52.98 22.68 -54 22 C-53.25 15.375 -53.25 15.375 -51 12 C-48.2539049 11.86923357 -45.72350533 11.85438684 -43 12 C-42.01 12 -41.02 12 -40 12 C-39.86722656 11.36191406 -39.73445313 10.72382812 -39.59765625 10.06640625 C-39.42105469 9.24011719 -39.24445312 8.41382813 -39.0625 7.5625 C-38.80146484 6.32693359 -38.80146484 6.32693359 -38.53515625 5.06640625 C-38 3 -38 3 -37 2 C-34.5625 1.75 -34.5625 1.75 -32 2 C-31.01 3.485 -31.01 3.485 -30 5 C-32.475 4.505 -32.475 4.505 -35 4 C-35 5.32 -35 6.64 -35 8 C-33.35 7.67 -31.7 7.34 -30 7 C-29.67 5.35 -29.34 3.7 -29 2 C-27.68 2 -26.36 2 -25 2 C-25 3.98 -25 5.96 -25 8 C-23.68 8 -22.36 8 -21 8 C-20.34 5.69 -19.68 3.38 -19 1 C-16 1 -13 1 -10 1 C-9.236875 0.649375 -8.47375 0.29875 -7.6875 -0.0625 C-4.46400347 -1.18697553 -3.29132858 -0.80454699 0 0 Z " fill="#F9FBFA" transform="translate(88,28)"/>
<path d="M0 0 C2.31 0 4.62 0 7 0 C7.07405295 4.80546679 7.12855497 9.6106029 7.16479492 14.41650391 C7.17989911 16.05197941 7.20038389 17.68741429 7.22631836 19.32275391 C7.26263145 21.67100024 7.27970932 24.01871205 7.29296875 26.3671875 C7.30845261 27.10057343 7.32393646 27.83395935 7.33988953 28.58956909 C7.34057617 30.65185547 7.34057617 30.65185547 7 34 C3.54785147 36.30143236 2.76520676 36.13833854 -1.1875 35.625 C-2.08855469 35.51414063 -2.98960938 35.40328125 -3.91796875 35.2890625 C-4.60503906 35.19367188 -5.29210937 35.09828125 -6 35 C-6.19335938 35.56589844 -6.38671875 36.13179687 -6.5859375 36.71484375 C-6.84632812 37.44832031 -7.10671875 38.18179688 -7.375 38.9375 C-7.63023438 39.66839844 -7.88546875 40.39929688 -8.1484375 41.15234375 C-9 43 -9 43 -11 44 C-11.66 43.67 -12.32 43.34 -13 43 C-13 43.66 -13 44.32 -13 45 C-11.35 45.33 -9.7 45.66 -8 46 C-8.33 58.21 -8.66 70.42 -9 83 C-17 83 -17 83 -19.5 81.5 C-19.995 81.005 -20.49 80.51 -21 80 C-20.49396008 77.83125748 -20.00016187 76.00032373 -19 74 C-18.58282721 71.58462162 -18.58282721 71.58462162 -19 69 C-20.89584109 66.68622853 -20.89584109 66.68622853 -23 65 C-22.34 65 -21.68 65 -21 65 C-21 64.34 -21 63.68 -21 63 C-20.01 62.34 -19.02 61.68 -18 61 C-17.7213136 58.07379279 -17.53502292 55.84283455 -18 53 C-18.98020375 51.9805881 -19.97803008 50.97753644 -21 50 C-20.6875 46.8125 -20.6875 46.8125 -20 44 C-19.01 44 -18.02 44 -17 44 C-17 43.01 -17 42.02 -17 41 C-17 38.66666667 -17 36.33333333 -17 34 C-13.535 33.505 -13.535 33.505 -10 33 C-10 32.34 -10 31.68 -10 31 C-10.66 31 -11.32 31 -12 31 C-12 29.68 -12 28.36 -12 27 C-13.1446875 26.566875 -13.1446875 26.566875 -14.3125 26.125 C-17 25 -17 25 -20 23 C-20.40843923 20.28796348 -20.13336867 17.7562858 -20 15 C-15.77041433 16.51566766 -12.09097531 18.6704641 -8.3125 21.0625 C-4.23374532 23.66635416 -4.23374532 23.66635416 0 26 C0 17.42 0 8.84 0 0 Z M-28 46 C-25.02327416 47.77280561 -22.57195993 49.85608015 -21 53 C-20.960008 54.99960012 -20.95653201 57.00047242 -21 59 C-23.31 59 -25.62 59 -28 59 C-28.66 57.02 -29.32 55.04 -30 53 C-31.32 53 -32.64 53 -34 53 C-34.7555432 55.7412565 -34.7555432 55.7412565 -34 59 C-31.8771393 60.82146689 -29.67480024 62.19492353 -27.26171875 63.60546875 C-25.07010746 64.95677312 -23.52136824 65.92628788 -22 68 C-21.63671875 70.62890625 -21.63671875 70.62890625 -21.6875 73.5625 C-21.69136719 74.53316406 -21.69523437 75.50382812 -21.69921875 76.50390625 C-22 79 -22 79 -24 81 C-23.34 81.33 -22.68 81.66 -22 82 C-22.8125 84.4375 -22.8125 84.4375 -24 87 C-28.02922547 88.34307516 -31.40328905 88.67229935 -35.375 87 C-35.91125 86.67 -36.4475 86.34 -37 86 C-37 85.34 -37 84.68 -37 84 C-37.66 83.67 -38.32 83.34 -39 83 C-41.69632028 79.25511072 -41.14740572 75.42217175 -41 71 C-39.02 71 -37.04 71 -35 71 C-34.34 72.98 -33.68 74.96 -33 77 C-32.01 77 -31.02 77 -30 77 C-29.16046733 73.80095012 -29.16046733 73.80095012 -30 70 C-33.06558848 67.21856589 -36.46746677 65.13763549 -40 63 C-41.72584734 61.27415266 -41.2533507 59.03790633 -41.3125 56.6875 C-41.27814136 51.38939791 -41.27814136 51.38939791 -39.125 48.375 C-35.20594793 45.83914278 -32.71847066 45.52815293 -28 46 Z M-37 87 C-34 88 -34 88 -34 88 Z " fill="#F5FCFB" transform="translate(81,54)"/>
<path d="M0 0 C3.32907325 0.38924549 6.66239824 0.6884905 10 1 C10 4.3 10 7.6 10 11 C8.02 11.33 6.04 11.66 4 12 C4.639375 12.165 5.27875 12.33 5.9375 12.5 C8 14 8 14 8.48828125 15.9140625 C8.7275978 17.93575155 8.86893028 19.96841939 9 22 C8.4225 21.814375 7.845 21.62875 7.25 21.4375 C4.77511403 20.95627217 3.39014524 21.32212267 1 22 C0.9729957 20.54176788 0.95360213 19.08339325 0.9375 17.625 C0.92589844 16.81289063 0.91429687 16.00078125 0.90234375 15.1640625 C1 13 1 13 2 11 C1.01 11 0.02 11 -1 11 C-1.495 8.525 -1.495 8.525 -2 6 C-2 7.65 -2 9.3 -2 11 C-4.31 11 -6.62 11 -9 11 C-8.67 11.66 -8.34 12.32 -8 13 C-5.69 13 -3.38 13 -1 13 C-1.33 14.65 -1.66 16.3 -2 18 C-2.99 18 -3.98 18 -5 18 C-5 18.66 -5 19.32 -5 20 C-3.68 20 -2.36 20 -1 20 C-1 20.66 -1 21.32 -1 22 C-3.31 22 -5.62 22 -8 22 C-8 20.68 -8 19.36 -8 18 C-8.86625 18.99 -8.86625 18.99 -9.75 20 C-12 22 -12 22 -16 22 C-16 21.34 -16 20.68 -16 20 C-21.55104982 22.16855792 -21.55104982 22.16855792 -26 26 C-26.66 26 -27.32 26 -28 26 C-28 26.66 -28 27.32 -28 28 C-26.97326172 28.38478516 -26.97326172 28.38478516 -25.92578125 28.77734375 C-20.17197635 31.18180427 -14.75711487 33.96055332 -10 38 C-8.91534065 41.24895648 -9.1116804 43.72005071 -10 47 C-14.14480451 45.53172977 -17.4979283 43.47259023 -21.125 41 C-22.67574219 39.948125 -22.67574219 39.948125 -24.2578125 38.875 C-25.61519531 37.946875 -25.61519531 37.946875 -27 37 C-27.99 36.34 -28.98 35.68 -30 35 C-30 43.91 -30 52.82 -30 62 C-32.64 62 -35.28 62 -38 62 C-38 50.78 -38 39.56 -38 28 C-37.34 28 -36.68 28 -36 28 C-36 26.35 -36 24.7 -36 23 C-36.99 22.67 -37.98 22.34 -39 22 C-38.01 19.03 -37.02 16.06 -36 13 C-34.68 13 -33.36 13 -32 13 C-31.34 14.65 -30.68 16.3 -30 18 C-29.67 16.35 -29.34 14.7 -29 13 C-27.68 13 -26.36 13 -25 13 C-25 14.98 -25 16.96 -25 19 C-24.34 19 -23.68 19 -23 19 C-23 17.02 -23 15.04 -23 13 C-22.01 13 -21.02 13 -20 13 C-19.67 14.65 -19.34 16.3 -19 18 C-18.67 16.35 -18.34 14.7 -18 13 C-17.01 13 -16.02 13 -15 13 C-15 13.99 -15 14.98 -15 16 C-14.34 16 -13.68 16 -13 16 C-12.67 14.35 -12.34 12.7 -12 11 C-14.64 11 -17.28 11 -20 11 C-20.02689216 9.52093108 -20.04634621 8.04172517 -20.0625 6.5625 C-20.07410156 5.73878906 -20.08570312 4.91507813 -20.09765625 4.06640625 C-20 2 -20 2 -19 1 C-16.66705225 0.95758277 -14.33297433 0.95907063 -12 1 C-9.87874076 1.13916672 -9.87874076 1.13916672 -7.6875 -0.0625 C-4.46400347 -1.18697553 -3.29132858 -0.80454699 0 0 Z " fill="#CBCCD3" transform="translate(88,28)"/>
<path d="M0 0 C0.721875 0.37125 1.44375 0.7425 2.1875 1.125 C3.0846875 1.558125 3.0846875 1.558125 4 2 C5.35085807 1.36959957 6.68252676 0.69748583 8 0 C11.92032447 -0.50046695 13.48702261 -0.34198493 16.8125 1.875 C19.54571409 4.53012226 19.97237199 5.25220176 20.11352539 9.07275391 C20.10828857 10.36101074 20.10305176 11.64926758 20.09765625 12.9765625 C20.0962413 13.66181 20.09482635 14.3470575 20.09336853 15.05307007 C20.08776675 17.24375761 20.07521406 19.4343433 20.0625 21.625 C20.05748522 23.10937352 20.05292228 24.59374865 20.04882812 26.078125 C20.03779677 29.71878315 20.02053099 33.35938164 20 37 C17.69 37 15.38 37 13 37 C12.67 27.1 12.34 17.2 12 7 C10.68 7 9.36 7 8 7 C7.67 16.9 7.34 26.8 7 37 C4.69 37 2.38 37 0 37 C-0.33 27.1 -0.66 17.2 -1 7 C-2.32 7 -3.64 7 -5 7 C-5.33 16.9 -5.66 26.8 -6 37 C-7.98 37 -9.96 37 -12 37 C-12.1237709 32.3736342 -12.21441516 27.74823539 -12.2746582 23.12060547 C-12.29977448 21.54719249 -12.33387472 19.97389588 -12.37719727 18.40087891 C-12.43798399 16.13675228 -12.46623582 13.87416978 -12.48828125 11.609375 C-12.51408768 10.90818542 -12.5398941 10.20699585 -12.56648254 9.48455811 C-12.56860392 5.77503551 -12.27192956 4.28893056 -9.69213867 1.54785156 C-6.20706784 -0.45589824 -3.96426043 -0.43246477 0 0 Z " fill="#135289" transform="translate(91,100)"/>
<path d="M0 0 C0.33 0 0.66 0 1 0 C1.16743288 5.23256222 1.328011 10.46527227 1.48217773 15.69824219 C1.5356202 17.47922457 1.59095129 19.26015131 1.64819336 21.04101562 C1.73004181 23.59753417 1.8051453 26.15417445 1.87890625 28.7109375 C1.90594131 29.50994476 1.93297638 30.30895203 1.96083069 31.13217163 C2.11387171 36.77225659 2.11387171 36.77225659 1 39 C-0.10888224 45.05906676 -0.10888224 45.05906676 1 51 C2.32 50.34 3.64 49.68 5 49 C4.95617188 49.85722656 4.91234375 50.71445313 4.8671875 51.59765625 C4.753868 58.61948638 4.753868 58.61948638 8.2578125 64.38671875 C10.77659837 66.09820146 13.30098101 67.59426095 16 69 C17 70 17 70 17.0625 73.5625 C17.041875 74.696875 17.02125 75.83125 17 77 C15.125 77.625 15.125 77.625 13 78 C11 76 11 76 10.875 73.375 C10.91625 72.59125 10.9575 71.8075 11 71 C9.02 71 7.04 71 5 71 C5.020625 72.27875 5.04125 73.5575 5.0625 74.875 C5.125 78.75 5.125 78.75 4 81 C3.34 81 2.68 81 2 81 C1.01 81.99 1.01 81.99 0 83 C-2.97 83 -5.94 83 -9 83 C-9 66.5 -9 50 -9 33 C-6.36 32.34 -3.72 31.68 -1 31 C-0.67 20.77 -0.34 10.54 0 0 Z " fill="#F5FCFC" transform="translate(35,54)"/>
<path d="M0 0 C0.86560547 -0.00386719 1.73121094 -0.00773437 2.62304688 -0.01171875 C3.52474609 -0.00011719 4.42644531 0.01148438 5.35546875 0.0234375 C6.24556641 0.01183594 7.13566406 0.00023437 8.05273438 -0.01171875 C13.29098824 0.01157964 17.02889233 0.45540185 21.54296875 3.3984375 C23.98637066 6.33051979 24.50956409 8.08666071 24.91796875 11.8984375 C24.41887812 16.55661675 23.06038994 19.02786352 19.60546875 22.1484375 C15.91958521 24.38230631 12.54460575 24.51688009 8.29296875 24.4609375 C7.4009375 24.45191406 6.50890625 24.44289063 5.58984375 24.43359375 C4.914375 24.42199219 4.23890625 24.41039063 3.54296875 24.3984375 C3.54296875 22.4184375 3.54296875 20.4384375 3.54296875 18.3984375 C4.46529297 18.34236328 4.46529297 18.34236328 5.40625 18.28515625 C6.61861328 18.18654297 6.61861328 18.18654297 7.85546875 18.0859375 C8.65597656 18.02792969 9.45648438 17.96992187 10.28125 17.91015625 C12.94896989 17.30657887 13.91443514 16.56981564 15.54296875 14.3984375 C15.79366788 11.77273046 15.79366788 11.77273046 15.54296875 9.3984375 C10.63871851 6.64264626 10.63871851 6.64264626 0.54296875 6.3984375 C0.54296875 16.2984375 0.54296875 26.1984375 0.54296875 36.3984375 C-2.09703125 36.3984375 -4.73703125 36.3984375 -7.45703125 36.3984375 C-7.53119192 31.75369768 -7.5856374 27.10930251 -7.62182617 22.46411133 C-7.63691219 20.88397214 -7.65738375 19.30387481 -7.68334961 17.72387695 C-7.71974251 15.45253165 -7.73675887 13.18173991 -7.75 10.91015625 C-7.76548386 10.20380539 -7.78096771 9.49745453 -7.79692078 8.7696991 C-7.7978961 5.92688708 -7.76870575 3.88730859 -6.21728516 1.45385742 C-4.00483962 0.12731067 -2.57519002 0.01111479 0 0 Z " fill="#2A2E43" transform="translate(103.45703125,53.6015625)"/>
<path d="M0 0 C5.53846154 3.07692308 5.53846154 3.07692308 7 6 C7.24343642 10.12000792 7.18520245 14.24860907 7.1875 18.375 C7.19974609 19.52484375 7.21199219 20.6746875 7.22460938 21.859375 C7.22750977 23.51839844 7.22750977 23.51839844 7.23046875 25.2109375 C7.23457764 26.22462402 7.23868652 27.23831055 7.24291992 28.28271484 C6.99213805 31.08794326 6.5516059 32.66790888 5 35 C0.72644655 37.84903563 -2.98987615 37.59834282 -8 37 C-11.125 35.6875 -11.125 35.6875 -13 33 C-13.80460425 28.2231153 -14.01793393 23.77031988 -11.5625 19.5 C-7.90181743 17.35716142 -4.06948266 16.1478028 0 15 C-0.33 12.36 -0.66 9.72 -1 7 C-2.32 7 -3.64 7 -5 7 C-5.33 8.98 -5.66 10.96 -6 13 C-8.31 13 -10.62 13 -13 13 C-13.2978711 10.07093421 -13.50159903 7.85647449 -13 5 C-9.05672361 0.3834813 -6.00304154 -0.96477453 0 0 Z " fill="#19568D" transform="translate(130,100)"/>
<path d="M0 0 C0.33 0 0.66 0 1 0 C1 2.64 1 5.28 1 8 C1.99 8 2.98 8 4 8 C4.02686553 9.97909398 4.04633375 11.95828971 4.0625 13.9375 C4.07410156 15.03964844 4.08570312 16.14179687 4.09765625 17.27734375 C4 20 4 20 3 21 C2.91152257 23.52094076 2.88472699 26.01430893 2.90234375 28.53515625 C2.90446617 29.66503212 2.90446617 29.66503212 2.90663147 30.81773376 C2.91224624 33.2326956 2.92480117 35.64756601 2.9375 38.0625 C2.9425131 39.69596221 2.94707634 41.32942586 2.95117188 42.96289062 C2.96222046 46.97529585 2.97949494 50.98763241 3 55 C2.67 55 2.34 55 2 55 C2 44.44 2 33.88 2 23 C-0.31 23 -2.62 23 -5 23 C-5 31.58 -5 40.16 -5 49 C-11.75 46.75 -11.75 46.75 -14.6484375 44.8359375 C-15.26074219 44.43632813 -15.87304688 44.03671875 -16.50390625 43.625 C-17.43009766 43.00625 -17.43009766 43.00625 -18.375 42.375 C-19.01566406 41.95476562 -19.65632813 41.53453125 -20.31640625 41.1015625 C-21.88155698 40.07370232 -23.44134314 39.03768114 -25 38 C-25 40.64 -25 43.28 -25 46 C-24.34 46.33 -23.68 46.66 -23 47 C-24.485 47.495 -24.485 47.495 -26 48 C-26 44.37 -26 40.74 -26 37 C-25.01 37 -24.02 37 -23 37 C-22.67 36.34 -22.34 35.68 -22 35 C-17.38 37.97 -12.76 40.94 -8 44 C-8 41.03 -8 38.06 -8 35 C-8.68449219 34.7525 -9.36898437 34.505 -10.07421875 34.25 C-13.50813451 32.78290648 -16.6404887 30.95200695 -19.8125 29 C-20.40998047 28.64421875 -21.00746094 28.2884375 -21.62304688 27.921875 C-23.11890414 27.00555558 -24.56477862 26.00864753 -26 25 C-26 24.34 -26 23.68 -26 23 C-25.360625 22.896875 -24.72125 22.79375 -24.0625 22.6875 C-23.0415625 22.3471875 -23.0415625 22.3471875 -22 22 C-21.67 21.01 -21.34 20.02 -21 19 C-17.4375 17.8125 -17.4375 17.8125 -14 17 C-14 17.66 -14 18.32 -14 19 C-12.68 19 -11.36 19 -10 19 C-9.34 17.68 -8.68 16.36 -8 15 C-7.34 15 -6.68 15 -6 15 C-6 16.32 -6 17.64 -6 19 C-3.69 19 -1.38 19 1 19 C1 18.34 1 17.68 1 17 C-0.32 17 -1.64 17 -3 17 C-3 16.34 -3 15.68 -3 15 C-2.01 15 -1.02 15 0 15 C0 14.34 0 13.68 0 13 C-0.99 12.67 -1.98 12.34 -3 12 C-1.68 12 -0.36 12 1 12 C1 11.34 1 10.68 1 10 C-1.31 10 -3.62 10 -6 10 C-6.33 10.99 -6.66 11.98 -7 13 C-7 11.35 -7 9.7 -7 8 C-6.34 8 -5.68 8 -5 8 C-4.67 7.01 -4.34 6.02 -4 5 C-4 5.99 -4 6.98 -4 8 C-2.68 8 -1.36 8 0 8 C-0.185625 6.865625 -0.37125 5.73125 -0.5625 4.5625 C-0.706875 3.386875 -0.85125 2.21125 -1 1 C-0.67 0.67 -0.34 0.34 0 0 Z " fill="#F0F6FA" transform="translate(86,31)"/>
<path d="M0 0 C2.97672584 1.77280561 5.42804007 3.85608015 7 7 C7.039992 8.99960012 7.04346799 11.00047242 7 13 C4.69 13 2.38 13 0 13 C-0.66 11.02 -1.32 9.04 -2 7 C-3.32 7 -4.64 7 -6 7 C-6.7555432 9.7412565 -6.7555432 9.7412565 -6 13 C-3.8771393 14.82146689 -1.67480024 16.19492353 0.73828125 17.60546875 C2.92514371 18.95384509 4.46842021 19.94178867 6 22 C6.68221031 25.72373129 6.57055739 29.26340847 6 33 C4.125 35.6875 4.125 35.6875 1 37 C-3.63022753 37.69565616 -7.49822108 37.85815938 -11.625 35.5 C-13.63041222 31.85379595 -13.27520946 29.12814187 -13 25 C-11.02 25 -9.04 25 -7 25 C-6.34 26.98 -5.68 28.96 -5 31 C-4.01 31 -3.02 31 -2 31 C-1.16046733 27.80095012 -1.16046733 27.80095012 -2 24 C-5.06558848 21.21856589 -8.46746677 19.13763549 -12 17 C-13.72584734 15.27415266 -13.2533507 13.03790633 -13.3125 10.6875 C-13.27814136 5.38939791 -13.27814136 5.38939791 -11.125 2.375 C-7.20594793 -0.16085722 -4.71847066 -0.47184707 0 0 Z " fill="#135390" transform="translate(53,100)"/>
<path d="M0 0 C6.46473458 -0.93427227 11.01373105 2.28268767 16.375 5.4375 C17.30183594 5.93443359 18.22867188 6.43136719 19.18359375 6.94335938 C21.78722867 8.46757864 23.91788446 9.81326416 26 12 C26.78109962 15.155617 26.61784467 17.82652511 26 21 C21.85519549 19.53172977 18.5020717 17.47259023 14.875 15 C13.84117188 14.29875 12.80734375 13.5975 11.7421875 12.875 C10.83726563 12.25625 9.93234375 11.6375 9 11 C8.01 10.34 7.02 9.68 6 9 C6 17.91 6 26.82 6 36 C3.36 36 0.72 36 -2 36 C-2 24.78 -2 13.56 -2 2 C-1.34 2 -0.68 2 0 2 C0 1.34 0 0.68 0 0 Z " fill="#48495C" transform="translate(52,54)"/>
<path d="M0 0 C2.31 0.33 4.62 0.66 7 1 C8.25 7.625 8.25 7.625 6 11 C6.99 10.67 7.98 10.34 9 10 C9 6.7 9 3.4 9 0 C10.32 0 11.64 0 13 0 C13.33 0.66 13.66 1.32 14 2 C14.33 1.34 14.66 0.68 15 0 C15.99 0 16.98 0 18 0 C18.33 1.65 18.66 3.3 19 5 C19.66 5 20.32 5 21 5 C21.33 4.01 21.66 3.02 22 2 C21.01 2 20.02 2 19 2 C19 1.34 19 0.68 19 0 C21.64 0 24.28 0 27 0 C27 0.66 27 1.32 27 2 C26.34 2 25.68 2 25 2 C25.01160156 2.75925781 25.02320312 3.51851562 25.03515625 4.30078125 C25.04417969 5.29464844 25.05320312 6.28851563 25.0625 7.3125 C25.07410156 8.29863281 25.08570312 9.28476562 25.09765625 10.30078125 C25 13 25 13 24 16 C23.01 16 22.02 16 21 16 C21 16.66 21 17.32 21 18 C22.32 18 23.64 18 25 18 C25 18.66 25 19.32 25 20 C21.04 20 17.08 20 13 20 C12.67 19.34 12.34 18.68 12 18 C11.67 18.66 11.34 19.32 11 20 C10.319375 19.814375 9.63875 19.62875 8.9375 19.4375 C5.8744131 18.83377513 5.8744131 18.83377513 2.3125 19.5625 C0.6728125 19.7790625 0.6728125 19.7790625 -1 20 C-3 18 -3 18 -3.375 15.625 C-2.89262388 12.24836718 -1.55541504 11.15613144 1 9 C0.34 8.34 -0.32 7.68 -1 7 C-0.625 3.375 -0.625 3.375 0 0 Z " fill="#C6C7D1" transform="translate(101,30)"/>
<path d="M0 0 C2.31 0 4.62 0 7 0 C7.07405295 4.80546679 7.12855497 9.6106029 7.16479492 14.41650391 C7.17989911 16.05197941 7.20038389 17.68741429 7.22631836 19.32275391 C7.26263145 21.67100024 7.27970932 24.01871205 7.29296875 26.3671875 C7.30845261 27.10057343 7.32393646 27.83395935 7.33988953 28.58956909 C7.34057617 30.65185547 7.34057617 30.65185547 7 34 C4 36 4 36 1.8203125 35.93359375 C-2.23277015 34.59192235 -5.55889688 32.37819356 -9.125 30.0625 C-9.84042969 29.60681641 -10.55585937 29.15113281 -11.29296875 28.68164062 C-14.21536025 26.81622624 -17.11519463 24.92320358 -20 23 C-20.40843923 20.28796348 -20.13336867 17.7562858 -20 15 C-15.77041433 16.51566766 -12.09097531 18.6704641 -8.3125 21.0625 C-4.23374532 23.66635416 -4.23374532 23.66635416 0 26 C0 17.42 0 8.84 0 0 Z " fill="#0E5593" transform="translate(81,54)"/>
<path d="M0 0 C2.31 0 4.62 0 7 0 C7 15.84 7 31.68 7 48 C4.69 48 2.38 48 0 48 C0 32.16 0 16.32 0 0 Z " fill="#175893" transform="translate(26,89)"/>
<path d="M0 0 C0.99 0.66 1.98 1.32 3 2 C3.042721 3.66611905 3.04063832 5.33382885 3 7 C3.99 8.485 3.99 8.485 5 10 C4.34 10.391875 3.68 10.78375 3 11.1875 C0.72670721 12.84916802 0.72670721 12.84916802 0.6875 15.625 C0.74843946 17.95137906 0.74843946 17.95137906 2 19 C4.33297433 19.04092937 6.66705225 19.04241723 9 19 C9 16.69 9 14.38 9 12 C9.33 12 9.66 12 10 12 C10 14.64 10 17.28 10 20 C11.32 20 12.64 20 14 20 C14.33 19.01 14.66 18.02 15 17 C15.33 17.99 15.66 18.98 16 20 C16.99 20 17.98 20 19 20 C19 17.03 19 14.06 19 11 C19.33 11 19.66 11 20 11 C20 13.97 20 16.94 20 20 C21.98 20 23.96 20 26 20 C25.34 21.65 24.68 23.3 24 25 C23.31373535 24.98952637 22.6274707 24.97905273 21.92041016 24.96826172 C18.82197711 24.92678126 15.72360239 24.90069931 12.625 24.875 C11.54476562 24.85824219 10.46453125 24.84148438 9.3515625 24.82421875 C7.8046875 24.81455078 7.8046875 24.81455078 6.2265625 24.8046875 C5.27346191 24.79421387 4.32036133 24.78374023 3.33837891 24.77294922 C0.8076787 24.76868133 0.8076787 24.76868133 -1 27 C-1.24501495 29.43176397 -1.37324921 31.75864884 -1.4140625 34.1953125 C-1.43342865 34.90275604 -1.4527948 35.61019958 -1.4727478 36.33908081 C-1.53257652 38.60093085 -1.57894101 40.8628317 -1.625 43.125 C-1.66317686 44.6575744 -1.70222842 46.19012728 -1.7421875 47.72265625 C-1.83828039 51.48159624 -1.92229849 55.24063668 -2 59 C-2.33 59 -2.66 59 -3 59 C-3.33 49.1 -3.66 39.2 -4 29 C-4.66 29 -5.32 29 -6 29 C-5.79375 28.2575 -5.5875 27.515 -5.375 26.75 C-4.95591249 23.67669159 -5.38050989 22.57213134 -7 20 C-6.01 18.515 -6.01 18.515 -5 17 C-4.67 17.66 -4.34 18.32 -4 19 C-3.01 19.33 -2.02 19.66 -1 20 C-1.33 17.36 -1.66 14.72 -2 12 C-3.65 11.67 -5.3 11.34 -7 11 C-6.67 10.34 -6.34 9.68 -6 9 C-4.02 9 -2.04 9 0 9 C0 6.03 0 3.06 0 0 Z " fill="#F2F3F6" transform="translate(98,30)"/>
<path d="M0 0 C2.31 0 4.62 0 7 0 C7 11.88 7 23.76 7 36 C4.69 36 2.38 36 0 36 C0 24.12 0 12.24 0 0 Z " fill="#08539A" transform="translate(65,101)"/>
<path d="M0 0 C2.31 0 4.62 0 7 0 C7 11.88 7 23.76 7 36 C4.69 36 2.38 36 0 36 C0 24.12 0 12.24 0 0 Z " fill="#272A40" transform="translate(36,54)"/>
<path d="M0 0 C0.66 0 1.32 0 2 0 C2.33 0.66 2.66 1.32 3 2 C4.65 1.34 6.3 0.68 8 0 C8 3.506816 7.88978095 7.00702355 7.78125 10.51171875 C7.74795593 11.60405571 7.74795593 11.60405571 7.71398926 12.71846008 C7.64308616 15.04148666 7.57155101 17.36449329 7.5 19.6875 C7.45178125 21.2636706 7.40360367 22.83984246 7.35546875 24.41601562 C7.2374567 28.27735853 7.11887783 32.13868366 7 36 C6.401875 36.12375 5.80375 36.2475 5.1875 36.375 C2.73768652 36.95475985 2.73768652 36.95475985 0 39 C0 26.13 0 13.26 0 0 Z " fill="#DCEBF3" transform="translate(72,101)"/>
<path d="M0 0 C1.2684375 0.12375 1.2684375 0.12375 2.5625 0.25 C3.2225 1.24 3.8825 2.23 4.5625 3.25 C2.9125 2.92 1.2625 2.59 -0.4375 2.25 C-0.4375 3.57 -0.4375 4.89 -0.4375 6.25 C1.2125 5.92 2.8625 5.59 4.5625 5.25 C4.8925 3.6 5.2225 1.95 5.5625 0.25 C6.8825 0.25 8.2025 0.25 9.5625 0.25 C9.5625 2.23 9.5625 4.21 9.5625 6.25 C10.8825 6.25 12.2025 6.25 13.5625 6.25 C13.5625 7.24 13.5625 8.23 13.5625 9.25 C16.5325 9.25 19.5025 9.25 22.5625 9.25 C22.2325 10.9 21.9025 12.55 21.5625 14.25 C20.9025 14.25 20.2425 14.25 19.5625 14.25 C19.5625 13.26 19.5625 12.27 19.5625 11.25 C18.5725 11.25 17.5825 11.25 16.5625 11.25 C16.2325 13.56 15.9025 15.87 15.5625 18.25 C15.2325 18.25 14.9025 18.25 14.5625 18.25 C14.5625 15.94 14.5625 13.63 14.5625 11.25 C13.5725 11.25 12.5825 11.25 11.5625 11.25 C11.5625 13.23 11.5625 15.21 11.5625 17.25 C10.9025 17.25 10.2425 17.25 9.5625 17.25 C9.5625 15.27 9.5625 13.29 9.5625 11.25 C8.2425 11.25 6.9225 11.25 5.5625 11.25 C5.5625 13.56 5.5625 15.87 5.5625 18.25 C2.5625 14.625 2.5625 14.625 2.5625 11.25 C1.2425 11.25 -0.0775 11.25 -1.4375 11.25 C-1.7675 12.9 -2.0975 14.55 -2.4375 16.25 C-3.4275 16.25 -4.4175 16.25 -5.4375 16.25 C-5.4375 15.59 -5.4375 14.93 -5.4375 14.25 C-6.0975 14.25 -6.7575 14.25 -7.4375 14.25 C-7.4375 13.26 -7.4375 12.27 -7.4375 11.25 C-6.7259375 10.63125 -6.7259375 10.63125 -6 10 C-3.66611539 7.38604924 -3.8154473 4.65152572 -3.4375 1.25 C-2.4375 0.25 -2.4375 0.25 0 0 Z " fill="#F5F6F9" transform="translate(53.4375,29.75)"/>
<path d="M0 0 C1.65 0.33 3.3 0.66 5 1 C5 10.9 5 20.8 5 31 C7.31 31 9.62 31 12 31 C11.67 31.99 11.34 32.98 11 34 C8.66666667 34 6.33333333 34 4 34 C2.31201173 35.43750191 2.31201173 35.43750191 1 37 C0.34 35.35 -0.32 33.7 -1 32 C-2.98 32.495 -2.98 32.495 -5 33 C-5 32.34 -5 31.68 -5 31 C-3.68 31 -2.36 31 -1 31 C-1.00523682 30.09644775 -1.01047363 29.19289551 -1.01586914 28.26196289 C-1.03287686 24.92048511 -1.04543333 21.57905308 -1.05493164 18.23754883 C-1.05997101 16.78929927 -1.06680253 15.34105483 -1.07543945 13.89282227 C-1.08752247 11.81525412 -1.09323211 9.73775303 -1.09765625 7.66015625 C-1.10289307 6.40855713 -1.10812988 5.15695801 -1.11352539 3.86743164 C-1 1 -1 1 0 0 Z " fill="#EEF9FC" transform="translate(99,106)"/>
<path d="M0 0 C1.32 0 2.64 0 4 0 C4.33 0.66 4.66 1.32 5 2 C5.33 1.34 5.66 0.68 6 0 C6.99 0 7.98 0 9 0 C9.33 1.65 9.66 3.3 10 5 C10.66 5 11.32 5 12 5 C12.33 4.01 12.66 3.02 13 2 C12.01 2 11.02 2 10 2 C10 1.34 10 0.68 10 0 C12.64 0 15.28 0 18 0 C18 0.66 18 1.32 18 2 C17.34 2 16.68 2 16 2 C16.01160156 2.75925781 16.02320312 3.51851562 16.03515625 4.30078125 C16.04417969 5.29464844 16.05320312 6.28851563 16.0625 7.3125 C16.07410156 8.29863281 16.08570312 9.28476562 16.09765625 10.30078125 C16 13 16 13 15 16 C14.01 16 13.02 16 12 16 C12 16.66 12 17.32 12 18 C13.32 18 14.64 18 16 18 C16 18.66 16 19.32 16 20 C13.36 20 10.72 20 8 20 C8 17.03 8 14.06 8 11 C6.68 11 5.36 11 4 11 C3.67 11.99 3.34 12.98 3 14 C0.19954377 10.85408067 -0.35261589 8.932936 -0.1875 4.75 C-0.16042969 3.85796875 -0.13335937 2.9659375 -0.10546875 2.046875 C-0.07066406 1.37140625 -0.03585938 0.6959375 0 0 Z " fill="#F8F9FD" transform="translate(110,30)"/>
<path d="M0 0 C12.375 0 12.375 0 16 3 C15.6875 6.375 15.6875 6.375 15 10 C11.79619983 12.13586678 10.98060033 12.23132175 7.3125 12.125 C6.50425781 12.10695313 5.69601563 12.08890625 4.86328125 12.0703125 C3.94095703 12.03550781 3.94095703 12.03550781 3 12 C3 13.98 3 15.96 3 18 C2.34 18 1.68 18 1 18 C1 21.96 1 25.92 1 30 C0.67 30 0.34 30 0 30 C0 20.1 0 10.2 0 0 Z " fill="#ECEDF0" transform="translate(104,60)"/>
<path d="M0 0 C1.67542976 0.28604898 3.34385343 0.61781233 5 1 C5.04938628 5.23582327 5.08571263 9.47149465 5.10986328 13.70751953 C5.11992963 15.14895547 5.1335838 16.59037095 5.15087891 18.03173828 C5.17510012 20.10193934 5.18647641 22.17187076 5.1953125 24.2421875 C5.20578613 25.4885498 5.21625977 26.73491211 5.22705078 28.01904297 C5 31 5 31 3 33 C-0.50935186 33 -3.56484998 32.62457273 -7 32 C-7 31.67 -7 31.34 -7 31 C-5.02 31 -3.04 31 -1 31 C-1.00523682 30.09644775 -1.01047363 29.19289551 -1.01586914 28.26196289 C-1.03287686 24.92048511 -1.04543333 21.57905308 -1.05493164 18.23754883 C-1.05997101 16.78929927 -1.06680253 15.34105483 -1.07543945 13.89282227 C-1.08752247 11.81525412 -1.09323211 9.73775303 -1.09765625 7.66015625 C-1.10289307 6.40855713 -1.10812988 5.15695801 -1.11352539 3.86743164 C-1 1 -1 1 0 0 Z " fill="#F5FDFD" transform="translate(86,106)"/>
<path d="M0 0 C0.33 1.65 0.66 3.3 1 5 C-0.98 5.66 -2.96 6.32 -5 7 C-5 9.64 -5 12.28 -5 15 C-3.68 14.67 -2.36 14.34 -1 14 C-0.67 11.36 -0.34 8.72 0 6 C0.66 6 1.32 6 2 6 C2 5.34 2 4.68 2 4 C2.66 4 3.32 4 4 4 C4.33 3.34 4.66 2.68 5 2 C5.10823773 4.24893954 5.18569645 6.49937575 5.25 8.75 C5.29640625 10.00296875 5.3428125 11.2559375 5.390625 12.546875 C5 16 5 16 3.3125 18.46875 C0.42806264 20.37871528 -0.87457529 20.2829618 -4.25 19.75 C-5.14203125 19.62109375 -6.0340625 19.4921875 -6.953125 19.359375 C-7.62859375 19.24078125 -8.3040625 19.1221875 -9 19 C-10.80362003 15.16730743 -11.44078194 12.23150665 -11 8 C-8.33044475 2.53376782 -6.33000554 -0.51324369 0 0 Z " fill="#0E5798" transform="translate(130,116)"/>
<path d="M0 0 C1.32 0 2.64 0 4 0 C4.66 1.65 5.32 3.3 6 5 C6.33 3.35 6.66 1.7 7 0 C8.32 0 9.64 0 11 0 C11 1.98 11 3.96 11 6 C11.66 6 12.32 6 13 6 C13 4.02 13 2.04 13 0 C13.99 0 14.98 0 16 0 C16.33 1.65 16.66 3.3 17 5 C17.66 4.34 18.32 3.68 19 3 C19.33 4.32 19.66 5.64 20 7 C18.906875 7.433125 17.81375 7.86625 16.6875 8.3125 C13.83725802 9.52013265 12.14112633 10.75691527 10 13 C6.75130556 14.29947778 4.34525221 13.83631305 1 13 C0.67 12.01 0.34 11.02 0 10 C-0.99 9.67 -1.98 9.34 -3 9 C-2.01 6.03 -1.02 3.06 0 0 Z " fill="#E9EAED" transform="translate(52,41)"/>
<path d="M0 0 C0.33 0 0.66 0 1 0 C1 10.56 1 21.12 1 32 C-0.98 32 -2.96 32 -5 32 C-5 22.43 -5 12.86 -5 3 C-4.67 3.66 -4.34 4.32 -4 5 C-2.68 5 -1.36 5 0 5 C0 3.35 0 1.7 0 0 Z " fill="#065498" transform="translate(97,105)"/>
<path d="M0 0 C0.33 0 0.66 0 1 0 C1 10.56 1 21.12 1 32 C2.98 32 4.96 32 7 32 C5.35 31.67 3.7 31.34 2 31 C1.82528618 27.27142795 1.71901274 23.54391041 1.625 19.8125 C1.57472656 18.75740234 1.52445312 17.70230469 1.47265625 16.61523438 C1.45332031 15.59365234 1.43398437 14.57207031 1.4140625 13.51953125 C1.3826416 12.58214111 1.3512207 11.64475098 1.31884766 10.67895508 C2 8 2 8 8 3 C8 12.9 8 22.8 8 33 C5.36 33 2.72 33 0 33 C0 22.11 0 11.22 0 0 Z " fill="#32374B" transform="translate(96,57)"/>
<path d="M0 0 C1.57043101 0.01330874 3.14079971 0.03717648 4.7109375 0.0703125 C5.51273438 0.07933594 6.31453125 0.08835938 7.140625 0.09765625 C9.12252273 0.12125027 11.10426731 0.15712185 13.0859375 0.1953125 C13.0859375 0.8553125 13.0859375 1.5153125 13.0859375 2.1953125 C12.0959375 2.5253125 11.1059375 2.8553125 10.0859375 3.1953125 C10.0859375 2.5353125 10.0859375 1.8753125 10.0859375 1.1953125 C8.11057005 1.54317958 8.11057005 1.54317958 6.0859375 2.1953125 C5.7559375 2.8553125 5.4259375 3.5153125 5.0859375 4.1953125 C7.3959375 4.1953125 9.7059375 4.1953125 12.0859375 4.1953125 C12.0859375 4.8553125 12.0859375 5.5153125 12.0859375 6.1953125 C8.1259375 6.1953125 4.1659375 6.1953125 0.0859375 6.1953125 C-0.2440625 7.1853125 -0.5740625 8.1753125 -0.9140625 9.1953125 C-1.9040625 9.8553125 -2.8940625 10.5153125 -3.9140625 11.1953125 C-4.42310634 13.6110238 -4.42310634 13.6110238 -4.42578125 16.421875 C-4.46123047 17.453125 -4.49667969 18.484375 -4.53320312 19.546875 C-4.55576172 20.62710938 -4.57832031 21.70734375 -4.6015625 22.8203125 C-4.63572266 23.90828125 -4.66988281 24.99625 -4.70507812 26.1171875 C-4.78774584 28.80979313 -4.85683337 31.50206541 -4.9140625 34.1953125 C-3.5940625 34.1953125 -2.2740625 34.1953125 -0.9140625 34.1953125 C-0.9140625 26.2753125 -0.9140625 18.3553125 -0.9140625 10.1953125 C-0.5840625 10.1953125 -0.2540625 10.1953125 0.0859375 10.1953125 C0.0859375 18.4453125 0.0859375 26.6953125 0.0859375 35.1953125 C-1.8940625 35.1953125 -3.8740625 35.1953125 -5.9140625 35.1953125 C-5.96343529 30.53224236 -5.99976877 25.86932377 -6.02392578 21.20605469 C-6.03399438 19.61911367 -6.04765017 18.03219125 -6.06494141 16.4453125 C-6.08915251 14.16662003 -6.10053672 11.88817244 -6.109375 9.609375 C-6.11969757 8.89786285 -6.13002014 8.18635071 -6.14065552 7.45327759 C-6.14105672 5.69899585 -6.03608459 3.94534541 -5.9140625 2.1953125 C-3.9140625 0.1953125 -3.9140625 0.1953125 0 0 Z " fill="#24273D" transform="translate(102.9140625,53.8046875)"/>
<path d="M0 0 C6.03904179 2.31926095 12.00284006 4.82396963 17 9 C18.01508091 12.21357272 17.79520971 14.75289367 17 18 C12.90973251 16.53865213 9.54123903 14.53964183 5.9375 12.125 C4.91527344 11.44695312 3.89304687 10.76890625 2.83984375 10.0703125 C0.28744986 8.20955767 -1.847733 6.30194504 -4 4 C-3.34 3.34 -2.68 2.68 -2 2 C-1.01 2.33 -0.02 2.66 1 3 C0.34 2.34 -0.32 1.68 -1 1 C-0.67 0.67 -0.34 0.34 0 0 Z " fill="#2E3349" transform="translate(61,57)"/>
<path d="M0 0 C0.66 0.33 1.32 0.66 2 1 C1.67 1.33 1.34 1.66 1 2 C0.92773498 3.85287502 0.9161878 5.70833878 0.9375 7.5625 C0.94652344 8.57441406 0.95554688 9.58632812 0.96484375 10.62890625 C0.97644531 11.41136719 0.98804688 12.19382812 1 13 C1.33 12.34 1.66 11.68 2 11 C2.66 11 3.32 11 4 11 C4.33 10.01 4.66 9.02 5 8 C5 16.58 5 25.16 5 34 C3.02 34 1.04 34 -1 34 C-1.02465288 29.31860746 -1.04283739 24.63725241 -1.05493164 19.95581055 C-1.05997157 18.36205386 -1.0668035 16.76830181 -1.07543945 15.17456055 C-1.08751999 12.88849747 -1.09323155 10.60249533 -1.09765625 8.31640625 C-1.10281754 7.59973282 -1.10797882 6.88305939 -1.11329651 6.14466858 C-1.11349263 4.42936328 -1.06192007 2.71418734 -1 1 C-0.67 0.67 -0.34 0.34 0 0 Z " fill="#202639" transform="translate(52,55)"/>
<path d="M0 0 C0.99 0.33 1.98 0.66 3 1 C2.01 2.485 2.01 2.485 1 4 C0.54860541 6.0492094 0.54860541 6.0492094 0.375 8.1875 C0.25125 9.445625 0.1275 10.70375 0 12 C2.31 12 4.62 12 7 12 C7 10.02 7 8.04 7 6 C8.65614657 5.61781233 10.32457024 5.28604898 12 5 C13 6 13 6 13.09765625 7.84765625 C13.06510417 9.8984375 13.03255208 11.94921875 13 14 C12.22914063 14.33773437 11.45828125 14.67546875 10.6640625 15.0234375 C9.15972656 15.69246094 9.15972656 15.69246094 7.625 16.375 C6.62726563 16.81585938 5.62953125 17.25671875 4.6015625 17.7109375 C1.91977521 18.86712444 1.91977521 18.86712444 0 21 C-0.33 20.34 -0.66 19.68 -1 19 C-1.99 19.33 -2.98 19.66 -4 20 C-3.67 17.36 -3.34 14.72 -3 12 C-2.34 12 -1.68 12 -1 12 C-1.01160156 11.30132812 -1.02320312 10.60265625 -1.03515625 9.8828125 C-1.04417969 8.97273438 -1.05320312 8.06265625 -1.0625 7.125 C-1.07410156 6.22007813 -1.08570312 5.31515625 -1.09765625 4.3828125 C-1 2 -1 2 0 0 Z " fill="#ECF6F9" transform="translate(117,101)"/>
<path d="M0 0 C1.51077107 3.910231 2.11577494 6.01027556 1 10 C0.84861775 12.90668312 0.74356343 15.79458636 0.68359375 18.703125 C0.66281265 19.54091492 0.64203156 20.37870483 0.62062073 21.24188232 C0.5553745 23.91117356 0.49635642 26.58056098 0.4375 29.25 C0.39429106 31.06250984 0.35067601 32.87501005 0.30664062 34.6875 C0.19971871 39.12490209 0.09838134 43.56240068 0 48 C-0.33 48 -0.66 48 -1 48 C-1 36.12 -1 24.24 -1 12 C-3.31 12 -5.62 12 -8 12 C-8 11.01 -8 10.02 -8 9 C-8.061875 8.01 -8.12375 7.02 -8.1875 6 C-8 3 -8 3 -6.8125 1.125 C-4.43963721 -0.34781139 -2.74086056 -0.22223194 0 0 Z " fill="#CED6D9" transform="translate(44,42)"/>
<path d="M0 0 C2.5625 0.1875 2.5625 0.1875 4.5625 2.1875 C5.74527672 8.67417484 5.68109533 15.11140126 5.625 21.6875 C5.62048828 22.70070313 5.61597656 23.71390625 5.61132812 24.7578125 C5.59964593 27.23443827 5.58326582 29.71093657 5.5625 32.1875 C4.2425 32.1875 2.9225 32.1875 1.5625 32.1875 C1.54848145 30.93876099 1.54848145 30.93876099 1.53417969 29.66479492 C1.49013634 26.57247711 1.42851225 23.48115054 1.35498047 20.3894043 C1.31291351 18.39460869 1.29112136 16.39941918 1.26953125 14.40429688 C1.23730469 13.15068359 1.20507812 11.89707031 1.171875 10.60546875 C1.15092773 9.44813232 1.12998047 8.2907959 1.10839844 7.09838867 C0.83782735 4.06763147 0.83782735 4.06763147 -1.47558594 2.28637695 C-2.12301758 1.92374756 -2.77044922 1.56111816 -3.4375 1.1875 C-2.4375 0.1875 -2.4375 0.1875 0 0 Z " fill="#065499" transform="translate(103.4375,101.8125)"/>
<path d="M0 0 C2.31 0 4.62 0 7 0 C7 11.88 7 23.76 7 36 C4.69 36 2.38 36 0 36 C0 24.12 0 12.24 0 0 Z M3 2 C1.66003068 3.11347596 1.66003068 3.11347596 1.88647461 5.95922852 C1.89171143 7.25272217 1.89694824 8.54621582 1.90234375 9.87890625 C1.9037587 10.5655687 1.90517365 11.25223114 1.90663147 11.95970154 C1.91224521 14.16067801 1.92479993 16.36155409 1.9375 18.5625 C1.94251324 20.05143083 1.94707645 21.54036324 1.95117188 23.02929688 C1.96221907 26.68623075 1.97949287 30.34310558 2 34 C3.32 34 4.64 34 6 34 C6 23.44 6 12.88 6 2 C5.01 2 4.02 2 3 2 Z " fill="#2B5C89" transform="translate(65,101)"/>
<path d="M0 0 C1.32 0.66 2.64 1.32 4 2 C4 2.99 4 3.98 4 5 C4.01160156 5.72316406 4.02320313 6.44632812 4.03515625 7.19140625 C4.04869141 8.36509766 4.04869141 8.36509766 4.0625 9.5625 C4.07410156 10.34753906 4.08570313 11.13257812 4.09765625 11.94140625 C4 14 4 14 3 16 C2.34 16 1.68 16 1 16 C1 16.66 1 17.32 1 18 C0.34 18 -0.32 18 -1 18 C-0.95875 19.27875 -0.9175 20.5575 -0.875 21.875 C-0.8046875 24.0546875 -0.8046875 24.0546875 -1 26 C-1.66 26.66 -2.32 27.32 -3 28 C-5.125 27.625 -5.125 27.625 -7 27 C-7 24.36 -7 21.72 -7 19 C-4.35261084 17.5393715 -3.10551666 17 0 17 C-0.34444881 14.52733235 -0.34444881 14.52733235 -1 12 C-1.66 11.67 -2.32 11.34 -3 11 C-2.34 10.67 -1.68 10.34 -1 10 C-0.53248212 7.64400765 -0.53248212 7.64400765 -0.375 4.9375 C-0.26285156 3.55884766 -0.26285156 3.55884766 -0.1484375 2.15234375 C-0.09945312 1.44207031 -0.05046875 0.73179688 0 0 Z " fill="#0E5192" transform="translate(131,104)"/>
<path d="M0 0 C0.33 0 0.66 0 1 0 C1.16743288 5.23256222 1.328011 10.46527227 1.48217773 15.69824219 C1.5356202 17.47922457 1.59095129 19.26015131 1.64819336 21.04101562 C1.73004181 23.59753417 1.8051453 26.15417445 1.87890625 28.7109375 C1.90594131 29.50994476 1.93297638 30.30895203 1.96083069 31.13217163 C2.11387171 36.77225659 2.11387171 36.77225659 1 39 C0.06966421 44.27357684 -0.20106032 49.44088282 -0.31640625 54.77734375 C-0.33718735 55.58869278 -0.35796844 56.40004181 -0.37937927 57.23597717 C-0.44425643 59.80307339 -0.50346922 62.37026337 -0.5625 64.9375 C-0.60574418 66.68816036 -0.64936026 68.43881158 -0.69335938 70.18945312 C-0.7998735 74.45954171 -0.90131114 78.72972368 -1 83 C-1.33 83 -1.66 83 -2 83 C-2 67.16 -2 51.32 -2 35 C-4.31 35 -6.62 35 -9 35 C-9 34.34 -9 33.68 -9 33 C-6.36 32.34 -3.72 31.68 -1 31 C-0.67 20.77 -0.34 10.54 0 0 Z " fill="#D1E3F1" transform="translate(35,54)"/>
<path d="M0 0 C0.33 0 0.66 0 1 0 C1 2.64 1 5.28 1 8 C1.99 8 2.98 8 4 8 C4.02686553 9.97909398 4.04633375 11.95828971 4.0625 13.9375 C4.07410156 15.03964844 4.08570312 16.14179687 4.09765625 17.27734375 C4 20 4 20 3 21 C2.91152257 23.52094076 2.88472699 26.01430893 2.90234375 28.53515625 C2.90446617 29.66503212 2.90446617 29.66503212 2.90663147 30.81773376 C2.91224624 33.2326956 2.92480117 35.64756601 2.9375 38.0625 C2.9425131 39.69596221 2.94707634 41.32942586 2.95117188 42.96289062 C2.96222046 46.97529585 2.97949494 50.98763241 3 55 C2.67 55 2.34 55 2 55 C2 44.44 2 33.88 2 23 C-0.31 23 -2.62 23 -5 23 C-3.03617993 21.49440461 -1.21736634 20.10868317 1 19 C1 18.34 1 17.68 1 17 C-0.32 17 -1.64 17 -3 17 C-3 16.34 -3 15.68 -3 15 C-2.01 15 -1.02 15 0 15 C0 14.34 0 13.68 0 13 C-0.99 12.67 -1.98 12.34 -3 12 C-1.68 12 -0.36 12 1 12 C1 11.34 1 10.68 1 10 C-1.31 10 -3.62 10 -6 10 C-6.33 10.99 -6.66 11.98 -7 13 C-7 11.35 -7 9.7 -7 8 C-6.34 8 -5.68 8 -5 8 C-4.67 7.01 -4.34 6.02 -4 5 C-4 5.99 -4 6.98 -4 8 C-2.68 8 -1.36 8 0 8 C-0.2784375 6.2984375 -0.2784375 6.2984375 -0.5625 4.5625 C-0.706875 3.386875 -0.85125 2.21125 -1 1 C-0.67 0.67 -0.34 0.34 0 0 Z " fill="#BFCFE2" transform="translate(86,31)"/>
<path d="M0 0 C0.33 0 0.66 0 1 0 C1.33 4.62 1.66 9.24 2 14 C3.32 13.67 4.64 13.34 6 13 C6.02578125 13.75925781 6.0515625 14.51851562 6.078125 15.30078125 C6.13484375 16.29464844 6.1915625 17.28851563 6.25 18.3125 C6.29640625 19.29863281 6.3428125 20.28476563 6.390625 21.30078125 C6.77000792 24.08421076 6.77000792 24.08421076 8.78125 25.8125 C12.19525575 27.63971434 15.16061085 27.6800509 19 28 C17.3125 29.5625 17.3125 29.5625 15 31 C12.25 30.6875 12.25 30.6875 10 30 C10 29.34 10 28.68 10 28 C8.35 27.67 6.7 27.34 5 27 C5 26.34 5 25.68 5 25 C4.01 25 3.02 25 2 25 C1.34 25.99 0.68 26.98 0 28 C0 18.76 0 9.52 0 0 Z " fill="#E9FCFD" transform="translate(111,109)"/>
<path d="M0 0 C3.63 1.98 7.26 3.96 11 6 C9.68 6.33 8.36 6.66 7 7 C5.89163577 8.88316159 5.89163577 8.88316159 5 11 C3.8125 12.8125 3.8125 12.8125 2 14 C-1.6875 13.6875 -1.6875 13.6875 -5 13 C-5 10.69 -5 8.38 -5 6 C-1.535 5.505 -1.535 5.505 2 5 C2 4.34 2 3.68 2 3 C1.34 3 0.68 3 0 3 C0 2.01 0 1.02 0 0 Z " fill="#DBEBF6" transform="translate(69,82)"/>
<path d="M0 0 C0.33 0 0.66 0 1 0 C0.95617188 0.64066406 0.91234375 1.28132813 0.8671875 1.94140625 C0.87601186 4.90197858 1.07248924 7.17642743 2 10 C5.01610813 12.92218089 8.36198536 14.93466877 12 17 C13 18 13 18 13.0625 21.5625 C13.041875 22.696875 13.02125 23.83125 13 25 C11.125 25.625 11.125 25.625 9 26 C7 24 7 24 6.875 21.375 C6.91625 20.59125 6.9575 19.8075 7 19 C5.02 19 3.04 19 1 19 C1 20.98 1 22.96 1 25 C0.67 25 0.34 25 0 25 C0 22.69 0 20.38 0 18 C1.32 17.67 2.64 17.34 4 17 C4 16.34 4 15.68 4 15 C3.34515625 14.59136719 2.6903125 14.18273437 2.015625 13.76171875 C0 12 0 12 -0.390625 9.08203125 C-0.34421875 8.00308594 -0.2978125 6.92414063 -0.25 5.8125 C-0.21390625 4.72582031 -0.1778125 3.63914062 -0.140625 2.51953125 C-0.09421875 1.68808594 -0.0478125 0.85664062 0 0 Z " fill="#C9E0EE" transform="translate(39,106)"/>
<path d="M0 0 C11.03483405 5.75320407 11.03483405 5.75320407 13 9 C13.60065388 12.77718882 13.64694558 16.227105 13 20 C11 22.6875 11 22.6875 8 24 C5.23909785 24.29088987 2.79254457 24.18932506 0 24 C0 23.67 0 23.34 0 23 C2.97 22.67 5.94 22.34 9 22 C9 20.35 9 18.7 9 17 C9.66 16.67 10.32 16.34 11 16 C11 13.69 11 11.38 11 9 C9.35 8.67 7.7 8.34 6 8 C6 7.01 6 6.02 6 5 C5.34 5 4.68 5 4 5 C4.33 5.99 4.66 6.98 5 8 C5.99 8.33 6.98 8.66 8 9 C9.25 15.625 9.25 15.625 7 19 C7 16.36 7 13.72 7 11 C6.4225 10.731875 5.845 10.46375 5.25 10.1875 C2.9674132 8.98280141 1.0262058 7.59201885 -1 6 C-0.01 6 0.98 6 2 6 C1.34 4.02 0.68 2.04 0 0 Z " fill="#164F84" transform="translate(46,113)"/>
<path d="M0 0 C1.2684375 0.12375 1.2684375 0.12375 2.5625 0.25 C3.2225 1.24 3.8825 2.23 4.5625 3.25 C2.9125 2.92 1.2625 2.59 -0.4375 2.25 C-0.4375 3.57 -0.4375 4.89 -0.4375 6.25 C1.2125 5.92 2.8625 5.59 4.5625 5.25 C4.8925 3.6 5.2225 1.95 5.5625 0.25 C6.8825 0.25 8.2025 0.25 9.5625 0.25 C9.5625 2.23 9.5625 4.21 9.5625 6.25 C10.8825 6.25 12.2025 6.25 13.5625 6.25 C13.5625 7.24 13.5625 8.23 13.5625 9.25 C11.10387599 9.30383848 8.6464245 9.34359038 6.1875 9.375 C5.13949219 9.40013672 5.13949219 9.40013672 4.0703125 9.42578125 C2.23352514 9.44344267 0.39648037 9.35303261 -1.4375 9.25 C-3.4375 7.25 -3.4375 7.25 -3.625 4.1875 C-3.37983937 0.34665019 -3.37983937 0.34665019 0 0 Z " fill="#A8A8AE" transform="translate(53.4375,29.75)"/>
<path d="M0 0 C2.31 0 4.62 0 7 0 C7 10.56 7 21.12 7 32 C6.67 32 6.34 32 6 32 C6 22.1 6 12.2 6 2 C4.68 2 3.36 2 2 2 C2 9.59 2 17.18 2 25 C1.34 25 0.68 25 0 25 C0 16.75 0 8.5 0 0 Z " fill="#124B82" transform="translate(81,54)"/>
<path d="M0 0 C1.65 0.33 3.3 0.66 5 1 C5 10.9 5 20.8 5 31 C4.67 31 4.34 31 4 31 C3.67 22.42 3.34 13.84 3 5 C2.34 4.67 1.68 4.34 1 4 C0.67 12.91 0.34 21.82 0 31 C-0.33 31 -0.66 31 -1 31 C-1.02465622 26.74585377 -1.04283899 22.49174502 -1.05493164 18.23754883 C-1.05997101 16.78929927 -1.06680253 15.34105483 -1.07543945 13.89282227 C-1.08752247 11.81525412 -1.09323211 9.73775303 -1.09765625 7.66015625 C-1.10289307 6.40855713 -1.10812988 5.15695801 -1.11352539 3.86743164 C-1 1 -1 1 0 0 Z " fill="#BFDCEB" transform="translate(86,106)"/>
<path d="M0 0 C4.70588235 0.70588235 4.70588235 0.70588235 6 2 C6.04063832 3.66617115 6.042721 5.33388095 6 7 C8.31 7 10.62 7 13 7 C12.360625 7.433125 11.72125 7.86625 11.0625 8.3125 C8.73253997 9.91239177 8.73253997 9.91239177 8 13 C4.80667905 11.21326089 1.77692778 9.39334437 -1 7 C-1.625 3.6875 -1.625 3.6875 -1 1 C-0.67 0.67 -0.34 0.34 0 0 Z " fill="#E2F5FB" transform="translate(47,106)"/>
<path d="M0 0 C0.33 0 0.66 0 1 0 C1 10.56 1 21.12 1 32 C-0.98 32 -2.96 32 -5 32 C-5 22.43 -5 12.86 -5 3 C-4.67 3 -4.34 3 -4 3 C-4 11.58 -4 20.16 -4 29 C-2.68 29 -1.36 29 0 29 C0 19.43 0 9.86 0 0 Z " fill="#104B7C" transform="translate(97,105)"/>
<path d="M0 0 C2.97 0.33 5.94 0.66 9 1 C8.67 2.98 8.34 4.96 8 7 C6.68 7 5.36 7 4 7 C3.67 15.91 3.34 24.82 3 34 C2.67 34 2.34 34 2 34 C1.98541748 33.10168457 1.97083496 32.20336914 1.95581055 31.27783203 C1.89480303 27.9489341 1.82066372 24.62087117 1.73754883 21.29248047 C1.70426822 19.85118658 1.67624596 18.40976137 1.65356445 16.96826172 C1.6200738 14.89754203 1.567767 12.82802907 1.51171875 10.7578125 C1.48553467 9.5114502 1.45935059 8.26508789 1.43237305 6.98095703 C1.28968994 5.99724121 1.14700684 5.01352539 1 4 C0.01 3.34 -0.98 2.68 -2 2 C-1.34 2 -0.68 2 0 2 C0 1.34 0 0.68 0 0 Z " fill="#2D679B" transform="translate(89,103)"/>
<path d="M0 0 C0.99 0.33 1.98 0.66 3 1 C2.38125 1.061875 1.7625 1.12375 1.125 1.1875 C-1.17891996 1.81928535 -1.17891996 1.81928535 -2.25 4.0625 C-3.32225557 8.26216765 -3.99574218 13.00851564 -2 17 C0.21774779 17.50826149 0.21774779 17.50826149 2.8125 17.6875 C4.12154297 17.81705078 4.12154297 17.81705078 5.45703125 17.94921875 C7.87044965 17.99741297 9.70736498 17.7107703 12 17 C10.29603331 19.09933151 9.39392968 19.92588781 6.6953125 20.43359375 C2.6597601 20.43972681 -0.37173549 20.26387109 -4.125 18.6875 C-7.10760238 14.41243659 -6.85003766 10.03896201 -6 5 C-4.1031157 2.34436198 -2.85514945 1.42757473 0 0 Z " fill="#1E5283" transform="translate(123,117)"/>
<path d="M0 0 C5.41139241 0.60126582 5.41139241 0.60126582 7.9375 2.3125 C9 4 9 4 8.6875 6.1875 C8.3471875 7.0846875 8.3471875 7.0846875 8 8 C6.329375 7.4740625 6.329375 7.4740625 4.625 6.9375 C1.19735524 5.62760669 1.19735524 5.62760669 -1 7 C-1.66 6.34 -2.32 5.68 -3 5 C-5.57061311 4.35232207 -5.57061311 4.35232207 -8 4 C-7.67 3.01 -7.34 2.02 -7 1 C-4.69 1.33 -2.38 1.66 0 2 C0 1.34 0 0.68 0 0 Z " fill="#2F324A" transform="translate(116,54)"/>
<path d="M0 0 C0.33 0 0.66 0 1 0 C1.06058594 0.89203125 1.12117188 1.7840625 1.18359375 2.703125 C1.26738281 3.87359375 1.35117187 5.0440625 1.4375 6.25 C1.51871094 7.41015625 1.59992187 8.5703125 1.68359375 9.765625 C1.93247787 12.30977376 2.28114942 14.55953248 3 17 C1.68 17 0.36 17 -1 17 C-4.60231259 12.88307133 -4.26360299 9.18419218 -4 4 C-3.01 4 -2.02 4 -1 4 C-0.67 2.68 -0.34 1.36 0 0 Z " fill="#085495" transform="translate(45,102)"/>
<path d="M0 0 C2.4375 2 2.4375 2 4 4 C-0.455 3.01 -0.455 3.01 -5 2 C-5.33 3.65 -5.66 5.3 -6 7 C-6.66 5.68 -7.32 4.36 -8 3 C-8.33 3.99 -8.66 4.98 -9 6 C-9.99 6 -10.98 6 -12 6 C-11.87625 7.27875 -11.7525 8.5575 -11.625 9.875 C-11.55539063 10.59429687 -11.48578125 11.31359375 -11.4140625 12.0546875 C-11.13625251 14.22668245 -11.13625251 14.22668245 -9 16 C-9.33 16.99 -9.66 17.98 -10 19 C-12.25817348 17.22101453 -12.94518912 16.32343358 -13.43359375 13.44140625 C-13.44420368 5.62188516 -13.44420368 5.62188516 -11.125 2.375 C-7.22752931 -0.1468928 -4.68499159 -0.40387859 0 0 Z " fill="#1A5085" transform="translate(53,100)"/>
<path d="M0 0 C6.51292247 -0.25049702 6.51292247 -0.25049702 9.1875 1.125 C10.0846875 1.558125 10.0846875 1.558125 11 2 C12.35085807 1.36959957 13.68252676 0.69748583 15 0 C18.72904587 -0.47604841 20.57133795 -0.21889126 23.9375 1.5 C26 4 26 4 26.0859375 6.046875 C25.8125 8.25 25.8125 8.25 25 12 C24.67 12 24.34 12 24 12 C23.77213542 9.94921875 23.54427083 7.8984375 23.31640625 5.84765625 C23.18113386 3.98859771 23.18113386 3.98859771 22 3 C20.33382885 2.95936168 18.66611905 2.957279 17 3 C17.66 3.66 18.32 4.32 19 5 C12.23784552 4.59060025 6.32837252 3.43046191 0 1 C0 0.67 0 0.34 0 0 Z " fill="#245B8F" transform="translate(84,100)"/>
<path d="M0 0 C1.41875765 0.76697796 2.83491452 1.53876778 4.25 2.3125 C5.03890625 2.74175781 5.8278125 3.17101562 6.640625 3.61328125 C8.89727134 4.9396214 10.93998597 6.38884224 13 8 C12.67 9.32 12.34 10.64 12 12 C7.38 9.03 2.76 6.06 -2 3 C-2 5.64 -2 8.28 -2 11 C-1.34 11.33 -0.68 11.66 0 12 C-0.99 12.33 -1.98 12.66 -3 13 C-3 9.37 -3 5.74 -3 2 C-2.01 2 -1.02 2 0 2 C0 1.34 0 0.68 0 0 Z " fill="#D9E9F2" transform="translate(63,66)"/>
<path d="M0 0 C0.99 0 1.98 0 3 0 C3.33 0.66 3.66 1.32 4 2 C4.33 1.34 4.66 0.68 5 0 C5.99 0 6.98 0 8 0 C8 2.97 8 5.94 8 9 C7.01 9 6.02 9 5 9 C4.67 8.34 4.34 7.68 4 7 C3.67 7.66 3.34 8.32 3 9 C2.01 9 1.02 9 0 9 C0 6.03 0 3.06 0 0 Z " fill="#474956" transform="translate(109,41)"/>
<path d="M0 0 C2.31 0.33 4.62 0.66 7 1 C7.33 3.64 7.66 6.28 8 9 C7.4225 8.814375 6.845 8.62875 6.25 8.4375 C3.69606643 7.7761831 3.69606643 7.7761831 0 9 C0 6.03 0 3.06 0 0 Z " fill="#464A57" transform="translate(89,41)"/>
<path d="M0 0 C0.99 0 1.98 0 3 0 C3.66 0.66 4.32 1.32 5 2 C5.33 1.34 5.66 0.68 6 0 C6.99 0 7.98 0 9 0 C9 2.64 9 5.28 9 8 C6.03 8 3.06 8 0 8 C0 5.36 0 2.72 0 0 Z " fill="#2E3042" transform="translate(88,30)"/>
<path d="M0 0 C0.66 0 1.32 0 2 0 C2 0.99 2 1.98 2 3 C3.65 3.33 5.3 3.66 7 4 C7.33 6.31 7.66 8.62 8 11 C7.01 11.33 6.02 11.66 5 12 C5 13.65 5 15.3 5 17 C3.35 17 1.7 17 0 17 C0.66 13.37 1.32 9.74 2 6 C2.33 6 2.66 6 3 6 C3.33 7.32 3.66 8.64 4 10 C4 8.02 4 6.04 4 4 C2.68 3.67 1.36 3.34 0 3 C0 2.01 0 1.02 0 0 Z " fill="#0D569A" transform="translate(50,118)"/>
<path d="M0 0 C0.66 0.33 1.32 0.66 2 1 C2.05796132 5.10410755 2.09358313 9.20811016 2.125 13.3125 C2.14175781 14.47974609 2.15851563 15.64699219 2.17578125 16.84960938 C2.18222656 17.96787109 2.18867188 19.08613281 2.1953125 20.23828125 C2.20578613 21.26993408 2.21625977 22.30158691 2.22705078 23.36450195 C2 26 2 26 0 29 C-0.66 28.67 -1.32 28.34 -2 28 C-1.67 27.67 -1.34 27.34 -1 27 C-0.90065224 25.31614925 -0.8691995 23.62818403 -0.8671875 21.94140625 C-0.86589844 20.91595703 -0.86460937 19.89050781 -0.86328125 18.83398438 C-0.86714844 17.75439453 -0.87101563 16.67480469 -0.875 15.5625 C-0.87113281 14.48677734 -0.86726562 13.41105469 -0.86328125 12.30273438 C-0.86457031 11.27599609 -0.86585938 10.24925781 -0.8671875 9.19140625 C-0.86831543 8.24467041 -0.86944336 7.29793457 -0.87060547 6.32250977 C-0.84735284 3.97465527 -0.84735284 3.97465527 -2 2 C-1.34 2 -0.68 2 0 2 C0 1.34 0 0.68 0 0 Z " fill="#285E8F" transform="translate(135,105)"/>
<path d="M0 0 C1.32 0.66 2.64 1.32 4 2 C4.33 2.99 4.66 3.98 5 5 C4.01 5 3.02 5 2 5 C2.01160156 5.66644531 2.02320313 6.33289063 2.03515625 7.01953125 C2.10097366 13.74230945 1.72383639 20.317439 1 27 C1.66 27.33 2.32 27.66 3 28 C1.68 28.33 0.36 28.66 -1 29 C-0.67 19.43 -0.34 9.86 0 0 Z " fill="#F0F3F7" transform="translate(58,63)"/>
<path d="M0 0 C0.05399736 1.45792884 0.09279177 2.91642712 0.125 4.375 C0.14820313 5.18710938 0.17140625 5.99921875 0.1953125 6.8359375 C0 9 0 9 -2 11 C-4.125 10.625 -4.125 10.625 -6 10 C-6 7.36 -6 4.72 -6 2 C-2.25 0 -2.25 0 0 0 Z " fill="#D7EEF6" transform="translate(130,121)"/>
<path d="M0 0 C0.99 0 1.98 0 3 0 C3.33 0.66 3.66 1.32 4 2 C4.33 1.34 4.66 0.68 5 0 C5.99 0 6.98 0 8 0 C8 2.97 8 5.94 8 9 C6.68 8.67 5.36 8.34 4 8 C3.67 7.34 3.34 6.68 3 6 C2.67 6.66 2.34 7.32 2 8 C1.34 8 0.68 8 0 8 C0 5.36 0 2.72 0 0 Z " fill="#2B2D3E" transform="translate(111,30)"/>
<path d="M0 0 C1.98 0 3.96 0 6 0 C6 0.99 6 1.98 6 3 C6.99 3.66 7.98 4.32 9 5 C7.68 5 6.36 5 5 5 C5 7.31 5 9.62 5 12 C4.67 11.34 4.34 10.68 4 10 C2.35 10.33 0.7 10.66 -1 11 C-1 9.68 -1 8.36 -1 7 C0.32 7 1.64 7 3 7 C0.525 6.01 0.525 6.01 -2 5 C-1.34 3.35 -0.68 1.7 0 0 Z " fill="#EBEBEE" transform="translate(54,25)"/>
<path d="M0 0 C0.33 1.65 0.66 3.3 1 5 C-0.98 5.66 -2.96 6.32 -5 7 C-5.33 9.31 -5.66 11.62 -6 14 C-6.33 14 -6.66 14 -7 14 C-7 12.35 -7 10.7 -7 9 C-7.66 9 -8.32 9 -9 9 C-8.4 3.6 -8.4 3.6 -6.75 1.125 C-4.41786614 -0.37422891 -2.71628175 -0.22023906 0 0 Z " fill="#195A96" transform="translate(130,116)"/>
<path d="M0 0 C1.32 0 2.64 0 4 0 C5.49821059 3.37097383 6 5.20442119 6 9 C5.01 9 4.02 9 3 9 C3 8.34 3 7.68 3 7 C2.01 7.66 1.02 8.32 0 9 C-0.99 9 -1.98 9 -3 9 C-2.01 6.03 -1.02 3.06 0 0 Z " fill="#42424E" transform="translate(52,41)"/>
<path d="M0 0 C1.32 0.66 2.64 1.32 4 2 C4 2.66 4 3.32 4 4 C5.65 4.33 7.3 4.66 9 5 C9 5.33 9 5.66 9 6 C6.36 6 3.72 6 1 6 C1 6.66 1 7.32 1 8 C1.99 8 2.98 8 4 8 C4 9.98 4 11.96 4 14 C3.67 13.01 3.34 12.02 3 11 C2.01 11.33 1.02 11.66 0 12 C0 10.02 0 8.04 0 6 C-0.99 6 -1.98 6 -3 6 C-3 5.01 -3 4.02 -3 3 C-2.34 3 -1.68 3 -1 3 C-0.67 2.01 -0.34 1.02 0 0 Z " fill="#EEEFF1" transform="translate(119,24)"/>
<path d="M0 0 C0.78375 0.04125 1.5675 0.0825 2.375 0.125 C2.705 1.115 3.035 2.105 3.375 3.125 C2.055 3.125 0.735 3.125 -0.625 3.125 C-0.625 3.455 -0.625 3.785 -0.625 4.125 C0.695 4.125 2.015 4.125 3.375 4.125 C3.045 5.775 2.715 7.425 2.375 9.125 C0 9.25 0 9.25 -2.625 9.125 C-4.625 7.125 -4.625 7.125 -4.875 4.625 C-4.51649553 1.03995533 -3.59522993 0.17120143 0 0 Z " fill="#444457" transform="translate(102.625,40.875)"/>
<path d="M0 0 C0 2.62113708 -0.31292445 4.50935112 -1 7 C-1.639375 6.154375 -2.27875 5.30875 -2.9375 4.4375 C-5.63964169 1.80017021 -5.63964169 1.80017021 -8.23046875 1.890625 C-10.51127141 2.17339988 -12.7425674 2.57303241 -15 3 C-15.99 3 -16.98 3 -18 3 C-18.66 2.34 -19.32 1.68 -20 1 C-13.27777713 -1.657623 -7.07844318 -0.78767638 0 0 Z " fill="#DFF2F8" transform="translate(111,99)"/>
<path d="M0 0 C0.99 0 1.98 0 3 0 C3 1.98 3 3.96 3 6 C3.66 6 4.32 6 5 6 C5 4.02 5 2.04 5 0 C5.99 0 6.98 0 8 0 C8.04241723 2.33294775 8.04092937 4.66702567 8 7 C7 8 7 8 4 8.125 C1 8 1 8 0 7 C-0.04092937 4.66702567 -0.04241723 2.33294775 0 0 Z " fill="#393B45" transform="translate(60,41)"/>
<path d="M0 0 C4.75 1.875 4.75 1.875 7 3 C7 5.97 7 8.94 7 12 C4.525 11.01 4.525 11.01 2 10 C2.04125 9.21625 2.0825 8.4325 2.125 7.625 C2.28728734 4.83883881 2.28728734 4.83883881 0 3 C0 2.01 0 1.02 0 0 Z " fill="#353648" transform="translate(71,63)"/>
<path d="M0 0 C2.31 0 4.62 0 7 0 C6.67 1.65 6.34 3.3 6 5 C5.01 5 4.02 5 3 5 C3 5.66 3 6.32 3 7 C4.32 7 5.64 7 7 7 C7 7.66 7 8.32 7 9 C4.69 9 2.38 9 0 9 C0 6.03 0 3.06 0 0 Z " fill="#3D3D4A" transform="translate(119,41)"/>
<path d="M0 0 C2.31 0 4.62 0 7 0 C6.67 1.65 6.34 3.3 6 5 C5.01 5 4.02 5 3 5 C3 5.66 3 6.32 3 7 C4.32 7 5.64 7 7 7 C7 7.66 7 8.32 7 9 C4.69 9 2.38 9 0 9 C0 6.03 0 3.06 0 0 Z " fill="#393C4A" transform="translate(80,41)"/>
<path d="M0 0 C4.69649201 -0.44029613 8.93123305 0.65931609 13 3 C14.5 5.6875 14.5 5.6875 15 8 C13.7625 7.2575 13.7625 7.2575 12.5 6.5 C9.28029054 5.12012452 8.06473066 4.83467076 4.75 4.9375 C3.5125 4.958125 2.275 4.97875 1 5 C0.34 4.34 -0.32 3.68 -1 3 C-0.67 2.01 -0.34 1.02 0 0 Z " fill="#F0FAFC" transform="translate(121,96)"/>
<path d="M0 0 C1.4540625 0.0309375 1.4540625 0.0309375 2.9375 0.0625 C3.5625 2.4375 3.5625 2.4375 3.9375 5.0625 C3.2775 5.7225 2.6175 6.3825 1.9375 7.0625 C-0.6875 6.6875 -0.6875 6.6875 -3.0625 6.0625 C-3.44468767 4.40635343 -3.77645102 2.73792976 -4.0625 1.0625 C-3.0625 0.0625 -3.0625 0.0625 0 0 Z " fill="#235A8C" transform="translate(69.0625,88.9375)"/>
<path d="M0 0 C4.75 1.875 4.75 1.875 7 3 C7.23926553 9.22090367 6.37191712 11.94212432 3 17 C2.01 16.67 1.02 16.34 0 16 C0.66 15.34 1.32 14.68 2 14 C2.3197241 11.43477611 2.3197241 11.43477611 2.25 8.5625 C2.25515625 7.59441406 2.2603125 6.62632813 2.265625 5.62890625 C2.18386997 2.76853887 2.18386997 2.76853887 0 0 Z " fill="#E3F3F9" transform="translate(56,119)"/>
<path d="M0 0 C0.99 0 1.98 0 3 0 C3 0.99 3 1.98 3 3 C3.66 3 4.32 3 5 3 C5 2.01 5 1.02 5 0 C5.99 0 6.98 0 8 0 C7.34 2.97 6.68 5.94 6 9 C4.68 9 3.36 9 2 9 C1.34 6.03 0.68 3.06 0 0 Z " fill="#484A55" transform="translate(70,41)"/>
<path d="M0 0 C1.98 0 3.96 0 6 0 C6.33 2.64 6.66 5.28 7 8 C6.01 8 5.02 8 4 8 C4 7.01 4 6.02 4 5 C3.34 5 2.68 5 2 5 C2 5.99 2 6.98 2 8 C1.34 8 0.68 8 0 8 C0 5.36 0 2.72 0 0 Z " fill="#353645" transform="translate(78,30)"/>
<path d="M0 0 C0.33 0 0.66 0 1 0 C1.02901401 4.58332006 1.04680348 9.16661651 1.0625 13.75 C1.07087891 15.05195312 1.07925781 16.35390625 1.08789062 17.6953125 C1.09111328 18.94570312 1.09433594 20.19609375 1.09765625 21.484375 C1.10289307 22.63647461 1.10812988 23.78857422 1.11352539 24.97558594 C1.01804485 27.51926964 0.74917261 29.58398313 0 32 C0.99 32.33 1.98 32.66 3 33 C1.68 33 0.36 33 -1 33 C-1.19218929 28.62218616 -1.37092139 24.24409441 -1.53710938 19.86523438 C-1.59556854 18.37517512 -1.65772629 16.88525624 -1.72363281 15.39550781 C-1.81764056 13.25611936 -1.89840682 11.11658132 -1.9765625 8.9765625 C-2.02893066 7.68830566 -2.08129883 6.40004883 -2.13525391 5.07275391 C-2 2 -2 2 0 0 Z " fill="#115691" transform="translate(81,102)"/>
<path d="M0 0 C1.2684375 0.12375 1.2684375 0.12375 2.5625 0.25 C3.2225 1.24 3.8825 2.23 4.5625 3.25 C2.9125 2.92 1.2625 2.59 -0.4375 2.25 C-0.4375 3.57 -0.4375 4.89 -0.4375 6.25 C1.2125 5.92 2.8625 5.59 4.5625 5.25 C4.2325 6.24 3.9025 7.23 3.5625 8.25 C1.56295254 8.29254356 -0.43791636 8.29080783 -2.4375 8.25 C-3.4375 7.25 -3.4375 7.25 -3.5625 4.25 C-3.39994635 0.34871245 -3.39994635 0.34871245 0 0 Z " fill="#33343D" transform="translate(53.4375,29.75)"/>
<path d="M0 0 C1.32 0 2.64 0 4 0 C4 2.31 4 4.62 4 7 C1.69 7 -0.62 7 -3 7 C-2.25 2.25 -2.25 2.25 0 0 Z " fill="#174781" transform="translate(39,42)"/>
<path d="M0 0 C2.475 0.495 2.475 0.495 5 1 C5 3.31 5 5.62 5 8 C3.0625 8.5625 3.0625 8.5625 1 9 C0 8 0 8 -0.09765625 6.15234375 C-0.06510417 4.1015625 -0.03255208 2.05078125 0 0 Z " fill="#F9FAF8" transform="translate(47,123)"/>
<path d="M0 0 C1.67542976 0.28604898 3.34385343 0.61781233 5 1 C5 3.64 5 6.28 5 9 C4.01 9.33 3.02 9.66 2 10 C2 9.34 2 8.68 2 8 C2.66 8 3.32 8 4 8 C3.67 7.01 3.34 6.02 3 5 C2.01 6.32 1.02 7.64 0 9 C-1.36623674 6.26752652 -1.128426 4.01801098 -1 1 C-0.67 0.67 -0.34 0.34 0 0 Z " fill="#D8EEF5" transform="translate(125,106)"/>
<path d="M0 0 C1.32 0 2.64 0 4 0 C4 7.92 4 15.84 4 24 C3.67 24 3.34 24 3 24 C2.67 18.06 2.34 12.12 2 6 C1.01 6.495 1.01 6.495 0 7 C0 4.69 0 2.38 0 0 Z " fill="#09559E" transform="translate(83,56)"/>
<path d="M0 0 C2.0625 0.4375 2.0625 0.4375 4 1 C3.5155542 1.53463867 3.0311084 2.06927734 2.53198242 2.62011719 C0.60925987 5.60700157 0.57491723 7.54337715 0.48828125 11.078125 C0.45283203 12.23828125 0.41738281 13.3984375 0.38085938 14.59375 C0.35830078 15.8003125 0.33574219 17.006875 0.3125 18.25 C0.27833984 19.47203125 0.24417969 20.6940625 0.20898438 21.953125 C0.12652838 24.96865846 0.05736799 27.98390194 0 31 C-0.33 31 -0.66 31 -1 31 C-1.02465622 26.74585377 -1.04283899 22.49174502 -1.05493164 18.23754883 C-1.05997101 16.78929927 -1.06680253 15.34105483 -1.07543945 13.89282227 C-1.08752247 11.81525412 -1.09323211 9.73775303 -1.09765625 7.66015625 C-1.10289307 6.40855713 -1.10812988 5.15695801 -1.11352539 3.86743164 C-1 1 -1 1 0 0 Z " fill="#C9E4FA" transform="translate(99,106)"/>
<path d="M0 0 C0.33 0 0.66 0 1 0 C1 2.64 1 5.28 1 8 C1.99 8 2.98 8 4 8 C4 8.66 4 9.32 4 10 C3.34 10 2.68 10 2 10 C1.67 10.99 1.34 11.98 1 13 C1 12.01 1 11.02 1 10 C-1.31 10 -3.62 10 -6 10 C-6.33 10.99 -6.66 11.98 -7 13 C-7 11.35 -7 9.7 -7 8 C-6.34 8 -5.68 8 -5 8 C-4.67 7.01 -4.34 6.02 -4 5 C-4 5.99 -4 6.98 -4 8 C-2.68 8 -1.36 8 0 8 C-0.2784375 6.2984375 -0.2784375 6.2984375 -0.5625 4.5625 C-0.706875 3.386875 -0.85125 2.21125 -1 1 C-0.67 0.67 -0.34 0.34 0 0 Z " fill="#F8FAFD" transform="translate(86,31)"/>
<path d="M0 0 C2.31 0.33 4.62 0.66 7 1 C7 2.98 7 4.96 7 7 C5.35 7.33 3.7 7.66 2 8 C2.66 7.67 3.32 7.34 4 7 C4 5.35 4 3.7 4 2 C3.01 2 2.02 2 1 2 C0.67 3.65 0.34 5.3 0 7 C-0.33 7 -0.66 7 -1 7 C-0.67 4.69 -0.34 2.38 0 0 Z " fill="#373748" transform="translate(101,30)"/>
<path d="M0 0 C2.97 0.33 5.94 0.66 9 1 C9 1.66 9 2.32 9 3 C8.01 3.495 8.01 3.495 7 4 C7.99 4.66 8.98 5.32 10 6 C6.7 6 3.4 6 0 6 C0 4.02 0 2.04 0 0 Z " fill="#303346" transform="translate(107,72)"/>
<path d="M0 0 C1.98 0 3.96 0 6 0 C6 1.65 6 3.3 6 5 C5.01 5 4.02 5 3 5 C3 5.66 3 6.32 3 7 C3.99 7.33 4.98 7.66 6 8 C4.02 8 2.04 8 0 8 C0 5.36 0 2.72 0 0 Z " fill="#2A2B38" transform="translate(69,30)"/>
<path d="M0 0 C6.75 -0.125 6.75 -0.125 9 1 C9 1.99 9 2.98 9 4 C8.06027344 4.09087891 8.06027344 4.09087891 7.1015625 4.18359375 C6.28429687 4.26738281 5.46703125 4.35117188 4.625 4.4375 C3.81289062 4.51871094 3.00078125 4.59992188 2.1640625 4.68359375 C-0.04272805 4.89090114 -0.04272805 4.89090114 -2 6 C-2 4.68 -2 3.36 -2 2 C-1.34 2 -0.68 2 0 2 C0 1.34 0 0.68 0 0 Z " fill="#EDF7F5" transform="translate(84,96)"/>
<path d="M0 0 C0.66 0.66 1.32 1.32 2 2 C2.66 2 3.32 2 4 2 C4 4.97 4 7.94 4 11 C3.01 11.33 2.02 11.66 1 12 C0 11 0 11 -0.09765625 8.49609375 C-0.08605469 7.48675781 -0.07445312 6.47742188 -0.0625 5.4375 C-0.05347656 4.42558594 -0.04445312 3.41367188 -0.03515625 2.37109375 C-0.02355469 1.58863281 -0.01195312 0.80617188 0 0 Z " fill="#2B2D45" transform="translate(52,77)"/>
<path d="M0 0 C2.64 0 5.28 0 8 0 C8 0.66 8 1.32 8 2 C7.34 2 6.68 2 6 2 C6 4.31 6 6.62 6 9 C5.01 9 4.02 9 3 9 C3 6.69 3 4.38 3 2 C2.01 2 1.02 2 0 2 C0 1.34 0 0.68 0 0 Z " fill="#3D3E4B" transform="translate(120,30)"/>
<path d="M0 0 C0.33 0.66 0.66 1.32 1 2 C1.66 2 2.32 2 3 2 C3.66 3.98 4.32 5.96 5 8 C6.65 8.33 8.3 8.66 10 9 C10 9.33 10 9.66 10 10 C6.16774573 10.08912219 2.73437848 9.87867729 -1 9 C-1.09765625 2.84765625 -1.09765625 2.84765625 -1 1 C-0.67 0.67 -0.34 0.34 0 0 Z " fill="#07508F" transform="translate(120,123)"/>
<path d="M0 0 C2.0625 0.4375 2.0625 0.4375 4 1 C3.67 3.31 3.34 5.62 3 8 C-0.26954202 7.43628586 -1.82575883 6.50037734 -4 4 C-3.34 3.34 -2.68 2.68 -2 2 C-1.01 2.33 -0.02 2.66 1 3 C0.34 2.34 -0.32 1.68 -1 1 C-0.67 0.67 -0.34 0.34 0 0 Z " fill="#272A3E" transform="translate(61,57)"/>
<path d="M0 0 C0 0.99 0 1.98 0 3 C-0.99 3.495 -0.99 3.495 -2 4 C-2.66 3.67 -3.32 3.34 -4 3 C-4 3.66 -4 4.32 -4 5 C-2.35 5.33 -0.7 5.66 1 6 C1 6.33 1 6.66 1 7 C-1.64 7 -4.28 7 -7 7 C-7.33 6.01 -7.66 5.02 -8 4 C-5.60490662 1.10067643 -3.68754757 0.49831724 0 0 Z " fill="#E7F5FC" transform="translate(72,94)"/>
<path d="M0 0 C1.9375 0.375 1.9375 0.375 4 1 C5.31625194 3.63250388 4.74813658 4.80179056 4.0625 7.625 C3.86785156 8.44226563 3.67320313 9.25953125 3.47265625 10.1015625 C3.23869141 11.04128906 3.23869141 11.04128906 3 12 C1.35 10.35 -0.3 8.7 -2 7 C-1.01 6.67 -0.02 6.34 1 6 C0.67 4.02 0.34 2.04 0 0 Z " fill="#E6F0EF" transform="translate(57,95)"/>
<path d="M0 0 C0.33 0 0.66 0 1 0 C1 2.64 1 5.28 1 8 C1.66 8 2.32 8 3 8 C3.33 7.34 3.66 6.68 4 6 C4 6.66 4 7.32 4 8 C4.99 8 5.98 8 7 8 C7.33 7.34 7.66 6.68 8 6 C8 6.66 8 7.32 8 8 C8.66 8 9.32 8 10 8 C10 5.36 10 2.72 10 0 C10.33 0 10.66 0 11 0 C11 2.97 11 5.94 11 9 C8.36 9.66 5.72 10.32 3 11 C3 10.34 3 9.68 3 9 C2.01 9 1.02 9 0 9 C0 6.03 0 3.06 0 0 Z " fill="#90919B" transform="translate(87,30)"/>
<path d="M0 0 C1.5 1.125 1.5 1.125 3 3 C3.1875 6.1875 3.1875 6.1875 3 9 C0.69 9 -1.62 9 -4 9 C-4 7.02 -4 5.04 -4 3 C-3.67 4.32 -3.34 5.64 -3 7 C-1.68 7 -0.36 7 1 7 C0.67 4.69 0.34 2.38 0 0 Z " fill="#2D5E8B" transform="translate(57,104)"/>
<path d="M0 0 C1.875 0.25 1.875 0.25 4 1 C5.44147299 3.27600998 6.14445422 5.43336266 7 8 C6.01 9.485 6.01 9.485 5 11 C4.01 10.34 3.02 9.68 2 9 C2.33 8.01 2.66 7.02 3 6 C2.505 5.566875 2.01 5.13375 1.5 4.6875 C0 3 0 3 0 0 Z " fill="#292E42" transform="translate(67,61)"/>
<path d="M0 0 C0.33 0 0.66 0 1 0 C1 2.64 1 5.28 1 8 C1.66 8 2.32 8 3 8 C3.33 7.01 3.66 6.02 4 5 C4.66 6.65 5.32 8.3 6 10 C5.34 10 4.68 10 4 10 C3.67 11.32 3.34 12.64 3 14 C0.19954377 10.85408067 -0.35261589 8.932936 -0.1875 4.75 C-0.16042969 3.85796875 -0.13335937 2.9659375 -0.10546875 2.046875 C-0.07066406 1.37140625 -0.03585938 0.6959375 0 0 Z " fill="#C8CAD3" transform="translate(110,30)"/>
<path d="M0 0 C0.55171875 0.30679688 1.1034375 0.61359375 1.671875 0.9296875 C4.20540121 2.09442941 6.51171762 2.62057956 9.25 3.125 C10.14203125 3.29257813 11.0340625 3.46015625 11.953125 3.6328125 C12.96632812 3.81457031 12.96632812 3.81457031 14 4 C12.171875 5.51953125 12.171875 5.51953125 10 7 C7.25 6.6875 7.25 6.6875 5 6 C5 5.34 5 4.68 5 4 C3.35 3.67 1.7 3.34 0 3 C0 2.01 0 1.02 0 0 Z " fill="#D1E5F1" transform="translate(116,133)"/>
<path d="M0 0 C0.99 0.33 1.98 0.66 3 1 C2.67 1.99 2.34 2.98 2 4 C0.948125 3.95875 -0.10375 3.9175 -1.1875 3.875 C-4.75906093 3.99210036 -6.87804309 4.34719928 -10 6 C-10.33 6.66 -10.66 7.32 -11 8 C-11 7.01 -11 6.02 -11 5 C-10.34 5 -9.68 5 -9 5 C-8.34 3.68 -7.68 2.36 -7 1 C-5.5459375 1.0309375 -5.5459375 1.0309375 -4.0625 1.0625 C-1.12534105 1.35618499 -1.12534105 1.35618499 0 0 Z " fill="#DEF4F7" transform="translate(51,97)"/>
<path d="M0 0 C0.50015625 0.31710938 1.0003125 0.63421875 1.515625 0.9609375 C4.87241148 2.3648765 8.16286294 2.46225654 11.75 2.625 C12.44738281 2.66367187 13.14476563 2.70234375 13.86328125 2.7421875 C15.57510818 2.83598624 17.28751682 2.91906174 19 3 C19 3.33 19 3.66 19 4 C17.19402344 4.09087891 17.19402344 4.09087891 15.3515625 4.18359375 C13.77602923 4.26799732 12.20050904 4.35264541 10.625 4.4375 C9.8309375 4.47681641 9.036875 4.51613281 8.21875 4.55664062 C3.97398779 4.68893404 3.97398779 4.68893404 0 6 C-1.125 2.25 -1.125 2.25 0 0 Z " fill="#D8DCDB" transform="translate(97,50)"/>
<path d="M0 0 C0.33 0 0.66 0 1 0 C1 2.97 1 5.94 1 9 C2.98 9 4.96 9 7 9 C6.34 10.65 5.68 12.3 5 14 C3.0625 13.6875 3.0625 13.6875 1 13 C-0.00496852 9.98509443 -0.10335303 7.95818308 -0.0625 4.8125 C-0.05347656 3.91144531 -0.04445313 3.01039062 -0.03515625 2.08203125 C-0.02355469 1.39496094 -0.01195313 0.70789062 0 0 Z " fill="#ECEEF3" transform="translate(117,41)"/>
<path d="M0 0 C4.29 0 8.58 0 13 0 C12.67 0.99 12.34 1.98 12 3 C7.15507803 4.51403812 3.7408989 3.36602172 -1 2 C-0.67 1.34 -0.34 0.68 0 0 Z " fill="#D9EBF4" transform="translate(43,136)"/>
<path d="M0 0 C0.99 0.66 1.98 1.32 3 2 C3.1875 5.625 3.1875 5.625 3 9 C2.67 9 2.34 9 2 9 C2 7.35 2 5.7 2 4 C0.02 4 -1.96 4 -4 4 C-4 5.98 -4 7.96 -4 10 C-4.33 10 -4.66 10 -5 10 C-5 7.69 -5 5.38 -5 3 C-4.360625 2.87625 -3.72125 2.7525 -3.0625 2.625 C-2.0415625 2.315625 -2.0415625 2.315625 -1 2 C-0.67 1.34 -0.34 0.68 0 0 Z M3 1 C6 2 6 2 6 2 Z " fill="#B9D0E3" transform="translate(44,121)"/>
<path d="M0 0 C2.475 0.495 2.475 0.495 5 1 C5 2.65 5 4.3 5 6 C3.35 6 1.7 6 0 6 C0 4.02 0 2.04 0 0 Z " fill="#E8F6F9" transform="translate(47,106)"/>
<path d="M0 0 C0.33 0 0.66 0 1 0 C1.33 1.65 1.66 3.3 2 5 C2.99 5 3.98 5 5 5 C4.01 5.495 4.01 5.495 3 6 C3 7.65 3 9.3 3 11 C1.35 11 -0.3 11 -2 11 C-1.34 7.37 -0.68 3.74 0 0 Z " fill="#2266A5" transform="translate(52,124)"/>
<path d="M0 0 C0 3.3 0 6.6 0 10 C-0.99 10.495 -0.99 10.495 -2 11 C-3.60725635 7.78548731 -3.05748185 4.56387464 -3 1 C-1 0 -1 0 0 0 Z " fill="#0956A2" transform="translate(135,122)"/>
<path d="M0 0 C2.31 0 4.62 0 7 0 C6.67 1.65 6.34 3.3 6 5 C5.34 5 4.68 5 4 5 C4 5.66 4 6.32 4 7 C3.34 6.67 2.68 6.34 2 6 C2 4.35 2 2.7 2 1 C1.34 0.67 0.68 0.34 0 0 Z " fill="#095AA0" transform="translate(128,115)"/>
<path d="M0 0 C2.97 0.495 2.97 0.495 6 1 C5.38125 1.28875 4.7625 1.5775 4.125 1.875 C1.86674235 2.93720042 1.86674235 2.93720042 0 5 C-0.64767793 7.57061311 -0.64767793 7.57061311 -1 10 C-1.66 10 -2.32 10 -3 10 C-2.25 3.375 -2.25 3.375 0 0 Z " fill="#DBEEF6" transform="translate(37,40)"/>
<path d="M0 0 C0.99 0 1.98 0 3 0 C3 2.31 3 4.62 3 7 C3.99 7.33 4.98 7.66 6 8 C4.02 8 2.04 8 0 8 C0 5.36 0 2.72 0 0 Z " fill="#2E2F3A" transform="translate(60,30)"/>
<path d="M0 0 C0.625 1.875 0.625 1.875 1 4 C0.34 4.66 -0.32 5.32 -1 6 C-1.71927295 8.31765729 -2.3909893 10.65095874 -3 13 C-3.33 13 -3.66 13 -4 13 C-4 10.03 -4 7.06 -4 4 C-3.34 4 -2.68 4 -2 4 C-2 3.34 -2 2.68 -2 2 C-1.34 2 -0.68 2 0 2 C0 1.34 0 0.68 0 0 Z " fill="#0D508C" transform="translate(134,118)"/>
<path d="M0 0 C1.32 0 2.64 0 4 0 C4 1.32 4 2.64 4 4 C4.66 4 5.32 4 6 4 C6 4.66 6 5.32 6 6 C4.35 5.67 2.7 5.34 1 5 C0.67 3.35 0.34 1.7 0 0 Z " fill="#0C5499" transform="translate(41,126)"/>
<path d="M0 0 C0.66 0.33 1.32 0.66 2 1 C1.67 1.99 1.34 2.98 1 4 C0.34 4 -0.32 4 -1 4 C-0.67 6.31 -0.34 8.62 0 11 C-1.98 11.99 -1.98 11.99 -4 13 C-3.34 10.69 -2.68 8.38 -2 6 C-2.66 6 -3.32 6 -4 6 C-4 5.34 -4 4.68 -4 4 C-2.68 3.67 -1.36 3.34 0 3 C0 2.01 0 1.02 0 0 Z " fill="#CDCFD6" transform="translate(80,35)"/>
<path d="M0 0 C0.99 0 1.98 0 3 0 C3.33 1.65 3.66 3.3 4 5 C3.34 5 2.68 5 2 5 C2 5.99 2 6.98 2 8 C1.34 8 0.68 8 0 8 C0 5.36 0 2.72 0 0 Z " fill="#282A3A" transform="translate(109,41)"/>
<path d="M0 0 C0.61488281 0.08378906 1.22976562 0.16757813 1.86328125 0.25390625 C3.07564453 0.40666016 3.07564453 0.40666016 4.3125 0.5625 C5.11300781 0.66691406 5.91351563 0.77132812 6.73828125 0.87890625 C9.16817116 1.14755178 9.16817116 1.14755178 12 0 C11.67 0.99 11.34 1.98 11 3 C8.3125 3.75 8.3125 3.75 5 4 C2.125 2.0625 2.125 2.0625 0 0 Z " fill="#335E89" transform="translate(76,86)"/>
<path d="M0 0 C1.9375 0.8125 1.9375 0.8125 4 2 C4.33 2.99 4.66 3.98 5 5 C4.01 5 3.02 5 2 5 C2 5.66 2 6.32 2 7 C1.34 7 0.68 7 0 7 C0 4.69 0 2.38 0 0 Z " fill="#E9EDF2" transform="translate(58,63)"/>
<path d="M0 0 C1.5625 1.75 1.5625 1.75 3 4 C2.67 5.32 2.34 6.64 2 8 C-0.97 8 -3.94 8 -7 8 C-7 7.67 -7 7.34 -7 7 C-4.69 7 -2.38 7 0 7 C0 4.69 0 2.38 0 0 Z " fill="#B5CEE7" transform="translate(43,42)"/>
<path d="M0 0 C0.99 0 1.98 0 3 0 C3 2.97 3 5.94 3 9 C2.01 9 1.02 9 0 9 C0 6.03 0 3.06 0 0 Z " fill="#3F4249" transform="translate(116,30)"/>
<path d="M0 0 C0.99 0.66 1.98 1.32 3 2 C2.01 2.66 1.02 3.32 0 4 C-0.66 3.67 -1.32 3.34 -2 3 C-2 5.64 -2 8.28 -2 11 C-1.34 11.33 -0.68 11.66 0 12 C-0.99 12.33 -1.98 12.66 -3 13 C-3 9.37 -3 5.74 -3 2 C-2.01 2 -1.02 2 0 2 C0 1.34 0 0.68 0 0 Z " fill="#CFDFEB" transform="translate(63,66)"/>
<path d="M0 0 C0.99 0 1.98 0 3 0 C4.04449911 3.13349732 3.93423645 3.98968256 3 7 C2.01 7 1.02 7 0 7 C0 4.69 0 2.38 0 0 Z " fill="#353B49" transform="translate(89,43)"/>
<path d="M0 0 C1.2065625 0.0309375 1.2065625 0.0309375 2.4375 0.0625 C2.7675 1.0525 3.0975 2.0425 3.4375 3.0625 C2.1175 3.0625 0.7975 3.0625 -0.5625 3.0625 C-1.2225 4.0525 -1.8825 5.0425 -2.5625 6.0625 C-2.94468767 4.40635343 -3.27645102 2.73792976 -3.5625 1.0625 C-2.5625 0.0625 -2.5625 0.0625 0 0 Z " fill="#31323C" transform="translate(102.5625,40.9375)"/>
<path d="M0 0 C0.99 0 1.98 0 3 0 C2.979375 0.78375 2.95875 1.5675 2.9375 2.375 C2.81315937 4.98114961 2.81315937 4.98114961 4 7 C2.35 6.67 0.7 6.34 -1 6 C-0.67 4.02 -0.34 2.04 0 0 Z " fill="#9495A0" transform="translate(102,32)"/>
<path d="M0 0 C0.66 0 1.32 0 2 0 C2.66 3.3 3.32 6.6 4 10 C3.01 9.67 2.02 9.34 1 9 C0.67 6.03 0.34 3.06 0 0 Z " fill="#F8FBF1" transform="translate(35,125)"/>
<path d="M0 0 C0.66 0.33 1.32 0.66 2 1 C2 3.31 2 5.62 2 8 C0.68 8.33 -0.64 8.66 -2 9 C-2.33 8.34 -2.66 7.68 -3 7 C-2.01 7 -1.02 7 0 7 C0 4.69 0 2.38 0 0 Z " fill="#D5F0FA" transform="translate(50,123)"/>
<path d="M0 0 C0.33 0 0.66 0 1 0 C1 1.65 1 3.3 1 5 C2.65 5 4.3 5 6 5 C6.33 3.68 6.66 2.36 7 1 C7 2.65 7 4.3 7 6 C6.01 6 5.02 6 4 6 C4 6.66 4 7.32 4 8 C2.68 7.34 1.36 6.68 0 6 C0 4.02 0 2.04 0 0 Z " fill="#A9C9DD" transform="translate(46,107)"/>
<path d="M0 0 C1.98 0.66 3.96 1.32 6 2 C6.125 5.375 6.125 5.375 6 9 C5.34 9.66 4.68 10.32 4 11 C3.896875 9.9275 3.79375 8.855 3.6875 7.75 C3.02599507 4.14179128 2.42516579 2.63604977 0 0 Z " fill="#202337" transform="translate(116,59)"/>
<path d="M0 0 C2 2 2 2 2.125 5.125 C2.08375 6.07375 2.0425 7.0225 2 8 C0.68 7.34 -0.64 6.68 -2 6 C-2 5.01 -2 4.02 -2 3 C-1.34 3 -0.68 3 0 3 C0 2.01 0 1.02 0 0 Z " fill="#E4F6FA" transform="translate(78,72)"/>
<path d="M0 0 C0.99 0 1.98 0 3 0 C3.66 2.64 4.32 5.28 5 8 C4.01 8 3.02 8 2 8 C0.74335022 5.09399739 0 3.20395416 0 0 Z " fill="#2E303B" transform="translate(70,41)"/>
<path d="M0 0 C2.375 -0.1875 2.375 -0.1875 5 0 C5.66 0.99 6.32 1.98 7 3 C5.35 2.67 3.7 2.34 2 2 C2 3.32 2 4.64 2 6 C2.66 6.33 3.32 6.66 4 7 C3.01 7 2.02 7 1 7 C0.67 4.69 0.34 2.38 0 0 Z " fill="#393944" transform="translate(51,30)"/>
<path d="M0 0 C-0.66 0 -1.32 0 -2 0 C-2 0.66 -2 1.32 -2 2 C-1.01 2.33 -0.02 2.66 1 3 C-1.31 3 -3.62 3 -6 3 C-6 2.01 -6 1.02 -6 0 C-3.50907189 -1.24546405 -2.58919267 -0.7767578 0 0 Z " fill="#075091" transform="translate(52,133)"/>
<path d="M0 0 C0 3.3 0 6.6 0 10 C-0.33 10 -0.66 10 -1 10 C-1 8.02 -1 6.04 -1 4 C-1.99 3.67 -2.98 3.34 -4 3 C-4 2.34 -4 1.68 -4 1 C-2 0 -2 0 0 0 Z " fill="#D2E6F7" transform="translate(117,122)"/>
<path d="M0 0 C1.98 0.99 1.98 0.99 4 2 C4 5 4 5 3 8 C2.34 7.67 1.68 7.34 1 7 C0.59270772 4.67843403 0.25561323 2.3431213 0 0 Z " fill="#0A579B" transform="translate(131,104)"/>
<path d="M0 0 C0.66 0.99 1.32 1.98 2 3 C0.02 3.99 0.02 3.99 -2 5 C-2 6.65 -2 8.3 -2 10 C-2.33 10 -2.66 10 -3 10 C-3.36923077 3.47692308 -3.36923077 3.47692308 -1.5 1.0625 C-1.005 0.711875 -0.51 0.36125 0 0 Z " fill="#174E85" transform="translate(120,102)"/>
<path d="M0 0 C2.31 0 4.62 0 7 0 C6.67 1.32 6.34 2.64 6 4 C4.35 4.33 2.7 4.66 1 5 C0.67 4.34 0.34 3.68 0 3 C0.66 2.67 1.32 2.34 2 2 C1.34 1.34 0.68 0.68 0 0 Z " fill="#2365A2" transform="translate(123,100)"/>
<path d="M0 0 C2.64 0 5.28 0 8 0 C8.66 1.65 9.32 3.3 10 5 C5.05 3.02 5.05 3.02 0 1 C0 0.67 0 0.34 0 0 Z " fill="#DFF2FB" transform="translate(126,99)"/>
<path d="M0 0 C1.65 0 3.3 0 5 0 C4.67 1.32 4.34 2.64 4 4 C1.36 4 -1.28 4 -4 4 C-3.34 3.525625 -2.68 3.05125 -2 2.5625 C-1.34 2.046875 -0.68 1.53125 0 1 C0 0.67 0 0.34 0 0 Z " fill="#D5E2EC" transform="translate(85,50)"/>
<path d="M0 0 C0.66 0 1.32 0 2 0 C2.66 1.98 3.32 3.96 4 6 C2.68 6 1.36 6 0 6 C-0.38218767 4.34385343 -0.71395102 2.67542976 -1 1 C-0.67 0.67 -0.34 0.34 0 0 Z " fill="#E4E5EC" transform="translate(53,48)"/>
<path d="M0 0 C1.32 0 2.64 0 4 0 C4.66 1.65 5.32 3.3 6 5 C5.34 5.66 4.68 6.32 4 7 C4 6.34 4 5.68 4 5 C2.68 5 1.36 5 0 5 C0 4.34 0 3.68 0 3 C0.99 3 1.98 3 3 3 C3 2.34 3 1.68 3 1 C2.01 0.67 1.02 0.34 0 0 Z " fill="#C4C5CF" transform="translate(122,43)"/>
<path d="M0 0 C0.99 0 1.98 0 3 0 C3 2.31 3 4.62 3 7 C2.01 6.67 1.02 6.34 0 6 C-1 3 -1 3 0 0 Z " fill="#393C47" transform="translate(114,41)"/>
<path d="M0 0 C0.66 0 1.32 0 2 0 C2.33 2.31 2.66 4.62 3 7 C2.01 7 1.02 7 0 7 C0 6.01 0 5.02 0 4 C-0.66 3.67 -1.32 3.34 -2 3 C-1.34 3 -0.68 3 0 3 C0 2.01 0 1.02 0 0 Z " fill="#262A37" transform="translate(82,31)"/>
<path d="M0 0 C0.33 0 0.66 0 1 0 C1.22162329 1.62324086 1.42689803 3.248721 1.625 4.875 C1.74101563 5.77992188 1.85703125 6.68484375 1.9765625 7.6171875 C1.98429687 8.40351563 1.99203125 9.18984375 2 10 C1.34 10.66 0.68 11.32 0 12 C-0.99 11.67 -1.98 11.34 -3 11 C-2.34 10.34 -1.68 9.68 -1 9 C-0.53993654 6.79749008 -0.53993654 6.79749008 -0.375 4.375 C-0.30023438 3.55773437 -0.22546875 2.74046875 -0.1484375 1.8984375 C-0.09945312 1.27195312 -0.05046875 0.64546875 0 0 Z " fill="#B7D2E8" transform="translate(59,124)"/>
<path d="M0 0 C0.99 0.33 1.98 0.66 3 1 C2.01 2.485 2.01 2.485 1 4 C0.54860541 6.0492094 0.54860541 6.0492094 0.375 8.1875 C0.25125 9.445625 0.1275 10.70375 0 12 C-0.33 12 -0.66 12 -1 12 C-1.02698189 10.37509046 -1.04638757 8.75005367 -1.0625 7.125 C-1.07410156 6.22007813 -1.08570312 5.31515625 -1.09765625 4.3828125 C-1 2 -1 2 0 0 Z " fill="#C8DEF2" transform="translate(117,101)"/>
<path d="M0 0 C6.4 -0.49230769 6.4 -0.49230769 9.4375 2 C10.2109375 2.99 10.2109375 2.99 11 4 C8.03 3.505 8.03 3.505 5 3 C5 2.34 5 1.68 5 1 C3.35 1 1.7 1 0 1 C0 0.67 0 0.34 0 0 Z " fill="#2E5D89" transform="translate(46,100)"/>
<path d="M0 0 C0.66 1.32 1.32 2.64 2 4 C-1.63423209 6.32590854 -4.77088331 6.16265833 -9 6 C-9 5.67 -9 5.34 -9 5 C-6.36 4.67 -3.72 4.34 -1 4 C-0.67 2.68 -0.34 1.36 0 0 Z " fill="#BCBDC3" transform="translate(70,44)"/>
<path d="M0 0 C0.99 0 1.98 0 3 0 C3 2.64 3 5.28 3 8 C2.34 7.67 1.68 7.34 1 7 C0.59270772 4.67843403 0.25561323 2.3431213 0 0 Z " fill="#1F212E" transform="translate(94,30)"/>
<path d="M0 0 C0.33 0.66 0.66 1.32 1 2 C1.99 2 2.98 2 4 2 C4 3.98 4 5.96 4 8 C3.67 7.01 3.34 6.02 3 5 C2.01 5.33 1.02 5.66 0 6 C0 4.02 0 2.04 0 0 Z " fill="#E1E3EC" transform="translate(119,30)"/>
<path d="M0 0 C0.99 0.33 1.98 0.66 3 1 C2.01 2.485 2.01 2.485 1 4 C0.34 3.67 -0.32 3.34 -1 3 C-1 3.99 -1 4.98 -1 6 C-1.66 6 -2.32 6 -3 6 C-2.42655063 3.13275314 -2.1385485 2.1385485 0 0 Z " fill="#2B5882" transform="translate(39,42)"/>
<path d="M0 0 C0.66 0 1.32 0 2 0 C2 1.98 2 3.96 2 6 C0.35 6.33 -1.3 6.66 -3 7 C-2.34 6.34 -1.68 5.68 -1 5 C-0.35232207 2.42938689 -0.35232207 2.42938689 0 0 Z " fill="#242432" transform="translate(106,31)"/>
</svg>
