<?xml version="1.0" encoding="UTF-8"?>
<svg version="1.1" xmlns="http://www.w3.org/2000/svg" width="225" height="225">
<path d="M0 0 C74.25 0 148.5 0 225 0 C225 74.25 225 148.5 225 225 C150.75 225 76.5 225 0 225 C0 150.75 0 76.5 0 0 Z " fill="#FDFDFD" transform="translate(0,0)"/>
<path d="M0 0 C46.53 0 93.06 0 141 0 C141 23.43 141 46.86 141 71 C94.47 71 47.94 71 0 71 C0 47.57 0 24.14 0 0 Z " fill="#040404" transform="translate(42,66)"/>
<path d="M0 0 C4.49132561 3.89248219 5.71484129 7.48109809 6.375 13.3125 C5.67775199 20.16877207 3.24056984 25.21803088 -1.8125 29.9375 C-7.32295262 34.3458621 -12.98541556 35.73837731 -20 35 C-22.79213794 33.86938076 -25.39797423 32.5139059 -28 31 C-28 30.01 -28 29.02 -28 28 C-26.71416016 28.48146484 -26.71416016 28.48146484 -25.40234375 28.97265625 C-19.49034606 30.75779447 -12.55826885 31.41239632 -6.70703125 29.08984375 C-2.77112613 26.47989388 -0.4314406 23.54692897 1 19 C1.50133323 13.43681839 1.64308713 8.98410715 -1 4 C-0.625 1.75 -0.625 1.75 0 0 Z " fill="#E0E0E0" transform="translate(93,88)"/>
<path d="M0 0 C-0.33 0.99 -0.66 1.98 -1 3 C-2.11375 2.505 -2.11375 2.505 -3.25 2 C-9.7029466 0.27921424 -16.23773916 -0.20535019 -22.4375 2.5 C-26.66291323 6.62235437 -30.23503616 10.88174412 -30.5 17 C-30.22413935 21.3448053 -28.70372488 25.02464195 -27 29 C-28.32 29 -29.64 29 -31 29 C-34.573024 23.49158801 -34.78631612 18.35379578 -34 12 C-32.16452043 5.26990825 -27.87122932 1.47247804 -22 -2 C-13.7801162 -5.76744674 -7.42372863 -4.42264684 0 0 Z " fill="#E7E7E7" transform="translate(90,84)"/>
<path d="M0 0 C1.32 0 2.64 0 4 0 C4 14.19 4 28.38 4 43 C2.68 43 1.36 43 0 43 C0 28.81 0 14.62 0 0 Z " fill="#C8C8C8" transform="translate(136,80)"/>
<path d="M0 0 C1.32 0 2.64 0 4 0 C4 11.55 4 23.1 4 35 C2.68 35 1.36 35 0 35 C0 23.45 0 11.9 0 0 Z " fill="#CBCBCB" transform="translate(113,88)"/>
<path d="M0 0 C0.99 0 1.98 0 3 0 C3 14.19 3 28.38 3 43 C2.01 43 1.02 43 0 43 C0 28.81 0 14.62 0 0 Z " fill="#F3F3F3" transform="translate(166,80)"/>
<path d="M0 0 C9.24 0 18.48 0 28 0 C28 1.32 28 2.64 28 4 C18.76 4 9.52 4 0 4 C0 2.68 0 1.36 0 0 Z " fill="#CCCCCC" transform="translate(101,80)"/>
<path d="M0 0 C0.94875 0.04125 1.8975 0.0825 2.875 0.125 C2.875 0.785 2.875 1.445 2.875 2.125 C3.535 2.455 4.195 2.785 4.875 3.125 C5 5.5 5 5.5 4.875 8.125 C2.875 10.125 2.875 10.125 -0.125 10.375 C-3.125 10.125 -3.125 10.125 -5.125 8.125 C-5.375 5.125 -5.375 5.125 -5.125 2.125 C-3.125 0.125 -3.125 0.125 0 0 Z " fill="#8E8E8E" transform="translate(165.125,150.875)"/>
<path d="M0 0 C3.50423232 3.03700134 4.93765527 5.48503491 6 10 C6.34609632 14.84534855 5.7636118 18.48074475 4 23 C3.01 23 2.02 23 1 23 C0.67 22.34 0.34 21.68 0 21 C0.33 20.34 0.66 19.68 1 19 C1.12207871 17.21140489 1.17548448 15.41771619 1.1875 13.625 C1.20167969 12.66851562 1.21585937 11.71203125 1.23046875 10.7265625 C0.99529621 7.94435179 0.30488042 6.41957583 -1 4 C-0.625 1.75 -0.625 1.75 0 0 Z " fill="#DBDBDB" transform="translate(93,88)"/>
<path d="M0 0 C6.50313209 -0.46450943 10.4174808 0.67424388 16 4 C15.67 4.99 15.34 5.98 15 7 C14.236875 6.690625 13.47375 6.38125 12.6875 6.0625 C7.82685159 4.66197419 3.03141827 4.34020266 -2 4 C-1.34 2.68 -0.68 1.36 0 0 Z " fill="#DBDBDB" transform="translate(74,80)"/>
<path d="M0 0 C1.65 0 3.3 0 5 0 C6.83691257 3.78187881 7.15837626 5.94568308 6 10 C4.02 10 2.04 10 0 10 C0 6.7 0 3.4 0 0 Z " fill="#686868" transform="translate(125,151)"/>
<path d="M0 0 C5.94 0 11.88 0 18 0 C18 0.99 18 1.98 18 3 C12.06 3 6.12 3 0 3 C0 2.01 0 1.02 0 0 Z " fill="#F8F8F8" transform="translate(144,100)"/>
<path d="M0 0 C1.98 0 3.96 0 6 0 C7.125 3.75 7.125 3.75 6 6 C6.89163577 8.11683841 6.89163577 8.11683841 8 10 C5 9 5 9 3 6 C2.67 7.32 2.34 8.64 2 10 C1.34 10 0.68 10 0 10 C0 6.7 0 3.4 0 0 Z " fill="#4F4F4F" transform="translate(149,151)"/>
<path d="M0 0 C1.98 0 3.96 0 6 0 C7.125 3.75 7.125 3.75 6 6 C6.89163577 8.11683841 6.89163577 8.11683841 8 10 C5 9 5 9 3 6 C2.67 7.32 2.34 8.64 2 10 C1.34 10 0.68 10 0 10 C0 6.7 0 3.4 0 0 Z " fill="#505050" transform="translate(56,151)"/>
<path d="M0 0 C1.98 1.65 3.96 3.3 6 5 C6.33 3.35 6.66 1.7 7 0 C7.66 0 8.32 0 9 0 C9 3.3 9 6.6 9 10 C5.31197956 8.77065985 4.27643027 7.06140622 2 4 C1.67 5.98 1.34 7.96 1 10 C0.67 10 0.34 10 0 10 C0 6.7 0 3.4 0 0 Z " fill="#2B2B2B" transform="translate(101,151)"/>
<path d="M0 0 C1.32 0 2.64 0 4 0 C4 0.66 4 1.32 4 2 C4.66 2.33 5.32 2.66 6 3 C5.67 4.32 5.34 5.64 5 7 C3.02 7 1.04 7 -1 7 C-1.04254356 5.00045254 -1.04080783 2.99958364 -1 1 C-0.67 0.67 -0.34 0.34 0 0 Z " fill="#ECECEC" transform="translate(80,152)"/>
<path d="M0 0 C0.33 0.99 0.66 1.98 1 3 C-0.109375 4.7890625 -0.109375 4.7890625 -1.75 6.625 C-2.28109375 7.23601562 -2.8121875 7.84703125 -3.359375 8.4765625 C-5 10 -5 10 -8 11 C-3.98181818 2.65454545 -3.98181818 2.65454545 0 0 Z " fill="#F5F5F5" transform="translate(95,109)"/>
</svg>
