<?xml version="1.0" encoding="UTF-8"?>
<svg version="1.1" xmlns="http://www.w3.org/2000/svg" width="300" height="300">
<path d="M0 0 C0.9904834 0.56686523 1.9809668 1.13373047 3.00146484 1.71777344 C11.45155578 6.56976979 19.84322883 11.52067749 28.21875 16.5 C32.4581842 19.01824702 36.709438 21.51556343 40.96875 24 C53.96104119 31.58151831 66.88849031 39.25125244 79.72598267 47.09240723 C87.00488307 51.53580264 94.31465786 55.8926791 101.77929688 60.01782227 C106.38830542 62.56653332 110.92365393 65.22387365 115.4375 67.9375 C116.06696533 68.31583984 116.69643066 68.69417969 117.3449707 69.08398438 C119.97625371 70.67372543 122.56654643 72.29436428 125.125 74 C124.43144351 61.97835415 118.64588992 50.16624503 109.8984375 41.89453125 C108.49789694 40.69442141 107.07660713 39.51777716 105.62890625 38.375 C105.13261719 37.92125 104.63632813 37.4675 104.125 37 C104.125 36.34 104.125 35.68 104.125 35 C105.16914063 34.42894531 106.21328125 33.85789063 107.2890625 33.26953125 C118.63587527 27.03212499 129.79466278 20.50992856 140.92626953 13.89794922 C146.43143273 10.63149076 151.94227313 7.37479478 157.45932007 4.12844849 C158.71839179 3.38678097 159.97673609 2.64387693 161.23428345 1.89962769 C186.90574761 -13.29171757 186.90574761 -13.29171757 198.875 -10.31640625 C210.95799018 -6.27196093 220.23619616 1.94451062 226.0625 13.3125 C228.97748387 19.44878809 230.26604999 25.23149892 229.125 32 C226.9403614 37.59653006 224.04964924 42.76125973 221.125 48 C220.66931641 48.83160645 220.21363281 49.66321289 219.74414062 50.52001953 C213.6108602 61.70849701 207.14799501 72.67883137 200.48709106 83.55853271 C187.24866904 103.65333907 187.24866904 103.65333907 179.125 126 C178.89876953 127.15435547 178.89876953 127.15435547 178.66796875 128.33203125 C176.09756589 145.81641995 183.87517445 160.49341117 192.6875 174.9375 C193.76476718 176.72548251 194.83877519 178.51539441 195.91249084 180.30551147 C196.63019598 181.50199437 197.34872785 182.69798176 198.06809998 183.89346313 C202.71511795 191.62338379 207.16088881 199.46640347 211.60253906 207.31542969 C213.27754411 210.26898253 214.96273581 213.21660257 216.6484375 216.1640625 C217.82834203 218.23425132 219.00803413 220.30456123 220.1875 222.375 C220.73623779 223.33245117 221.28497559 224.28990234 221.8503418 225.27636719 C227.15683774 234.62191302 230.88249702 241.79834726 228.5390625 252.734375 C226.17606565 260.40869505 221.82833807 265.48095346 216.125 271 C215.20460938 271.89912109 215.20460938 271.89912109 214.265625 272.81640625 C207.16002501 279.31900808 199.03999704 282.69301561 189.3828125 282.50390625 C183.24654671 281.55477161 178.12682737 278.45813874 172.76855469 275.47265625 C169.73500899 273.78274605 166.68431538 272.12600899 163.6328125 270.46875 C123.83717058 248.78849674 84.60571954 225.91659253 46.01733398 202.1640625 C44.67457397 201.34035156 44.67457397 201.34035156 43.3046875 200.5 C42.12495361 199.77296875 42.12495361 199.77296875 40.92138672 199.03125 C39.32568214 197.91702263 39.32568214 197.91702263 38.125 198 C41.60252947 212.09453232 46.93157314 224.30672313 58.125 234 C58.785 234.33 59.445 234.66 60.125 235 C60.125 235.66 60.125 236.32 60.125 237 C59.08085938 237.57105469 58.03671875 238.14210937 56.9609375 238.73046875 C48.32845651 243.47639151 39.78064619 248.34129153 31.3125 253.375 C21.45895023 259.23169717 11.53903686 264.9611898 1.56738281 270.61425781 C-0.81411838 271.96545741 -3.19240463 273.32217683 -5.5703125 274.6796875 C-7.0050362 275.49509461 -8.43992234 276.310216 -9.875 277.125 C-10.51550293 277.49141602 -11.15600586 277.85783203 -11.81591797 278.23535156 C-19.63931679 282.65699721 -25.78606691 284.48840587 -34.6875 282.3125 C-46.73225373 278.29758209 -56.01464619 269.99997912 -61.8125 258.6875 C-64.86503046 252.26166469 -66.30938779 245.63391517 -64.15185547 238.66381836 C-61.7344975 232.72969627 -58.93024897 227.20972861 -55.6875 221.6875 C-55.17775635 220.80723145 -54.6680127 219.92696289 -54.14282227 219.02001953 C-52.39509535 216.00848002 -50.63599167 213.00380119 -48.875 210 C-48.19421683 208.83649547 -47.51355664 207.67291897 -46.83300781 206.50927734 C-43.21001905 200.31578788 -39.58103696 194.12581549 -35.94921875 187.9375 C-35.59882034 187.34039719 -35.24842194 186.74329437 -34.8874054 186.12809753 C-32.76944195 182.52013614 -30.64540337 178.91580471 -28.51953125 175.3125 C-18.88764398 158.93766293 -12.08210558 145.38363776 -14.87890625 125.70703125 C-17.48212434 116.01897647 -22.10645922 107.42250482 -27.25 98.875 C-28.49550931 96.77256039 -29.74027489 94.66968005 -30.984375 92.56640625 C-31.9444043 90.95016357 -31.9444043 90.95016357 -32.92382812 89.30126953 C-38.0533729 80.62237758 -43.04758017 71.86380292 -48.07324219 63.12451172 C-49.83510779 60.06917893 -51.60766051 57.0202845 -53.3828125 53.97265625 C-54.46365187 52.10683467 -55.54438666 50.2409525 -56.625 48.375 C-57.11436035 47.54073486 -57.6037207 46.70646973 -58.10791016 45.84692383 C-63.10813006 37.17946212 -66.731389 29.34165142 -64.18359375 19.265625 C-62.09472581 12.93784096 -59.25978522 7.98994928 -54.875 3 C-54.37355469 2.39414062 -53.87210938 1.78828125 -53.35546875 1.1640625 C-36.77624893 -17.31107783 -18.53071556 -10.7339964 0 0 Z M73.32617188 122.15429688 C72.49666016 122.99025391 71.66714844 123.82621094 70.8125 124.6875 C69.96365234 125.50412109 69.11480469 126.32074219 68.24023438 127.16210938 C67.44294922 127.95810547 66.64566406 128.75410156 65.82421875 129.57421875 C65.09033936 130.30213623 64.35645996 131.03005371 63.6003418 131.7800293 C61.88598999 133.90447127 61.88598999 133.90447127 62.16625977 136.51147461 C63.98845761 141.2412079 67.83249679 144.36177367 71.375 147.875 C72.13941406 148.67164063 72.90382812 149.46828125 73.69140625 150.2890625 C74.43777344 151.03671875 75.18414062 151.784375 75.953125 152.5546875 C76.6327832 153.24030762 77.31244141 153.92592773 78.01269531 154.63232422 C80.05493687 156.23571814 80.05493687 156.23571814 82.62060547 155.94287109 C87.36857277 154.15532482 90.48536212 150.29392653 94 146.75 C94.79664063 145.98558594 95.59328125 145.22117188 96.4140625 144.43359375 C97.53554687 143.31404297 97.53554687 143.31404297 98.6796875 142.171875 C99.36530762 141.4922168 100.05092773 140.81255859 100.75732422 140.11230469 C102.36053556 138.06977117 102.36053556 138.06977117 102.07006836 135.50219727 C100.96293655 132.57091492 99.65418151 131.01252873 97.44921875 128.79296875 C96.70349609 128.04208984 95.95777344 127.29121094 95.18945312 126.51757812 C94.40505859 125.74865234 93.62066406 124.97972656 92.8125 124.1875 C92.03970703 123.39923828 91.26691406 122.61097656 90.47070312 121.79882812 C89.72111328 121.05439453 88.97152344 120.30996094 88.19921875 119.54296875 C87.51432373 118.86258545 86.82942871 118.18220215 86.1237793 117.48120117 C80.56463146 113.36157861 77.17116117 118.3771422 73.32617188 122.15429688 Z " fill="#FF6849" transform="translate(67.875,14)"/>
</svg>
