<?xml version="1.0" encoding="UTF-8"?>
<svg version="1.1" xmlns="http://www.w3.org/2000/svg" width="400" height="400">
<path d="M0 0 C132 0 264 0 400 0 C400 132 400 264 400 400 C268 400 136 400 0 400 C0 268 0 136 0 0 Z " fill="#0595FE" transform="translate(0,0)"/>
<path d="M0 0 C7.26 0 14.52 0 22 0 C22 5.94 22 11.88 22 18 C30.25 18 38.5 18 47 18 C47 23.61 47 29.22 47 35 C38.75 35 30.5 35 22 35 C22.02813834 41.54855845 22.0713316 48.09349134 22.15258789 54.64111328 C22.17571299 56.8659741 22.19015065 59.09094354 22.19555664 61.31591797 C22.20488604 64.52379619 22.24596597 67.72997886 22.29296875 70.9375 C22.2890361 71.92427734 22.28510345 72.91105469 22.28105164 73.92773438 C22.41451812 80.31715592 23.5211479 85.22385637 28 90 C31.86601295 92.37539598 35.56637869 92.64446684 40 92 C44.7474451 90.4629484 48.18651899 89.22022151 51 85 C50.31205997 82.47256816 49.53586852 80.13243254 48.625 77.6875 C44.01069361 64.14912505 45.27323955 52.30396358 51.5 39.5625 C57.75755324 28.68113895 66.51271619 21.75128493 78 17 C79.20905622 20.62716865 78.36204539 21.71520459 76.83203125 25.0546875 C74.75425957 29.91257622 73.98950542 34.6592847 73.6875 39.875 C73.37732969 43.81177705 72.45531536 46.24685968 70.4375 49.625 C66.76106332 56.45113243 66.95587943 63.5196219 68 71 C70.99686552 79.81120673 76.3685358 85.37841649 84.3125 89.875 C92.40124492 92.34275269 99.28263209 91.13168553 107 88 C105.06728452 86.53763563 103.13256915 85.09190718 101.140625 83.7109375 C90.54982688 76.22735701 83.00708724 66.30238904 80.28515625 53.40625 C78.97293734 42.33327949 79.661494 32.38919831 84 22 C84.43892578 20.83210938 84.43892578 20.83210938 84.88671875 19.640625 C86.04423658 17.35304037 86.79537533 16.32741612 89 15 C101.44681922 12.70758972 113.18949138 17.03977049 123.39453125 23.9609375 C132.73147584 31.26811153 139.2380841 40.8793394 141.71484375 52.58984375 C143.49292823 67.6183112 141.08050027 80.55635148 132 93 C124.44123186 102.1226512 114.34488364 108.23473615 102.75 110.6875 C88.38981143 111.88418238 77.25993532 109.92290107 65.33984375 101.390625 C62.88055692 99.6593977 62.88055692 99.6593977 59 100 C56.71043805 101.57084607 54.70254964 103.3538026 52.609375 105.17578125 C43.36132131 111.6411122 31.83181385 111.30186987 21 110 C13.76620411 107.98281279 8.47462005 104.49618213 4.18359375 98.3203125 C0.23620578 90.58186875 -0.41458125 84.45304502 -0.29296875 75.84375 C-0.28872391 74.70087524 -0.28447906 73.55800049 -0.28010559 72.38049316 C-0.26339974 68.75341591 -0.22576156 65.1269075 -0.1875 61.5 C-0.17244275 59.03125806 -0.15875617 56.56250736 -0.14648438 54.09375 C-0.11352257 48.06228298 -0.06179547 42.03123773 0 36 C-5.28 36 -10.56 36 -16 36 C-16 30.06 -16 24.12 -16 18 C-10.72 18 -5.44 18 0 18 C0 12.06 0 6.12 0 0 Z " fill="#FAFDFC" transform="translate(147,145)"/>
<path d="M0 0 C15.51 0 31.02 0 47 0 C54.85839699 21.3299347 54.85839699 21.3299347 58 30.5625 C60.88165138 38.97327488 63.83328239 47.35585932 66.83984375 55.72265625 C67.3444664 57.12829582 67.3444664 57.12829582 67.85928345 58.56233215 C69.55023652 63.27068766 71.24572875 67.97734409 72.94726562 72.68188477 C73.57826889 74.43630893 74.20913423 76.19078271 74.83984375 77.9453125 C75.12907211 78.74022598 75.41830048 79.53513947 75.71629333 80.35414124 C77.44925916 85.18898889 78.83106467 89.99779604 80 95 C82.97 95 85.94 95 89 95 C89 99.62 89 104.24 89 109 C75.14 109 61.28 109 47 109 C47 104.38 47 99.76 47 95 C49.64 95 52.28 95 55 95 C54.71125 94.25234375 54.4225 93.5046875 54.125 92.734375 C53.75375 91.74953125 53.3825 90.7646875 53 89.75 C52.62875 88.77546875 52.2575 87.8009375 51.875 86.796875 C51 84 51 84 51 80 C37.14 80.33 23.28 80.66 9 81 C7.35 85.62 5.7 90.24 4 95 C6.97 95 9.94 95 13 95 C13 99.62 13 104.24 13 109 C0.13 109 -12.74 109 -26 109 C-26 104.38 -26 99.76 -26 95 C-23.03 95 -20.06 95 -17 95 C-16.84144531 94.37248337 -16.68289062 93.74496674 -16.51953125 93.09843445 C-14.43226147 85.12400622 -11.77805457 77.40033468 -9 69.64453125 C-8.51789607 68.28948105 -8.0361319 66.93430993 -7.5546875 65.57902527 C-6.29690528 62.04143995 -5.03420309 58.50563039 -3.77050781 54.97015381 C-2.74334811 52.09379745 -1.71972849 49.21618753 -0.69628906 46.33850574 C0.53464026 42.87759843 1.76707601 39.41722842 3 35.95703125 C3.34659668 34.98422683 3.34659668 34.98422683 3.70019531 33.99176979 C6.083033 27.30816868 8.48134757 20.63372868 11 14 C7.37 14 3.74 14 0 14 C0 9.38 0 4.76 0 0 Z " fill="#F8FDFD" transform="translate(56,145)"/>
<path d="M0 0 C0.02917234 3.87498404 0.04685673 7.74993958 0.0625 11.625 C0.07087891 12.71941406 0.07925781 13.81382812 0.08789062 14.94140625 C0.09111328 16.00488281 0.09433594 17.06835938 0.09765625 18.1640625 C0.10289307 19.13811035 0.10812988 20.1121582 0.11352539 21.11572266 C0 24 0 24 -1 30 C-6.61 30 -12.22 30 -18 30 C-18 25.05 -18 20.1 -18 15 C-21.33515425 15.06041946 -24.66608287 15.14762337 -28 15.25 C-28.93457031 15.26417969 -29.86914062 15.27835938 -30.83203125 15.29296875 C-36.91478949 15.5056526 -41.99281026 16.33245313 -47 20 C-49.34168764 23.51253146 -49.49623677 24.86469356 -49 29 C-43.24279768 37.64251351 -31.68640204 40.15001267 -22.3125 43.5 C-11.11981797 47.53578585 -0.50337444 52.11414708 5.1640625 63.296875 C7.64513327 71.31977675 6.92401404 81.24937556 3.30859375 88.79296875 C-2.31667637 98.28036463 -9.89492725 102.81064619 -20.359375 106.03515625 C-39.59035137 110.71237335 -60.31949306 107.76838149 -78 99 C-78 95.09920004 -76.58206983 93.31583297 -74.5625 90 C-71.92316706 85.66626984 -71.92316706 85.66626984 -70 81 C-66.83288482 81.51082503 -63.94406413 82.35513691 -60.9375 83.4375 C-48.02992252 87.79701292 -34.85813405 88.70895611 -22 84 C-21.01 83.67 -20.02 83.34 -19 83 C-17.63306167 75.7276381 -17.63306167 75.7276381 -20 69 C-23.63967393 67.35086124 -27.44337751 66.14179738 -31.2265625 64.86328125 C-32.42410156 64.45013672 -33.62164062 64.03699219 -34.85546875 63.61132812 C-37.3415449 62.75472676 -39.83109508 61.90813338 -42.32421875 61.07226562 C-53.52835919 57.17178679 -65.39403017 52.08887939 -71.0234375 40.98046875 C-74.08004831 33.19873023 -74.22783355 24.64253175 -71.5 16.75 C-67.39157264 7.80052361 -60.05328826 2.3949831 -51 -1 C-33.68493441 -6.59132326 -17.37322341 -3.40536009 0 0 Z " fill="#F7FDFC" transform="translate(364,148)"/>
<path d="M0 0 C0.33 0 0.66 0 1 0 C1.04898438 0.88042969 1.09796875 1.76085937 1.1484375 2.66796875 C1.22320312 3.82941406 1.29796875 4.99085938 1.375 6.1875 C1.44460937 7.33605469 1.51421875 8.48460937 1.5859375 9.66796875 C1.97509574 12.79959117 2.6809851 15.15285809 4 18 C4.33 17.34 4.66 16.68 5 16 C5.66 16 6.32 16 7 16 C7.33 14.68 7.66 13.36 8 12 C9.32 12.33 10.64 12.66 12 13 C11.41992188 13.72703125 11.41992188 13.72703125 10.828125 14.46875 C2.0774891 25.73194472 -1.45877885 36.62465506 0 51 C1.25838426 56.78512333 3.10116489 62.39843642 5 68 C-0.17855037 72.43978211 -4.02787963 74.99574411 -11.0625 75.3125 C-15.24331829 74.98068902 -16.86155798 74.71432823 -20 72 C-25.08621431 65.92192771 -25.69053112 60.67106146 -25.48828125 52.9375 C-25.48120651 51.90560547 -25.47413177 50.87371094 -25.46684265 49.81054688 C-25.43902587 46.53960304 -25.37630954 43.27041969 -25.3125 40 C-25.28740077 37.77216027 -25.26459046 35.54429351 -25.24414062 33.31640625 C-25.19350759 27.87639305 -25.09562762 22.4401488 -25 17 C-16.75 17 -8.5 17 0 17 C0 11.39 0 5.78 0 0 Z " fill="#0796FC" transform="translate(194,163)"/>
<path d="M0 0 C0.99 0.33 1.98 0.66 3 1 C2.38125 2.155 1.7625 3.31 1.125 4.5 C-4.26234351 15.50393567 -4.70914842 28.13601911 -1.375 39.875 C3.50639965 53.7141962 11.29323836 62.02022952 24 69 C19.92579706 73.43905693 14.99084779 74.10900862 9.1875 74.4375 C2.41576906 74.26254647 -3.02682697 71.66619149 -8.04296875 67.16796875 C-9.86489509 65.19842364 -11.44748974 63.18669217 -13 61 C-13.43441406 60.42894531 -13.86882812 59.85789063 -14.31640625 59.26953125 C-18.46972059 52.71395148 -17.88706306 44.4244942 -17 37 C-15.96771892 34.30311807 -14.7159363 32.02673079 -13.234375 29.5546875 C-11.21469901 25.37472517 -10.98886756 21.00072063 -10.46875 16.4296875 C-9.83174599 11.7689415 -8.53306378 7.43566454 -7 3 C-6.67 3.99 -6.34 4.98 -6 6 C-5.34 6 -4.68 6 -4 6 C-3.34 5.01 -2.68 4.02 -2 3 C-1.34 3 -0.68 3 0 3 C0 2.01 0 1.02 0 0 Z " fill="#0896FA" transform="translate(231,163)"/>
<path d="M0 0 C2.88138722 2.88138722 3.73323527 6.44125207 5.0390625 10.21875 C5.32478119 11.03243042 5.61049988 11.84611084 5.90487671 12.68444824 C6.5076884 14.40504676 7.10768381 16.12663416 7.70507812 17.84912109 C8.62211429 20.49168444 9.54859872 23.13078802 10.4765625 25.76953125 C11.06045753 27.43990792 11.64380937 29.1104746 12.2265625 30.78125 C12.50464752 31.57398315 12.78273254 32.36671631 13.06924438 33.18347168 C15 38.768207 15 38.768207 15 41 C5.43 41 -4.14 41 -14 41 C-12.20250265 35.00834215 -10.41093859 29.11422927 -8.30078125 23.2421875 C-8.0608696 22.56825958 -7.82095795 21.89433167 -7.57377625 21.19998169 C-6.82234324 19.09081606 -6.06749717 16.98289206 -5.3125 14.875 C-4.79599521 13.42716492 -4.27971748 11.97924881 -3.76367188 10.53125 C-2.51172814 7.01989636 -1.25672486 3.50964573 0 0 Z " fill="#0F96F6" transform="translate(85,167)"/>
<path d="M0 0 C5.41955295 0.33872206 9.11524124 3.48484379 13 7 C18.70754518 13.52495743 20.31112589 19.27218504 20.125 27.8125 C20.11597656 28.60076172 20.10695313 29.38902344 20.09765625 30.20117188 C20.07422504 32.13424666 20.03835838 34.0671638 20 36 C13.09615306 34.81249176 8.68947391 31.25207557 4.3203125 25.93359375 C-0.1580437 19.37505434 -1.41362645 11.76345036 -1 4 C-0.5 1.5 -0.5 1.5 0 0 Z " fill="#0C96F7" transform="translate(248,180)"/>
<path d="M0 0 C0.33 0 0.66 0 1 0 C1.14695312 1.37671875 1.14695312 1.37671875 1.296875 2.78125 C2.59097505 13.4017952 4.06992051 20.22329856 12.609375 26.96875 C13.29773438 27.47921875 13.29773438 27.47921875 14 28 C13.01 28.33 12.02 28.66 11 29 C8.32727719 27.32954824 6.1677922 25.27618181 4 23 C3.67 23.66 3.34 24.32 3 25 C2.34 25.33 1.68 25.66 1 26 C1.05220703 27.80984375 1.05220703 27.80984375 1.10546875 29.65625 C1.13362984 31.27081928 1.16092749 32.88540379 1.1875 34.5 C1.21263672 35.29148438 1.23777344 36.08296875 1.26367188 36.8984375 C1.33454646 42.66290348 0.1576052 46.67215357 -2 52 C-1.70642396 55.27140826 -1.70642396 55.27140826 -1 58 C-1.33 58.66 -1.66 59.32 -2 60 C-0.68 60 0.64 60 2 60 C1.79375 59.38125 1.5875 58.7625 1.375 58.125 C1.25125 57.42375 1.1275 56.7225 1 56 C1.66 55.34 2.32 54.68 3 54 C7 54 7 54 10 55 C11.1875 57.0625 11.1875 57.0625 12 59 C9.23723823 58.47731534 6.6739124 57.89130413 4 57 C3.90847656 57.70511719 3.81695312 58.41023438 3.72265625 59.13671875 C2.85992047 62.5550178 1.38106777 64.87947955 -0.5625 67.8125 C-1.20316406 68.78832031 -1.84382813 69.76414062 -2.50390625 70.76953125 C-2.99761719 71.50558594 -3.49132812 72.24164063 -4 73 C-4.66 72.67 -5.32 72.34 -6 72 C-6 71.01 -6 70.02 -6 69 C-5.01 69 -4.02 69 -3 69 C-3 67.68 -3 66.36 -3 65 C-3.66 65 -4.32 65 -5 65 C-5.33 65.99 -5.66 66.98 -6 68 C-6.33 67.01 -6.66 66.02 -7 65 C-8.32 66.32 -9.64 67.64 -11 69 C-10.01 69.66 -9.02 70.32 -8 71 C-8.33 72.32 -8.66 73.64 -9 75 C-9.66 75 -10.32 75 -11 75 C-11.33 74.01 -11.66 73.02 -12 72 C-12.598125 72.165 -13.19625 72.33 -13.8125 72.5 C-16 73 -16 73 -19 73 C-18.34644531 72.41605469 -18.34644531 72.41605469 -17.6796875 71.8203125 C-8.19867642 62.91390815 -2.05189954 51.25724125 -1.57958984 38.11181641 C-1.51288078 30.11244711 -2.78338782 22.70536614 -5 15 C-4.34 14.67 -3.68 14.34 -3 14 C-2.34427396 11.25687336 -2.34427396 11.25687336 -1.9375 8.0625 C-1.08877722 2.17755444 -1.08877722 2.17755444 0 0 Z M-2 62 C-1 64 -1 64 -1 64 Z " fill="#1594F0" transform="translate(290,172)"/>
<path d="M0 0 C0.33 0 0.66 0 1 0 C1 5.94 1 11.88 1 18 C6.28 18 11.56 18 17 18 C17.0093457 19.52286621 17.01869141 21.04573242 17.02832031 22.61474609 C17.06838462 28.29928145 17.1341897 33.98328496 17.20751953 39.66748047 C17.2356339 42.12118667 17.25689553 44.57498184 17.27099609 47.02880859 C17.29255722 50.56914504 17.33927738 54.10842251 17.390625 57.6484375 C17.39185364 58.73426117 17.39308228 59.82008484 17.39434814 60.93881226 C17.55633838 69.48516248 19.54713571 76.0605513 24.0625 83.3125 C32.81863772 91.32343451 42.71961267 91.84431084 54 92 C54 92.33 54 92.66 54 93 C50.99900412 93.10890711 48.00203622 93.18773555 45 93.25 C44.16082031 93.28351563 43.32164062 93.31703125 42.45703125 93.3515625 C37.00655297 93.43606604 33.36822153 92.65972703 28.6730957 89.84179688 C26.89054229 88.76084948 26.89054229 88.76084948 24.1875 89.25 C23.465625 89.4975 22.74375 89.745 22 90 C21.01 90 20.02 90 19 90 C17.02 90.99 17.02 90.99 15 92 C15 87.05 15 82.1 15 77 C15.99 77.33 16.98 77.66 18 78 C17.51104248 76.92621094 17.02208496 75.85242188 16.51831055 74.74609375 C14.45809711 69.22130281 14.62297159 63.89457289 14.70703125 58.0625 C14.71127609 56.94182129 14.71552094 55.82114258 14.71989441 54.66650391 C14.73659689 51.11075126 14.77423432 47.55557941 14.8125 44 C14.82755769 41.57943531 14.8412442 39.15886167 14.85351562 36.73828125 C14.88647294 30.82529935 14.93819759 24.91274792 15 19 C10.05 19 5.1 19 0 19 C0 12.73 0 6.46 0 0 Z " fill="#2791DF" transform="translate(130,163)"/>
<path d="M0 0 C0.99 0.33 1.98 0.66 3 1 C2.38125 2.155 1.7625 3.31 1.125 4.5 C-3.23275607 13.35409801 -3.52122606 22.32372662 -4 32 C-4.66 32 -5.32 32 -6 32 C-6.33 29.69 -6.66 27.38 -7 25 C-7.66 25.33 -8.32 25.66 -9 26 C-9.33 26.99 -9.66 27.98 -10 29 C-10.66 29 -11.32 29 -12 29 C-11.67 30.98 -11.34 32.96 -11 35 C-11.64453125 35.34675781 -12.2890625 35.69351563 -12.953125 36.05078125 C-15.92471968 38.88060137 -15.60235264 41.1641093 -15.75 45.1875 C-15.80671875 46.45980469 -15.8634375 47.73210937 -15.921875 49.04296875 C-15.94765625 50.01878906 -15.9734375 50.99460938 -16 52 C-15.34 52 -14.68 52 -14 52 C-13.34 54.97 -12.68 57.94 -12 61 C-17.51143476 53.98544666 -17.81164756 47.59590231 -17.26025391 38.91796875 C-16.77386926 35.33350553 -15.06399597 32.60748204 -13.234375 29.5546875 C-11.21469901 25.37472517 -10.98886756 21.00072063 -10.46875 16.4296875 C-9.83174599 11.7689415 -8.53306378 7.43566454 -7 3 C-6.67 3.99 -6.34 4.98 -6 6 C-5.34 6 -4.68 6 -4 6 C-3.34 5.01 -2.68 4.02 -2 3 C-1.34 3 -0.68 3 0 3 C0 2.01 0 1.02 0 0 Z " fill="#1C98F1" transform="translate(231,163)"/>
<path d="M0 0 C0.33 0 0.66 0 1 0 C1.06058594 0.85722656 1.12117188 1.71445313 1.18359375 2.59765625 C1.61143536 8.43604873 2.059163 14.22057272 3 20 C0.18206525 20.93931158 -1.18341124 21.07972565 -4.0546875 20.9140625 C-5.22451172 20.84832031 -5.22451172 20.84832031 -6.41796875 20.78125 C-7.22878906 20.7296875 -8.03960937 20.678125 -8.875 20.625 C-9.67808594 20.58117187 -10.48117188 20.53734375 -11.30859375 20.4921875 C-15.30302458 20.25528551 -19.07944977 19.8404245 -23 19 C-22.93286699 25.29920815 -22.84300842 31.59780213 -22.73754883 37.89648438 C-22.70435062 40.0380116 -22.67630286 42.17962524 -22.65356445 44.32128906 C-22.61992496 47.40467054 -22.56760346 50.48726369 -22.51171875 53.5703125 C-22.50532883 54.52366486 -22.4989389 55.47701721 -22.49235535 56.45925903 C-22.37715151 61.70013974 -21.95322587 65.4811924 -19 70 C-15.25025011 73.02063186 -11.72980877 73.53629326 -7 74 C-7 74.33 -7 74.66 -7 75 C-16.002001 75.45772886 -16.002001 75.45772886 -20 72 C-25.08621431 65.92192771 -25.69053112 60.67106146 -25.48828125 52.9375 C-25.48120651 51.90560547 -25.47413177 50.87371094 -25.46684265 49.81054688 C-25.43902587 46.53960304 -25.37630954 43.27041969 -25.3125 40 C-25.28740077 37.77216027 -25.26459046 35.54429351 -25.24414062 33.31640625 C-25.19350759 27.87639305 -25.09562762 22.4401488 -25 17 C-16.75 17 -8.5 17 0 17 C0 11.39 0 5.78 0 0 Z " fill="#40A2E5" transform="translate(194,163)"/>
<path d="M0 0 C5.28 0 10.56 0 16 0 C16 0.33 16 0.66 16 1 C11.05 1 6.1 1 1 1 C1 5.95 1 10.9 1 16 C2.14339844 15.98839844 3.28679687 15.97679687 4.46484375 15.96484375 C5.95572754 15.95546712 7.44661309 15.94636679 8.9375 15.9375 C10.06961914 15.92493164 10.06961914 15.92493164 11.22460938 15.91210938 C13.14994313 15.90347559 15.07535581 15.94775667 17 16 C19.88512192 18.88512192 18.9800036 26.83172094 19.04666138 30.72616577 C19.02098888 33.45835471 18.95851044 36.18682891 18.87890625 38.91796875 C18.85529526 39.90122635 18.83168427 40.88448395 18.80735779 41.89753723 C18.73165224 44.99437373 18.64723587 48.09089881 18.5625 51.1875 C18.50918574 53.30532402 18.45644625 55.4231626 18.40429688 57.54101562 C18.27616553 62.69420227 18.14022932 67.84712896 18 73 C15.79651464 69.69477196 15.75436615 68.72339001 15.77294922 64.88598633 C15.77310028 63.84513382 15.77325134 62.80428131 15.77340698 61.73188782 C15.78372955 60.60993515 15.79405212 59.48798248 15.8046875 58.33203125 C15.8075174 57.18208176 15.81034729 56.03213226 15.81326294 54.84733582 C15.82447167 51.16895204 15.84957776 47.49081038 15.875 43.8125 C15.88502889 41.32096705 15.8941549 38.8294303 15.90234375 36.33789062 C15.92441331 30.22516691 15.95894812 24.11262453 16 18 C10.72 18 5.44 18 0 18 C0 12.06 0 6.12 0 0 Z " fill="#CFF7FE" transform="translate(131,163)"/>
<path d="M0 0 C7.26 0 14.52 0 22 0 C22 5.94 22 11.88 22 18 C30.25 18 38.5 18 47 18 C47 23.61 47 29.22 47 35 C38.75 35 30.5 35 22 35 C22 34.67 22 34.34 22 34 C29.92 34 37.84 34 46 34 C45.67 29.71 45.34 25.42 45 21 C37.08 20.67 29.16 20.34 21 20 C21 13.73 21 7.46 21 1 C14.4 1 7.8 1 1 1 C1 6.61 1 12.22 1 18 C0.67 18 0.34 18 0 18 C0 12.06 0 6.12 0 0 Z " fill="#D6FBFF" transform="translate(147,145)"/>
<path d="M0 0 C0.33 0 0.66 0 1 0 C1.25 5.625 1.25 5.625 -1 9 C-4.03866799 9.41137202 -6.92159703 9.13193156 -10 9 C-9.67 12.3 -9.34 15.6 -9 19 C2.55 19.33 14.1 19.66 26 20 C26 16.37 26 12.74 26 9 C23.69 9 21.38 9 19 9 C19 8.67 19 8.34 19 8 C21.97 8 24.94 8 28 8 C28 12.62 28 17.24 28 22 C15.13 22 2.26 22 -11 22 C-11 17.38 -11 12.76 -11 8 C-8.03 8 -5.06 8 -2 8 C-1.34 5.36 -0.68 2.72 0 0 Z " fill="#CDF2FE" transform="translate(41,232)"/>
<path d="M0 0 C4.83766699 0.41465717 6.85646376 2.4198615 10 6 C11.44430855 8.88861709 11.37688506 10.79647701 11 14 C8.15239055 17.57985188 5.46330117 19.8555638 1 21 C-1.3125 20.625 -1.3125 20.625 -3 20 C2.75 18 2.75 18 5 18 C5 17.34 5 16.68 5 16 C4.34 15.67 3.68 15.34 3 15 C2.06451336 11.6322481 1.90052699 8.4815554 2 5 C2.66 5 3.32 5 4 5 C2.68 3.35 1.36 1.7 0 0 Z " fill="#1695EE" transform="translate(336,214)"/>
<path d="M0 0 C13.86 0 27.72 0 42 0 C42 1.32 42 2.64 42 4 C40.35 4.33 38.7 4.66 37 5 C37 4.01 37 3.02 37 2 C24.79 2 12.58 2 0 2 C0 2.99 0 3.98 0 5 C-0.66 5 -1.32 5 -2 5 C-1.34 3.35 -0.68 1.7 0 0 Z " fill="#389CE6" transform="translate(65,225)"/>
<path d="M0 0 C0.99 0.33 1.98 0.66 3 1 C3.00631318 4.83480655 2.94633184 8.66591369 2.875 12.5 C2.87886719 14.11648437 2.87886719 14.11648437 2.8828125 15.765625 C2.67361347 24.34278539 0.40376892 28.66881702 -5.61450195 34.58789062 C-8.21367531 36.92121651 -9.42495261 38 -13 38 C-13 38.66 -13 39.32 -13 40 C-15.97 40.99 -18.94 41.98 -22 43 C-22 42.34 -22 41.68 -22 41 C-21.20335937 40.64808594 -20.40671875 40.29617187 -19.5859375 39.93359375 C-13.03278337 36.88023848 -7.81292046 34.27490553 -4 28 C-3.59007812 27.32839844 -3.18015625 26.65679687 -2.7578125 25.96484375 C1.29090939 17.82551664 0.34673129 8.84164801 0 0 Z " fill="#2497E7" transform="translate(369,211)"/>
<path d="M0 0 C7.06383032 8.62697484 6.84237734 20.38388563 6 31 C5.27406637 34.4669589 4.32583556 37.71697861 3 41 C2.67 41 2.34 41 2 41 C1.875 35.25 1.875 35.25 3 33 C3.29172012 29.75687697 3.27792433 26.50472351 3.3125 23.25 C3.34150391 22.35539062 3.37050781 21.46078125 3.40039062 20.5390625 C3.45647582 14.68894524 2.61543897 11.78704245 -1 7 C-0.75 3.125 -0.75 3.125 0 0 Z " fill="#D3F7FE" transform="translate(283,185)"/>
<path d="M0 0 C0.66 0.66 1.32 1.32 2 2 C3.38058594 2.2165625 3.38058594 2.2165625 4.7890625 2.4375 C8.27701592 3.04852834 10.35057542 4.19747762 13.375 6 C20.75717758 9.8863353 27.83540193 9.97927767 36 10 C36 10.33 36 10.66 36 11 C32.99900412 11.10890711 30.00203622 11.18773555 27 11.25 C25.74123047 11.30027344 25.74123047 11.30027344 24.45703125 11.3515625 C19.00655297 11.43606604 15.36822153 10.65972703 10.6730957 7.84179688 C8.89054229 6.76084948 8.89054229 6.76084948 6.1875 7.25 C5.465625 7.4975 4.74375 7.745 4 8 C3.01 8 2.02 8 1 8 C-1.15028304 8.94978897 -1.15028304 8.94978897 -3 10 C-2.05066101 6.64566891 -1.10251165 3.30753495 0 0 Z " fill="#219BF1" transform="translate(148,245)"/>
<path d="M0 0 C1.44826172 0.02707031 1.44826172 0.02707031 2.92578125 0.0546875 C5.28429037 0.10139065 7.6422817 0.17311788 10 0.25 C10 5.2 10 10.15 10 15.25 C15.61 15.25 21.22 15.25 27 15.25 C27 13.27 27 11.29 27 9.25 C27.33 9.25 27.66 9.25 28 9.25 C28 11.56 28 13.87 28 16.25 C21.73 16.25 15.46 16.25 9 16.25 C8.505 9.815 8.505 9.815 8 3.25 C0.43925135 0.72975045 -8.02862079 1.65897899 -15.29296875 4.69140625 C-17 5.25 -17 5.25 -19 4.25 C-12.43849566 0.3192875 -7.56678248 -0.27136048 0 0 Z " fill="#3B9FE7" transform="translate(336,162.75)"/>
<path d="M0 0 C7.26 0 14.52 0 22 0 C23.52056499 3.04112998 23.3741161 6.28197797 23.5625 9.625 C23.706875 12.05875 23.85125 14.4925 24 17 C31.26 17.33 38.52 17.66 46 18 C46 18.33 46 18.66 46 19 C37.75 19 29.5 19 21 19 C21 13.06 21 7.12 21 1 C14.07 1 7.14 1 0 1 C0 0.67 0 0.34 0 0 Z " fill="#3392DA" transform="translate(148,144)"/>
<path d="M0 0 C15.51 0 31.02 0 47 0 C47.495 1.98 47.495 1.98 48 4 C47.37456299 3.67854004 46.74912598 3.35708008 46.10473633 3.02587891 C41.82565685 1.61196903 37.80466837 1.64390038 33.32421875 1.5859375 C32.3990596 1.56657135 31.47390045 1.5472052 30.52070618 1.5272522 C27.57639683 1.46764746 24.63204798 1.42114752 21.6875 1.375 C19.68683225 1.33680264 17.68618064 1.29774988 15.68554688 1.2578125 C10.7904962 1.16196159 5.89536855 1.07786 1 1 C1 4.96 1 8.92 1 13 C4.3 13 7.6 13 11 13 C11 13.33 11 13.66 11 14 C7.37 14 3.74 14 0 14 C0 9.38 0 4.76 0 0 Z " fill="#C7F6FE" transform="translate(56,145)"/>
<path d="M0 0 C0.66 0 1.32 0 2 0 C4.0378512 5.0824496 4.33497989 9.48881799 4.3125 14.875 C4.32861328 15.63941406 4.34472656 16.40382812 4.36132812 17.19140625 C4.36607782 22.78654972 3.16916405 26.84962586 1 32 C0.62033354 33.65672637 0.26239024 35.32070245 0 37 C-0.66 37 -1.32 37 -2 37 C-2 37.99 -2 38.98 -2 40 C-2.66 40 -3.32 40 -4 40 C-3.80664062 39.43152344 -3.61328125 38.86304688 -3.4140625 38.27734375 C-3.15367187 37.50519531 -2.89328125 36.73304688 -2.625 35.9375 C-2.36976563 35.18339844 -2.11453125 34.42929688 -1.8515625 33.65234375 C-1.43003906 32.33943359 -1.43003906 32.33943359 -1 31 C-0.46052734 29.3603125 -0.46052734 29.3603125 0.08984375 27.6875 C1.06387905 23.74119387 1.2648207 20.09477458 1.1875 16.0625 C1.18105469 15.36318359 1.17460937 14.66386719 1.16796875 13.94335938 C1.09754967 9.22088016 0.77581674 4.65490043 0 0 Z " fill="#2192E2" transform="translate(287,192)"/>
<path d="M0 0 C1.46366342 0.39753821 2.9208935 0.81881384 4.375 1.25 C5.18710938 1.48203125 5.99921875 1.7140625 6.8359375 1.953125 C9.48720562 3.23568792 9.85305696 4.36627894 11 7 C13.05000871 7.80528889 13.05000871 7.80528889 15 8 C15 8.66 15 9.32 15 10 C19.95 10 24.9 10 30 10 C24.3476316 12.8261842 19.38886635 13.11305874 13.3359375 11.125 C7.43378914 8.41464788 3.86298518 5.18453275 0 0 Z " fill="#2495E6" transform="translate(219,225)"/>
<path d="M0 0 C0.99773437 0.00193359 1.99546875 0.00386719 3.0234375 0.00585938 C4.05984375 0.01810547 5.09625 0.03035156 6.1640625 0.04296875 C7.19273437 0.04361328 8.22140625 0.04425781 9.28125 0.04492188 C14.21922607 0.07355705 18.93854677 0.18869132 23.7890625 1.23046875 C23.7890625 1.56046875 23.7890625 1.89046875 23.7890625 2.23046875 C22.89151245 2.20690308 22.89151245 2.20690308 21.97583008 2.18286133 C6.73310753 1.83593679 -6.34358265 2.17137597 -20.2109375 9.23046875 C-19.8809375 7.58046875 -19.5509375 5.93046875 -19.2109375 4.23046875 C-18.53546875 4.10929688 -17.86 3.988125 -17.1640625 3.86328125 C-15.82601563 3.61191406 -15.82601563 3.61191406 -14.4609375 3.35546875 C-13.57921875 3.19304687 -12.6975 3.030625 -11.7890625 2.86328125 C-9.2569256 2.36268876 -9.2569256 2.36268876 -7.37548828 1.20532227 C-4.76172272 0.0281549 -2.86011098 -0.01299356 0 0 Z " fill="#2394E4" transform="translate(324.2109375,142.76953125)"/>
<path d="M0 0 C0.66 0.33 1.32 0.66 2 1 C-0.41679992 5.04264713 -3.55697209 6.60314016 -7.8125 8.25 C-8.49376953 8.51377441 -9.17503906 8.77754883 -9.87695312 9.04931641 C-19.27931599 12.27018783 -29.20753608 11.52807812 -39 11 C-39 10.34 -39 9.68 -39 9 C-37.44152344 9.03480469 -37.44152344 9.03480469 -35.8515625 9.0703125 C-22.49526533 9.28532257 -12.86272144 7.70331706 -1 1 C-0.67 0.67 -0.34 0.34 0 0 Z " fill="#2493E5" transform="translate(269,246)"/>
<path d="M0 0 C0.99 0.33 1.98 0.66 3 1 C2.071875 2.7325 2.071875 2.7325 1.125 4.5 C-3.23275607 13.35409801 -3.52122606 22.32372662 -4 32 C-4.66 32 -5.32 32 -6 32 C-6 26.72 -6 21.44 -6 16 C-5.34 16 -4.68 16 -4 16 C-4.04125 14.783125 -4.0825 13.56625 -4.125 12.3125 C-4.13754508 8.78105873 -3.59998217 6.19996434 -2 3 C-1.34 3 -0.68 3 0 3 C0 2.01 0 1.02 0 0 Z " fill="#2394E5" transform="translate(231,163)"/>
<path d="M0 0 C2.3129482 2.3129482 2.49580975 3.47904875 3.125 6.625 C3.29257813 7.44226563 3.46015625 8.25953125 3.6328125 9.1015625 C3.81457031 10.04128906 3.81457031 10.04128906 4 11 C1.36 11 -1.28 11 -4 11 C-4 15.62 -4 20.24 -4 25 C-4.66 25 -5.32 25 -6 25 C-6 20.05 -6 15.1 -6 10 C-2.29847322 9.07461831 -1.36541838 8.91825838 2 10 C2 9.01 2 8.02 2 7 C0.68 6.67 -0.64 6.34 -2 6 C-1.34 4.02 -0.68 2.04 0 0 Z " fill="#1D91E7" transform="translate(107,229)"/>
<path d="M0 0 C8.39267629 0.07485107 15.29476246 1.34288332 23.06640625 4.53125 C22.46828125 4.82 21.87015625 5.10875 21.25390625 5.40625 C18.87312833 6.57867026 18.87312833 6.57867026 16.06640625 8.53125 C16.06640625 7.21125 16.06640625 5.89125 16.06640625 4.53125 C13.42640625 4.20125 10.78640625 3.87125 8.06640625 3.53125 C8.06640625 2.87125 8.06640625 2.21125 8.06640625 1.53125 C4.76640625 1.53125 1.46640625 1.53125 -1.93359375 1.53125 C-2.59359375 2.85125 -3.25359375 4.17125 -3.93359375 5.53125 C-4.60026042 6.86458333 -5.26692708 8.19791667 -5.93359375 9.53125 C-6.59359375 9.53125 -7.25359375 9.53125 -7.93359375 9.53125 C-4.80604111 0.87033501 -4.80604111 0.87033501 0 0 Z " fill="#D0F6FE" transform="translate(238.93359375,159.46875)"/>
<path d="M0 0 C-0.33 5.94 -0.66 11.88 -1 18 C-2.93397299 15.09904052 -3.82808955 12.87533333 -4.8125 9.5625 C-5.10769531 8.61503906 -5.40289062 7.66757813 -5.70703125 6.69140625 C-6 4 -6 4 -4.76171875 1.65234375 C-3 0 -3 0 0 0 Z " fill="#0694F9" transform="translate(136,217)"/>
<path d="M0 0 C0.144375 0.61875 0.28875 1.2375 0.4375 1.875 C0.85045989 4.2869616 0.85045989 4.2869616 3.5 6 C6.20081918 8.16065535 6.40897541 8.77622951 7 12 C6.52691406 11.63648438 6.05382812 11.27296875 5.56640625 10.8984375 C1.11406876 7.51361952 -3.42365712 4.33867518 -8.1171875 1.296875 C-10 0 -10 0 -12 -2 C-7.49608025 -3.44768849 -3.94454804 -2.58435906 0 0 Z " fill="#1C94EA" transform="translate(272,165)"/>
<path d="M0 0 C3.68754757 0.49831724 5.60490662 1.10067643 8 4 C5.69 3.34 3.38 2.68 1 2 C1.33 5.96 1.66 9.92 2 14 C2.66 14 3.32 14 4 14 C4 17.3 4 20.6 4 24 C-0.75519134 17.65974488 -1.38419112 11.68382234 -1 4 C-0.5 1.5 -0.5 1.5 0 0 Z " fill="#3399E2" transform="translate(248,180)"/>
<path d="M0 0 C0.33 0 0.66 0 1 0 C1.09765625 6.15234375 1.09765625 6.15234375 1 8 C0.67 8.33 0.34 8.66 0 9 C-0.15620555 10.41327947 -0.25056173 11.8335459 -0.31640625 13.25390625 C-0.35830078 14.10791016 -0.40019531 14.96191406 -0.44335938 15.84179688 C-0.48267578 16.73962891 -0.52199219 17.63746094 -0.5625 18.5625 C-0.60568359 19.46419922 -0.64886719 20.36589844 -0.69335938 21.29492188 C-0.79978142 23.52978485 -0.90179988 25.76476308 -1 28 C-4.45378877 21.6424162 -3.8176109 13.79976395 -2.32421875 6.859375 C-1.62371674 4.53543469 -0.87601056 2.26302727 0 0 Z " fill="#BFEEFE" transform="translate(196,190)"/>
<path d="M0 0 C0.94875 0.04125 1.8975 0.0825 2.875 0.125 C-3.91928692 6.11995905 -10.11800922 6.44670714 -18.8125 6.375 C-20.2365918 6.38660156 -20.2365918 6.38660156 -21.68945312 6.3984375 C-22.60017578 6.39585937 -23.51089844 6.39328125 -24.44921875 6.390625 C-25.27510498 6.38836914 -26.10099121 6.38611328 -26.9519043 6.38378906 C-29.125 6.125 -29.125 6.125 -32.125 4.125 C-31.52026855 4.13547363 -30.91553711 4.14594727 -30.29248047 4.15673828 C-27.5283633 4.19854668 -24.76431292 4.22440451 -22 4.25 C-20.57300781 4.27513672 -20.57300781 4.27513672 -19.1171875 4.30078125 C-14.07434452 4.33580099 -9.803287 4.26236435 -5.125 2.125 C-3.125 0.125 -3.125 0.125 0 0 Z " fill="#CEF5FE" transform="translate(197.125,248.875)"/>
<path d="M0 0 C0.33 0 0.66 0 1 0 C1.06058594 0.85722656 1.12117188 1.71445313 1.18359375 2.59765625 C1.61143536 8.43604873 2.059163 14.22057272 3 20 C0.12469919 20.9584336 -1.29049931 21.06656387 -4.23046875 20.87890625 C-5.03291016 20.83056641 -5.83535156 20.78222656 -6.66210938 20.73242188 C-7.49548828 20.67634766 -8.32886719 20.62027344 -9.1875 20.5625 C-10.03248047 20.51029297 -10.87746094 20.45808594 -11.74804688 20.40429688 C-13.83236299 20.27476311 -15.91623182 20.13806823 -18 20 C-18 19.67 -18 19.34 -18 19 C-12.06 19 -6.12 19 0 19 C0 12.73 0 6.46 0 0 Z " fill="#1591EB" transform="translate(194,163)"/>
<path d="M0 0 C1.32 0 2.64 0 4 0 C5.42944945 2.35438733 6.08661261 3.48032433 5.625 6.25 C5.41875 6.8275 5.2125 7.405 5 8 C4.34 8 3.68 8 3 8 C2.34 9.98 1.68 11.96 1 14 C0.67 14 0.34 14 0 14 C0 9.38 0 4.76 0 0 Z " fill="#1390EB" transform="translate(145,240)"/>
<path d="M0 0 C0.66 0.33 1.32 0.66 2 1 C-0.995484 5.493226 -4.88968937 6.6068967 -10 8 C-14.06591181 8.50325624 -17.96867124 8.80390134 -22 8 C-24.3515625 5.96875 -24.3515625 5.96875 -26 4 C-25.67 3.34 -25.34 2.68 -25 2 C-24.3503125 2.7115625 -24.3503125 2.7115625 -23.6875 3.4375 C-20.64865323 6.25124701 -17.27725278 6.33011345 -13.265625 6.29296875 C-8.34077005 5.65613406 -3.50830444 3.50830444 0 0 Z " fill="#DBFCFF" transform="translate(198,231)"/>
<path d="M0 0 C1.39195915 4.17587745 -0.17676781 6.13474776 -2 10 C-2.33 10 -2.66 10 -3 10 C-3 8.35 -3 6.7 -3 5 C-5.46800047 6.15173355 -7.04783565 7.04783565 -9 9 C-9 8.34 -9 7.68 -9 7 C-10.32 7.33 -11.64 7.66 -13 8 C-9.45647382 3.68614204 -5.04807753 2.0278602 0 0 Z " fill="#D6F5FE" transform="translate(225,162)"/>
<path d="M0 0 C2.60452271 0.14086602 5.20850197 0.28748464 7.8125 0.4375 C8.91948242 0.49647461 8.91948242 0.49647461 10.04882812 0.55664062 C13.23071342 0.74381035 15.96162378 0.98720793 19 2 C19 2.66 19 3.32 19 4 C22.63 4 26.26 4 30 4 C30 4.33 30 4.66 30 5 C20.4902367 5.47814452 8.17589835 5.4505989 0 0 Z " fill="#2D97E4" transform="translate(302,231)"/>
<path d="M0 0 C0.66 0.33 1.32 0.66 2 1 C2.804375 0.79375 3.60875 0.5875 4.4375 0.375 C7 0 7 0 8.8125 1.3125 C10 3 10 3 10 5 C7.23723823 4.47731534 4.6739124 3.89130413 2 3 C1.896875 3.763125 1.79375 4.52625 1.6875 5.3125 C0.95635961 8.17059424 0.23048087 9.15742885 -2 11 C-2 9.35 -2 7.7 -2 6 C-1.34 6 -0.68 6 0 6 C-0.2784375 5.071875 -0.2784375 5.071875 -0.5625 4.125 C-1 2 -1 2 0 0 Z " fill="#1D95EC" transform="translate(292,226)"/>
<path d="M0 0 C3.1875 0.875 3.1875 0.875 6 2 C6 3.32 6 4.64 6 6 C5.01 6.495 5.01 6.495 4 7 C2.86649466 9.01669827 2.86649466 9.01669827 2 11 C2 10.34 2 9.68 2 9 C1.34 9 0.68 9 0 9 C0 7.02 0 5.04 0 3 C-0.99 2.67 -1.98 2.34 -3 2 C-2.01 1.34 -1.02 0.68 0 0 Z " fill="#0E94F3" transform="translate(225,160)"/>
<path d="M0 0 C4.62 2.31 9.24 4.62 14 7 C14 7.33 14 7.66 14 8 C13.05125 7.979375 12.1025 7.95875 11.125 7.9375 C8.09333717 7.77448174 8.09333717 7.77448174 6 9 C5.01 8.67 4.02 8.34 3 8 C3 7.34 3 6.68 3 6 C2.34 5.67 1.68 5.34 1 5 C1.33 4.01 1.66 3.02 2 2 C1.34 2 0.68 2 0 2 C0 1.34 0 0.68 0 0 Z " fill="#1A95EE" transform="translate(210,245)"/>
<path d="M0 0 C0.33 0 0.66 0 1 0 C1.6700834 2.12392506 2.33596797 4.24917524 3 6.375 C3.37125 7.55835938 3.7425 8.74171875 4.125 9.9609375 C5 13 5 13 5 15 C3.35 14.67 1.7 14.34 0 14 C-1.39151652 9.20699867 -0.68662689 4.84864218 0 0 Z " fill="#2398EC" transform="translate(227,196)"/>
<path d="M0 0 C3.06292796 1.12383718 6.12526477 2.24927677 9.1875 3.375 C10.48397461 3.85066406 10.48397461 3.85066406 11.80664062 4.3359375 C15.89320154 5.83904037 19.97049805 7.34815448 24 9 C18.23123023 10.92292326 11.55723607 8.20698677 6.2109375 5.68359375 C4.1011868 4.50816122 2.03491435 3.30008417 0 2 C0 1.34 0 0.68 0 0 Z " fill="#CEF5FE" transform="translate(322,184)"/>
<path d="M0 0 C0 0.33 0 0.66 0 1 C-1.39025391 1.09087891 -1.39025391 1.09087891 -2.80859375 1.18359375 C-4.60490234 1.30927734 -4.60490234 1.30927734 -6.4375 1.4375 C-7.63246094 1.51871094 -8.82742188 1.59992188 -10.05859375 1.68359375 C-12.88570244 1.67656114 -12.88570244 1.67656114 -14 3 C-16.34987262 3.23527773 -18.70556039 3.41386417 -21.0625 3.5625 C-22.35285156 3.64628906 -23.64320313 3.73007813 -24.97265625 3.81640625 C-25.97167969 3.87699219 -26.97070312 3.93757812 -28 4 C-19.9260077 -1.38266153 -9.31542458 -0.22357019 0 0 Z " fill="#BBE9FD" transform="translate(341,144)"/>
<path d="M0 0 C1.32 0.33 2.64 0.66 4 1 C3.61328125 1.4846875 3.2265625 1.969375 2.828125 2.46875 C-0.77941954 7.11212416 -3.52402614 11.66713323 -6 17 C-6.33 17 -6.66 17 -7 17 C-7 15.35 -7 13.7 -7 12 C-6.34 12 -5.68 12 -5 12 C-4.34 9.36 -3.68 6.72 -3 4 C-2.34 4 -1.68 4 -1 4 C-0.67 2.68 -0.34 1.36 0 0 Z " fill="#2495E8" transform="translate(202,175)"/>
<path d="M0 0 C0.99 0.495 0.99 0.495 2 1 C2.4140625 3.72265625 2.4140625 3.72265625 2.625 7.0625 C2.69976562 8.16722656 2.77453125 9.27195313 2.8515625 10.41015625 C2.90054687 11.26480469 2.94953125 12.11945313 3 13 C5.97 13.495 5.97 13.495 9 14 C9 14.33 9 14.66 9 15 C6.03 15 3.06 15 0 15 C0 10.05 0 5.1 0 0 Z " fill="#D5F5FE" transform="translate(346,163)"/>
<path d="M0 0 C0.66 0.33 1.32 0.66 2 1 C1.525625 1.86625 1.05125 2.7325 0.5625 3.625 C-1.96565188 9.38489319 -1.75092829 15.80756195 -2 22 C-2.33 22 -2.66 22 -3 22 C-3.33 16.06 -3.66 10.12 -4 4 C-3.01 3.67 -2.02 3.34 -1 3 C-0.67 2.01 -0.34 1.02 0 0 Z " fill="#DBFAFF" transform="translate(216,192)"/>
<path d="M0 0 C0.66 0 1.32 0 2 0 C2.33 0.99 2.66 1.98 3 3 C3.99 3.66 4.98 4.32 6 5 C3.69 6.32 1.38 7.64 -1 9 C-1 7.68 -1 6.36 -1 5 C-1.99 5.33 -2.98 5.66 -4 6 C-4 5.01 -4 4.02 -4 3 C-3.01 3 -2.02 3 -1 3 C-0.67 2.01 -0.34 1.02 0 0 Z " fill="#0E95F3" transform="translate(212,161)"/>
<path d="M0 0 C0.144375 0.598125 0.28875 1.19625 0.4375 1.8125 C0.8872439 3.56150404 1.42892341 5.28677023 2 7 C2.99 7 3.98 7 5 7 C5.33 8.32 5.66 9.64 6 11 C3.03 10.01 0.06 9.02 -3 8 C-3 4.42424104 -1.91159393 2.94704065 0 0 Z " fill="#D4F6FE" transform="translate(289,239)"/>
<path d="M0 0 C2.64 0.33 5.28 0.66 8 1 C8 1.99 8 2.98 8 4 C9.32 4 10.64 4 12 4 C12 4.66 12 5.32 12 6 C13.65 6 15.3 6 17 6 C17 6.66 17 7.32 17 8 C12.40191871 7.46105575 9.13215631 6.23428472 5.125 3.9375 C4.15820312 3.38964844 3.19140625 2.84179688 2.1953125 2.27734375 C1.47085937 1.85582031 0.74640625 1.43429688 0 1 C0 0.67 0 0.34 0 0 Z " fill="#2495E7" transform="translate(318,181)"/>
<path d="M0 0 C0.12375 0.53625 0.2475 1.0725 0.375 1.625 C0.99134413 4.14779539 0.99134413 4.14779539 2.1875 7.0625 C2.455625 8.031875 2.72375 9.00125 3 10 C2.01 11.485 2.01 11.485 1 13 C-1.24510613 10.56780169 -1.97120564 9.28218472 -2.3125 5.9375 C-2 3 -2 3 0 0 Z " fill="#1A91E8" transform="translate(316,168)"/>
<path d="M0 0 C0.66 0 1.32 0 2 0 C1.98839844 0.64066406 1.97679687 1.28132812 1.96484375 1.94140625 C1.91116881 7.08653222 2.11830422 11.93024924 3 17 C2.34 17 1.68 17 1 17 C0.01 13.37 -0.98 9.74 -2 6 C-1.34 6 -0.68 6 0 6 C0 4.02 0 2.04 0 0 Z " fill="#D8F8FE" transform="translate(246,182)"/>
<path d="M0 0 C0.33 0 0.66 0 1 0 C1 3.3 1 6.6 1 10 C0.67 10 0.34 10 0 10 C-0.33 11.98 -0.66 13.96 -1 16 C-1.66 16 -2.32 16 -3 16 C-2.57910004 10.39538469 -2.08386889 5.27913453 0 0 Z " fill="#2696E8" transform="translate(224,166)"/>
<path d="M0 0 C2.57343171 1.07918104 4.66603411 2.44402274 7 4 C5.73160474 4.50615298 4.46016898 5.00469099 3.1875 5.5 C2.12595703 5.91765625 2.12595703 5.91765625 1.04296875 6.34375 C-1 7 -1 7 -4 7 C-4 6.34 -4 5.68 -4 5 C-2.35 5 -0.7 5 1 5 C0.01 3.68 -0.98 2.36 -2 1 C-1.34 0.67 -0.68 0.34 0 0 Z " fill="#D6F4FE" transform="translate(254,248)"/>
<path d="M0 0 C2.795441 1.3977205 3.52887937 3.62662738 4.98046875 6.28515625 C6.0934307 8.15714972 7.42758152 9.50620245 9 11 C9 11.66 9 12.32 9 13 C9.66 13 10.32 13 11 13 C10.67 13.66 10.34 14.32 10 15 C5.38496316 11.83540331 2.41530347 8.00533102 0 3 C0 2.01 0 1.02 0 0 Z " fill="#CEF7FE" transform="translate(149,236)"/>
<path d="M0 0 C3.33333333 3.33333333 6.66666667 6.66666667 10 10 C6.85262818 9.30058404 3.97411124 8.23921302 1 7 C0.67 4.69 0.34 2.38 0 0 Z " fill="#DAF8FF" transform="translate(251,204)"/>
<path d="M0 0 C2.31 0 4.62 0 7 0 C7 0.33 7 0.66 7 1 C5.02 1 3.04 1 1 1 C1.66 4.3 2.32 7.6 3 11 C3.99 11.33 4.98 11.66 6 12 C6 12.33 6 12.66 6 13 C4.02 13 2.04 13 0 13 C0 8.71 0 4.42 0 0 Z " fill="#EAFFFF" transform="translate(104,240)"/>
<path d="M0 0 C1.98 0.66 3.96 1.32 6 2 C6 2.99 6 3.98 6 5 C1.25 6.125 1.25 6.125 -1 5 C-0.67 3.35 -0.34 1.7 0 0 Z " fill="#2396E6" transform="translate(248,229)"/>
<path d="M0 0 C1.875 0.625 1.875 0.625 4 2 C6.08841 6.47891704 6.2172658 10.48491262 6.125 15.375 C6.10695313 16.62023437 6.08890625 17.86546875 6.0703125 19.1484375 C6.04710937 20.08945313 6.02390625 21.03046875 6 22 C5.67 22 5.34 22 5 22 C4.96132813 20.74896484 4.96132813 20.74896484 4.921875 19.47265625 C4.55314542 12.15672623 3.5712507 6.42825125 0 0 Z " fill="#BEE9F8" transform="translate(263,190)"/>
<path d="M0 0 C2.12636813 0.28151916 4.25108528 0.57553263 6.375 0.875 C7.55835938 1.03742188 8.74171875 1.19984375 9.9609375 1.3671875 C13 2 13 2 15 4 C14.21625 4.309375 13.4325 4.61875 12.625 4.9375 C10.07669872 5.92875038 10.07669872 5.92875038 8 7 C8 5.68 8 4.36 8 3 C5.36 2.67 2.72 2.34 0 2 C0 1.34 0 0.68 0 0 Z " fill="#E3FAFE" transform="translate(247,161)"/>
<path d="M0 0 C0.66 0 1.32 0 2 0 C2.66 1.32 3.32 2.64 4 4 C4.33 4 4.66 4 5 4 C5 7.3 5 10.6 5 14 C2.99006295 10.98509443 2.27376659 8.7850073 1.375 5.3125 C1.11460937 4.31863281 0.85421875 3.32476562 0.5859375 2.30078125 C0.39257812 1.54152344 0.19921875 0.78226563 0 0 Z " fill="#1B93EC" transform="translate(130,221)"/>
<path d="M0 0 C0.33 0 0.66 0 1 0 C1.17563129 4.4785979 1.22085338 8.02584132 -1 12 C-1.99 12.33 -2.98 12.66 -4 13 C-3.52140759 11.39566191 -3.04210442 9.79153584 -2.5625 8.1875 C-2.29566406 7.29417969 -2.02882812 6.40085938 -1.75390625 5.48046875 C-1.19612127 3.64526945 -0.60655425 1.81966274 0 0 Z " fill="#D4F4FD" transform="translate(62,173)"/>
<path d="M0 0 C1.25955231 3.77865693 0.48087189 5.03411786 -0.9375 8.6875 C-1.31777344 9.68136719 -1.69804688 10.67523438 -2.08984375 11.69921875 C-2.39019531 12.45847656 -2.69054688 13.21773437 -3 14 C-3.33 14 -3.66 14 -4 14 C-4.56561146 8.34388537 -2.71391278 4.77357872 0 0 Z " fill="#2193E8" transform="translate(47,212)"/>
<path d="M0 0 C1.65 0 3.3 0 5 0 C5 0.66 5 1.32 5 2 C6.98 1.67 8.96 1.34 11 1 C10.67 2.65 10.34 4.3 10 6 C6.7 4.35 3.4 2.7 0 1 C0 0.67 0 0.34 0 0 Z " fill="#DCF9FE" transform="translate(249,179)"/>
<path d="M0 0 C0.99 0.33 1.98 0.66 3 1 C3 1.66 3 2.32 3 3 C-2.28 3 -7.56 3 -13 3 C-13 2.67 -13 2.34 -13 2 C-12.22914063 1.93941406 -11.45828125 1.87882813 -10.6640625 1.81640625 C-9.15972656 1.69072266 -9.15972656 1.69072266 -7.625 1.5625 C-6.62726563 1.48128906 -5.62953125 1.40007812 -4.6015625 1.31640625 C-2.02072387 1.15034374 -2.02072387 1.15034374 0 0 Z " fill="#AEE5FE" transform="translate(343,160)"/>
<path d="M0 0 C1.68156755 2.52235132 3.16468006 5.03586642 4.625 7.6875 C5.07101563 8.49574219 5.51703125 9.30398437 5.9765625 10.13671875 C6.31429687 10.75160156 6.65203125 11.36648437 7 12 C6.01 12.495 6.01 12.495 5 13 C5 12.34 5 11.68 5 11 C4.34 11 3.68 11 3 11 C0 4.5 0 4.5 0 0 Z " fill="#349EE6" transform="translate(148,236)"/>
<path d="M0 0 C0.99 0.33 1.98 0.66 3 1 C0.69 3.64 -1.62 6.28 -4 9 C-4.33 8.01 -4.66 7.02 -5 6 C-3.59554165 3.7363436 -1.8032087 1.9791315 0 0 Z " fill="#DBF7FE" transform="translate(279,233)"/>
<path d="M0 0 C-2 2 -2 2 -4.3828125 2.1953125 C-5.28773438 2.17210937 -6.19265625 2.14890625 -7.125 2.125 C-8.49011719 2.09792969 -8.49011719 2.09792969 -9.8828125 2.0703125 C-10.58148438 2.04710937 -11.28015625 2.02390625 -12 2 C-7.6819255 -1.78317789 -5.4205075 -0.99375971 0 0 Z " fill="#1095F5" transform="translate(192,235)"/>
<path d="M0 0 C0.33 0.99 0.66 1.98 1 3 C-0.875 5.5625 -0.875 5.5625 -3 8 C-3.33 8.66 -3.66 9.32 -4 10 C-4.66 10 -5.32 10 -6 10 C-4.79157144 5.56909529 -3.48331435 3.01887244 0 0 Z " fill="#D1F7FE" transform="translate(299,156)"/>
<path d="M0 0 C7.38461538 -0.49230769 7.38461538 -0.49230769 10.5 2 C10.995 2.66 11.49 3.32 12 4 C7.6822542 3.49202991 3.96697886 2.80317221 0 1 C0 0.67 0 0.34 0 0 Z " fill="#C9F0FD" transform="translate(221,251)"/>
<path d="M0 0 C0.66 0.33 1.32 0.66 2 1 C-0.54395217 4.81592825 -2.71755613 5.52329522 -7 7 C-9.2265625 6.578125 -9.2265625 6.578125 -11 6 C-10.37351563 5.73445312 -9.74703125 5.46890625 -9.1015625 5.1953125 C-8.28429687 4.84210938 -7.46703125 4.48890625 -6.625 4.125 C-5.40683594 3.60292969 -5.40683594 3.60292969 -4.1640625 3.0703125 C-1.86197701 2.07553933 -1.86197701 2.07553933 0 0 Z " fill="#CAF1FE" transform="translate(198,231)"/>
<path d="M0 0 C0.99 0 1.98 0 3 0 C6.125 6.625 6.125 6.625 5 10 C4.16121545 8.71186658 3.32913217 7.41936744 2.5 6.125 C2.0359375 5.40570313 1.571875 4.68640625 1.09375 3.9453125 C0 2 0 2 0 0 Z " fill="#1C94EB" transform="translate(279,177)"/>
<path d="M0 0 C3.63 0 7.26 0 11 0 C10.67 1.65 10.34 3.3 10 5 C9.67 4.01 9.34 3.02 9 2 C6.03 1.67 3.06 1.34 0 1 C0 0.67 0 0.34 0 0 Z " fill="#268DD7" transform="translate(56,159)"/>
<path d="M0 0 C0.66 0.99 1.32 1.98 2 3 C0.02 5.97 0.02 5.97 -2 9 C-2.66 8.67 -3.32 8.34 -4 8 C-4 7.01 -4 6.02 -4 5 C-3.01 5 -2.02 5 -1 5 C-0.67 3.35 -0.34 1.7 0 0 Z " fill="#1D98ED" transform="translate(288,236)"/>
<path d="M0 0 C1.10844919 3.32534757 0.84454356 5.62182575 0 9 C-0.66 9 -1.32 9 -2 9 C-2 9.99 -2 10.98 -2 12 C-2.66 12 -3.32 12 -4 12 C-2.66666667 8 -1.33333333 4 0 0 Z " fill="#349DE7" transform="translate(287,220)"/>
<path d="M0 0 C0.99 0.33 1.98 0.66 3 1 C2.67 5.62 2.34 10.24 2 15 C1.67 15 1.34 15 1 15 C0.67 10.05 0.34 5.1 0 0 Z " fill="#2F9BE9" transform="translate(369,211)"/>
<path d="M0 0 C2 2 2 2 2.1953125 4.1640625 C2.16050781 5.38222656 2.16050781 5.38222656 2.125 6.625 C2.10695313 7.44226563 2.08890625 8.25953125 2.0703125 9.1015625 C2.04710937 9.72804687 2.02390625 10.35453125 2 11 C0.4375 9.4375 0.4375 9.4375 -1 7 C-0.6875 3.25 -0.6875 3.25 0 0 Z " fill="#E3FBFF" transform="translate(283,185)"/>
<path d="M0 0 C0.66 0.99 1.32 1.98 2 3 C0.02 4.32 -1.96 5.64 -4 7 C-4.66 6.67 -5.32 6.34 -6 6 C-4.02 4.02 -2.04 2.04 0 0 Z " fill="#E7FCFE" transform="translate(211,170)"/>
<path d="M0 0 C2.45823172 3.68734758 3.01242616 6.69699971 4 11 C2 9.4375 2 9.4375 0 7 C-0.25 3.25 -0.25 3.25 0 0 Z " fill="#C7F0FD" transform="translate(125,209)"/>
<path d="M0 0 C3.25 -0.25 3.25 -0.25 7 0 C8.32 1.32 9.64 2.64 11 4 C7.37 3.01 3.74 2.02 0 1 C0 0.67 0 0.34 0 0 Z " fill="#C9F1FD" transform="translate(319,207)"/>
<path d="M0 0 C0.33 0 0.66 0 1 0 C1.29296875 6.0546875 1.29296875 6.0546875 1 8 C0.01 8.66 -0.98 9.32 -2 10 C-1.125 2.25 -1.125 2.25 0 0 Z " fill="#CCF1FD" transform="translate(196,190)"/>
<path d="M0 0 C1.10191901 4.40767604 0.58706842 5.8922935 -1 10 C-1.66 10 -2.32 10 -3 10 C-2.01 6.7 -1.02 3.4 0 0 Z " fill="#C7F0FD" transform="translate(55,193)"/>
<path d="M0 0 C3.93673644 1.31224548 6.22719294 2.91910327 9 6 C8.01 6 7.02 6 6 6 C6 5.34 6 4.68 6 4 C5.071875 3.7834375 5.071875 3.7834375 4.125 3.5625 C2 3 2 3 0 2 C0 1.34 0 0.68 0 0 Z " fill="#CDF5FF" transform="translate(262,165)"/>
<path d="M0 0 C0.66 0.66 1.32 1.32 2 2 C1.34 3.98 0.68 5.96 0 8 C-2 5 -2 5 -3 2 C-2.01 1.34 -1.02 0.68 0 0 Z " fill="#E4F9FE" transform="translate(63,224)"/>
<path d="M0 0 C0.33 0.99 0.66 1.98 1 3 C-1.92824652 3.97608217 -3.95613276 4.08226668 -7 4 C-4.61426621 2.10786631 -2.92824652 0.97608217 0 0 Z " fill="#B3ECFD" transform="translate(225,162)"/>
</svg>
