<?xml version="1.0" encoding="UTF-8"?>
<svg version="1.1" xmlns="http://www.w3.org/2000/svg" width="400" height="400">
<path d="M0 0 C132 0 264 0 400 0 C400 132 400 264 400 400 C268 400 136 400 0 400 C0 268 0 136 0 0 Z " fill="#FEFDFD" transform="translate(0,0)"/>
<path d="M0 0 C1.28003906 -0.00386719 2.56007813 -0.00773437 3.87890625 -0.01171875 C18.93252041 0.00368925 37.77590423 0.19281656 49.734375 10.76953125 C59.45711304 20.97009616 62.43438318 34.21349622 62.19140625 47.93359375 C61.58568531 54.04314943 59.57901599 58.88847901 55.875 63.75 C41.95762155 70.12879846 21.93743424 59.98894612 8.80712891 55.12158203 C-1.21166175 51.37968352 -11.1785567 47.50567289 -21.12890625 43.5859375 C-24.16885424 42.38956286 -27.20922374 41.19426787 -30.25 40 C-30.99892517 39.70564056 -31.74785034 39.41128113 -32.51947021 39.10800171 C-46.57457704 33.59753033 -60.7785187 28.70392427 -75.14990234 24.08447266 C-79.15160793 22.79391768 -83.13868894 21.4622609 -87.125 20.125 C-65.14790186 2.02942914 -26.98132424 -0.0820101 0 0 Z " fill="#CD022B" transform="translate(236.125,53.875)"/>
<path d="M0 0 C9.08596441 3.04879344 18.00628833 6.48142799 26.9140625 10.01171875 C29.08702436 10.86773403 31.26021253 11.72317501 33.43359375 12.578125 C34.5719165 13.02607422 35.71023926 13.47402344 36.88305664 13.93554688 C41.66639659 15.81673595 46.45055938 17.69579855 51.23632812 19.57080078 C53.69399359 20.53370184 56.15102289 21.49822816 58.60742188 22.46435547 C74.84158824 28.82981241 91.067545 34.48800758 107.9140625 39.01171875 C103.78855588 42.72956661 99.65770745 44.59107135 94.5390625 46.51171875 C93.74395264 46.81432617 92.94884277 47.11693359 92.12963867 47.42871094 C80.05595799 51.9260636 67.59096031 54.77352128 54.9140625 57.01171875 C54.0492627 57.1830835 53.18446289 57.35444824 52.29345703 57.53100586 C42.80063845 59.24191196 33.42654411 59.35034271 23.81298828 59.32739258 C21.05070493 59.32423207 18.28949566 59.34777581 15.52734375 59.37304688 C-0.72564162 59.43073804 -17.78315901 58.64270848 -30.30078125 46.99609375 C-39.51327235 36.75551284 -41.42762 23.66013322 -41.30078125 10.3984375 C-40.93528258 4.63684936 -39.82879827 0.66956192 -35.5234375 -3.42578125 C-25.37497999 -9.93120273 -10.46500361 -3.39926588 0 0 Z " fill="#CD022B" transform="translate(142.0859375,154.98828125)"/>
<path d="M0 0 C0.95600098 0.00580078 1.91200195 0.01160156 2.89697266 0.01757812 C11.34410192 0.16995661 19.29252323 1.39956146 27.5 3.375 C27.5 4.365 27.5 5.355 27.5 6.375 C25.92578125 7.69921875 25.92578125 7.69921875 23.8125 9.0625 C18.39002938 12.91783815 14.80772556 17.78353478 13.5 24.375 C12.44281622 37.32550131 18.8008948 50.09739581 26.8125 59.875 C27.48925781 60.6484375 28.16601562 61.421875 28.86328125 62.21875 C30.4824748 64.3519119 31.08982156 65.75936936 31.5 68.375 C27.81177884 67.79488077 25.07109817 66.79021687 21.83984375 64.93359375 C20.53466797 64.18819336 20.53466797 64.18819336 19.203125 63.42773438 C18.29046875 62.89470703 17.3778125 62.36167969 16.4375 61.8125 C15.49519531 61.26529297 14.55289063 60.71808594 13.58203125 60.15429688 C10.87995078 58.5743614 8.187449 56.97967512 5.5 55.375 C4.53924561 54.80289795 4.53924561 54.80289795 3.55908203 54.21923828 C-9.24294691 46.4819149 -22.34937868 35.86112248 -27.5 21.375 C-27.97765344 16.12081215 -27.39104806 12.80794036 -24.5 8.375 C-17.37574261 1.25074261 -9.76014278 -0.14380845 0 0 Z " fill="#EF7C02" transform="translate(118.5,69.625)"/>
<path d="M0 0 C5.65454956 0.47934957 9.46750954 2.72075719 14.1875 5.625 C14.94216553 6.08156982 15.69683105 6.53813965 16.47436523 7.00854492 C17.97815227 7.92130008 19.47929207 8.83843322 20.97753906 9.76025391 C22.6384196 10.77835523 24.31345662 11.77332759 25.9921875 12.76171875 C31.75889284 16.24102273 37.04957774 20.24954742 42.3125 24.4375 C43.3180896 25.2260437 43.3180896 25.2260437 44.34399414 26.03051758 C50.42268368 30.97158586 57.36084065 37.66376268 58.3359375 45.8046875 C58.46940663 56.29536144 58.46940663 56.29536144 54 61 C44.66575825 68.30505876 33.16424383 68.71828608 21.75927734 67.45166016 C15.42702948 66.64427244 9.1952795 65.54881987 3 64 C4 61 4 61 6.75 59.1875 C12.32610634 55.4343515 15.22982788 51.42564681 17 45 C18.75881346 29.70757984 12.78975729 19.04004527 4 7 C2.88818359 5.65228516 2.88818359 5.65228516 1.75390625 4.27734375 C0 2 0 2 0 0 Z " fill="#EE7D05" transform="translate(249,131)"/>
<path d="M0 0 C2.64 0 5.28 0 8 0 C8 1.65 8 3.3 8 5 C8.928125 4.360625 9.85625 3.72125 10.8125 3.0625 C17.03268022 -0.96232249 24.21940363 -0.99205186 31.390625 0.49609375 C36.95974077 2.37726454 40.15185785 5.54627729 43.609375 10.13671875 C45.47979861 13.98789995 45.47787794 17.21249951 45.4375 21.4375 C45.4674707 22.54448242 45.4674707 22.54448242 45.49804688 23.67382812 C45.49242888 29.99406728 43.19555695 33.35018989 39.1875 38.1875 C33.49416203 42.90483718 28.17900392 43.52552587 20.95703125 43.37109375 C16.60735656 42.82522969 13.71348222 41.28521983 10 39 C9.67 44.28 9.34 49.56 9 55 C6.03 55 3.06 55 0 55 C0 36.85 0 18.7 0 0 Z " fill="#090909" transform="translate(188,239)"/>
<path d="M0 0 C1.0725 0.66 2.145 1.32 3.25 2 C3.58 0.68 3.91 -0.64 4.25 -2 C6.89 -2 9.53 -2 12.25 -2 C12.25 12.19 12.25 26.38 12.25 41 C9.61 41 6.97 41 4.25 41 C3.755 39.02 3.755 39.02 3.25 37 C2.1775 37.66 1.105 38.32 0 39 C-6.32135834 42.11600526 -12.86186593 42.17021511 -19.56640625 40.15234375 C-24.59636226 37.9409622 -28.30013403 35.34174105 -30.91015625 30.4375 C-33.09476425 24.09705631 -33.74470573 16.93221049 -31.625 10.5 C-25.38342066 -1.15094811 -12.15740524 -6.03559125 0 0 Z " fill="#080808" transform="translate(296.75,241)"/>
<path d="M0 0 C1.07314453 0.72896484 1.07314453 0.72896484 2.16796875 1.47265625 C2.82796875 1.47265625 3.48796875 1.47265625 4.16796875 1.47265625 C4.49796875 0.48265625 4.82796875 -0.50734375 5.16796875 -1.52734375 C7.47796875 -1.52734375 9.78796875 -1.52734375 12.16796875 -1.52734375 C12.16796875 12.66265625 12.16796875 26.85265625 12.16796875 41.47265625 C9.85796875 41.47265625 7.54796875 41.47265625 5.16796875 41.47265625 C4.50796875 40.15265625 3.84796875 38.83265625 3.16796875 37.47265625 C2.40484375 37.94703125 1.64171875 38.42140625 0.85546875 38.91015625 C-5.1467852 41.86881444 -12.1939145 42.2556122 -18.58203125 40.41015625 C-24.42794899 38.08436102 -29.18458098 34.6523922 -31.76953125 28.78515625 C-33.672595 22.62679467 -33.82031712 16.14102811 -31.58203125 10.09765625 C-31.00453125 9.23140625 -30.42703125 8.36515625 -29.83203125 7.47265625 C-29.27515625 6.60640625 -28.71828125 5.74015625 -28.14453125 4.84765625 C-21.28517938 -2.1970835 -8.91902322 -4.81012149 0 0 Z " fill="#060606" transform="translate(295.83203125,304.52734375)"/>
<path d="M0 0 C2.8125 2.4375 2.8125 2.4375 5 5 C5.5775 5.66 6.155 6.32 6.75 7 C9.68235587 11.6917694 9.50224725 17.62774812 9 23 C7.60275406 28.74309178 5.24837427 33.71715633 0.3046875 37.19140625 C-7.2749609 41.32706992 -17.32168835 41.44305965 -25.59765625 39.33984375 C-30.48482691 37.16462906 -34.0445487 33.40761076 -37 29 C-38.19104332 25.42687005 -38.20528823 22.45446678 -38.25 18.6875 C-38.27578125 17.39199219 -38.3015625 16.09648437 -38.328125 14.76171875 C-37.84916685 9.27080564 -36.16253826 6.13611694 -32.25 2.3125 C-22.65847574 -4.51223841 -10.61700873 -5.59805915 0 0 Z " fill="#070707" transform="translate(175,242)"/>
<path d="M0 0 C5.90256734 3.00398517 9.87130458 7.02587594 12.125 13.3125 C12.125 16.6125 12.125 19.9125 12.125 23.3125 C0.245 23.3125 -11.635 23.3125 -23.875 23.3125 C-20.72433871 29.94336766 -20.72433871 29.94336766 -14.875 33.3125 C-8.01059803 34.15054084 -2.95138353 33.72120296 3.125 30.3125 C5.8125 30.375 5.8125 30.375 8.125 31.3125 C9.16525417 32.6146709 10.17089096 33.9459519 11.125 35.3125 C9.56833045 36.3009096 8.00437574 37.27785082 6.4375 38.25 C5.56738281 38.79527344 4.69726562 39.34054687 3.80078125 39.90234375 C-2.34199931 43.13963394 -9.91905855 43.36741772 -16.5703125 41.59375 C-23.75837942 38.93309239 -28.33017768 35.22490353 -31.875 28.3125 C-34.39416538 21.67106401 -32.9982569 14.94236471 -30.27734375 8.6484375 C-24.06573869 -1.69847009 -10.68615294 -4.41384578 0 0 Z " fill="#090909" transform="translate(198.875,303.6875)"/>
<path d="M0 0 C2.5625 1.6875 2.5625 1.6875 4 3 C3.67 4.32 3.34 5.64 3 7 C-3.39810593 8.37998363 -3.39810593 8.37998363 -6.3203125 6.53515625 C-9.65875087 4.62261066 -11.86824957 4.66290193 -15.6875 4.75 C-16.82574219 4.76546875 -17.96398437 4.7809375 -19.13671875 4.796875 C-21.94383826 4.81241926 -21.94383826 4.81241926 -24 6 C-23.67 7.65 -23.34 9.3 -23 11 C-17.20918275 12.79239582 -11.35256813 13.97049788 -5.40234375 15.12109375 C-1.09431142 16.23396088 2.59769167 17.69117889 5.875 20.75 C7.50340357 24.00680714 7.37833086 26.40585687 7 30 C5.088114 34.56728322 2.21721752 36.53995645 -2 39 C-6.10428782 40.36809594 -9.95014331 40.26356385 -14.25 40.3125 C-15.08402344 40.34150391 -15.91804688 40.37050781 -16.77734375 40.40039062 C-23.94289074 40.47350845 -27.98429601 38.62907527 -33.4375 33.875 C-35 32 -35 32 -35 30 C-32.68164713 28.54029634 -31.38987957 27.96922003 -28.625 28.1875 C-26 29 -26 29 -23.375 30.5625 C-18.56796449 32.60994105 -14.15629072 32.59583804 -9 32 C-5.4436007 30.68796267 -5.4436007 30.68796267 -3 29 C-3 27.68 -3 26.36 -3 25 C-9.73178059 22.51987031 -16.39065631 21.10683868 -23.44921875 19.94140625 C-27.32983503 18.91255199 -29.84447954 17.45534501 -33 15 C-34.74144037 11.51711927 -34.57855206 7.80003515 -34 4 C-26.67758775 -6.12215811 -10.27172446 -5.01169853 0 0 Z " fill="#0A0A0A" transform="translate(126,242)"/>
<path d="M0 0 C0.76892578 -0.01611328 1.53785156 -0.03222656 2.33007812 -0.04882812 C8.30455665 -0.05386988 14.34382744 0.66915972 18.91333008 4.91674805 C19.33380615 5.37734619 19.75428223 5.83794434 20.1875 6.3125 C19.1875 9.3125 19.1875 9.3125 16.4375 10.6875 C13.1875 11.3125 13.1875 11.3125 10.625 10 C9.820625 9.443125 9.01625 8.88625 8.1875 8.3125 C3.29572606 6.85818883 -2.54214431 6.40435772 -7.3125 8.3125 C-7.8075 8.6425 -8.3025 8.9725 -8.8125 9.3125 C-8.61778889 11.26249129 -8.61778889 11.26249129 -7.8125 13.3125 C-3.72938874 16.04480754 1.32995989 16.32630349 6.08007812 17.08007812 C11.81940275 18.06287638 16.7763166 19.64321919 21.625 23 C23.90316456 26.37168355 23.89069189 29.43746382 23.1875 33.3125 C21.33271209 37.69654415 19.07342673 39.68957979 14.875 41.6875 C7.02206128 44.46802201 -2.4604335 44.71054944 -10.4375 42.1875 C-14.40314634 39.98436314 -16.20750574 37.97577318 -18.8125 34.3125 C-17.53735508 31.76221017 -16.40908703 31.38168289 -13.8125 30.3125 C-10.8125 30.3125 -10.8125 30.3125 -9.3125 31.75 C-8.8175 32.265625 -8.3225 32.78125 -7.8125 33.3125 C-4.25959436 34.49680188 -1.00999544 34.49647858 2.6875 34.5 C3.36425781 34.51224609 4.04101562 34.52449219 4.73828125 34.53710938 C8.45107044 34.54809396 10.01733076 34.42594616 13.1875 32.3125 C12.6925 29.8375 12.6925 29.8375 12.1875 27.3125 C3.78227253 25.17290759 3.78227253 25.17290759 -4.6875 23.3125 C-9.78174967 22.19582571 -14.44568112 20.45108253 -17.8125 16.3125 C-18.73038137 11.8967464 -18.36533199 8.27483716 -16.125 4.375 C-11.21127589 -0.00751069 -6.2794794 -0.02592683 0 0 Z " fill="#0A0A0A" transform="translate(110.8125,302.6875)"/>
<path d="M0 0 C4.44283595 2.47773543 6.64509106 4.99777318 8.25 9.8125 C8.70602695 15.85485711 7.62930873 19.78428889 3.875 24.5625 C-1.09367512 28.38455778 -6.70858278 28.57592402 -12.75 27.8125 C-16.41242403 26.55077105 -19.02506068 24.5842096 -21.6875 21.75 C-23.67043396 16.26777081 -23.62618677 10.38629863 -21.75 4.875 C-15.53595124 -1.53323778 -8.36935187 -2.65029476 0 0 Z " fill="#F8F8F8" transform="translate(167.75,247.1875)"/>
<path d="M0 0 C3.27995861 3.53890271 4.2743502 6.28284269 4.4375 11 C4.24280205 15.31580458 3.54280363 18.40500176 1 22 C-1.5625 23.8125 -1.5625 23.8125 -4 25 C-4.66 25.33 -5.32 25.66 -6 26 C-12.43020291 26.42868019 -16.52564291 25.729852 -21.75 21.625 C-24.73426867 17.74545073 -25.44385067 13.86948889 -25.32421875 8.9921875 C-24.61311116 4.62273125 -21.42222459 0.70926113 -18 -2 C-11.96047886 -4.46054565 -5.26208822 -3.58778742 0 0 Z " fill="#F8F8F8" transform="translate(221,249)"/>
<path d="M0 0 C3.48665715 2.37726624 4.96049365 4.02067864 6.75 7.875 C7.52661125 13.20033427 7.40429258 17.46575444 5.125 22.375 C1.30339278 26.39774444 -1.67776636 27.70030737 -7.1875 28.3125 C-11.60865423 28.10116376 -14.94534307 26.8458532 -18.25 23.875 C-21.17079985 20.08131744 -22.61485804 16.49755111 -22.1875 11.6875 C-20.84429996 6.22515318 -19.06421295 2.88388309 -14.25 -0.125 C-9.23972375 -1.79509208 -4.91956683 -1.70292698 0 0 Z " fill="#F9F9F9" transform="translate(294.25,247.125)"/>
<path d="M0 0 C3.19665381 1.1729167 5.27051018 2.85654364 7.12890625 5.76953125 C8.22983842 8.58851003 8.30106604 10.91512235 8.3125 13.9375 C8.32925781 14.95714844 8.34601563 15.97679687 8.36328125 17.02734375 C7.94856164 20.42090962 7.00835885 22.2582786 5 25 C0.52023826 28.24782726 -3.9123787 28.62106352 -9.30078125 28.49609375 C-13.63593714 27.69932848 -16.24844987 25.33993192 -19 22 C-21.11577584 17.76844833 -20.63707139 12.58223826 -20 8 C-15.36058326 -0.45087602 -9.00495664 -0.85817472 0 0 Z " fill="#F9F9F9" transform="translate(292,310)"/>
<path d="M0 0 C2.64 0 5.28 0 8 0 C8 3.3 8 6.6 8 10 C12.29 10 16.58 10 21 10 C21 12.31 21 14.62 21 17 C16.71 17 12.42 17 8 17 C8.11343964 21.12562069 8.24019838 25.25007045 8.375 29.375 C8.4059375 30.550625 8.436875 31.72625 8.46875 32.9375 C8.50742188 34.05898438 8.54609375 35.18046875 8.5859375 36.3359375 C8.63306885 37.89127197 8.63306885 37.89127197 8.68115234 39.47802734 C8.75954472 42.16809835 8.75954472 42.16809835 11 44 C13.66242821 44.46290221 13.66242821 44.46290221 16.625 44.625 C17.62789062 44.69976562 18.63078125 44.77453125 19.6640625 44.8515625 C20.43492187 44.90054688 21.20578125 44.94953125 22 45 C22 47.31 22 49.62 22 52 C19.60293877 52.10854617 17.21084162 52.18753157 14.8125 52.25 C14.13896484 52.28351563 13.46542969 52.31703125 12.77148438 52.3515625 C9.29421107 52.41941174 7.17066225 52.09778737 4.13671875 50.359375 C0.29326402 46.11541401 -0.25278347 41.51999651 -0.1953125 35.9453125 C-0.18886719 34.83671875 -0.18242187 33.728125 -0.17578125 32.5859375 C-0.15902344 31.44382812 -0.14226562 30.30171875 -0.125 29.125 C-0.11597656 27.9596875 -0.10695312 26.794375 -0.09765625 25.59375 C-0.07417432 22.72895423 -0.04133141 19.86458465 0 17 C-2.64 17 -5.28 17 -8 17 C-8 14.69 -8 12.38 -8 10 C-5.36 10 -2.72 10 0 10 C0 6.7 0 3.4 0 0 Z " fill="#060606" transform="translate(143,293)"/>
<path d="M0 0 C2.64 0 5.28 0 8 0 C8 1.65 8 3.3 8 5 C8.5775 4.649375 9.155 4.29875 9.75 3.9375 C12.35801776 2.85082593 13.39417629 3.06934867 16 4 C14.73604399 8.52917571 13.05897727 11.44763929 10 15 C8.40239731 18.19520539 8.62522143 21.5236057 9 25 C10.34940652 28.31217963 11.4792773 30.4792773 14 33 C13.625 36.625 13.625 36.625 13 40 C12.01 39.67 11.02 39.34 10 39 C9.67 44.28 9.34 49.56 9 55 C6.03 55 3.06 55 0 55 C0 36.85 0 18.7 0 0 Z " fill="#0F0F0F" transform="translate(188,239)"/>
<path d="M0 0 C2.31 0 4.62 0 7 0 C7.66 1.32 8.32 2.64 9 4 C10.0828125 3.2884375 10.0828125 3.2884375 11.1875 2.5625 C16.09326656 -0.16292587 20.45128641 -0.10879831 26 0 C26 2.64 26 5.28 26 8 C25.41992188 8.02578125 24.83984375 8.0515625 24.2421875 8.078125 C18.77236619 8.47527374 15.34809912 9.39425927 11 13 C8.67547376 16.48678936 8.70226266 18.06967571 8.5859375 22.19921875 C8.52792969 24.01196289 8.52792969 24.01196289 8.46875 25.86132812 C8.42234375 27.7552832 8.42234375 27.7552832 8.375 29.6875 C8.31699219 31.59885742 8.31699219 31.59885742 8.2578125 33.54882812 C8.16342314 36.69907292 8.0778417 39.84930991 8 43 C5.36 43 2.72 43 0 43 C0 28.81 0 14.62 0 0 Z " fill="#070707" transform="translate(239,239)"/>
<path d="M0 0 C2.31 0 4.62 0 7 0 C7.66 1.32 8.32 2.64 9 4 C10.7015625 3.01 10.7015625 3.01 12.4375 2 C17.02431643 -0.3303325 20.94747199 -0.421044 26 0 C26 2.31 26 4.62 26 7 C25.33613281 7.09796875 24.67226562 7.1959375 23.98828125 7.296875 C18.64664026 8.20144486 14.90387926 8.97412451 11 13 C8.67547376 16.48678936 8.70226266 18.06967571 8.5859375 22.19921875 C8.52792969 24.01196289 8.52792969 24.01196289 8.46875 25.86132812 C8.42234375 27.7552832 8.42234375 27.7552832 8.375 29.6875 C8.31699219 31.59885742 8.31699219 31.59885742 8.2578125 33.54882812 C8.16342314 36.69907292 8.0778417 39.84930991 8 43 C5.36 43 2.72 43 0 43 C0 28.81 0 14.62 0 0 Z " fill="#030303" transform="translate(217,303)"/>
<path d="M0 0 C0 0.99 0 1.98 0 3 C-1.57421875 4.32421875 -1.57421875 4.32421875 -3.6875 5.6875 C-9.10997062 9.54283815 -12.69227444 14.40853478 -14 21 C-15.05718378 33.95050131 -8.6991052 46.72239581 -0.6875 56.5 C-0.01074219 57.2734375 0.66601562 58.046875 1.36328125 58.84375 C2.9824748 60.9769119 3.58982156 62.38436936 4 65 C0.23409561 64.41599616 -2.53977814 63.35033682 -5.8359375 61.453125 C-6.73570312 60.9375 -7.63546875 60.421875 -8.5625 59.890625 C-9.490625 59.34921875 -10.41875 58.8078125 -11.375 58.25 C-12.29539063 57.7240625 -13.21578125 57.198125 -14.1640625 56.65625 C-19.32035346 53.6803335 -24.22297298 50.55316059 -29 47 C-28.01 46.505 -28.01 46.505 -27 46 C-26.01 46.66 -25.02 47.32 -24 48 C-21.03344954 48.91115 -21.03344954 48.91115 -18 49 C-16.05967596 47.81104764 -16.05967596 47.81104764 -15 46 C-15 45.34 -15 44.68 -15 44 C-15.99 43.505 -15.99 43.505 -17 43 C-16.01 42.67 -15.02 42.34 -14 42 C-14.30798326 40.51988629 -14.621518 39.04092675 -14.9375 37.5625 C-15.11152344 36.73878906 -15.28554687 35.91507813 -15.46484375 35.06640625 C-15.80752994 33.02338796 -15.80752994 33.02338796 -17 32 C-17.09873816 30.00200428 -17.12971799 28.00042842 -17.125 26 C-17.12757813 24.906875 -17.13015625 23.81375 -17.1328125 22.6875 C-17 20 -17 20 -16 19 C-15.63239269 16.67182036 -15.29758419 14.3381615 -15 12 C-14.01 12 -13.02 12 -12 12 C-11.67 10.35 -11.34 8.7 -11 7 C-10.34 7 -9.68 7 -9 7 C-9 6.34 -9 5.68 -9 5 C-8.34 5 -7.68 5 -7 5 C-7 3.68 -7 2.36 -7 1 C-13.51419704 -0.83314088 -19.83823891 -1.19281667 -26.5625 -1.1875 C-27.77752197 -1.1884668 -27.77752197 -1.1884668 -29.01708984 -1.18945312 C-32.81649068 -1.514881 -32.81649068 -1.514881 -36 0 C-37.670625 0.2165625 -37.670625 0.2165625 -39.375 0.4375 C-43.08510547 0.75300217 -43.08510547 0.75300217 -46 3 C-46.99 2.67 -47.98 2.34 -49 2 C-34.45957889 -6.66832797 -15.90805222 -3.82887217 0 0 Z " fill="#EE7D06" transform="translate(146,73)"/>
<path d="M0 0 C0.33 1.32 0.66 2.64 1 4 C3.31 4.33 5.62 4.66 8 5 C8 5.33 8 5.66 8 6 C7.34773438 6.01417969 6.69546875 6.02835937 6.0234375 6.04296875 C-0.38894295 6.39290692 -3.54842701 7.32014122 -8 12 C-10.08527196 16.17054391 -9.45484978 21.45756685 -9 26 C-7.33743577 29.12815187 -7.33743577 29.12815187 -5 31 C-4.34 31.66 -3.68 32.32 -3 33 C-3.99 33 -4.98 33 -6 33 C-6 33.66 -6 34.32 -6 35 C-5.34 35.33 -4.68 35.66 -4 36 C-4.33 36.66 -4.66 37.32 -5 38 C-4.01 38.33 -3.02 38.66 -2 39 C-2.33 39.66 -2.66 40.32 -3 41 C-9.02069412 39.53153802 -13.80727047 36.52844153 -17.109375 31.21484375 C-19.9385492 24.7157502 -20.20143315 17.24386951 -17.75 10.625 C-17.1725 9.75875 -16.595 8.8925 -16 8 C-15.443125 7.13375 -14.88625 6.2675 -14.3125 5.375 C-10.34341345 1.29864084 -5.71998126 -1.96624356 0 0 Z " fill="#0D0D0D" transform="translate(282,304)"/>
<path d="M0 0 C2.64 0 5.28 0 8 0 C8 14.19 8 28.38 8 43 C5.36 43 2.72 43 0 43 C0 28.81 0 14.62 0 0 Z " fill="#020202" transform="translate(249,303)"/>
<path d="M0 0 C5.72457256 0.4695233 9.60023668 2.81037703 14.375 5.75 C15.45007813 6.39582031 15.45007813 6.39582031 16.546875 7.0546875 C18.70629305 8.35657492 20.85368261 9.67664813 23 11 C23.76602539 11.46470703 24.53205078 11.92941406 25.32128906 12.40820312 C26.0531543 12.85615234 26.78501953 13.30410156 27.5390625 13.765625 C28.20373535 14.17071289 28.8684082 14.57580078 29.55322266 14.99316406 C30.03065918 15.32541992 30.5080957 15.65767578 31 16 C31 16.33 31 16.66 31 17 C28.69 17.33 26.38 17.66 24 18 C23.896875 18.70125 23.79375 19.4025 23.6875 20.125 C23 23 23 23 21.4609375 25.67578125 C19.73394734 29.6053765 19.73013141 32.87208936 19.9375 37.0625 C20.14420056 41.79902124 20.17519889 45.65806602 18 50 C17.34 49.67 16.68 49.34 16 49 C16.15726562 48.4740625 16.31453125 47.948125 16.4765625 47.40625 C19.05141102 35.56963292 16.16502253 25.83723501 10.02734375 15.76171875 C7.428869 11.78386675 4.7786981 7.94391752 1.75390625 4.27734375 C0 2 0 2 0 0 Z " fill="#EA8111" transform="translate(249,131)"/>
<path d="M0 0 C2.79410643 1.13274585 3.61592356 2.50753317 5.3125 4.9375 C3.75583045 5.9259096 2.19187574 6.90285082 0.625 7.875 C-0.24511719 8.42027344 -1.11523438 8.96554687 -2.01171875 9.52734375 C-7.48452776 12.41155405 -13.61672613 12.61008933 -19.6875 11.9375 C-23.15165017 10.85819335 -26.41411905 9.49757943 -29.6875 7.9375 C-29.0275 6.9475 -28.3675 5.9575 -27.6875 4.9375 C-27.00572584 3.61182801 -26.33558564 2.27996312 -25.6875 0.9375 C-24.63369141 1.42283203 -24.63369141 1.42283203 -23.55859375 1.91796875 C-17.65448925 4.01452831 -10.93846377 3.96066535 -5.25 1.375 C-2.6875 -0.0625 -2.6875 -0.0625 0 0 Z " fill="#0C0C0C" transform="translate(204.6875,334.0625)"/>
<path d="M0 0 C5.30000085 7.95000128 6.04693667 18.70552887 5 28 C3.78979615 32.83430892 2.01699118 36.66519907 -1 40.625 C-7.18661578 43.46053223 -14.49911481 42.46986926 -21 41 C-21 40.67 -21 40.34 -21 40 C-15.06 40 -9.12 40 -3 40 C-3 38.68 -3 37.36 -3 36 C-2.01 36 -1.02 36 0 36 C0 35.01 0 34.02 0 33 C-0.99 33.495 -0.99 33.495 -2 34 C-1.67 32.68 -1.34 31.36 -1 30 C-1.66 29.67 -2.32 29.34 -3 29 C-3.05789006 25.54173658 -3.09355821 22.08359707 -3.125 18.625 C-3.15013672 17.14773437 -3.15013672 17.14773437 -3.17578125 15.640625 C-3.18222656 14.69960937 -3.18867188 13.75859375 -3.1953125 12.7890625 C-3.20578613 11.91975098 -3.21625977 11.05043945 -3.22705078 10.15478516 C-3 8 -3 8 -1 6 C-0.60235737 4.01178687 -0.26224651 2.01055661 0 0 Z " fill="#C8052B" transform="translate(293,77)"/>
<path d="M0 0 C3.85544798 1.99657127 5.59805092 3.39707638 8 7 C8 7.99 8 8.98 8 10 C-0.91 10 -9.82 10 -19 10 C-17.21798117 5.54495294 -16.46132822 3.93688455 -13 1 C-8.65450479 -0.4484984 -4.54143034 -0.52265295 0 0 Z " fill="#F9F9F9" transform="translate(194,310)"/>
<path d="M0 0 C3.46961745 1.58465033 5.07891734 2.63100992 6.93359375 6.03125 C7.18109375 7.145 7.18109375 7.145 7.43359375 8.28125 C6.77359375 8.28125 6.11359375 8.28125 5.43359375 8.28125 C5.10359375 9.27125 4.77359375 10.26125 4.43359375 11.28125 C2.87926643 11.06929627 1.32541686 10.8535123 -0.2265625 10.625 C-2.00361724 10.36393019 -3.78265769 10.11633455 -5.5625 9.875 C-6.61566406 9.7203125 -7.66882813 9.565625 -8.75390625 9.40625 C-9.75808594 9.26445312 -10.76226562 9.12265625 -11.796875 8.9765625 C-14.71820584 8.24313953 -16.31768108 7.24553022 -18.56640625 5.28125 C-18.19140625 2.84375 -18.19140625 2.84375 -17.56640625 0.28125 C-12.63476336 -2.18457145 -5.18647826 -1.45252968 0 0 Z " fill="#F6F6F6" transform="translate(119.56640625,246.71875)"/>
<path d="M0 0 C-0.66 1.65 -1.32 3.3 -2 5 C-3.98 5 -5.96 5 -8 5 C-7.484375 5.598125 -6.96875 6.19625 -6.4375 6.8125 C-5.963125 7.534375 -5.48875 8.25625 -5 9 C-5.33 9.99 -5.66 10.98 -6 12 C-4.205625 12.2165625 -4.205625 12.2165625 -2.375 12.4375 C1.1005158 12.87039343 4.54950034 13.39616256 8 14 C8 14.66 8 15.32 8 16 C9.65 16 11.3 16 13 16 C13 16.66 13 17.32 13 18 C13.680625 17.938125 14.36125 17.87625 15.0625 17.8125 C18.09768216 18.00623503 20.15511043 18.86088845 22.88671875 20.1328125 C27.10975089 21.86573881 31.5837588 22.87397828 36 24 C36 24.66 36 25.32 36 26 C37.2375 26.0825 38.475 26.165 39.75 26.25 C42.98882964 26.63475459 43.87907883 26.90024003 46.5 29.0625 C46.995 29.701875 47.49 30.34125 48 31 C46 32 46 32 43.00097656 31.03125 C41.71124405 30.52833062 40.42467078 30.01726617 39.140625 29.5 C37.71021628 28.93991279 36.27979589 28.3798554 34.84936523 27.81982422 C33.72242752 27.37361725 33.72242752 27.37361725 32.57272339 26.918396 C19.27865008 21.66196996 5.95364606 16.8107005 -7.74267578 12.69433594 C-11.51831897 11.53297651 -15.25928062 10.26866456 -19 9 C-15.70409309 6.29670689 -12.24386481 4.58099915 -8.375 2.8125 C-7.22773438 2.28269531 -6.08046875 1.75289063 -4.8984375 1.20703125 C-2 0 -2 0 0 0 Z " fill="#B31E3C" transform="translate(168,65)"/>
<path d="M0 0 C2.25 0.875 2.25 0.875 4 2 C3.34 2.66 2.68 3.32 2 4 C8.02215315 7.01107658 15.42036513 4.53529859 21.46875 2.734375 C24.28820155 1.91638597 27.09185792 1.39299217 30 1 C27.24577946 2.83614703 24.50201108 4.3008654 21.5625 5.8125 C17.29893369 8.0953544 14.95549003 10.16880923 12 14 C8.75 14.8125 8.75 14.8125 6 15 C8 13 10 11 12 9 C2.77806144 6.78039301 -6.01397146 5.70029087 -15.5 5.6875 C-16.87792725 5.67976563 -16.87792725 5.67976563 -18.28369141 5.671875 C-23.84266656 5.72848577 -28.66378326 6.43529159 -34 8 C-33 5 -33 5 -30.78735352 3.83398438 C-27.86837699 2.96061801 -25.44357689 2.71584676 -22.40234375 2.65625 C-20.82936523 2.61177734 -20.82936523 2.61177734 -19.22460938 2.56640625 C-17.02929847 2.52205653 -14.83398596 2.47778598 -12.63867188 2.43359375 C-11.59130859 2.40394531 -10.54394531 2.37429687 -9.46484375 2.34375 C-8.03579712 2.31571289 -8.03579712 2.31571289 -6.57788086 2.28710938 C-3.92534807 1.9916857 -2.34207741 1.20266263 0 0 Z " fill="#FDF4DE" transform="translate(134,65)"/>
<path d="M0 0 C3.97581621 0.42295917 7.3839421 1.08240875 11.125 2.5 C16.05653518 4.24853055 20.88340448 4.52819951 26.08203125 4.7890625 C29 5 29 5 30.78295898 5.52075195 C33.71686186 6.15496089 36.39200192 6.00352933 39.390625 5.87890625 C40.65116699 5.83048584 41.91170898 5.78206543 43.21044922 5.73217773 C43.87139587 5.70437225 44.53234253 5.67656677 45.21331787 5.6479187 C56.47805685 5.17547415 67.72437695 4.8378904 79 5 C79 5.33 79 5.66 79 6 C68.61435229 8.09948236 58.4577271 8.34088052 47.89892578 8.31567383 C45.13664243 8.31251332 42.37543316 8.33605706 39.61328125 8.36132812 C25.61902985 8.41155245 12.6920907 7.45737948 0 1 C0 0.67 0 0.34 0 0 Z " fill="#AD1F3D" transform="translate(118,206)"/>
<path d="M0 0 C0 0.99 0 1.98 0 3 C-1.57421875 4.32421875 -1.57421875 4.32421875 -3.6875 5.6875 C-10.1260647 10.33694141 -12.86379356 15.21694956 -14.3125 23 C-14.55896391 24.66419671 -14.79435288 26.33026816 -15 28 C-15.33 28 -15.66 28 -16 28 C-16.11138159 22.54230189 -15.91657981 17.38490641 -15 12 C-14.01 12 -13.02 12 -12 12 C-11.67 10.35 -11.34 8.7 -11 7 C-10.34 7 -9.68 7 -9 7 C-9 6.34 -9 5.68 -9 5 C-8.34 5 -7.68 5 -7 5 C-7 3.68 -7 2.36 -7 1 C-13.51419704 -0.83314088 -19.83823891 -1.19281667 -26.5625 -1.1875 C-27.77752197 -1.1884668 -27.77752197 -1.1884668 -29.01708984 -1.18945312 C-32.81649068 -1.514881 -32.81649068 -1.514881 -36 0 C-37.670625 0.2165625 -37.670625 0.2165625 -39.375 0.4375 C-43.08510547 0.75300217 -43.08510547 0.75300217 -46 3 C-46.99 2.67 -47.98 2.34 -49 2 C-34.45957889 -6.66832797 -15.90805222 -3.82887217 0 0 Z " fill="#D78832" transform="translate(146,73)"/>
<path d="M0 0 C1.26666504 -0.00064453 2.53333008 -0.00128906 3.83837891 -0.00195312 C23.9525605 0.114207 23.9525605 0.114207 28.5625 3.1875 C26.9125 3.1875 25.2625 3.1875 23.5625 3.1875 C23.2325 4.1775 22.9025 5.1675 22.5625 6.1875 C21.5725 5.8575 20.5825 5.5275 19.5625 5.1875 C19.5625 4.1975 19.5625 3.2075 19.5625 2.1875 C18.20705078 2.29578125 18.20705078 2.29578125 16.82421875 2.40625 C15.05498047 2.54546875 15.05498047 2.54546875 13.25 2.6875 C12.07824219 2.7803125 10.90648437 2.873125 9.69921875 2.96875 C7.657306 3.11114989 5.6093721 3.1875 3.5625 3.1875 C3.0675 2.6925 3.0675 2.6925 2.5625 2.1875 C0.10857777 2.25262218 -2.30449341 2.37948735 -4.75 2.5625 C-5.76610352 2.62824219 -5.76610352 2.62824219 -6.80273438 2.6953125 C-10.64333388 2.95970109 -10.64333388 2.95970109 -14.40795898 3.71704102 C-16.58340412 4.22132139 -18.3239927 4.21796641 -20.546875 4.06640625 C-21.30097656 4.01806641 -22.05507812 3.96972656 -22.83203125 3.91992188 C-23.60933594 3.86384766 -24.38664063 3.80777344 -25.1875 3.75 C-25.98027344 3.69779297 -26.77304688 3.64558594 -27.58984375 3.59179688 C-29.53943997 3.46260676 -31.48852886 3.32580035 -33.4375 3.1875 C-33.4375 2.8575 -33.4375 2.5275 -33.4375 2.1875 C-22.28438644 0.49488656 -11.28057195 -0.00553716 0 0 Z " fill="#B41A3C" transform="translate(236.4375,53.8125)"/>
<path d="M0 0 C-0.99 0 -1.98 0 -3 0 C-3 0.66 -3 1.32 -3 2 C-6.75 3.125 -6.75 3.125 -9 2 C-9.66 3.32 -10.32 4.64 -11 6 C-11.763125 5.835 -12.52625 5.67 -13.3125 5.5 C-16.03596236 4.90854604 -16.03596236 4.90854604 -19 5 C-19.86625 4.979375 -20.7325 4.95875 -21.625 4.9375 C-23.95562735 4.72620721 -23.95562735 4.72620721 -25 6 C-31.2095968 7.02758654 -37.23840858 7.10294364 -43.51953125 6.984375 C-44.49991867 6.96787903 -45.48030609 6.95138306 -46.49040222 6.93438721 C-48.54859314 6.8970985 -50.60672787 6.85658113 -52.66479492 6.81298828 C-55.82008537 6.74984821 -58.97520942 6.70864887 -62.13085938 6.66796875 C-64.13544332 6.62895018 -66.14000247 6.58863149 -68.14453125 6.546875 C-69.08827103 6.53734802 -70.0320108 6.52782104 -71.00434875 6.51800537 C-71.87923447 6.49498352 -72.75412018 6.47196167 -73.65551758 6.44824219 C-74.42414627 6.43412292 -75.19277496 6.42000366 -75.98469543 6.40545654 C-78.4809638 5.90323551 -79.39390194 4.92446891 -81 3 C-79.55113403 3.24121582 -79.55113403 3.24121582 -78.07299805 3.48730469 C-73.65699386 4.11443773 -69.28665257 4.18003286 -64.83203125 4.203125 C-63.95713547 4.20882507 -63.08223969 4.21452515 -62.18083191 4.22039795 C-60.32930696 4.22981121 -58.47776554 4.23636725 -56.6262207 4.24023438 C-53.86572659 4.24981527 -51.10601896 4.28082059 -48.34570312 4.3125 C-34.61521265 4.39425747 -20.97533688 3.48866836 -7.67895508 -0.16308594 C-4.22758724 -0.94822689 -3.17873227 -0.99184843 0 0 Z " fill="#FDDFE6" transform="translate(216,209)"/>
<path d="M0 0 C5.84758746 0.45698849 9.91805109 2.96244282 14.8125 5.9375 C15.97555664 6.62102539 15.97555664 6.62102539 17.16210938 7.31835938 C22.86223585 10.72447169 22.86223585 10.72447169 24 13 C21.0625 12.625 21.0625 12.625 18 12 C17.67 11.34 17.34 10.68 17 10 C16.01 9.67 15.02 9.34 14 9 C14 8.34 14 7.68 14 7 C12.35 7 10.7 7 9 7 C9 7.66 9 8.32 9 9 C9.99 9.33 10.98 9.66 12 10 C11.938125 10.721875 11.87625 11.44375 11.8125 12.1875 C12.03558418 15.53376267 13.28816334 17.17174813 15 20 C14.67 20.99 14.34 21.98 14 23 C13.57589844 22.23816406 13.15179688 21.47632813 12.71484375 20.69140625 C9.28559042 14.65441302 5.73284667 9.07941601 1.28515625 3.7421875 C0 2 0 2 0 0 Z " fill="#E38421" transform="translate(249,131)"/>
<path d="M0 0 C0.33 0 0.66 0 1 0 C1.042721 1.66611905 1.04063832 3.33382885 1 5 C0.67 5.33 0.34 5.66 0 6 C-0.12569503 8.1221998 -0.17576773 10.24911345 -0.1875 12.375 C-0.20167969 13.53773437 -0.21585937 14.70046875 -0.23046875 15.8984375 C-0.24299973 19.16797789 -0.24299973 19.16797789 2 22 C1.67 22.66 1.34 23.32 1 24 C1.928125 23.4740625 1.928125 23.4740625 2.875 22.9375 C3.57625 22.628125 4.2775 22.31875 5 22 C5.66 22.33 6.32 22.66 7 23 C6.67 23.66 6.34 24.32 6 25 C5.34 24.67 4.68 24.34 4 24 C6.02633069 28.32371893 6.02633069 28.32371893 9 32 C6 32 6 32 4.31640625 30.56640625 C-0.81310627 24.70573827 -4.50564706 19.16668909 -5.4375 11.3125 C-4.82265975 6.65728093 -3.32412999 3.32412999 0 0 Z " fill="#E58318" transform="translate(96,76)"/>
<path d="M0 0 C2.57848823 1.28924411 2.90261494 2.5058857 4.1875 5.0625 C6.49365316 9.39171566 9.24809354 12.75388798 12.64453125 16.2734375 C14 18 14 18 14 21 C9.85701333 20.40165275 6.81805623 18.99335715 3.1875 16.9375 C2.21167969 16.38964844 1.23585937 15.84179688 0.23046875 15.27734375 C-0.50558594 14.85582031 -1.24164063 14.43429688 -2 14 C-0.68 13.01 0.64 12.02 2 11 C1.67 10.34 1.34 9.68 1 9 C1.4375 6.875 1.4375 6.875 2 5 C1.01 4.67 0.02 4.34 -1 4 C-0.67 2.68 -0.34 1.36 0 0 Z " fill="#E3811C" transform="translate(136,117)"/>
<path d="M0 0 C5.30000085 7.95000128 6.04693667 18.70552887 5 28 C3.78979615 32.83430892 2.01699118 36.66519907 -1 40.625 C-7.18661578 43.46053223 -14.49911481 42.46986926 -21 41 C-21 40.67 -21 40.34 -21 40 C-15.06 40 -9.12 40 -3 40 C-3 38.68 -3 37.36 -3 36 C-2.01 36 -1.02 36 0 36 C2.60900601 29.35441866 3.6143354 23.11484687 4 16 C3.34 16 2.68 16 2 16 C1.34 10.72 0.68 5.44 0 0 Z " fill="#AA233F" transform="translate(293,77)"/>
<path d="M0 0 C3 0.25 3 0.25 5 2.25 C5.25 5.25 5.25 5.25 5 8.25 C3 10.25 3 10.25 0 10.5 C-3 10.25 -3 10.25 -5 8.25 C-5.25 5.25 -5.25 5.25 -5 2.25 C-3 0.25 -3 0.25 0 0 Z " fill="#070707" transform="translate(253,287.75)"/>
<path d="M0 0 C0.99 0 1.98 0 3 0 C3 0.66 3 1.32 3 2 C5.56333275 3.05548995 8.10728527 4.03413622 10.75 4.875 C13.43639448 5.80490578 15.87298095 6.85643586 18.4375 8.0625 C22.35769454 9.84984294 25.71929555 10.63568473 30 11 C30.33 10.34 30.66 9.68 31 9 C33 11 33 11 33 13 C32.34 13 31.68 13 31 13 C31 13.66 31 14.32 31 15 C23.09521621 12.41094677 15.26688326 9.62001115 7.4375 6.8125 C6.12958926 6.34431174 4.82164677 5.87621213 3.51367188 5.40820312 C0.34213577 4.27300385 -2.82907827 3.13691401 -6 2 C-6 1.67 -6 1.34 -6 1 C-4.02 1 -2.04 1 0 1 C0 0.67 0 0.34 0 0 Z " fill="#FCDEE3" transform="translate(142,152)"/>
<path d="M0 0 C6.64718435 1.78300945 13.00027872 4.12845309 19.36572266 6.72363281 C24.85964628 8.96153492 30.4065712 11.02311248 36 13 C33.06200308 13.89844995 31.00896386 13.99580384 28 13.4375 C24.70706702 12.94601747 22.81903696 13.00318216 20 15 C20.33 13.02 20.66 11.04 21 9 C19.7625 8.8453125 19.7625 8.8453125 18.5 8.6875 C15.70417834 8.13832074 13.54286773 7.48557962 10.9375 6.4375 C7.82932314 5.20854715 5.38346401 4.68280025 2 5 C1.34 3.35 0.68 1.7 0 0 Z " fill="#AE213E" transform="translate(172,167)"/>
<path d="M0 0 C-0.66 1.65 -1.32 3.3 -2 5 C-3.98 5 -5.96 5 -8 5 C-7.01 6.32 -6.02 7.64 -5 9 C-5.33 9.66 -5.66 10.32 -6 11 C-7.41623216 11.05447047 -8.83308191 11.09300508 -10.25 11.125 C-11.03890625 11.14820312 -11.8278125 11.17140625 -12.640625 11.1953125 C-15.20731941 10.9828378 -16.7916067 10.28654105 -19 9 C-15.70409309 6.29670689 -12.24386481 4.58099915 -8.375 2.8125 C-7.22773438 2.28269531 -6.08046875 1.75289063 -4.8984375 1.20703125 C-2 0 -2 0 0 0 Z " fill="#B7153A" transform="translate(168,65)"/>
<path d="M0 0 C3.3 0.33 6.6 0.66 10 1 C10.33 2.32 10.66 3.64 11 5 C13.97 5 16.94 5 20 5 C20.85856655 8.4342662 20.97591583 10.61682513 20 14 C19.39414062 13.56429687 18.78828125 13.12859375 18.1640625 12.6796875 C12.8553536 8.90642056 7.48182163 5.41261737 1.8359375 2.1640625 C1.23007812 1.77992188 0.62421875 1.39578125 0 1 C0 0.67 0 0.34 0 0 Z " fill="#FAF6E5" transform="translate(267,139)"/>
<path d="M0 0 C-0.96421875 0.44730469 -1.9284375 0.89460938 -2.921875 1.35546875 C-4.19822973 1.96549123 -5.47425417 2.57620513 -6.75 3.1875 C-7.38421875 3.47947266 -8.0184375 3.77144531 -8.671875 4.07226562 C-12.89569579 6.11817882 -15.12594755 8.20214498 -18 12 C-21.25 12.8125 -21.25 12.8125 -24 13 C-22 11 -20 9 -18 7 C-23.28 6.01 -28.56 5.02 -34 4 C-34 3.67 -34 3.34 -34 3 C-32.35064453 3.05220703 -32.35064453 3.05220703 -30.66796875 3.10546875 C-21.34438491 3.30923409 -7.84923725 -2.35477118 0 0 Z " fill="#F9E2D0" transform="translate(164,67)"/>
<path d="M0 0 C5.94 1.65 11.88 3.3 18 5 C14.1979297 8.04165624 12.09067846 9.63617894 7.8125 11.3125 C6.52279297 11.83263672 6.52279297 11.83263672 5.20703125 12.36328125 C3 13 3 13 1 12 C2 10 2 10 5 9 C6.20882096 6.99983534 6.20882096 6.99983534 7 5 C4.69 4.01 2.38 3.02 0 2 C0 1.34 0 0.68 0 0 Z " fill="#B91335" transform="translate(232,189)"/>
<path d="M0 0 C1.98 0 3.96 0 6 0 C3.66666667 2.33333333 1.33333333 4.66666667 -1 7 C0.155 7.12375 1.31 7.2475 2.5 7.375 C9.67624171 8.16980045 16.83703471 9.09474181 24 10 C24 10.33 24 10.66 24 11 C21.35409986 11.02684679 18.70846904 11.04676357 16.0625 11.0625 C14.93038086 11.07506836 14.93038086 11.07506836 13.77539062 11.08789062 C11.85005687 11.09652441 9.92464419 11.05224333 8 11 C7.67 10.67 7.34 10.34 7 10 C3.90409573 9.46451656 0.79878868 9.03426398 -2.3125 8.59765625 C-3.199375 8.40042969 -4.08625 8.20320312 -5 8 C-5.33 7.34 -5.66 6.68 -6 6 C-6.99 5.34 -7.98 4.68 -9 4 C-6.36 3.67 -3.72 3.34 -1 3 C-0.67 2.01 -0.34 1.02 0 0 Z " fill="#F7E2CC" transform="translate(253,188)"/>
<path d="M0 0 C0.33 0 0.66 0 1 0 C1.62110153 10.66224287 1.62110153 10.66224287 -0.625 15.5 C-3.23530541 18.24768991 -5.65071504 20.21846545 -9 22 C-9.99 21.67 -10.98 21.34 -12 21 C-11.01 20.67 -10.02 20.34 -9 20 C-9 18.35 -9 16.7 -9 15 C-8.34 15 -7.68 15 -7 15 C-6.67 13.68 -6.34 12.36 -6 11 C-4.02 11 -2.04 11 0 11 C0 7.37 0 3.74 0 0 Z " fill="#E08119" transform="translate(306,174)"/>
<path d="M0 0 C0.33 0.66 0.66 1.32 1 2 C1.99 2.33 2.98 2.66 4 3 C2.89721007 5.90735528 2.35230396 6.8347216 -0.53125 8.1875 C-3.35545046 9.83875619 -3.35545046 9.83875619 -3.70703125 13.35546875 C-3.74183594 14.62003906 -3.77664062 15.88460937 -3.8125 17.1875 C-3.86019531 18.45980469 -3.90789062 19.73210937 -3.95703125 21.04296875 C-3.97121094 22.01878906 -3.98539063 22.99460937 -4 24 C-4.33 24 -4.66 24 -5 24 C-7.00169723 15.74299892 -5.75401045 9.49432014 -2 2 C-1.34 1.34 -0.68 0.68 0 0 Z " fill="#FAEFD6" transform="translate(137,82)"/>
<path d="M0 0 C-0.54164795 0.1131958 -1.0832959 0.2263916 -1.64135742 0.34301758 C-8.08914633 1.72799572 -14.3804406 3.4952815 -20.68945312 5.40820312 C-21.82737305 5.73788086 -21.82737305 5.73788086 -22.98828125 6.07421875 C-23.66415283 6.27619873 -24.34002441 6.47817871 -25.03637695 6.6862793 C-27.30128884 7.04813579 -28.83208397 6.69137308 -31 6 C-28.32190511 4.58187569 -25.76788324 3.54819171 -22.84765625 2.74609375 C-22.07099609 2.53146484 -21.29433594 2.31683594 -20.49414062 2.09570312 C-19.29047852 1.76989258 -19.29047852 1.76989258 -18.0625 1.4375 C-17.26392578 1.21642578 -16.46535156 0.99535156 -15.64257812 0.76757812 C-13.43247695 0.16149404 -11.21748401 -0.42164243 -9 -1 C-8.07058594 -1.25652344 -7.14117187 -1.51304688 -6.18359375 -1.77734375 C-3.50164388 -2.05081628 -2.325367 -1.26519706 0 0 Z " fill="#BA1D40" transform="translate(200,59)"/>
<path d="M0 0 C0.33 0 0.66 0 1 0 C1 2.64 1 5.28 1 8 C1.66 8 2.32 8 3 8 C3.47970123 9.74985354 3.95873924 11.49988891 4.4375 13.25 C4.83775391 14.71179688 4.83775391 14.71179688 5.24609375 16.203125 C5.85544584 18.46372653 6.44238255 20.72622009 7 23 C6.34 23 5.68 23 5 23 C4.67 23.99 4.34 24.98 4 26 C2.68 25.01 1.36 24.02 0 23 C0.99 22.67 1.98 22.34 3 22 C2.69201674 20.51988629 2.378482 19.04092675 2.0625 17.5625 C1.88847656 16.73878906 1.71445313 15.91507813 1.53515625 15.06640625 C1.19247006 13.02338796 1.19247006 13.02338796 0 12 C-0.07244053 9.98035801 -0.08377188 7.95832876 -0.0625 5.9375 C-0.05347656 4.83277344 -0.04445312 3.72804688 -0.03515625 2.58984375 C-0.02355469 1.73519531 -0.01195312 0.88054687 0 0 Z M0 27 C2 28 2 28 2 28 Z " fill="#E28722" transform="translate(129,93)"/>
<path d="M0 0 C8.03769254 4.58672672 15.46301903 10.55371525 21 18 C20.67 18.66 20.34 19.32 20 20 C18.5 18.625 18.5 18.625 17 17 C17 16.34 17 15.68 17 15 C15.68 14.67 14.36 14.34 13 14 C13 13.01 13 12.02 13 11 C12.05125 10.731875 11.1025 10.46375 10.125 10.1875 C7 9 7 9 5 6 C2.44816596 4.79549696 2.44816596 4.79549696 0 4 C0 2.68 0 1.36 0 0 Z " fill="#DF8424" transform="translate(283,150)"/>
<path d="M0 0 C0.99 0.66 1.98 1.32 3 2 C3 2.99 3 3.98 3 5 C3.928125 5.4640625 3.928125 5.4640625 4.875 5.9375 C6.25 6.625 7.625 7.3125 9 8 C9.625 10.5625 9.625 10.5625 10 13 C10.66 13 11.32 13 12 13 C12.33 14.65 12.66 16.3 13 18 C12.34 18 11.68 18 11 18 C9.73828125 16.20703125 9.73828125 16.20703125 8.3125 13.8125 C5.38139417 9.24342327 2.58597109 6.85541596 -2 4 C-2.99 3.34 -3.98 2.68 -5 2 C-2.6875 0.875 -2.6875 0.875 0 0 Z " fill="#FCE4E9" transform="translate(281,57)"/>
<path d="M0 0 C-0.99 0 -1.98 0 -3 0 C-3 0.66 -3 1.32 -3 2 C-6.75 3.125 -6.75 3.125 -9 2 C-9.66 3.32 -10.32 4.64 -11 6 C-11.763125 5.835 -12.52625 5.67 -13.3125 5.5 C-16.03596236 4.90854604 -16.03596236 4.90854604 -19 5 C-21.67356157 4.71372955 -24.33365575 4.34968449 -27 4 C-27 3.67 -27 3.34 -27 3 C-26.01 2.87882813 -25.02 2.75765625 -24 2.6328125 C-15.5807993 1.63396777 -15.5807993 1.63396777 -7.3125 -0.1875 C-4.07562733 -0.9814499 -3.03224991 -0.93147546 0 0 Z " fill="#F5D6DE" transform="translate(216,209)"/>
<path d="M0 0 C8 3 16 6 24 9 C22 11 22 11 19.6875 11.375 C16.17218103 10.88449038 14.73761054 9.21616091 12 7 C9.68091315 6.11884383 7.42378208 5.57030166 5 5 C5 4.34 5 3.68 5 3 C3.35 2.67 1.7 2.34 0 2 C0 1.34 0 0.68 0 0 Z " fill="#FBDFE3" transform="translate(195,89)"/>
<path d="M0 0 C3.3125 0.1875 3.3125 0.1875 7 1 C8.6875 3.4375 8.6875 3.4375 10 6 C12.01669827 7.13350534 12.01669827 7.13350534 14 8 C15.77706209 10.66559313 16.87548273 13.0280615 18 16 C17.34 16.33 16.68 16.66 16 17 C15.59910156 16.43152344 15.19820313 15.86304688 14.78515625 15.27734375 C10.93569707 10.04871325 6.99014018 6.11141996 1.72265625 2.3125 C1.15417969 1.879375 0.58570313 1.44625 0 1 C0 0.67 0 0.34 0 0 Z " fill="#FCEFD7" transform="translate(288,153)"/>
<path d="M0 0 C0 0.33 0 0.66 0 1 C-0.67546875 1.13535156 -1.3509375 1.27070313 -2.046875 1.41015625 C-2.93890625 1.62542969 -3.8309375 1.84070313 -4.75 2.0625 C-5.63171875 2.25972656 -6.5134375 2.45695313 -7.421875 2.66015625 C-11.07672724 4.55957188 -12.55341997 7.28067203 -14 11 C-14.67263787 13.80122618 -14.99821417 16.57081347 -15.25 19.4375 C-15.36601563 20.53481445 -15.36601563 20.53481445 -15.484375 21.65429688 C-15.6705671 23.43475885 -15.83734664 25.21723355 -16 27 C-16.33 27 -16.66 27 -17 27 C-17.58138062 11.66877771 -17.58138062 11.66877771 -14 5 C-9.25179165 0.48341156 -6.4753042 -0.11991304 0 0 Z " fill="#A6223D" transform="translate(118,149)"/>
<path d="M0 0 C-2.8958335 2.8958335 -6.37433844 3.24564822 -10.25 4.125 C-11.00152344 4.30675781 -11.75304687 4.48851562 -12.52734375 4.67578125 C-16.769055 5.66033203 -20.61418833 6.2095133 -25 6 C-22.29719449 2.27451132 -18.44450638 2.01878483 -14.1875 1.3125 C-13.48818359 1.18294922 -12.78886719 1.05339844 -12.06835938 0.91992188 C-7.99901058 0.20045796 -4.14851254 -0.13676415 0 0 Z " fill="#AA1F3C" transform="translate(223,205)"/>
<path d="M0 0 C1.98 0 3.96 0 6 0 C6.33 1.32 6.66 2.64 7 4 C4.03 3.505 4.03 3.505 1 3 C2.98684622 6.05122812 4.94178556 8.92884901 7.25 11.75 C9 14 9 14 9 16 C7.125 15.8125 7.125 15.8125 5 15 C3.9375 12.625 3.9375 12.625 3 10 C2.46375 9.54625 1.9275 9.0925 1.375 8.625 C-0.84706839 5.99891917 -0.18642407 3.29349183 0 0 Z " fill="#FCF0D1" transform="translate(248,128)"/>
<path d="M0 0 C0.66 0.33 1.32 0.66 2 1 C1.34 2.98 0.68 4.96 0 7 C0.66 6.01 1.32 5.02 2 4 C2.99387334 2.66209359 3.9926892 1.32781878 5 0 C4.62671065 5.35048061 3.0042343 7.50912907 -1 11 C-1 10.01 -1 9.02 -1 8 C-2.32 7.34 -3.64 6.68 -5 6 C-3.63016497 2.83884224 -3.0109362 2.0072908 0 0 Z " fill="#FDF1DA" transform="translate(261,176)"/>
<path d="M0 0 C5.28137429 0.51525603 8.57221156 2.25477117 13 5 C9.37673261 6.2077558 8.35853631 5.54311128 5 4 C5.515625 4.598125 6.03125 5.19625 6.5625 5.8125 C7.036875 6.534375 7.51125 7.25625 8 8 C7.67 8.99 7.34 9.98 7 11 C5.82750647 9.54634731 4.66216184 8.08692581 3.5 6.625 C2.52546875 5.40683594 2.52546875 5.40683594 1.53125 4.1640625 C0 2 0 2 0 0 Z " fill="#D48A36" transform="translate(249,131)"/>
<path d="M0 0 C-3.00595668 2.56062977 -5.17895141 3.25442954 -9 4 C-9.78375 4.495 -10.5675 4.99 -11.375 5.5 C-14.62369625 7.35639786 -17.28269199 7.78958634 -21 8 C-21.66 7.34 -22.32 6.68 -23 6 C-19.54574482 4.8003958 -16.08603135 3.61739705 -12.625 2.4375 C-11.64015625 2.09525391 -10.6553125 1.75300781 -9.640625 1.40039062 C-8.22910156 0.92182617 -8.22910156 0.92182617 -6.7890625 0.43359375 C-5.91975098 0.13509521 -5.05043945 -0.16340332 -4.15478516 -0.47094727 C-2 -1 -2 -1 0 0 Z " fill="#FCE3E6" transform="translate(240,201)"/>
<path d="M0 0 C0.33 1.32 0.66 2.64 1 4 C-0.1196986 5.00593243 -1.2459412 6.0045849 -2.375 7 C-3.31472656 7.8353125 -3.31472656 7.8353125 -4.2734375 8.6875 C-6 10 -6 10 -8 10 C-7.20700294 12.17038477 -7.20700294 12.17038477 -5.15234375 12.6328125 C-4.42144531 12.79523438 -3.69054687 12.95765625 -2.9375 13.125 C-1.83728516 13.37636719 -1.83728516 13.37636719 -0.71484375 13.6328125 C-0.14894531 13.75398437 0.41695313 13.87515625 1 14 C-2.27185553 15.07310858 -4.42947592 14.89263102 -7.75 14.0625 C-8.54921875 13.86785156 -9.3484375 13.67320312 -10.171875 13.47265625 C-10.77515625 13.31667969 -11.3784375 13.16070312 -12 13 C-11 10 -11 10 -8.25 8.1875 C-4.6415589 5.75874157 -2.63857064 3.41462082 0 0 Z " fill="#D68B37" transform="translate(264,182)"/>
<path d="M0 0 C5.79859195 0.56810529 10.97686594 1.73679735 16.5 3.5625 C17.22703125 3.79646484 17.9540625 4.03042969 18.703125 4.27148438 C20.47080261 4.84132781 22.23570969 5.41975404 24 6 C20.9891035 6.9101119 18.61935536 7.04537125 15.5 6.6875 C14.7471875 6.60886719 13.994375 6.53023437 13.21875 6.44921875 C10.84492939 5.96860366 9.12234885 5.15031308 7 4 C5.75447505 3.44812106 4.50464771 2.90581249 3.25 2.375 C2.1775 1.92125 1.105 1.4675 0 1 C0 0.67 0 0.34 0 0 Z " fill="#B31B3A" transform="translate(121,150)"/>
<path d="M0 0 C0.99 0.66 1.98 1.32 3 2 C3 2.66 3 3.32 3 4 C-2.95795479 5.98598493 -8.74892565 6.57045059 -15 7 C-15.33 6.01 -15.66 5.02 -16 4 C-14.77023437 3.94392578 -14.77023437 3.94392578 -13.515625 3.88671875 C-12.43796875 3.82097656 -11.3603125 3.75523438 -10.25 3.6875 C-9.18265625 3.62949219 -8.1153125 3.57148437 -7.015625 3.51171875 C-3.8178932 2.96909846 -2.37401309 2.14928855 0 0 Z " fill="#FCE8EB" transform="translate(293,115)"/>
<path d="M0 0 C1.65 0 3.3 0 5 0 C5 0.66 5 1.32 5 2 C5.8971875 2.433125 5.8971875 2.433125 6.8125 2.875 C11.82258065 5.4516129 11.82258065 5.4516129 12.6875 8.125 C12.790625 8.74375 12.89375 9.3625 13 10 C7.65978754 8.49806525 3.86352256 4.82517494 0 1 C0 0.67 0 0.34 0 0 Z " fill="#E28C31" transform="translate(104,109)"/>
<path d="M0 0 C6.96050253 0.38669459 11.9394075 2.63438409 18 6 C14.06411188 7.31196271 11.91245633 6.13816911 8 5 C7.01 5.495 7.01 5.495 6 6 C6 5.34 6 4.68 6 4 C5.071875 3.7834375 5.071875 3.7834375 4.125 3.5625 C2 3 2 3 0 2 C0 1.34 0 0.68 0 0 Z " fill="#B31B3A" transform="translate(266,57)"/>
<path d="M0 0 C3.3 0.33 6.6 0.66 10 1 C10.33 2.32 10.66 3.64 11 5 C11.99 5.33 12.98 5.66 14 6 C13.67 6.99 13.34 7.98 13 9 C10.83061859 7.69181533 8.6644848 6.37874076 6.5 5.0625 C5.87996094 4.68931641 5.25992187 4.31613281 4.62109375 3.93164062 C3.06370003 2.9818016 1.5296725 1.99386689 0 1 C0 0.67 0 0.34 0 0 Z " fill="#FCEFCE" transform="translate(267,139)"/>
<path d="M0 0 C0.72832031 0.03158203 1.45664063 0.06316406 2.20703125 0.09570312 C4.3203125 0.23046875 4.3203125 0.23046875 7.875 0.8125 C8.535 1.8025 9.195 2.7925 9.875 3.8125 C8.62203125 3.72871094 7.3690625 3.64492187 6.078125 3.55859375 C4.42710357 3.45540491 2.77606073 3.35255822 1.125 3.25 C0.3 3.19392578 -0.525 3.13785156 -1.375 3.08007812 C-2.17421875 3.03173828 -2.9734375 2.98339844 -3.796875 2.93359375 C-4.89660645 2.86289673 -4.89660645 2.86289673 -6.01855469 2.79077148 C-8.20857226 2.81336207 -10.02987187 3.19762544 -12.125 3.8125 C-12.125 3.1525 -12.125 2.4925 -12.125 1.8125 C-8.28360564 -0.7920056 -4.42207891 -0.31247248 0 0 Z " fill="#F9D5DA" transform="translate(119.125,147.1875)"/>
<path d="M0 0 C1.58468677 0.45363171 3.16769924 0.91311452 4.75 1.375 C5.63171875 1.63023438 6.5134375 1.88546875 7.421875 2.1484375 C9.79111762 2.93100552 11.86816546 3.70567188 14 5 C15.25 7.625 15.25 7.625 16 10 C12.06342758 8.56786488 8.71068644 6.69667846 5.1875 4.4375 C4.21167969 3.81746094 3.23585938 3.19742188 2.23046875 2.55859375 C1.49441406 2.04425781 0.75835937 1.52992187 0 1 C0 0.67 0 0.34 0 0 Z " fill="#E38626" transform="translate(117,119)"/>
<path d="M0 0 C4.56454251 0.54339792 7.9728176 1.79463821 12 4 C12.33 3.34 12.66 2.68 13 2 C14.5 3.3125 14.5 3.3125 16 5 C16 5.99 16 6.98 16 8 C11.85701333 7.40165275 8.81805623 5.99335715 5.1875 3.9375 C4.21167969 3.38964844 3.23585937 2.84179688 2.23046875 2.27734375 C1.49441406 1.85582031 0.75835937 1.43429688 0 1 C0 0.67 0 0.34 0 0 Z " fill="#D78A36" transform="translate(134,130)"/>
<path d="M0 0 C1 3 1 3 0.875 6.125 C1.02718345 10.84268686 2.33320424 14.62466113 4 19 C3.01 19 2.02 19 1 19 C-1.6139436 12.75311783 -2.6083486 7.67166826 -1 1 C-0.67 0.67 -0.34 0.34 0 0 Z " fill="#FDEBC6" transform="translate(91,81)"/>
<path d="M0 0 C2.97 0.495 2.97 0.495 6 1 C1.67800947 5.03385783 -3.35446276 7.37128749 -9 9 C-9.66 8.67 -10.32 8.34 -11 8 C-10.67 7.34 -10.34 6.68 -10 6 C-8.68 6 -7.36 6 -6 6 C-6 5.34 -6 4.68 -6 4 C-4.02 3.67 -2.04 3.34 0 3 C0 2.01 0 1.02 0 0 Z " fill="#AA1935" transform="translate(244,193)"/>
<path d="M0 0 C6.14154225 0.58490879 12.00679849 1.54066252 18 3 C18 3.66 18 4.32 18 5 C18.99 5.33 19.98 5.66 21 6 C17.63945043 7.12018319 16.98276729 6.90181274 13.76953125 5.78515625 C12.96708984 5.51123047 12.16464844 5.23730469 11.33789062 4.95507812 C10.50451172 4.66052734 9.67113281 4.36597656 8.8125 4.0625 C7.96751953 3.77181641 7.12253906 3.48113281 6.25195312 3.18164062 C4.16504771 2.46242463 2.08140006 1.7349657 0 1 C0 0.67 0 0.34 0 0 Z " fill="#B52948" transform="translate(158,76)"/>
<path d="M0 0 C0.33 0.99 0.66 1.98 1 3 C1.66 3.33 2.32 3.66 3 4 C1.63875 3.938125 1.63875 3.938125 0.25 3.875 C-2.88143035 3.76535098 -2.88143035 3.76535098 -4.9375 5 C-7.94797252 6.45962304 -10.70850734 6.12659587 -14 6 C-14.33 5.34 -14.66 4.68 -15 4 C-14.33613281 3.87882813 -13.67226563 3.75765625 -12.98828125 3.6328125 C-8.46575541 2.77452292 -4.20061476 1.96028689 0 0 Z " fill="#FCEED1" transform="translate(299,194)"/>
<path d="M0 0 C2.02045442 0.60183749 4.02111039 1.27306096 6 2 C6.33 2.66 6.66 3.32 7 4 C4.69 4.33 2.38 4.66 0 5 C-0.33 6.65 -0.66 8.3 -1 10 C-1.66 9.34 -2.32 8.68 -3 8 C-2.625 4.875 -2.625 4.875 -2 2 C-1.34 2 -0.68 2 0 2 C0 1.34 0 0.68 0 0 Z " fill="#E58117" transform="translate(273,144)"/>
<path d="M0 0 C0.33 0.66 0.66 1.32 1 2 C0.50886719 2.51046875 0.01773438 3.0209375 -0.48828125 3.546875 C-2.55122223 6.89448982 -2.29577501 9.35209972 -2.1875 13.25 C-2.16042969 14.51328125 -2.13335937 15.7765625 -2.10546875 17.078125 C-2.05326172 18.52445313 -2.05326172 18.52445313 -2 20 C-4.69481258 17.30518742 -4.96558486 15.45600057 -5.25 11.6875 C-4.91747889 6.78281368 -3.47740296 3.47740296 0 0 Z " fill="#D98B34" transform="translate(96,76)"/>
<path d="M0 0 C0.50789063 0.38671875 1.01578125 0.7734375 1.5390625 1.171875 C5.61331983 4.25427193 9.71647931 7.21571155 14 10 C13.34 10.66 12.68 11.32 12 12 C12 11.34 12 10.68 12 10 C11.195625 9.87625 10.39125 9.7525 9.5625 9.625 C8.716875 9.41875 7.87125 9.2125 7 9 C6.67 8.34 6.34 7.68 6 7 C4.7625 6.5978125 4.7625 6.5978125 3.5 6.1875 C2.675 5.795625 1.85 5.40375 1 5 C0.1875 2.375 0.1875 2.375 0 0 Z " fill="#FDEFD4" transform="translate(104,110)"/>
<path d="M0 0 C0.66 0 1.32 0 2 0 C2 4.29 2 8.58 2 13 C0.68 13.33 -0.64 13.66 -2 14 C-1.34 9.38 -0.68 4.76 0 0 Z " fill="#F8E8C7" transform="translate(307,176)"/>
<path d="M0 0 C1.98 0 3.96 0 6 0 C1.21432051 4.94520214 1.21432051 4.94520214 -2.1640625 5.09765625 C-3.38222656 5.08025391 -3.38222656 5.08025391 -4.625 5.0625 C-5.85089844 5.04896484 -5.85089844 5.04896484 -7.1015625 5.03515625 C-8.04128906 5.01775391 -8.04128906 5.01775391 -9 5 C-9 4.67 -9 4.34 -9 4 C-6.36 3.67 -3.72 3.34 -1 3 C-0.67 2.01 -0.34 1.02 0 0 Z " fill="#FDEAD5" transform="translate(253,188)"/>
<path d="M0 0 C3.48331435 3.01887244 4.79157144 5.56909529 6 10 C5.01 9.67 4.02 9.34 3 9 C2.34 9.66 1.68 10.32 1 11 C0.67 7.37 0.34 3.74 0 0 Z " fill="#FCF1D7" transform="translate(257,144)"/>
<path d="M0 0 C-3.00950123 1.61725534 -5.97103608 2.67582623 -9.25 3.625 C-10.14203125 3.88539062 -11.0340625 4.14578125 -11.953125 4.4140625 C-12.62859375 4.60742188 -13.3040625 4.80078125 -14 5 C-13.67 4.01 -13.34 3.02 -13 2 C-12.34 2 -11.68 2 -11 2 C-11 1.34 -11 0.68 -11 0 C-7.01803543 -1.05404945 -4.01804691 -0.84098656 0 0 Z " fill="#FBE2E9" transform="translate(179,61)"/>
<path d="M0 0 C2.97 0 5.94 0 9 0 C9 0.66 9 1.32 9 2 C11.31 2.66 13.62 3.32 16 4 C14.390625 5.1484375 14.390625 5.1484375 12 6 C8.984375 5.1015625 8.984375 5.1015625 5.75 3.625 C4.67234375 3.14289063 3.5946875 2.66078125 2.484375 2.1640625 C1.66453125 1.77992187 0.8446875 1.39578125 0 1 C0 0.67 0 0.34 0 0 Z " fill="#B2213C" transform="translate(222,99)"/>
<path d="M0 0 C0.33 0.66 0.66 1.32 1 2 C1.66 2 2.32 2 3 2 C3.99 6.62 4.98 11.24 6 16 C3.09973937 14.54986969 2.95045604 12.69479373 1.875 9.6875 C1.52179688 8.72199219 1.16859375 7.75648438 0.8046875 6.76171875 C0 4 0 4 0 0 Z " fill="#B31E3E" transform="translate(102,179)"/>
<path d="M0 0 C1.93884889 0.28256092 3.87605961 0.5763793 5.8125 0.875 C6.89144531 1.03742188 7.97039062 1.19984375 9.08203125 1.3671875 C12 2 12 2 15 4 C14.18015625 3.90460938 13.3603125 3.80921875 12.515625 3.7109375 C11.43796875 3.60007813 10.3603125 3.48921875 9.25 3.375 C8.18265625 3.25898438 7.1153125 3.14296875 6.015625 3.0234375 C2.96207601 2.99970525 1.53837579 3.38579015 -1 5 C-0.67 3.35 -0.34 1.7 0 0 Z " fill="#BD1234" transform="translate(193,177)"/>
<path d="M0 0 C0.33 0.66 0.66 1.32 1 2 C-3.07369424 4.03684712 -5.58937864 4.0257259 -10 3 C-8.0130571 -0.97388579 -3.91761109 -0.08705802 0 0 Z " fill="#B41432" transform="translate(231,201)"/>
<path d="M0 0 C3.63559661 3.43361902 6.36113346 6.7973607 9 11 C8.01 11.495 8.01 11.495 7 12 C7 11.34 7 10.68 7 10 C6.01 9.67 5.02 9.34 4 9 C1 4.66666667 1 4.66666667 1 2 C0.34 1.67 -0.32 1.34 -1 1 C-0.67 0.67 -0.34 0.34 0 0 Z " fill="#B12A47" transform="translate(284,64)"/>
<path d="M0 0 C0.66 0 1.32 0 2 0 C3.30062431 3.81516464 2.89369853 7.27561763 2.5625 11.25 C2.46066406 12.51328125 2.35882813 13.7765625 2.25390625 15.078125 C2.17011719 16.04234375 2.08632813 17.0065625 2 18 C1.67 18 1.34 18 1 18 C0.67 12.06 0.34 6.12 0 0 Z " fill="#FEE2EA" transform="translate(297,86)"/>
<path d="M0 0 C-0.66 1.65 -1.32 3.3 -2 5 C-3.98 5 -5.96 5 -8 5 C-8.33 4.34 -8.66 3.68 -9 3 C-2.25 0 -2.25 0 0 0 Z " fill="#BC1E41" transform="translate(168,65)"/>
<path d="M0 0 C4.95 1.65 9.9 3.3 15 5 C10.91530102 6.02117475 10.094008 5.98075877 6.375 4.625 C5.59898437 4.34914062 4.82296875 4.07328125 4.0234375 3.7890625 C2 3 2 3 0 2 C0 1.34 0 0.68 0 0 Z " fill="#AC1F3E" transform="translate(209,181)"/>
<path d="M0 0 C3.3 1.65 6.6 3.3 10 5 C6.68756695 5.82810826 4.34023421 6.09278428 1 6 C0.67 4.02 0.34 2.04 0 0 Z " fill="#FCF1D5" transform="translate(130,128)"/>
<path d="M0 0 C3.68754757 0.49831724 5.60490662 1.10067643 8 4 C7.67 4.99 7.34 5.98 7 7 C5.68 6.67 4.36 6.34 3 6 C2.87625 5.195625 2.7525 4.39125 2.625 3.5625 C2.315625 2.2940625 2.315625 2.2940625 2 1 C1.34 0.67 0.68 0.34 0 0 Z " fill="#F6F8F7" transform="translate(288,64)"/>
<path d="M0 0 C5.94 1.485 5.94 1.485 12 3 C8 5 8 5 5.25 4.125 C4.5075 3.75375 3.765 3.3825 3 3 C2.67 3.66 2.34 4.32 2 5 C1.34 3.35 0.68 1.7 0 0 Z " fill="#FADBE1" transform="translate(120,208)"/>
<path d="M0 0 C0.89332031 0.12761719 1.78664062 0.25523438 2.70703125 0.38671875 C3.60808594 0.50660156 4.50914062 0.62648438 5.4375 0.75 C6.12457031 0.85699219 6.81164062 0.96398437 7.51953125 1.07421875 C4.85741753 2.45001702 2.45656509 3.44485436 -0.48046875 4.07421875 C-0.48046875 3.41421875 -0.48046875 2.75421875 -0.48046875 2.07421875 C-2.13046875 2.40421875 -3.78046875 2.73421875 -5.48046875 3.07421875 C-3.68981165 0.76004728 -2.99175075 0.08951695 0 0 Z " fill="#FBECEB" transform="translate(150.48046875,74.92578125)"/>
<path d="M0 0 C2.97 0 5.94 0 9 0 C6.702779 1.74271938 4.40133271 3.39911152 2 5 C-0.1875 4.625 -0.1875 4.625 -2 4 C-1.34 2.68 -0.68 1.36 0 0 Z " fill="#C60730" transform="translate(168,65)"/>
<path d="M0 0 C4.455 0.99 4.455 0.99 9 2 C8.34 3.32 7.68 4.64 7 6 C3.63279613 4.60667426 2.0140476 3.0210714 0 0 Z " fill="#B51337" transform="translate(111,200)"/>
<path d="M0 0 C0.33 0 0.66 0 1 0 C1.08160748 1.89510699 1.13946459 3.79124504 1.1875 5.6875 C1.22230469 6.74324219 1.25710938 7.79898438 1.29296875 8.88671875 C0.96666615 12.35422768 -0.00969875 14.18432448 -2 17 C-2.625 15.125 -2.625 15.125 -3 13 C-2.34 12.34 -1.68 11.68 -1 11 C-0.53709779 8.33757179 -0.53709779 8.33757179 -0.375 5.375 C-0.30023438 4.37210938 -0.22546875 3.36921875 -0.1484375 2.3359375 C-0.09945313 1.56507813 -0.05046875 0.79421875 0 0 Z " fill="#CE8B3E" transform="translate(306,174)"/>
<path d="M0 0 C3.48749314 2.78999451 6.50157221 5.25235831 9 9 C8.67 9.66 8.34 10.32 8 11 C6.5 9.625 6.5 9.625 5 8 C5 7.34 5 6.68 5 6 C3.68 5.67 2.36 5.34 1 5 C0.67 3.35 0.34 1.7 0 0 Z " fill="#DC974C" transform="translate(295,159)"/>
<path d="M0 0 C2.97 0.33 5.94 0.66 9 1 C9 1.33 9 1.66 9 2 C7.8553125 2.185625 7.8553125 2.185625 6.6875 2.375 C3.79732864 2.88102792 3.79732864 2.88102792 1 5 C0.34 4.67 -0.32 4.34 -1 4 C-0.67 2.68 -0.34 1.36 0 0 Z " fill="#BD0C30" transform="translate(221,187)"/>
<path d="M0 0 C4.10958767 1.45044271 7.43258745 3.51110752 11 6 C9 7 9 7 6.9375 6.6875 C5 6 5 6 4 4 C3.01 3.67 2.02 3.34 1 3 C0.67 2.01 0.34 1.02 0 0 Z " fill="#D9872C" transform="translate(262,137)"/>
<path d="M0 0 C6.4 0.49230769 6.4 0.49230769 9.4375 3.0625 C10.2109375 4.0215625 10.2109375 4.0215625 11 5 C7.80389448 5 6.58282374 4.45328458 3.8125 3 C3.09707031 2.62875 2.38164062 2.2575 1.64453125 1.875 C1.10183594 1.58625 0.55914062 1.2975 0 1 C0 0.67 0 0.34 0 0 Z " fill="#FAE5BF" transform="translate(256,133)"/>
<path d="M0 0 C0 1.65 0 3.3 0 5 C-1.98 5 -3.96 5 -6 5 C-6.33 4.34 -6.66 3.68 -7 3 C-2.25 0 -2.25 0 0 0 Z " fill="#C5092D" transform="translate(290,112)"/>
<path d="M0 0 C2.64 1.98 5.28 3.96 8 6 C5 7 5 7 2.875 6.375 C1 5 1 5 0.25 2.375 C0.1675 1.59125 0.085 0.8075 0 0 Z " fill="#FADCE1" transform="translate(111,201)"/>
<path d="M0 0 C2.31 0.66 4.62 1.32 7 2 C7 2.99 7 3.98 7 5 C5.35 5 3.7 5 2 5 C1.34 3.35 0.68 1.7 0 0 Z " fill="#B41433" transform="translate(172,167)"/>
<path d="M0 0 C0.99 0.66 1.98 1.32 3 2 C3 2.66 3 3.32 3 4 C2.34 4 1.68 4 1 4 C1 4.66 1 5.32 1 6 C-0.32 5.67 -1.64 5.34 -3 5 C-3 4.01 -3 3.02 -3 2 C-2.01 2 -1.02 2 0 2 C0 1.34 0 0.68 0 0 Z " fill="#F9E9EF" transform="translate(172,161)"/>
<path d="M0 0 C2.6875 0.875 2.6875 0.875 5 2 C4.01 3.485 4.01 3.485 3 5 C0.03 4.505 0.03 4.505 -3 4 C-3 3.34 -3 2.68 -3 2 C-2.01 1.34 -1.02 0.68 0 0 Z " fill="#FBF8EC" transform="translate(258,129)"/>
<path d="M0 0 C3.26008643 3.16952847 6.22237877 6.39937989 9 10 C8.401875 9.690625 7.80375 9.38125 7.1875 9.0625 C4.91043228 7.89790296 4.91043228 7.89790296 2 7 C0.8125 3.4375 0.8125 3.4375 0 0 Z " fill="#FDEECB" transform="translate(95,100)"/>
<path d="M0 0 C5.61 0 11.22 0 17 0 C17 0.33 17 0.66 17 1 C14.72926348 1.16798051 12.45840707 1.33434113 10.1875 1.5 C8.29064453 1.63921875 8.29064453 1.63921875 6.35546875 1.78125 C4.24021483 1.91914781 2.11974408 2 0 2 C0 1.34 0 0.68 0 0 Z " fill="#B60D32" transform="translate(240,55)"/>
<path d="M0 0 C4.21912747 0.4794463 6.79663178 1.16625119 10 4 C7.69 4.33 5.38 4.66 3 5 C2.67 4.01 2.34 3.02 2 2 C1.34 1.34 0.68 0.68 0 0 Z " fill="#B72040" transform="translate(161,163)"/>
<path d="M0 0 C0.66 1.32 1.32 2.64 2 4 C0.625 7.25 0.625 7.25 -1 10 C-1.66 10 -2.32 10 -3 10 C-2.01 6.7 -1.02 3.4 0 0 Z " fill="#F5D2D9" transform="translate(297,105)"/>
<path d="M0 0 C0.66 0.66 1.32 1.32 2 2 C0.68 4.31 -0.64 6.62 -2 9 C-2.33 9 -2.66 9 -3 9 C-3.36923077 3.46153846 -3.36923077 3.46153846 -1.5 1.125 C-1.005 0.75375 -0.51 0.3825 0 0 Z " fill="#FBFBF3" transform="translate(136,89)"/>
<path d="M0 0 C0.33 0.99 0.66 1.98 1 3 C0.01 3.66 -0.98 4.32 -2 5 C-2.99 4.67 -3.98 4.34 -5 4 C-5 3.01 -5 2.02 -5 1 C-3 0 -3 0 0 0 Z " fill="#F5FBF4" transform="translate(158,64)"/>
<path d="M0 0 C1.89213369 2.38573379 3.02391783 4.07175348 4 7 C2.68 7.33 1.36 7.66 0 8 C-1.125 2.25 -1.125 2.25 0 0 Z " fill="#F8E2E4" transform="translate(105,191)"/>
<path d="M0 0 C1.4835001 0.42257276 2.96176424 0.86356322 4.4375 1.3125 C5.67306641 1.67794922 5.67306641 1.67794922 6.93359375 2.05078125 C7.61550781 2.36402344 8.29742187 2.67726563 9 3 C9.33 3.99 9.66 4.98 10 6 C6.40992874 4.66654496 3.20429093 3.1056769 0 1 C0 0.67 0 0.34 0 0 Z " fill="#D88B37" transform="translate(123,123)"/>
<path d="M0 0 C-1.49739583 1.23697917 -2.99479167 2.47395833 -4.4921875 3.7109375 C-5.71051161 4.75250992 -6.86660097 5.86660097 -8 7 C-8 5.68 -8 4.36 -8 3 C-7.34 3 -6.68 3 -6 3 C-6 2.01 -6 1.02 -6 0 C-3 -1 -3 -1 0 0 Z " fill="#FDE9C1" transform="translate(100,74)"/>
<path d="M0 0 C3.3 0 6.6 0 10 0 C10 0.99 10 1.98 10 3 C6.7 2.34 3.4 1.68 0 1 C0 0.67 0 0.34 0 0 Z " fill="#FAD1DB" transform="translate(262,55)"/>
<path d="M0 0 C0.66 0.33 1.32 0.66 2 1 C0.92598892 3.91517292 0.22189824 5.77810176 -2 8 C-2.125 5.125 -2.125 5.125 -2 2 C-1.34 1.34 -0.68 0.68 0 0 Z " fill="#141414" transform="translate(250,288)"/>
<path d="M0 0 C-2.71182212 2.60334924 -3.89133813 2.99456691 -7.75 3.1875 C-8.8225 3.125625 -9.895 3.06375 -11 3 C-3.71428571 -1.85714286 -3.71428571 -1.85714286 0 0 Z " fill="#F8D3DB" transform="translate(240,201)"/>
<path d="M0 0 C3.45925163 1.2491742 6.14693203 2.67527795 9 5 C5.625 4.75 5.625 4.75 2 4 C0.5625 1.9375 0.5625 1.9375 0 0 Z " fill="#FCF1CF" transform="translate(140,134)"/>
<path d="M0 0 C0.66 0 1.32 0 2 0 C1.74438677 2.3431213 1.40729228 4.67843403 1 7 C0.01 7.495 0.01 7.495 -1 8 C-1.33 6.68 -1.66 5.36 -2 4 C-1.34 4 -0.68 4 0 4 C0 2.68 0 1.36 0 0 Z " fill="#BF092D" transform="translate(291,76)"/>
<path d="M0 0 C0 0.66 0 1.32 0 2 C-2.64 2.66 -5.28 3.32 -8 4 C-7.67 3.01 -7.34 2.02 -7 1 C-4.53721199 -0.231394 -2.7204945 -0.07159196 0 0 Z " fill="#FEF3D3" transform="translate(108,69)"/>
<path d="M0 0 C2.97 0.495 2.97 0.495 6 1 C3.75 3.0625 3.75 3.0625 1 5 C-1.3125 4.75 -1.3125 4.75 -3 4 C-2.01 3.67 -1.02 3.34 0 3 C0 2.01 0 1.02 0 0 Z " fill="#9A263E" transform="translate(244,193)"/>
<path d="M0 0 C0.99 0.66 1.98 1.32 3 2 C3 2.99 3 3.98 3 5 C0.5625 4.625 0.5625 4.625 -2 4 C-2.33 3.34 -2.66 2.68 -3 2 C-2.01 2 -1.02 2 0 2 C0 1.34 0 0.68 0 0 Z " fill="#CF9658" transform="translate(147,133)"/>
<path d="M0 0 C1.32 0 2.64 0 4 0 C4.309375 0.78375 4.61875 1.5675 4.9375 2.375 C5.92875038 4.92330128 5.92875038 4.92330128 7 7 C3.17053157 5.54744301 1.87949705 3.57104439 0 0 Z " fill="#FCEBCF" transform="translate(144,128)"/>
<path d="M0 0 C4.95 0.99 4.95 0.99 10 2 C10 2.33 10 2.66 10 3 C7.03 3 4.06 3 1 3 C0.67 2.01 0.34 1.02 0 0 Z " fill="#FAD3DE" transform="translate(267,116)"/>
</svg>
