<?xml version="1.0" encoding="UTF-8"?>
<svg version="1.1" xmlns="http://www.w3.org/2000/svg" width="400" height="400">
<path d="M0 0 C132 0 264 0 400 0 C400 132 400 264 400 400 C268 400 136 400 0 400 C0 268 0 136 0 0 Z " fill="#FEFDFD" transform="translate(0,0)"/>
<path d="M0 0 C105.6 0 211.2 0 320 0 C320 34.65 320 69.3 320 105 C297.57399776 102.86419026 297.57399776 102.86419026 288.01147461 101.55395508 C272.02882941 99.39396416 256.03631742 98.22974485 239.9375 97.3125 C238.87674255 97.25192413 237.81598511 97.19134827 236.7230835 97.12893677 C230.4879378 96.77791338 224.25187149 96.45234459 218.01428223 96.14788818 C216.05199258 96.05161337 214.08982406 95.95282589 212.12780762 95.85113525 C193.71512861 94.90270453 175.30746359 94.75479692 156.875 94.75 C156.09234772 94.74955814 155.30969543 94.74911629 154.50332642 94.74866104 C105.71616902 94.73429799 55.42709362 95.53329345 7.36181641 104.64819336 C5 105 5 105 0 105 C0 70.35 0 35.7 0 0 Z " fill="#F1AE02" transform="translate(41,132)"/>
<path d="M0 0 C2.27175537 0.00047822 4.5435098 0.00032328 6.81526518 -0.00005484 C50.82212961 -0.00720519 94.78554698 0.23271085 138.76186323 2.05143976 C144.97229296 2.30294199 151.18376315 2.52669207 157.39510298 2.75438166 C163.2055522 2.96901056 163.2055522 2.96901056 169.13338423 3.18797541 C169.13338423 14.73797541 169.13338423 26.28797541 169.13338423 38.18797541 C63.53338423 38.18797541 -42.06661577 38.18797541 -150.86661577 38.18797541 C-150.86661577 26.63797541 -150.86661577 15.08797541 -150.86661577 3.18797541 C-144.90564641 2.9177378 -138.94464702 2.65025211 -132.98331499 2.38841486 C-130.9770687 2.29962204 -128.97087821 2.20955453 -126.9647603 2.11790705 C-119.26678619 1.76692962 -111.56772161 1.46176158 -103.86661577 1.18797541 C-103.21514826 1.16477858 -102.56368074 1.14158175 -101.89247179 1.11768198 C-67.93898008 -0.07316709 -33.96956281 -0.01063291 0 0 Z " fill="#F1AE01" transform="translate(191.86661577224731,237.81202459335327)"/>
<path d="M0 0 C0.66 0 1.32 0 2 0 C2 34.65 2 69.3 2 105 C10.415 103.515 10.415 103.515 19 102 C22.42652114 101.52975604 25.82646701 101.08542864 29.26171875 100.71875 C30.15433914 100.61999069 31.04695953 100.52123138 31.96662903 100.41947937 C34.87264308 100.10313511 37.77966597 99.7991385 40.6875 99.5 C41.71842773 99.3939444 42.74935547 99.28788879 43.81152344 99.17861938 C123.32128761 91.11266324 205.55099201 90.49797182 285 100 C286.45809891 100.16907622 287.91627388 100.33749733 289.37451172 100.50537109 C296.74621822 101.35536097 304.11595775 102.22242688 311.48046875 103.1328125 C312.64473389 103.27605957 313.80899902 103.41930664 315.00854492 103.56689453 C317.40782885 103.91426495 319.66949903 104.34761693 322 105 C322 106.32 322 107.64 322 109 C308.60106083 109.10468157 295.22248716 109.08842178 281.83203125 108.5625 C242.33569586 107.04636673 202.84916966 106.77242941 163.32831186 106.75433874 C158.2070327 106.75182339 153.08577846 106.74438773 147.96450806 106.73486328 C114.06279611 106.676279 80.21744798 107.06026512 46.33633423 108.3012085 C31.54279947 108.838902 16.80439533 109.09414797 2 109 C2 120.55 2 132.1 2 144 C1.67 144 1.34 144 1 144 C-0.04104823 114.08267743 -0.12512055 84.18604041 -0.06866455 54.25317383 C-0.05822715 48.11019243 -0.05382434 41.96720655 -0.04882812 35.82421875 C-0.03826948 23.88280122 -0.02132307 11.94140285 0 0 Z " fill="#FDFDF8" transform="translate(39,132)"/>
<path d="M0 0 C3.77561816 0.0010522 7.551234 0.00042074 11.32685208 -0.0006429 C55.69889441 -0.01185788 100.03705466 0.25628676 144.37490845 2.18847656 C144.37490845 2.51847656 144.37490845 2.84847656 144.37490845 3.18847656 C143.23926295 3.18709387 143.23926295 3.18709387 142.08067513 3.18568325 C35.91976924 2.95160811 35.91976924 2.95160811 -70.23841095 3.53590775 C-72.98543106 3.56333021 -75.73246157 3.58716733 -78.47952271 3.6100769 C-82.69272641 3.64598834 -86.90569695 3.69179769 -91.11869812 3.74647713 C-92.59385407 3.76455362 -94.06904769 3.77985875 -95.54426575 3.79183769 C-103.47155191 3.85992872 -111.02805338 4.42907383 -118.84408569 5.75790405 C-122.06549246 6.25666215 -125.11013294 6.33900911 -128.3633728 6.16503906 C-129.83737549 6.09663818 -129.83737549 6.09663818 -131.34115601 6.02685547 C-133.1213916 5.92123291 -133.1213916 5.92123291 -134.93759155 5.81347656 C-138.79446655 5.60722656 -142.65134155 5.40097656 -146.62509155 5.18847656 C-146.29509155 15.08847656 -145.96509155 24.98847656 -145.62509155 35.18847656 C10.29990845 35.68347656 10.29990845 35.68347656 169.37490845 36.18847656 C169.37490845 25.95847656 169.37490845 15.72847656 169.37490845 5.18847656 C164.42490845 5.18847656 159.47490845 5.18847656 154.37490845 5.18847656 C151.70116355 4.91771759 149.02721087 4.62150553 146.37490845 4.18847656 C146.37490845 3.85847656 146.37490845 3.52847656 146.37490845 3.18847656 C154.62490845 3.18847656 162.87490845 3.18847656 171.37490845 3.18847656 C171.37490845 14.73847656 171.37490845 26.28847656 171.37490845 38.18847656 C65.77490845 38.18847656 -39.82509155 38.18847656 -148.62509155 38.18847656 C-148.62509155 26.63847656 -148.62509155 15.08847656 -148.62509155 3.18847656 C-142.66412219 2.91823895 -136.7031228 2.65075327 -130.74179077 2.38891602 C-128.73554448 2.30012319 -126.72935399 2.21005569 -124.72323608 2.1184082 C-117.02526197 1.76743078 -109.32619739 1.46226274 -101.62509155 1.18847656 C-100.97362404 1.16527973 -100.32215652 1.1420829 -99.65094757 1.11818314 C-66.44408975 -0.04647928 -33.22270381 -0.00955232 0 0 Z " fill="#E7B230" transform="translate(189.62509155273438,237.8115234375)"/>
<path d="M0 0 C1.61450869 -0.04324721 3.22909601 -0.08366202 4.84375 -0.12109375 C5.99266724 -0.1660498 5.99266724 -0.1660498 7.16479492 -0.21191406 C10.77280227 -0.24890689 12.75015042 -0.11395545 15.67578125 2.0859375 C17.15625 4.19140625 17.15625 4.19140625 17.15625 6.19140625 C19.80530037 5.23480473 21.85594936 4.46064131 23.96875 2.56640625 C27.23751499 0.51175397 30.4579739 0.50898626 34.15625 1.19140625 C36.9662846 2.98504536 38.66565468 4.2102156 40.15625 7.19140625 C40.43259484 11.98138356 40.10492342 15.78125061 38.15625 20.19140625 C34.89629414 22.36471016 33.92645034 22.44062084 30.15625 22.37890625 C29.29 22.37246094 28.42375 22.36601562 27.53125 22.359375 C25.15625 22.19140625 25.15625 22.19140625 22.15625 21.19140625 C21.66125 20.20140625 21.66125 20.20140625 21.15625 19.19140625 C20.16625 18.86140625 19.17625 18.53140625 18.15625 18.19140625 C18.15625 19.84140625 18.15625 21.49140625 18.15625 23.19140625 C16.83625 23.19140625 15.51625 23.19140625 14.15625 23.19140625 C13.82625 23.85140625 13.49625 24.51140625 13.15625 25.19140625 C11.171875 23.64453125 11.171875 23.64453125 9.15625 21.19140625 C8.765625 17.73828125 8.765625 17.73828125 8.90625 13.94140625 C8.94234375 12.678125 8.9784375 11.41484375 9.015625 10.11328125 C9.06203125 9.1490625 9.1084375 8.18484375 9.15625 7.19140625 C7.18088255 7.53927333 7.18088255 7.53927333 5.15625 8.19140625 C4.82625 8.85140625 4.49625 9.51140625 4.15625 10.19140625 C4.81625 10.52140625 5.47625 10.85140625 6.15625 11.19140625 C6.011875 11.89265625 5.8675 12.59390625 5.71875 13.31640625 C5.14146625 16.26696766 4.63929859 19.22410776 4.15625 22.19140625 C3.16625 22.52140625 2.17625 22.85140625 1.15625 23.19140625 C0.49625 23.85140625 -0.16375 24.51140625 -0.84375 25.19140625 C-1.83375 24.20140625 -2.82375 23.21140625 -3.84375 22.19140625 C-3.84375 23.51140625 -3.84375 24.83140625 -3.84375 26.19140625 C-4.50375 26.19140625 -5.16375 26.19140625 -5.84375 26.19140625 C-5.84375 26.85140625 -5.84375 27.51140625 -5.84375 28.19140625 C-11.78375 28.19140625 -17.72375 28.19140625 -23.84375 28.19140625 C-23.84375 27.20140625 -23.84375 26.21140625 -23.84375 25.19140625 C-19.22375 24.86140625 -14.60375 24.53140625 -9.84375 24.19140625 C-10.17375 23.53140625 -10.50375 22.87140625 -10.84375 22.19140625 C-13.62711238 21.76033932 -13.62711238 21.76033932 -16.84375 21.62890625 C-22.74737954 21.28777671 -22.74737954 21.28777671 -23.84375 20.19140625 C-23.88759447 18.52531638 -23.8834213 16.85760071 -23.84375 15.19140625 C-23.84375 14.20140625 -23.84375 13.21140625 -23.84375 12.19140625 C-24.17375 11.86140625 -24.50375 11.53140625 -24.84375 11.19140625 C-25.21875 8.37890625 -25.21875 8.37890625 -24.84375 5.19140625 C-19.63989115 -0.12830845 -14.13373919 0.39743259 -7.0703125 0.24267578 C-4.71206431 0.18837401 -2.35700026 0.09336048 0 0 Z " fill="#E5AB1B" transform="translate(237.84375,171.80859375)"/>
<path d="M0 0 C0.66 0 1.32 0 2 0 C2 34.65 2 69.3 2 105 C10.415 103.515 10.415 103.515 19 102 C22.87108708 101.49111668 26.71727324 101.01274095 30.59765625 100.61328125 C32.10277016 100.45317818 32.10277016 100.45317818 33.63829041 100.2898407 C35.72900139 100.0693425 37.82003444 99.85187687 39.91137695 99.63745117 C43.06257391 99.31249238 46.21186936 98.97220775 49.36132812 98.63085938 C60.62386317 97.4418576 71.67089358 96.65354096 83 97 C78.60896414 99.92735724 74.33205011 99.44243343 69.15234375 99.65625 C65.90508301 99.67739224 65.90508301 99.67739224 64 102 C61.03125 102.37890625 61.03125 102.37890625 57.5 102.5625 C53.09066238 102.66407271 53.09066238 102.66407271 49 104 C99.16 104 149.32 104 201 104 C201 104.66 201 105.32 201 106 C199.73897461 106.00808685 198.47794922 106.01617371 197.17871094 106.02450562 C181.11904366 106.12881145 165.05949601 106.24705374 149 106.375 C147.72114552 106.38516521 146.44229103 106.39533043 145.12468338 106.40580368 C111.43483127 106.67714663 77.76761273 107.05501902 44.09960938 108.33935547 C41.83594247 108.42558622 39.57227079 108.51169199 37.30859375 108.59765625 C36.26867279 108.63755676 35.22875183 108.67745728 34.15731812 108.71856689 C23.43469703 109.10367263 12.72889062 109.06383711 2 109 C2 120.55 2 132.1 2 144 C1.67 144 1.34 144 1 144 C-0.04104823 114.08267743 -0.12512055 84.18604041 -0.06866455 54.25317383 C-0.05822715 48.11019243 -0.05382434 41.96720655 -0.04882812 35.82421875 C-0.03826948 23.88280122 -0.02132307 11.94140285 0 0 Z " fill="#FEFAD6" transform="translate(39,132)"/>
<path d="M0 0 C-0.14049518 1.47968324 -0.28754826 2.95874516 -0.4375 4.4375 C-0.51871094 5.26121094 -0.59992188 6.08492187 -0.68359375 6.93359375 C-1 9 -1 9 -2 10 C-2.15655027 11.48638992 -2.25066943 12.97949127 -2.31640625 14.47265625 C-2.37924805 15.82133789 -2.37924805 15.82133789 -2.44335938 17.19726562 C-2.48267578 18.14279297 -2.52199219 19.08832031 -2.5625 20.0625 C-2.62727539 21.4865918 -2.62727539 21.4865918 -2.69335938 22.93945312 C-2.79979276 25.29281353 -2.90181008 27.64628354 -3 30 C-4.98 29.67 -6.96 29.34 -9 29 C-9.495 27.515 -9.495 27.515 -10 26 C-12.90802461 28.21928194 -14.95312762 29.92969143 -17 33 C-20.625 33.1875 -20.625 33.1875 -24 33 C-24 34.65 -24 36.3 -24 38 C-26.31 38.66 -28.62 39.32 -31 40 C-33.23551759 36.64672361 -33.17283528 36.09256343 -32.625 32.3125 C-32.45871094 31.10013672 -32.45871094 31.10013672 -32.2890625 29.86328125 C-32.19367188 29.24839844 -32.09828125 28.63351563 -32 28 C-32.763125 28.66 -33.52625 29.32 -34.3125 30 C-38.7817563 33.05847901 -43.80920149 32.33250667 -49 32 C-49 31.34 -49 30.68 -49 30 C-48.32453125 29.93941406 -47.6490625 29.87882812 -46.953125 29.81640625 C-45.61507812 29.69072266 -45.61507812 29.69072266 -44.25 29.5625 C-43.36828125 29.48128906 -42.4865625 29.40007812 -41.578125 29.31640625 C-39.30649548 29.03761535 -37.20148177 28.61209423 -35 28 C-35 25.69 -35 23.38 -35 21 C-38.63 19.68 -42.26 18.36 -46 17 C-45.67 15.68 -45.34 14.36 -45 13 C-41.7 13.33 -38.4 13.66 -35 14 C-35 13.01 -35 12.02 -35 11 C-33.7934375 10.7834375 -33.7934375 10.7834375 -32.5625 10.5625 C-30.07896294 10.25864751 -30.07896294 10.25864751 -29 9 C-26.46950598 8.92686433 -23.96695163 8.90752473 -21.4375 8.9375 C-20.72658203 8.94201172 -20.01566406 8.94652344 -19.28320312 8.95117188 C-17.52209987 8.96299136 -15.76103964 8.98092737 -14 9 C-14 8.01 -14 7.02 -14 6 C-13.01 5.67 -12.02 5.34 -11 5 C-10.30062468 3.68352881 -9.63270867 2.34977849 -9 1 C-6.04335481 -0.4783226 -3.25770263 -0.06032783 0 0 Z " fill="#D9A82C" transform="translate(112,163)"/>
<path d="M0 0 C105.6 0 211.2 0 320 0 C320 34.65 320 69.3 320 105 C297.59708585 102.86638913 297.59708585 102.86638913 288.00561523 101.55371094 C263.78895772 98.27727257 239.38959416 97.23755452 215 96 C215 95.67 215 95.34 215 95 C219.41080354 94.97509536 223.82156871 94.95704396 228.23242188 94.94506836 C229.72982497 94.94007057 231.22722327 94.9332701 232.72460938 94.92456055 C234.88933505 94.91229377 237.05399565 94.90672603 239.21875 94.90234375 C241.1668457 94.89448853 241.1668457 94.89448853 243.15429688 94.88647461 C247.1846205 95.00545001 251.00442021 95.47257642 255 96 C256.92423801 96.12136948 258.85033696 96.2174744 260.77734375 96.28125 C261.78474609 96.31863281 262.79214844 96.35601562 263.83007812 96.39453125 C265.9290052 96.46577076 268.02796473 96.53605946 270.12695312 96.60546875 C271.12533203 96.64285156 272.12371094 96.68023437 273.15234375 96.71875 C274.5134729 96.76418945 274.5134729 96.76418945 275.90209961 96.81054688 C278 97 278 97 279 98 C281.30895269 98.21017016 283.62273969 98.36839941 285.9375 98.5 C292.77956372 98.88978186 292.77956372 98.88978186 295 100 C297.58716103 100.20882914 300.15873241 100.37461608 302.75 100.5 C304.16161564 100.56980517 305.57308328 100.64267665 306.984375 100.71875 C307.61053711 100.74904297 308.23669922 100.77933594 308.88183594 100.81054688 C311.6059079 101.0541937 314.30226549 101.55037758 317 102 C317.33 68.67 317.66 35.34 318 1 C213.39 1 108.78 1 1 1 C1 34.66 1 68.32 1 103 C3.475 102.505 3.475 102.505 6 102 C7.93651019 101.93466565 9.87502861 101.91415697 11.8125 101.9375 C13.27623047 101.95103516 13.27623047 101.95103516 14.76953125 101.96484375 C15.50558594 101.97644531 16.24164063 101.98804688 17 102 C17 102.33 17 102.66 17 103 C15.10507994 103.33848652 13.20901534 103.67056911 11.3125 104 C10.25675781 104.185625 9.20101562 104.37125 8.11328125 104.5625 C5 105 5 105 0 105 C0 70.35 0 35.7 0 0 Z " fill="#DEB33A" transform="translate(41,132)"/>
<path d="M0 0 C0.99 0.33 1.98 0.66 3 1 C3 1.99 3 2.98 3 4 C-102.6 4 -208.2 4 -317 4 C-317 3.34 -317 2.68 -317 2 C-316.33173331 1.99826375 -315.66346662 1.9965275 -314.97494942 1.99473864 C-275.41043895 1.89181839 -235.84594565 1.78372934 -196.28146792 1.66888306 C-191.53603406 1.65511268 -186.79060008 1.64138571 -182.04516602 1.62768555 C-181.10039406 1.62495724 -180.1556221 1.62222894 -179.18222069 1.61941796 C-163.8637019 1.57528488 -148.54517568 1.5346713 -133.22664387 1.49534739 C-117.52058528 1.45495073 -101.81454053 1.41079745 -86.10850233 1.36312145 C-76.40892623 1.33379766 -66.70935124 1.30744065 -57.00975715 1.28482103 C-50.3677753 1.26905174 -43.72581041 1.24964951 -37.08384735 1.22733159 C-33.24584428 1.21454448 -29.40785434 1.20341543 -25.56983566 1.19658089 C-21.41880678 1.18914734 -17.2678417 1.1740925 -13.11683655 1.15821838 C-11.27689632 1.15675122 -11.27689632 1.15675122 -9.39978558 1.15525442 C-8.29704153 1.14977998 -7.19429748 1.14430554 -6.05813694 1.1386652 C-5.09858367 1.13600716 -4.13903039 1.13334911 -3.15039974 1.13061053 C-1.01862537 1.23960437 -1.01862537 1.23960437 0 0 Z " fill="#FDF3C5" transform="translate(358,128)"/>
<path d="M0 0 C0.95003906 -0.01417969 1.90007812 -0.02835938 2.87890625 -0.04296875 C5.4375 0.1875 5.4375 0.1875 8.4375 2.1875 C8.7675 3.1775 9.0975 4.1675 9.4375 5.1875 C9.7675 4.1975 10.0975 3.2075 10.4375 2.1875 C13.93625047 -0.37711806 17.48538973 -0.01531686 21.6875 0.0625 C22.95078125 0.08054688 24.2140625 0.09859375 25.515625 0.1171875 C26.47984375 0.14039063 27.4440625 0.16359375 28.4375 0.1875 C28.1075 1.8375 27.7775 3.4875 27.4375 5.1875 C24.4675 5.1875 21.4975 5.1875 18.4375 5.1875 C18.4375 6.1775 18.4375 7.1675 18.4375 8.1875 C19.2728125 8.3421875 19.2728125 8.3421875 20.125 8.5 C23.03707692 9.3657526 25.05958396 10.27195652 27.4375 12.1875 C28.0625 15.1875 28.0625 15.1875 27.4375 18.1875 C24.31112554 21.31387446 21.3440061 21.35704678 17.125 21.375 C15.56198483 21.32708275 13.99910485 21.26937055 12.4375 21.1875 C12.1075 20.1975 11.7775 19.2075 11.4375 18.1875 C10.4475 17.8575 9.4575 17.5275 8.4375 17.1875 C8.7675 16.5275 9.0975 15.8675 9.4375 15.1875 C10.0975 15.1875 10.7575 15.1875 11.4375 15.1875 C11.1075 14.5275 10.7775 13.8675 10.4375 13.1875 C6.1475 13.1875 1.8575 13.1875 -2.5625 13.1875 C0.95466303 16.70466303 2.63317333 16.73426163 7.4375 17.1875 C7.4375 18.5075 7.4375 19.8275 7.4375 21.1875 C-3.31350043 21.87617618 -3.31350043 21.87617618 -7.1875 19.3125 C-9.5625 17.1875 -9.5625 17.1875 -10.5625 15.1875 C-10.65882897 13.37708207 -10.69231533 11.56297247 -10.6875 9.75 C-10.69007813 8.78191406 -10.69265625 7.81382812 -10.6953125 6.81640625 C-10.5625 4.1875 -10.5625 4.1875 -9.5625 1.1875 C-6.46567736 -0.03288796 -3.29750589 0.02243201 0 0 Z " fill="#D0A02B" transform="translate(311.5625,171.8125)"/>
<path d="M0 0 C1.32 0 2.64 0 4 0 C4 0.66 4 1.32 4 2 C4.66 2 5.32 2 6 2 C6.66 2.66 7.32 3.32 8 4 C8.66 4 9.32 4 10 4 C9.97905273 4.61520508 9.95810547 5.23041016 9.93652344 5.86425781 C9.85322983 8.65933809 9.80129987 11.45415715 9.75 14.25 C9.71648437 15.21808594 9.68296875 16.18617188 9.6484375 17.18359375 C9.46134673 22.76707706 9.46134673 22.76707706 11.890625 27.609375 C15.27565684 29.84098858 17.59021669 30.2340874 21.625 30.5625 C22.62789063 30.64628906 23.63078125 30.73007813 24.6640625 30.81640625 C25.43492187 30.87699219 26.20578125 30.93757813 27 31 C27 29.68 27 28.36 27 27 C25.906875 27.04125 24.81375 27.0825 23.6875 27.125 C20 27 20 27 17 25 C17 24.34 17 23.68 17 23 C21.29 23 25.58 23 30 23 C30.33 22.34 30.66 21.68 31 21 C31 22.32 31 23.64 31 25 C30.34 25.66 29.68 26.32 29 27 C30.72221103 29.14005895 31.57895219 29.93462864 34.33984375 30.36328125 C35.62568359 30.33814453 35.62568359 30.33814453 36.9375 30.3125 C38.21947266 30.30669922 38.21947266 30.30669922 39.52734375 30.30078125 C42.10028192 29.98780141 43.77505475 29.29573378 46 28 C46 26.02 46 24.04 46 22 C43.36 20.68 40.72 19.36 38 18 C38 17.01 38 16.02 38 15 C42.455 14.505 42.455 14.505 47 14 C47.33 12.68 47.66 11.36 48 10 C44.04 10 40.08 10 36 10 C36 9.67 36 9.34 36 9 C36.68707031 8.93941406 37.37414062 8.87882813 38.08203125 8.81640625 C39.43361328 8.69072266 39.43361328 8.69072266 40.8125 8.5625 C42.15248047 8.44068359 42.15248047 8.44068359 43.51953125 8.31640625 C46.12743559 8.06510233 46.12743559 8.06510233 49 7 C50.68808474 25.72475535 50.68808474 25.72475535 47.5625 29.9375 C46 31 46 31 44 31 C44 31.99 44 32.98 44 34 C42.27119018 34.05449838 40.54187288 34.09301688 38.8125 34.125 C37.84957031 34.14820313 36.88664062 34.17140625 35.89453125 34.1953125 C32.86483993 33.99087989 30.79288719 33.11715487 28 32 C26.515 32.495 26.515 32.495 25 33 C19.08754222 33.39416385 15.18277749 32.96158714 10 30 C9.0625 27.8125 9.0625 27.8125 9 26 C8.01 26 7.02 26 6 26 C5.67 27.32 5.34 28.64 5 30 C5 21.09 5 12.18 5 3 C3.35 3 1.7 3 0 3 C0 12.24 0 21.48 0 31 C1.32 31 2.64 31 4 31 C4 31.66 4 32.32 4 33 C2.02 32.67 0.04 32.34 -2 32 C-2 31.34 -2 30.68 -2 30 C-2.99 30 -3.98 30 -5 30 C-5 21.09 -5 12.18 -5 3 C-3.68 3.33 -2.36 3.66 -1 4 C-0.67 2.68 -0.34 1.36 0 0 Z " fill="#E8AF15" transform="translate(292,162)"/>
<path d="M0 0 C2.0625 0.4375 2.0625 0.4375 4 1 C4 2.98 4 4.96 4 7 C2.68 7 1.36 7 0 7 C-0.33 14.59 -0.66 22.18 -1 30 C-1.66 29.67 -2.32 29.34 -3 29 C-3.33 29.66 -3.66 30.32 -4 31 C-5.27875 31.061875 -6.5575 31.12375 -7.875 31.1875 C-8.95394531 31.23970703 -8.95394531 31.23970703 -10.0546875 31.29296875 C-10.69664062 31.19628906 -11.33859375 31.09960938 -12 31 C-14.42130331 27.36804504 -14.21022785 25.61650652 -14.125 21.3125 C-14.09792969 19.54326172 -14.09792969 19.54326172 -14.0703125 17.73828125 C-14.03550781 16.38283203 -14.03550781 16.38283203 -14 15 C-15.32 15 -16.64 15 -18 15 C-18 13.35 -18 11.7 -18 10 C-17.34 10 -16.68 10 -16 10 C-16.0309375 8.7934375 -16.0309375 8.7934375 -16.0625 7.5625 C-16 5 -16 5 -15 4 C-11.63790935 3.71530684 -8.27585999 3.55104937 -4.90625 3.37890625 C-3.9471875 3.25386719 -2.988125 3.12882813 -2 3 C-1.67 2.34 -1.34 1.68 -1 1 C-0.67 0.67 -0.34 0.34 0 0 Z " fill="#DEAB28" transform="translate(204,162)"/>
<path d="M0 0 C0.66 0.33 1.32 0.66 2 1 C2.16725324 5.6811945 2.32784864 10.36255101 2.48217773 15.04418945 C2.53566794 16.63800256 2.59100255 18.23175485 2.64819336 19.82543945 C2.72990942 22.11135742 2.80506897 24.39740946 2.87890625 26.68359375 C2.91945885 27.7586039 2.91945885 27.7586039 2.96083069 28.85533142 C3.01297644 30.56947767 3.01185628 32.28510176 3 34 C2 35 2 35 -0.18887192 35.1241985 C-1.6555417 35.12362892 -1.6555417 35.12362892 -3.15184116 35.12304783 C-4.8373078 35.1260344 -4.8373078 35.1260344 -6.55682427 35.12908131 C-7.80679678 35.12616847 -9.05676929 35.12325563 -10.34461975 35.12025452 C-11.66037804 35.12110894 -12.97613632 35.12196337 -14.33176607 35.12284368 C-18.00082435 35.12509113 -21.66985372 35.12106397 -25.33890831 35.11606562 C-29.28916624 35.11176487 -33.2394224 35.11320728 -37.18968201 35.1139679 C-44.0393977 35.11449337 -50.88910391 35.11134413 -57.73881721 35.10573006 C-67.6424687 35.09761822 -77.54611558 35.09500016 -87.44977003 35.09374207 C-103.5160765 35.09155105 -119.58237792 35.08488961 -135.64868164 35.07543945 C-151.25968399 35.06626662 -166.87068496 35.05918516 -182.48168945 35.05493164 C-183.44323931 35.05466892 -184.40478916 35.05440619 -185.39547689 35.05413551 C-190.21907719 35.05283051 -195.0426775 35.0515668 -199.86627781 35.05032361 C-239.91085542 35.03994944 -279.95542738 35.02232977 -320 35 C-320 34.67 -320 34.34 -320 34 C-214.4 34 -108.8 34 0 34 C0 22.78 0 11.56 0 0 Z " fill="#FEFCCB" transform="translate(361,242)"/>
<path d="M0 0 C1.65 0 3.3 0 5 0 C5 2.64 5 5.28 5 8 C6.5778125 7.9071875 6.5778125 7.9071875 8.1875 7.8125 C12.22460449 8.01104612 13.88362578 8.50690063 17 11 C19.32849047 14.21553446 19.54457007 17.11021377 19 21 C16.93227415 24.42765324 14.87871765 26.70709412 11 28 C7.37 28 3.74 28 0 28 C0 18.76 0 9.52 0 0 Z " fill="#483007" transform="translate(144,165)"/>
<path d="M0 0 C12.42307692 0 12.42307692 0 16 3 C18 5 18 5 18.265625 7.0234375 C18.26046875 7.79945313 18.2553125 8.57546875 18.25 9.375 C18.25515625 10.14585937 18.2603125 10.91671875 18.265625 11.7109375 C17.97316282 14.23127332 17.31107824 15.84002219 16 18 C12.39073335 20.77635896 8.34273654 20.14475788 4 20 C4 22.31 4 24.62 4 27 C2.68 27 1.36 27 0 27 C0 18.09 0 9.18 0 0 Z " fill="#220C00" transform="translate(82,173)"/>
<path d="M0 0 C0 0.33 0 0.66 0 1 C-12.72891542 1.20592537 -25.45805971 1.39212022 -38.1875 1.5625 C-39.13800106 1.57523327 -40.08850212 1.58796654 -41.06780624 1.60108566 C-68.99109834 1.96978307 -96.89041598 2.03860374 -124.8125 1.5625 C-125.94099176 1.54327925 -125.94099176 1.54327925 -127.09228134 1.5236702 C-136.06193446 1.36912702 -145.0311447 1.19576991 -154 1 C-154 0.67 -154 0.34 -154 0 C-103.02080852 -4.15255113 -51.00741886 -3.13378913 0 0 Z " fill="#FCF3C4" transform="translate(277,228)"/>
<path d="M0 0 C0.69287109 0.01804688 1.38574219 0.03609375 2.09960938 0.0546875 C3.79617664 0.10148936 5.49202476 0.17322376 7.1875 0.25 C7.1875 1.24 7.1875 2.23 7.1875 3.25 C6.1975 3.58 5.2075 3.91 4.1875 4.25 C4.290625 5.1575 4.39375 6.065 4.5 7 C4.1875 10.25 4.1875 10.25 2.125 12.625 C-1.42921263 14.59116018 -3.810253 14.56390173 -7.8125 14.25 C-7.8125 15.24 -7.8125 16.23 -7.8125 17.25 C-6.54792969 17.21519531 -6.54792969 17.21519531 -5.2578125 17.1796875 C-3.61425781 17.15261719 -3.61425781 17.15261719 -1.9375 17.125 C-0.30167969 17.09019531 -0.30167969 17.09019531 1.3671875 17.0546875 C4.1875 17.25 4.1875 17.25 6.1875 19.25 C6.5625 21.6875 6.5625 21.6875 6.1875 24.25 C3.72010811 26.84014771 2.33980466 27.23707822 -1.265625 27.54296875 C-2.51859375 27.50816406 -3.7715625 27.47335938 -5.0625 27.4375 C-6.32578125 27.41042969 -7.5890625 27.38335937 -8.890625 27.35546875 C-9.85484375 27.32066406 -10.8190625 27.28585938 -11.8125 27.25 C-11.8125 26.26 -11.8125 25.27 -11.8125 24.25 C-7.1925 23.92 -2.5725 23.59 2.1875 23.25 C1.8575 22.59 1.5275 21.93 1.1875 21.25 C-1.59586238 20.81893307 -1.59586238 20.81893307 -4.8125 20.6875 C-10.71612954 20.34637046 -10.71612954 20.34637046 -11.8125 19.25 C-11.85634447 17.58391013 -11.8521713 15.91619446 -11.8125 14.25 C-11.8125 13.26 -11.8125 12.27 -11.8125 11.25 C-12.1425 10.92 -12.4725 10.59 -12.8125 10.25 C-13.1875 7.4375 -13.1875 7.4375 -12.8125 4.25 C-8.90712083 0.05977551 -5.46034712 -0.27171105 0 0 Z " fill="#170902" transform="translate(225.8125,172.75)"/>
<path d="M0 0 C2.45566788 0.00119619 4.91133623 0.00164404 7.36700439 0.00138855 C12.46637921 0.00293795 17.56568228 0.01111283 22.66503906 0.0246582 C29.18095161 0.04175469 35.6967866 0.0454685 42.21271896 0.04471302 C47.26402518 0.0449854 52.31531466 0.05047581 57.3666153 0.05771446 C59.76984786 0.06087976 62.1730823 0.0628635 64.57631683 0.06360817 C67.9294913 0.06578845 71.28258521 0.07456576 74.63574219 0.08520508 C75.61250916 0.08475189 76.58927612 0.08429871 77.59564209 0.08383179 C83.68628766 0.1119346 89.65493899 0.5119722 95.703125 1.23046875 C95.703125 1.56046875 95.703125 1.89046875 95.703125 2.23046875 C94.62034271 2.22380692 93.53756042 2.21714508 92.42196655 2.21028137 C5.72783081 1.49599627 5.72783081 1.49599627 -80.66650391 7.95996094 C-87.92479209 8.8198973 -94.98125133 9.43846197 -102.296875 9.23046875 C-102.296875 8.90046875 -102.296875 8.57046875 -102.296875 8.23046875 C-100.646875 8.23046875 -98.996875 8.23046875 -97.296875 8.23046875 C-97.296875 7.57046875 -97.296875 6.91046875 -97.296875 6.23046875 C-96.15347656 6.16988281 -95.01007813 6.10929688 -93.83203125 6.046875 C-92.34113195 5.96248447 -90.85024725 5.87783573 -89.359375 5.79296875 C-88.60462891 5.75365234 -87.84988281 5.71433594 -87.07226562 5.67382812 C-83.37743313 5.79008851 -83.37743313 5.79008851 -80.296875 4.23046875 C-72.86668846 3.2094702 -65.45631597 2.93984575 -57.96679688 2.71289062 C-53.20628647 2.53731161 -48.47599979 2.26855092 -43.7386322 1.7640686 C-29.13175054 0.22334157 -14.67827342 -0.0479927 0 0 Z " fill="#E2B12C" transform="translate(160.296875,224.76953125)"/>
<path d="M0 0 C2.8100346 1.79363911 4.50940468 3.01880935 6 6 C6.37712577 10.99691647 6.09290612 13.99067725 3 18 C-0.68497796 20.45665197 -3.71971786 20.70086491 -8 20 C-10.8100346 18.20636089 -12.50940468 16.98119065 -14 14 C-14.47847852 10.9171447 -14.5463489 8.07652779 -14 5 C-9.7878373 -0.15989931 -6.5097924 -0.92997034 0 0 Z " fill="#291100" transform="translate(272,173)"/>
<path d="M0 0 C0.66 0 1.32 0 2 0 C2 34.65 2 69.3 2 105 C6.455 104.505 6.455 104.505 11 104 C9.02 104.99 9.02 104.99 7 106 C7 106.66 7 107.32 7 108 C12.94 108 18.88 108 25 108 C25 108.33 25 108.66 25 109 C17.41 109 9.82 109 2 109 C2 120.55 2 132.1 2 144 C1.67 144 1.34 144 1 144 C-0.04104823 114.08267743 -0.12512055 84.18604041 -0.06866455 54.25317383 C-0.05822715 48.11019243 -0.05382434 41.96720655 -0.04882812 35.82421875 C-0.03826948 23.88280122 -0.02132307 11.94140285 0 0 Z " fill="#FEF2B5" transform="translate(39,132)"/>
<path d="M0 0 C-0.14049518 1.47968324 -0.28754826 2.95874516 -0.4375 4.4375 C-0.51871094 5.26121094 -0.59992188 6.08492187 -0.68359375 6.93359375 C-1 9 -1 9 -2 10 C-2.15655027 11.48638992 -2.25066943 12.97949127 -2.31640625 14.47265625 C-2.35830078 15.37177734 -2.40019531 16.27089844 -2.44335938 17.19726562 C-2.50233398 18.61555664 -2.50233398 18.61555664 -2.5625 20.0625 C-2.60568359 21.01189453 -2.64886719 21.96128906 -2.69335938 22.93945312 C-2.79979276 25.29281353 -2.90181008 27.64628354 -3 30 C-5.875 29.75 -5.875 29.75 -9 29 C-11.24995138 26.11376499 -11.33173467 23.07440772 -11.5625 19.5 C-11.78405937 16.20826085 -12.09338448 13.17690067 -13 10 C-14.65 10 -16.3 10 -18 10 C-16.68 9.67 -15.36 9.34 -14 9 C-14 8.01 -14 7.02 -14 6 C-13.01 5.67 -12.02 5.34 -11 5 C-10.30062468 3.68352881 -9.63270867 2.34977849 -9 1 C-6.04335481 -0.4783226 -3.25770263 -0.06032783 0 0 Z " fill="#E7AE1E" transform="translate(112,163)"/>
<path d="M0 0 C1.91595968 -0.08133791 3.83291932 -0.13934367 5.75 -0.1875 C7.35101563 -0.23970703 7.35101563 -0.23970703 8.984375 -0.29296875 C12 0 12 0 14.375 0.96875 C16.99416611 4.24270764 16.42286636 7.63511368 16.25 11.6875 C16.23195312 12.48478516 16.21390625 13.28207031 16.1953125 14.10351562 C16.14822247 16.06952449 16.07647899 18.03491494 16 20 C13.91731407 20.08126087 11.83371342 20.13930839 9.75 20.1875 C8.00976562 20.23970703 8.00976562 20.23970703 6.234375 20.29296875 C2.75068246 19.97741689 1.39813861 19.50316658 -1 17 C-1.4557692 13.87472551 -1.6795709 11.94654518 0.203125 9.32421875 C2.62915981 7.53633657 4.20877706 7.69644586 7.1875 7.8125 C8.53908203 7.85310547 8.53908203 7.85310547 9.91796875 7.89453125 C10.60503906 7.92933594 11.29210937 7.96414062 12 8 C11.67 6.68 11.34 5.36 11 4 C7.37 4 3.74 4 0 4 C0 2.68 0 1.36 0 0 Z " fill="#210A00" transform="translate(167,173)"/>
<path d="M0 0 C3.5386994 1.65139305 4.81070153 2.71605229 7 6 C7 7.65 7 9.3 7 11 C2.05 11 -2.9 11 -8 11 C-6.5 15 -6.5 15 -4 16 C-2.46331135 16.22467831 -0.92031946 16.40796805 0.625 16.5625 C1.44226563 16.64628906 2.25953125 16.73007813 3.1015625 16.81640625 C4.04128906 16.90728516 4.04128906 16.90728516 5 17 C5 17.99 5 18.98 5 20 C-4.9540412 20.62757528 -4.9540412 20.62757528 -9.125 18.125 C-12.2625334 14.56912881 -12.40688866 11.88427411 -12.33984375 7.265625 C-12 5 -12 5 -9.9375 1.9375 C-6.24975797 -0.49484049 -4.34495691 -0.62070813 0 0 Z " fill="#270E00" transform="translate(126,173)"/>
<path d="M0 0 C0.33 1.32 0.66 2.64 1 4 C2.32 4 3.64 4 5 4 C5 3.01 5 2.02 5 1 C9.60706708 -0.53568903 14.18878362 -0.54018148 19 0 C21.6875 1.875 21.6875 1.875 23 4 C23 4.66 23 5.32 23 6 C23.66 6 24.32 6 25 6 C26.24327778 11.84340558 25.57300962 16.26696495 24 22 C18.08179493 23.47955127 11.92584514 23.37486569 6 22 C2.2633323 17.95194333 2.73174834 13.23212491 2.89453125 7.9765625 C2.92933594 7.32429687 2.96414062 6.67203125 3 6 C2.34 6 1.68 6 1 6 C1 10.62 1 15.24 1 20 C0.34 20 -0.32 20 -1 20 C-1.02888514 16.85418577 -1.04675923 13.70840531 -1.0625 10.5625 C-1.07087891 9.66466797 -1.07925781 8.76683594 -1.08789062 7.84179688 C-1.09111328 6.98779297 -1.09433594 6.13378906 -1.09765625 5.25390625 C-1.10551147 4.06776733 -1.10551147 4.06776733 -1.11352539 2.85766602 C-1 1 -1 1 0 0 Z M6.0625 2.9375 C3.64215039 6.53135245 3.33296783 8.59941509 3.56640625 12.84375 C4.20714442 16.03012361 5.66601346 17.80330678 8 20 C10.64458379 21.32229189 12.67761301 21.09677194 15.625 21.0625 C16.62789062 21.05347656 17.63078125 21.04445312 18.6640625 21.03515625 C19.82035156 21.01775391 19.82035156 21.01775391 21 21 C21 20.01 21 19.02 21 18 C20.38511719 17.96261719 19.77023438 17.92523438 19.13671875 17.88671875 C18.32847656 17.82097656 17.52023438 17.75523437 16.6875 17.6875 C15.88699219 17.62949219 15.08648437 17.57148438 14.26171875 17.51171875 C11.59936152 16.90935468 10.68806452 16.10358809 9 14 C8.67 13.34 8.34 12.68 8 12 C12.95 12 17.9 12 23 12 C22.64212482 5.5667298 22.64212482 5.5667298 20.625 3.125 C15.94778844 -0.11306954 10.71605721 -0.13186752 6.0625 2.9375 Z " fill="#E3AB21" transform="translate(110,172)"/>
<path d="M0 0 C1.875 0.1875 1.875 0.1875 4 1 C5.1328125 3.55078125 5.1328125 3.55078125 6 6 C6.65597168 5.9592334 7.31194336 5.9184668 7.98779297 5.87646484 C10.94966036 5.69846927 13.91219159 5.53654098 16.875 5.375 C17.90753906 5.31054688 18.94007813 5.24609375 20.00390625 5.1796875 C20.99003906 5.128125 21.97617188 5.0765625 22.9921875 5.0234375 C23.90339355 4.97106934 24.81459961 4.91870117 25.75341797 4.86474609 C28 5 28 5 30 7 C24.54714555 8.28178852 19.07399302 8.31336795 13.49609375 8.5234375 C9.9421461 9.00788623 8.44735229 9.4317908 6 12 C5.19053578 15.10197397 5.19053578 15.10197397 5 18 C4.01 17.67 3.02 17.34 2 17 C2 20.3 2 23.6 2 27 C1.34 27 0.68 27 0 27 C0 20.73 0 14.46 0 8 C-1.32 8 -2.64 8 -4 8 C-4 14.6 -4 21.2 -4 28 C-2.35 28.33 -0.7 28.66 1 29 C0.67 29.66 0.34 30.32 0 31 C-0.99 30.67 -1.98 30.34 -3 30 C-5.22574335 29.77548542 -7.45581519 29.59217122 -9.6875 29.4375 C-10.86699219 29.35371094 -12.04648438 29.26992187 -13.26171875 29.18359375 C-14.61716797 29.09271484 -14.61716797 29.09271484 -16 29 C-16 28.67 -16 28.34 -16 28 C-13.36 28 -10.72 28 -8 28 C-7.67 27.01 -7.34 26.02 -7 25 C-6.67 25.33 -6.34 25.66 -6 26 C-5.97494385 25.44014404 -5.9498877 24.88028809 -5.92407227 24.3034668 C-5.80796255 21.76458695 -5.6853042 19.22606447 -5.5625 16.6875 C-5.50352539 15.36588867 -5.50352539 15.36588867 -5.44335938 14.01757812 C-5.40146484 13.17001953 -5.35957031 12.32246094 -5.31640625 11.44921875 C-5.26141968 10.27879028 -5.26141968 10.27879028 -5.20532227 9.0847168 C-5 7 -5 7 -4 4 C-2.68 4 -1.36 4 0 4 C0 2.68 0 1.36 0 0 Z " fill="#ECAF0C" transform="translate(208,165)"/>
<path d="M0 0 C11.43563159 0.61527517 22.68554124 2.29424625 34 4 C34 5.32 34 6.64 34 8 C13.54559229 8.17117072 -6.86100842 7.70222706 -27.30328369 7.07287598 C-31.34728346 6.94926704 -35.39142097 6.83033528 -39.43554688 6.7109375 C-47.29050147 6.47837613 -55.1452959 6.24088928 -63 6 C-63 5.67 -63 5.34 -63 5 C-36.6 5 -10.2 5 17 5 C17 4.34 17 3.68 17 3 C15.28490234 2.92652344 15.28490234 2.92652344 13.53515625 2.8515625 C12.04424527 2.77654811 10.55336108 2.70099972 9.0625 2.625 C8.30775391 2.5940625 7.55300781 2.563125 6.77539062 2.53125 C4.84492605 2.4273685 2.92057919 2.22104386 1 2 C0.505 1.01 0.505 1.01 0 0 Z " fill="#FDF2BD" transform="translate(327,233)"/>
<path d="M0 0 C2.475 0.495 2.475 0.495 5 1 C7.30869804 0.73915216 9.53869817 0.31724387 11.81640625 -0.13671875 C14 0 14 0 16.26171875 1.46484375 C18.67477101 4.98410424 18.43837253 8.14927488 18.25 12.25 C18.23195312 12.99507812 18.21390625 13.74015625 18.1953125 14.5078125 C18.14835649 16.33909701 18.07661652 18.16971649 18 20 C16.35 20 14.7 20 13 20 C13 14.72 13 9.44 13 4 C8.545 4.495 8.545 4.495 4 5 C4 9.95 4 14.9 4 20 C2.68 20 1.36 20 0 20 C0 13.4 0 6.8 0 0 Z " fill="#624206" transform="translate(236,173)"/>
<path d="M0 0 C-3.82517513 2.39073445 -7.59665524 2.55966552 -12 3 C-12 3.66 -12 4.32 -12 5 C9.12 5 30.24 5 52 5 C52 5.33 52 5.66 52 6 C24.65996726 6.83508142 -2.64776798 7.1347707 -30 7 C-30 6.34 -30 5.68 -30 5 C-25.91737675 1.803153 -21.69837981 1.29287458 -16.6875 0.8125 C-15.96626953 0.73064453 -15.24503906 0.64878906 -14.50195312 0.56445312 C-9.64612624 0.04620792 -4.88197336 -0.0717126 0 0 Z " fill="#FDF6C9" transform="translate(76,233)"/>
<path d="M0 0 C0 0.33 0 0.66 0 1 C-7.83346771 1.59671472 -15.6541221 2.0072819 -23.5078125 2.21875 C-24.50919502 2.24631126 -24.50919502 2.24631126 -25.5308075 2.27442932 C-28.90141444 2.3664598 -32.27163933 2.44957868 -35.64282227 2.51928711 C-41.73993583 2.67972734 -47.61142991 3.01188939 -53.625 4.05859375 C-60.27454505 5.18412126 -66.60255716 5.02310536 -73.3125 4.625 C-77.169375 4.41875 -81.02625 4.2125 -85 4 C-84.67 13.9 -84.34 23.8 -84 34 C-82.68 34.66 -81.36 35.32 -80 36 C-81.66611905 36.042721 -83.33382885 36.04063832 -85 36 C-86 35 -86 35 -86.11352539 31.94897461 C-86.11336634 30.60008729 -86.10767612 29.25119386 -86.09765625 27.90234375 C-86.0962413 27.19348526 -86.09482635 26.48462677 -86.09336853 25.75428772 C-86.08775443 23.48198288 -86.07519963 21.20977525 -86.0625 18.9375 C-86.05748681 17.40039204 -86.05292359 15.86328255 -86.04882812 14.32617188 C-86.0386297 10.55071333 -86.01905732 6.77546596 -86 3 C-78.74 3 -71.48 3 -64 3 C-64 2.34 -64 1.68 -64 1 C-42.66880455 -0.21397047 -21.35692411 -0.1029822 0 0 Z " fill="#E4B32A" transform="translate(128,239)"/>
<path d="M0 0 C0.98484375 0.02707031 1.9696875 0.05414063 2.984375 0.08203125 C3.73203125 0.11683594 4.4796875 0.15164062 5.25 0.1875 C5.25 1.5075 5.25 2.8275 5.25 4.1875 C1.95 4.1875 -1.35 4.1875 -4.75 4.1875 C-5.08 5.1775 -5.41 6.1675 -5.75 7.1875 C-5.13511719 7.30867187 -4.52023438 7.42984375 -3.88671875 7.5546875 C-3.07847656 7.72226563 -2.27023438 7.88984375 -1.4375 8.0625 C-0.63699219 8.22492188 0.16351563 8.38734375 0.98828125 8.5546875 C3.25 9.1875 3.25 9.1875 6.25 11.1875 C6 14.5625 6 14.5625 5.25 18.1875 C2.11253553 20.45344656 -0.72077754 20.40248149 -4.5 20.3125 C-5.48484375 20.29445312 -6.4696875 20.27640625 -7.484375 20.2578125 C-8.23203125 20.23460937 -8.9796875 20.21140625 -9.75 20.1875 C-9.75 18.8675 -9.75 17.5475 -9.75 16.1875 C-9.05132812 16.22230469 -8.35265625 16.25710937 -7.6328125 16.29296875 C-6.72273438 16.32003906 -5.81265625 16.34710938 -4.875 16.375 C-3.97007813 16.40980469 -3.06515625 16.44460937 -2.1328125 16.48046875 C-1.34648438 16.38378906 -0.56015625 16.28710938 0.25 16.1875 C0.91 15.1975 1.57 14.2075 2.25 13.1875 C1.32767578 13.02314453 1.32767578 13.02314453 0.38671875 12.85546875 C-0.42152344 12.69691406 -1.22976562 12.53835937 -2.0625 12.375 C-3.26326172 12.14876953 -3.26326172 12.14876953 -4.48828125 11.91796875 C-7.02616074 11.09830819 -8.12028726 10.27621411 -9.75 8.1875 C-10.1875 5.6875 -10.1875 5.6875 -9.75 3.1875 C-6.61549513 0.09703969 -4.30947394 -0.15390978 0 0 Z " fill="#2C1300" transform="translate(71.75,172.8125)"/>
<path d="M0 0 C4.6 2.2 4.6 2.2 6 5 C6 6.98 6 8.96 6 11 C1.38 11 -3.24 11 -8 11 C-7.67 12.65 -7.34 14.3 -7 16 C-3.37 16.33 0.26 16.66 4 17 C3.67 17.99 3.34 18.98 3 20 C-1.68548971 20.37483918 -5.17347766 20.34800941 -9.5625 18.5 C-12.23130362 15.76276552 -12.35586444 15.34748585 -12.375 11.75 C-12.25125 10.5125 -12.1275 9.275 -12 8 C-9.06406867 8 -6.23443584 8.22499427 -3.3125 8.5 C-2.31863281 8.5928125 -1.32476562 8.685625 -0.30078125 8.78125 C0.83810547 8.88953125 0.83810547 8.88953125 2 9 C0.8624438 6.40858714 0.8624438 6.40858714 -1 4 C-3.88185107 3.5782657 -5.39722303 3.69861151 -8 5 C-8 4.34 -8 3.68 -8 3 C-8.66 2.67 -9.32 2.34 -10 2 C-6.27420911 -0.48386059 -4.41288598 -0.3804212 0 0 Z " fill="#240800" transform="translate(314,173)"/>
<path d="M0 0 C0 1.98 0 3.96 0 6 C1.65 6 3.3 6 5 6 C5 6.99 5 7.98 5 9 C3.02 9 1.04 9 -1 9 C-1 13.29 -1 17.58 -1 22 C0.98 22 2.96 22 5 22 C5 23.32 5 24.64 5 26 C3.72125 26.061875 2.4425 26.12375 1.125 26.1875 C0.04605469 26.23970703 0.04605469 26.23970703 -1.0546875 26.29296875 C-1.69664062 26.19628906 -2.33859375 26.09960938 -3 26 C-5.42130331 22.36804504 -5.21022785 20.61650652 -5.125 16.3125 C-5.09792969 14.54326172 -5.09792969 14.54326172 -5.0703125 12.73828125 C-5.03550781 11.38283203 -5.03550781 11.38283203 -5 10 C-6.32 10 -7.64 10 -9 10 C-9 8.68 -9 7.36 -9 6 C-7.68 6 -6.36 6 -5 6 C-5 4.35 -5 2.7 -5 1 C-3 0 -3 0 0 0 Z " fill="#110100" transform="translate(195,167)"/>
<path d="M0 0 C0.90105469 0.00902344 1.80210937 0.01804688 2.73046875 0.02734375 C3.41753906 0.03894531 4.10460937 0.05054688 4.8125 0.0625 C4.8125 1.0525 4.8125 2.0425 4.8125 3.0625 C0.3575 3.5575 0.3575 3.5575 -4.1875 4.0625 C-4.1875 5.0525 -4.1875 6.0425 -4.1875 7.0625 C-3.54941406 7.26746094 -2.91132813 7.47242188 -2.25390625 7.68359375 C-1.42761719 7.95300781 -0.60132813 8.22242188 0.25 8.5 C1.07371094 8.76683594 1.89742188 9.03367188 2.74609375 9.30859375 C4.8125 10.0625 4.8125 10.0625 5.8125 11.0625 C6.1875 13.9375 6.1875 13.9375 5.8125 17.0625 C2.68612554 20.18887446 -0.2809939 20.23204678 -4.5 20.25 C-6.06301517 20.20208275 -7.62589515 20.14437055 -9.1875 20.0625 C-9.1875 19.0725 -9.1875 18.0825 -9.1875 17.0625 C-5.5575 16.7325 -1.9275 16.4025 1.8125 16.0625 C1.4825 15.0725 1.1525 14.0825 0.8125 13.0625 C-1.25247387 12.07546048 -1.25247387 12.07546048 -3.6875 11.4375 C-8.11575112 10.13424888 -8.11575112 10.13424888 -9.1875 9.0625 C-9.42279412 3.53308824 -9.42279412 3.53308824 -8.1875 1.0625 C-5.17259443 0.05753148 -3.14568308 -0.04085303 0 0 Z " fill="#270D01" transform="translate(333.1875,172.9375)"/>
<path d="M0 0 C2.24973447 -0.054138 4.49984383 -0.09285491 6.75 -0.125 C8.00296875 -0.14820313 9.2559375 -0.17140625 10.546875 -0.1953125 C13.72820492 -0.01537302 15.36521896 0.31001418 18 2 C18 2.99 18 3.98 18 5 C19.32 5 20.64 5 22 5 C22.06058594 5.90363281 22.12117188 6.80726563 22.18359375 7.73828125 C22.30927734 9.50751953 22.30927734 9.50751953 22.4375 11.3125 C22.51871094 12.48425781 22.59992188 13.65601563 22.68359375 14.86328125 C22.8867371 18.02590958 22.8867371 18.02590958 24 21 C23.34 21 22.68 21 22 21 C20.39274365 17.78548731 20.94251815 14.56387464 21 11 C20.01 11.33 19.02 11.66 18 12 C17.95101562 12.71027344 17.90203125 13.42054688 17.8515625 14.15234375 C17.77679688 15.07144531 17.70203125 15.99054688 17.625 16.9375 C17.55539063 17.85402344 17.48578125 18.77054688 17.4140625 19.71484375 C17.27742188 20.46894531 17.14078125 21.22304687 17 22 C14.31767173 23.34116414 12.18167741 23.16904021 9.1875 23.1875 C8.14980469 23.20167969 7.11210937 23.21585938 6.04296875 23.23046875 C2.96229467 22.99714427 0.78238408 22.30118886 -2 21 C-1.505 19.515 -1.505 19.515 -1 18 C0.485 18.99 0.485 18.99 2 20 C5.19806665 20.4603764 5.19806665 20.4603764 8.6875 20.625 C9.86699219 20.69976562 11.04648438 20.77453125 12.26171875 20.8515625 C13.61716797 20.92503906 13.61716797 20.92503906 15 21 C14.91327254 18.20677782 14.80644643 15.41687472 14.6875 12.625 C14.66494141 11.8309375 14.64238281 11.036875 14.61914062 10.21875 C14.52214925 8.13784419 14.27005175 6.06558668 14 4 C10.71508627 1.81005752 9.16904361 1.64722661 5.3125 1.375 C4.31863281 1.30023438 3.32476562 1.22546875 2.30078125 1.1484375 C1.54152344 1.09945312 0.78226563 1.05046875 0 1 C0 0.67 0 0.34 0 0 Z " fill="#D6A326" transform="translate(168,172)"/>
<path d="M0 0 C1.65 0 3.3 0 5 0 C5 9.24 5 18.48 5 28 C3.35 28 1.7 28 0 28 C0 18.76 0 9.52 0 0 Z " fill="#402705" transform="translate(282,165)"/>
<path d="M0 0 C1.65 0 3.3 0 5 0 C5 8.91 5 17.82 5 27 C3.35 27.33 1.7 27.66 0 28 C0 18.76 0 9.52 0 0 Z " fill="#3F2602" transform="translate(292,165)"/>
<path d="M0 0 C0.66 0.33 1.32 0.66 2 1 C2 2.98 2 4.96 2 7 C6.95 8.98 6.95 8.98 12 11 C12 11.99 12 12.98 12 14 C9.59454362 15.20272819 8.05003047 15.10071472 5.375 15.0625 C4.14910156 15.04896484 4.14910156 15.04896484 2.8984375 15.03515625 C1.95871094 15.01775391 1.95871094 15.01775391 1 15 C0.67 15.66 0.34 16.32 0 17 C0 16.34 0 15.68 0 15 C-0.99 14.67 -1.98 14.34 -3 14 C-2.67 13.34 -2.34 12.68 -2 12 C-1.34 12 -0.68 12 0 12 C-0.33 11.34 -0.66 10.68 -1 10 C-5.29 10 -9.58 10 -14 10 C-10.48283697 13.51716303 -8.80432667 13.54676163 -4 14 C-4 15.32 -4 16.64 -4 18 C-4.66 17.67 -5.32 17.34 -6 17 C-5.67 16.34 -5.34 15.68 -5 15 C-5.61488281 15.03480469 -6.22976563 15.06960937 -6.86328125 15.10546875 C-8.07564453 15.14607422 -8.07564453 15.14607422 -9.3125 15.1875 C-10.51326172 15.23970703 -10.51326172 15.23970703 -11.73828125 15.29296875 C-14 15 -14 15 -15.79296875 13.67578125 C-17 12 -17 12 -17 9 C-12.05 9 -7.1 9 -2 9 C-2 8.01 -2 7.02 -2 6 C-1.34 6 -0.68 6 0 6 C0 4.02 0 2.04 0 0 Z " fill="#B98A14" transform="translate(323,175)"/>
<path d="M0 0 C4.41080354 -0.02490464 8.82156871 -0.04295604 13.23242188 -0.05493164 C14.72982497 -0.05992943 16.22722327 -0.0667299 17.72460938 -0.07543945 C19.88933505 -0.08770623 22.05399565 -0.09327397 24.21875 -0.09765625 C26.1668457 -0.10551147 26.1668457 -0.10551147 28.15429688 -0.11352539 C32.1846205 0.00545001 36.00442021 0.47257642 40 1 C41.92423801 1.12136948 43.85033696 1.2174744 45.77734375 1.28125 C46.78474609 1.31863281 47.79214844 1.35601562 48.83007812 1.39453125 C50.9290052 1.46577076 53.02796473 1.53605946 55.12695312 1.60546875 C56.62452148 1.66154297 56.62452148 1.66154297 58.15234375 1.71875 C59.05976318 1.74904297 59.96718262 1.77933594 60.90209961 1.81054688 C63 2 63 2 64 3 C66.14343434 3.16098116 68.2902223 3.27792178 70.4375 3.375 C76.67797833 3.76463068 82.14118598 4.85356814 88 7 C84.50059263 8.15898618 81.80538041 7.86501949 78.18359375 7.328125 C76.96792725 7.15958008 75.75226074 6.99103516 74.49975586 6.81738281 C73.84103485 6.72477173 73.18231384 6.63216064 72.50363159 6.53674316 C48.46558821 3.20068043 24.21774647 2.22883478 0 1 C0 0.67 0 0.34 0 0 Z " fill="#E1B53A" transform="translate(256,227)"/>
<path d="M0 0 C0.99 0.99 1.98 1.98 3 3 C2.67 3.33 2.34 3.66 2 4 C2 5.65 2 7.3 2 9 C5.96 9.33 9.92 9.66 14 10 C14.33 10.99 14.66 11.98 15 13 C12.23547967 14.38226016 9.9538637 14.09525387 6.875 14.0625 C5.77929688 14.05347656 4.68359375 14.04445312 3.5546875 14.03515625 C2.29011719 14.01775391 2.29011719 14.01775391 1 14 C1 14.99 1 15.98 1 17 C4.96 17 8.92 17 13 17 C13 17.66 13 18.32 13 19 C11.06257659 19.02703381 9.12504521 19.04641125 7.1875 19.0625 C6.10855469 19.07410156 5.02960938 19.08570313 3.91796875 19.09765625 C1 19 1 19 -2 18 C-2 17.01 -2 16.02 -2 15 C-2.99 15 -3.98 15 -5 15 C-4.67 14.34 -4.34 13.68 -4 13 C-2.50253907 8.70727867 -1.22525359 4.37590568 0 0 Z " fill="#D7A52B" transform="translate(213,183)"/>
<path d="M0 0 C6.875 0.875 6.875 0.875 8 2 C8.203125 3.9609375 8.203125 3.9609375 8.25 6.375 C8.28867187 7.56222656 8.28867187 7.56222656 8.328125 8.7734375 C7.92459229 11.51169515 7.18392754 12.35165469 5 14 C2.5 14.4375 2.5 14.4375 0 14 C-2.50907308 11.75048621 -2.95656309 10.34749528 -3.375 7 C-2.96644557 3.73156457 -2.20409407 2.38776858 0 0 Z " fill="#D6A62B" transform="translate(265,176)"/>
<path d="M0 0 C6.93359375 0.5859375 6.93359375 0.5859375 9 1 C10.59492803 4.18985607 10.37616681 7.52932887 10 11 C8.9375 13 8.9375 13 7 14 C4.69 14 2.38 14 0 14 C0 9.38 0 4.76 0 0 Z " fill="#EEAE14" transform="translate(148,176)"/>
<path d="M0 0 C0.99 0 1.98 0 3 0 C3.33 0.66 3.66 1.32 4 2 C6.75069134 2.39302445 6.75069134 2.39302445 9.9375 2.5 C15.77847309 2.77847309 15.77847309 2.77847309 18 5 C18.375 7.4375 18.375 7.4375 18 10 C15.53260811 12.59014771 14.15230466 12.98707822 10.546875 13.29296875 C9.29390625 13.25816406 8.0409375 13.22335938 6.75 13.1875 C5.48671875 13.16042969 4.2234375 13.13335937 2.921875 13.10546875 C1.95765625 13.07066406 0.9934375 13.03585938 0 13 C0 12.01 0 11.02 0 10 C4.62 9.67 9.24 9.34 14 9 C13.67 8.34 13.34 7.68 13 7 C10.21663762 6.56893307 10.21663762 6.56893307 7 6.4375 C1.09637046 6.09637046 1.09637046 6.09637046 0 5 C-0.04063832 3.33382885 -0.042721 1.66611905 0 0 Z " fill="#190A00" transform="translate(214,187)"/>
<path d="M0 0 C6 0 6 0 8.375 1.625 C10.48706506 4.71186432 10.61195145 6.3282913 10 10 C8.375 12.375 8.375 12.375 6 14 C4.02 14 2.04 14 0 14 C0 9.38 0 4.76 0 0 Z " fill="#EBAE0C" transform="translate(86,176)"/>
<path d="M0 0 C0.33 0.99 0.66 1.98 1 3 C1.99 2.67 2.98 2.34 4 2 C5.39439664 1.93334624 6.79169875 1.91461801 8.1875 1.9375 C10.0746875 1.9684375 10.0746875 1.9684375 12 2 C12.495 4.475 12.495 4.475 13 7 C12.30132812 7.04898438 11.60265625 7.09796875 10.8828125 7.1484375 C9.97273438 7.22320312 9.06265625 7.29796875 8.125 7.375 C6.76761719 7.47941406 6.76761719 7.47941406 5.3828125 7.5859375 C2.82058097 7.79568132 2.82058097 7.79568132 1 10 C0.30251417 11.31747324 -0.36959957 12.64914193 -1 14 C-1.33 13.67 -1.66 13.34 -2 13 C-2.309375 13.8971875 -2.309375 13.8971875 -2.625 14.8125 C-4.65668445 18.04472526 -6.38789504 18.73259475 -10 20 C-13.68190702 20.2380325 -17.31640091 20.17697006 -21 20 C-21 19.67 -21 19.34 -21 19 C-20.10796875 18.91363281 -19.2159375 18.82726562 -18.296875 18.73828125 C-17.12640625 18.59777344 -15.9559375 18.45726562 -14.75 18.3125 C-13.58984375 18.18488281 -12.4296875 18.05726563 -11.234375 17.92578125 C-7.28362702 16.79495121 -6.12522828 15.45738357 -4 12 C-3.47187374 7.77498989 -4.19938608 4.82630457 -6 1 C-5.34 1 -4.68 1 -4 1 C-2 4 -2 4 -2 8 C-1.01 8 -0.02 8 1 8 C0.67 5.36 0.34 2.72 0 0 Z " fill="#D6A729" transform="translate(166,174)"/>
<path d="M0 0 C0.33 0 0.66 0 1 0 C1 8.91 1 17.82 1 27 C0.67 27 0.34 27 0 27 C-0.33 21.06 -0.66 15.12 -1 9 C-1.66 8.67 -2.32 8.34 -3 8 C-2.7525 8.928125 -2.7525 8.928125 -2.5 9.875 C-1.74814364 14.57410225 -0.81969878 20.63939756 -3 25 C-3.66 25 -4.32 25 -5 25 C-4.835 24.484375 -4.67 23.96875 -4.5 23.4375 C-3.8169939 20.10784527 -3.64258362 17.39545558 -4 14 C-5.85341334 10.89649551 -5.85341334 10.89649551 -9 9 C-13.72697204 8.32471828 -16.50143974 8.36265174 -20.5 11 C-21.325 11.66 -22.15 12.32 -23 13 C-22.8125 10.625 -22.8125 10.625 -22 8 C-17.92787532 5.75121473 -14.26699981 5.78940187 -9.6875 5.875 C-8.43324219 5.89304688 -7.17898438 5.91109375 -5.88671875 5.9296875 C-4.45779297 5.96449219 -4.45779297 5.96449219 -3 6 C-2.01 4.02 -1.02 2.04 0 0 Z " fill="#E2AB21" transform="translate(281,165)"/>
<path d="M0 0 C0.99 0 1.98 0 3 0 C3 2.31 3 4.62 3 7 C4.27875 6.979375 5.5575 6.95875 6.875 6.9375 C10.75 6.875 10.75 6.875 13 8 C13 8.66 13 9.32 13 10 C9.7 10 6.4 10 3 10 C3 14.62 3 19.24 3 24 C3.66 24 4.32 24 5 24 C5 24.66 5 25.32 5 26 C3.35 26 1.7 26 0 26 C0 17.42 0 8.84 0 0 Z " fill="#150300" transform="translate(145,166)"/>
<path d="M0 0 C2.9375 1.5 2.9375 1.5 5 3 C4.34 4.98 3.68 6.96 3 9 C-0.63 9 -4.26 9 -8 9 C-8 7.35 -8 5.7 -8 4 C-8.99 4.33 -9.98 4.66 -11 5 C-9.10007987 -0.69976039 -5.3636254 -0.4623815 0 0 Z " fill="#2B1401" transform="translate(126,173)"/>
<path d="M0 0 C0.66 0 1.32 0 2 0 C2.33 7.59 2.66 15.18 3 23 C3.33 16.4 3.66 9.8 4 3 C4.33 3 4.66 3 5 3 C5 11.25 5 19.5 5 28 C6.32 28 7.64 28 9 28 C9 28.66 9 29.32 9 30 C7.02 29.67 5.04 29.34 3 29 C3 28.34 3 27.68 3 27 C2.01 27 1.02 27 0 27 C0 18.09 0 9.18 0 0 Z " fill="#E4AE28" transform="translate(287,165)"/>
<path d="M0 0 C1.91595968 -0.08133791 3.83291932 -0.13934367 5.75 -0.1875 C7.35101563 -0.23970703 7.35101563 -0.23970703 8.984375 -0.29296875 C12 0 12 0 14.375 1 C16.89940577 4.10696095 16.42290859 7.38018584 16.25 11.1875 C16.23195312 11.93708984 16.21390625 12.68667969 16.1953125 13.45898438 C16.14824109 15.3065371 16.07649766 17.15343159 16 19 C14.68 18.34 13.36 17.68 12 17 C12.33 12.71 12.66 8.42 13 4 C8.71 4 4.42 4 0 4 C0 2.68 0 1.36 0 0 Z " fill="#120200" transform="translate(167,173)"/>
<path d="M0 0 C0 5.61 0 11.22 0 17 C-0.33 16.01 -0.66 15.02 -1 14 C-1.763125 14.66 -2.52625 15.32 -3.3125 16 C-7.7817563 19.05847901 -12.80920149 18.33250667 -18 18 C-18 17.34 -18 16.68 -18 16 C-17.32453125 15.93941406 -16.6490625 15.87882813 -15.953125 15.81640625 C-15.06109375 15.73261719 -14.1690625 15.64882812 -13.25 15.5625 C-12.36828125 15.48128906 -11.4865625 15.40007812 -10.578125 15.31640625 C-8.30649548 15.03761535 -6.20148177 14.61209423 -4 14 C-3.53477707 9.20691658 -3.53477707 9.20691658 -5.5 5.0625 C-5.995 4.711875 -6.49 4.36125 -7 4 C-6.34 4 -5.68 4 -5 4 C-5 3.34 -5 2.68 -5 2 C-5.99 1.67 -6.98 1.34 -8 1 C-5.23735711 0.40267181 -2.83967231 0 0 0 Z " fill="#ECAF10" transform="translate(81,177)"/>
<path d="M0 0 C1.33257403 14.78132118 1.33257403 14.78132118 0 21 C-0.33 21 -0.66 21 -1 21 C-1.165 20.0925 -1.33 19.185 -1.5 18.25 C-3.57961505 13.74416738 -6.53527991 12.76512189 -11 11 C-11 10.01 -11 9.02 -11 8 C-6.545 7.505 -6.545 7.505 -2 7 C-1.67 5.68 -1.34 4.36 -1 3 C-4.96 3 -8.92 3 -13 3 C-13 2.67 -13 2.34 -13 2 C-11.95199219 1.90912109 -11.95199219 1.90912109 -10.8828125 1.81640625 C-9.97273438 1.73261719 -9.06265625 1.64882812 -8.125 1.5625 C-7.22007812 1.48128906 -6.31515625 1.40007812 -5.3828125 1.31640625 C-3.45233695 1.06006442 -1.84013989 0 0 0 Z " fill="#EAAE12" transform="translate(341,169)"/>
<path d="M0 0 C0.33 1.32 0.66 2.64 1 4 C2.32 4 3.64 4 5 4 C4.94199219 4.73605469 4.88398437 5.47210938 4.82421875 6.23046875 C4.52297142 12.45716315 4.52297142 12.45716315 6.8125 18.125 C11.38671735 20.81571609 15.76986027 20.89924424 21 21 C21 21.66 21 22.32 21 23 C18.55764178 22.99399174 16.12806579 22.94671543 13.6875 22.875 C12.99720703 22.87757813 12.30691406 22.88015625 11.59570312 22.8828125 C9.57421875 22.8046875 9.57421875 22.8046875 6 22 C3.29439776 18.26369214 2.62794804 15.17728158 2.8125 10.625 C2.83957031 9.75101563 2.86664063 8.87703125 2.89453125 7.9765625 C2.92933594 7.32429687 2.96414062 6.67203125 3 6 C2.34 6 1.68 6 1 6 C1 10.62 1 15.24 1 20 C0.34 20 -0.32 20 -1 20 C-1.02888514 16.85418577 -1.04675923 13.70840531 -1.0625 10.5625 C-1.07087891 9.66466797 -1.07925781 8.76683594 -1.08789062 7.84179688 C-1.09111328 6.98779297 -1.09433594 6.13378906 -1.09765625 5.25390625 C-1.10551147 4.06776733 -1.10551147 4.06776733 -1.11352539 2.85766602 C-1 1 -1 1 0 0 Z " fill="#DAA934" transform="translate(110,172)"/>
<path d="M0 0 C2.31 0 4.62 0 7 0 C7 3.96 7 7.92 7 12 C4.69 12 2.38 12 0 12 C0 8.04 0 4.08 0 0 Z " fill="#EBAE11" transform="translate(195,177)"/>
<path d="M0 0 C0.33 0 0.66 0 1 0 C1.29397316 4.99754367 1.0979156 7.98418348 -2 12 C-5.696859 14.46457267 -8.7098688 14.67738914 -13 14 C-16.38186376 12.0572272 -17.70264591 11.00642921 -18.8125 7.25 C-18.874375 6.5075 -18.93625 5.765 -19 5 C-18.01 6.32 -17.02 7.64 -16 9 C-15.34 8.34 -14.68 7.68 -14 7 C-13.01 8.485 -13.01 8.485 -12 10 C-8.41642759 10.25015873 -8.41642759 10.25015873 -5 10 C-4.67 7.36 -4.34 4.72 -4 2 C-3.01 3.32 -2.02 4.64 -1 6 C-0.67 4.02 -0.34 2.04 0 0 Z " fill="#260E00" transform="translate(277,179)"/>
<path d="M0 0 C-3.71329314 2.47552876 -6.81407681 2.40718554 -11.125 2.5625 C-15.94808485 2.32823765 -15.94808485 2.32823765 -20 4 C-21.78071246 4.08726223 -23.5648314 4.10699041 -25.34765625 4.09765625 C-26.42724609 4.09443359 -27.50683594 4.09121094 -28.61914062 4.08789062 C-29.75544922 4.07951172 -30.89175781 4.07113281 -32.0625 4.0625 C-33.20267578 4.05798828 -34.34285156 4.05347656 -35.51757812 4.04882812 C-38.34510351 4.03699747 -41.1725264 4.0205141 -44 4 C-44 3.67 -44 3.34 -44 3 C-13.87347956 -0.58165209 -13.87347956 -0.58165209 0 0 Z " fill="#FCF2BE" transform="translate(122,229)"/>
<path d="M0 0 C1.32 0 2.64 0 4 0 C4 6.6 4 13.2 4 20 C2.68 20 1.36 20 0 20 C0 13.4 0 6.8 0 0 Z " fill="#200C00" transform="translate(204,173)"/>
<path d="M0 0 C0.639375 0.185625 1.27875 0.37125 1.9375 0.5625 C2.9584375 0.7790625 2.9584375 0.7790625 4 1 C4.33 0.67 4.66 0.34 5 0 C7.88725465 -0.30392154 9.42208484 -0.41849029 11.8125 1.3125 C13 3 13 3 13 6 C11.20841511 6.02696365 9.41671527 6.04637917 7.625 6.0625 C6.62726563 6.07410156 5.62953125 6.08570313 4.6015625 6.09765625 C2 6 2 6 0 5 C-0.33 6.98 -0.66 8.96 -1 11 C-1.33 11 -1.66 11 -2 11 C-2.25 3.375 -2.25 3.375 0 0 Z " fill="#462A06" transform="translate(303,176)"/>
<path d="M0 0 C15.74078268 -0.68881869 31.37335794 1.33959568 47 3 C47 3.33 47 3.66 47 4 C40.4 4 33.8 4 27 4 C27 3.34 27 2.68 27 2 C18.09 2 9.18 2 0 2 C0 1.34 0 0.68 0 0 Z " fill="#FDF1BE" transform="translate(277,229)"/>
<path d="M0 0 C5.61 0 11.22 0 17 0 C17 0.33 17 0.66 17 1 C15.55367187 1.05607422 15.55367187 1.05607422 14.078125 1.11328125 C12.81484375 1.17902344 11.5515625 1.24476563 10.25 1.3125 C8.99703125 1.37050781 7.7440625 1.42851562 6.453125 1.48828125 C2.93970286 2.00893544 1.4360851 2.46838215 -1 5 C-1.80946422 8.10197397 -1.80946422 8.10197397 -2 11 C-2.99 10.67 -3.98 10.34 -5 10 C-5 13.3 -5 16.6 -5 20 C-5.66 20 -6.32 20 -7 20 C-7 14.06 -7 8.12 -7 2 C-6.67 3.32 -6.34 4.64 -6 6 C-5.01 6 -4.02 6 -3 6 C-3 5.01 -3 4.02 -3 3 C-3.66 2.67 -4.32 2.34 -5 2 C-3.35 2 -1.7 2 0 2 C0 1.34 0 0.68 0 0 Z " fill="#D9A521" transform="translate(215,172)"/>
<path d="M0 0 C1.32 0 2.64 0 4 0 C4 6.27 4 12.54 4 19 C2.68 19 1.36 19 0 19 C0 12.73 0 6.46 0 0 Z " fill="#1D0600" transform="translate(105,174)"/>
<path d="M0 0 C2.95839355 -0.02689449 5.91654427 -0.04678741 8.875 -0.0625 C9.71675781 -0.07087891 10.55851562 -0.07925781 11.42578125 -0.08789062 C12.23144531 -0.09111328 13.03710938 -0.09433594 13.8671875 -0.09765625 C14.98262939 -0.10551147 14.98262939 -0.10551147 16.12060547 -0.11352539 C18 0 18 0 20 1 C19.67 1.66 19.34 2.32 19 3 C18.34 2.67 17.68 2.34 17 2 C15.28766312 2.0870204 13.57824594 2.24097162 11.875 2.4375 C10.96492188 2.53933594 10.05484375 2.64117187 9.1171875 2.74609375 C8.06917969 2.87177734 8.06917969 2.87177734 7 3 C7 2.34 7 1.68 7 1 C5.68 1 4.36 1 3 1 C3 7.27 3 13.54 3 20 C2.67 20 2.34 20 2 20 C1.67 15.05 1.34 10.1 1 5 C0.01 5.495 0.01 5.495 -1 6 C-1.46523063 7.89533342 -1.46523063 7.89533342 -1.625 10.0625 C-1.810625 12.0115625 -1.810625 12.0115625 -2 14 C-3.32 13.67 -4.64 13.34 -6 13 C-5.34 12.34 -4.68 11.68 -4 11 C-3.83322718 7.41656024 -3.83322718 7.41656024 -4 4 C-2.68 4 -1.36 4 0 4 C0 2.68 0 1.36 0 0 Z " fill="#D8A730" transform="translate(233,172)"/>
<path d="M0 0 C2.05078125 0.03255208 4.1015625 0.06510417 6.15234375 0.09765625 C6.48234375 2.73765625 6.81234375 5.37765625 7.15234375 8.09765625 C11.60734375 9.08765625 11.60734375 9.08765625 16.15234375 10.09765625 C15.82234375 10.75765625 15.49234375 11.41765625 15.15234375 12.09765625 C11.85234375 11.43765625 8.55234375 10.77765625 5.15234375 10.09765625 C5.15234375 7.45765625 5.15234375 4.81765625 5.15234375 2.09765625 C3.50234375 2.09765625 1.85234375 2.09765625 0.15234375 2.09765625 C0.15234375 11.00765625 0.15234375 19.91765625 0.15234375 29.09765625 C-0.17765625 29.09765625 -0.50765625 29.09765625 -0.84765625 29.09765625 C-0.8727124 28.39157227 -0.89776855 27.68548828 -0.92358398 26.95800781 C-1.03972994 23.75438116 -1.16237228 20.55103507 -1.28515625 17.34765625 C-1.32447266 16.23648438 -1.36378906 15.1253125 -1.40429688 13.98046875 C-1.44619141 12.91054687 -1.48808594 11.840625 -1.53125 10.73828125 C-1.56790771 9.75375977 -1.60456543 8.76923828 -1.64233398 7.75488281 C-1.76853672 5.13550241 -1.76853672 5.13550241 -2.42993164 2.80761719 C-2.56778076 2.24333008 -2.70562988 1.67904297 -2.84765625 1.09765625 C-1.84765625 0.09765625 -1.84765625 0.09765625 0 0 Z " fill="#E2AC28" transform="translate(143.84765625,162.90234375)"/>
<path d="M0 0 C0.66 0 1.32 0 2 0 C2 1.65 2 3.3 2 5 C5.63 5 9.26 5 13 5 C13.33 3.35 13.66 1.7 14 0 C14.66 0 15.32 0 16 0 C16.33 2.31 16.66 4.62 17 7 C15.41058594 7.09087891 15.41058594 7.09087891 13.7890625 7.18359375 C12.40102779 7.26800127 11.01300768 7.35264917 9.625 7.4375 C8.92632812 7.47681641 8.22765625 7.51613281 7.5078125 7.55664062 C3.62639508 7.74280134 3.62639508 7.74280134 0 9 C-1.36623674 6.26752652 -1.128426 4.01801098 -1 1 C-0.67 0.67 -0.34 0.34 0 0 Z " fill="#1E0900" transform="translate(116,177)"/>
<path d="M0 0 C0.33 0 0.66 0 1 0 C1.20086443 3.71599191 1.1519437 4.77208445 -1 8 C-1.99 8 -2.98 8 -4 8 C-4 14.6 -4 21.2 -4 28 C-2.35 28.33 -0.7 28.66 1 29 C0.67 29.66 0.34 30.32 0 31 C-0.99 30.67 -1.98 30.34 -3 30 C-5.22574335 29.77548542 -7.45581519 29.59217122 -9.6875 29.4375 C-10.86699219 29.35371094 -12.04648438 29.26992187 -13.26171875 29.18359375 C-14.61716797 29.09271484 -14.61716797 29.09271484 -16 29 C-16 28.67 -16 28.34 -16 28 C-13.36 28 -10.72 28 -8 28 C-7.67 27.01 -7.34 26.02 -7 25 C-6.67 25.33 -6.34 25.66 -6 26 C-5.97494385 25.44014404 -5.9498877 24.88028809 -5.92407227 24.3034668 C-5.80796255 21.76458695 -5.6853042 19.22606447 -5.5625 16.6875 C-5.50352539 15.36588867 -5.50352539 15.36588867 -5.44335938 14.01757812 C-5.40146484 13.17001953 -5.35957031 12.32246094 -5.31640625 11.44921875 C-5.26141968 10.27879028 -5.26141968 10.27879028 -5.20532227 9.0847168 C-5 7 -5 7 -4 4 C-2.68 4 -1.36 4 0 4 C0 2.68 0 1.36 0 0 Z " fill="#DAA732" transform="translate(208,165)"/>
<path d="M0 0 C-0.33 0.99 -0.66 1.98 -1 3 C-7.93 2.67 -14.86 2.34 -22 2 C-22 1.34 -22 0.68 -22 0 C-15.13334317 -2.06985349 -6.93065498 -1.54014555 0 0 Z " fill="#FCFDF8" transform="translate(86,236)"/>
<path d="M0 0 C5.94 0.99 5.94 0.99 12 2 C12 2.33 12 2.66 12 3 C8.7 3.33 5.4 3.66 2 4 C1.34 5.98 0.68 7.96 0 10 C0.66 10.33 1.32 10.66 2 11 C1.67 11.66 1.34 12.32 1 13 C0.01 13 -0.98 13 -2 13 C-2.433125 11.2984375 -2.433125 11.2984375 -2.875 9.5625 C-3.24625 8.386875 -3.6175 7.21125 -4 6 C-4.66 5.67 -5.32 5.34 -6 5 C-5.01 5 -4.02 5 -3 5 C-2.67 3.68 -2.34 2.36 -2 1 C-2 1.66 -2 2.32 -2 3 C-1.34 3 -0.68 3 0 3 C0 2.01 0 1.02 0 0 Z " fill="#ECAD0E" transform="translate(166,169)"/>
<path d="M0 0 C0.66 0 1.32 0 2 0 C3.58706842 4.1077065 4.10191901 5.59232396 3 10 C6.96 10 10.92 10 15 10 C15 10.66 15 11.32 15 12 C13.06257659 12.02703381 11.12504521 12.04641125 9.1875 12.0625 C8.10855469 12.07410156 7.02960938 12.08570313 5.91796875 12.09765625 C3 12 3 12 0 11 C0 10.01 0 9.02 0 8 C-0.99 8 -1.98 8 -3 8 C-2.67 7.34 -2.34 6.68 -2 6 C-1.32136945 4.0040278 -0.65358081 2.00431449 0 0 Z " fill="#DCA515" transform="translate(211,190)"/>
<path d="M0 0 C0 1.98 0 3.96 0 6 C1.65 6 3.3 6 5 6 C5 6.33 5 6.66 5 7 C0.71 7 -3.58 7 -8 7 C-8 7.66 -8 8.32 -8 9 C-6.68 9 -5.36 9 -4 9 C-4 13.62 -4 18.24 -4 23 C-4.33 23 -4.66 23 -5 23 C-5 18.71 -5 14.42 -5 10 C-6.32 10 -7.64 10 -9 10 C-9 8.68 -9 7.36 -9 6 C-7.68 6 -6.36 6 -5 6 C-5 4.35 -5 2.7 -5 1 C-3 0 -3 0 0 0 Z " fill="#573806" transform="translate(195,167)"/>
<path d="M0 0 C1.98 0 3.96 0 6 0 C4.68 0.33 3.36 0.66 2 1 C2 4.63 2 8.26 2 12 C3.98 11.34 5.96 10.68 8 10 C8.07427838 6.65747276 8.06546953 4.1964086 7 1 C7.66 1 8.32 1 9 1 C10.59492803 4.18985607 10.37616681 7.52932887 10 11 C8.9375 13 8.9375 13 7 14 C4.69 14 2.38 14 0 14 C0 9.38 0 4.76 0 0 Z " fill="#BD9528" transform="translate(148,176)"/>
<path d="M0 0 C5.875 0.875 5.875 0.875 7 2 C7.125 5.5 7.125 5.5 7 9 C6 10 6 10 3.4375 10.0625 C2.633125 10.041875 1.82875 10.02125 1 10 C1.66 9.67 2.32 9.34 3 9 C3 8.34 3 7.68 3 7 C2.01 7.33 1.02 7.66 0 8 C0 5.36 0 2.72 0 0 Z " fill="#F0AE03" transform="translate(265,177)"/>
<path d="M0 0 C0.33 0 0.66 0 1 0 C1.797837 6.69613196 2.12910853 13.25766581 2 20 C0.68 20 -0.64 20 -2 20 C-2.12074853 13.57349465 -1.90984106 7.36888739 -1 1 C-0.67 0.67 -0.34 0.34 0 0 Z " fill="#080101" transform="translate(84,180)"/>
<path d="M0 0 C0.33 0.66 0.66 1.32 1 2 C2.97522846 3.04808041 4.97481509 4.0520411 7 5 C7 7.31 7 9.62 7 12 C6.34 12 5.68 12 5 12 C5 12.66 5 13.32 5 14 C3.68 13.67 2.36 13.34 1 13 C1.99 12.34 2.98 11.68 4 11 C4.33343551 8.45792029 4.33343551 8.45792029 4 6 C2.18884044 4.18884044 -0.61278227 4.61800552 -3.0625 4.4375 C-4.16722656 4.35371094 -5.27195313 4.26992187 -6.41015625 4.18359375 C-7.26480469 4.12300781 -8.11945313 4.06242188 -9 4 C-9 3.01 -9 2.02 -9 1 C-2.25 0 -2.25 0 0 0 Z " fill="#CDA02C" transform="translate(227,186)"/>
<path d="M0 0 C2.5625 0.1875 2.5625 0.1875 4.5625 2.1875 C4.1875 4.8125 4.1875 4.8125 3.5625 7.1875 C1.25 7.875 1.25 7.875 -1.4375 8.1875 C-3.3125 7 -3.3125 7 -4.4375 5.1875 C-4.02450713 1.6770606 -3.6499568 0.28076591 0 0 Z " fill="#BB9533" transform="translate(221.4375,175.8125)"/>
<path d="M0 0 C2.875 1.125 2.875 1.125 5 3 C5.8125 6.1875 5.8125 6.1875 6 9 C5.67 8.34 5.34 7.68 5 7 C4.34 7 3.68 7 3 7 C2.67 7.66 2.34 8.32 2 9 C1.608125 8.175 1.21625 7.35 0.8125 6.5 C0.214375 5.675 -0.38375 4.85 -1 4 C-3.88185107 3.5782657 -5.39722303 3.69861151 -8 5 C-8 4.34 -8 3.68 -8 3 C-8.66 2.67 -9.32 2.34 -10 2 C-6.27420911 -0.48386059 -4.41288598 -0.3804212 0 0 Z " fill="#220E01" transform="translate(314,173)"/>
<path d="M0 0 C7.42857143 -0.28571429 7.42857143 -0.28571429 11 2 C11 2.99 11 3.98 11 5 C6.34462607 5.83796731 2.62921525 6.0161692 -2 5 C-1.34 4.67 -0.68 4.34 0 4 C0 2.68 0 1.36 0 0 Z " fill="#CEA435" transform="translate(324,184)"/>
<path d="M0 0 C0 4.95 0 9.9 0 15 C-2 13 -2 13 -2.1953125 10.3984375 C-2.17210937 9.40070313 -2.14890625 8.40296875 -2.125 7.375 C-2.10695312 6.37210938 -2.08890625 5.36921875 -2.0703125 4.3359375 C-2.04710937 3.56507813 -2.02390625 2.79421875 -2 2 C-3.97536745 2.34786708 -3.97536745 2.34786708 -6 3 C-7.21693876 5.43387753 -7.31959896 7.41838846 -7.5625 10.125 C-7.64628906 11.03507813 -7.73007813 11.94515625 -7.81640625 12.8828125 C-7.87699219 13.58148438 -7.93757812 14.28015625 -8 15 C-8.33 15 -8.66 15 -9 15 C-9 10.38 -9 5.76 -9 1 C-7 0 -7 0 0 0 Z " fill="#DCAE30" transform="translate(249,177)"/>
<path d="M0 0 C0.66 0 1.32 0 2 0 C2.33 4.62 2.66 9.24 3 14 C2.34 14 1.68 14 1 14 C0.7525 14.61875 0.505 15.2375 0.25 15.875 C-1.20628639 18.35068687 -2.37812506 18.95125002 -5 20 C-5 19.01 -5 18.02 -5 17 C-5.66 16.67 -6.32 16.34 -7 16 C-4.69 15.34 -2.38 14.68 0 14 C0 9.38 0 4.76 0 0 Z " fill="#ECAD11" transform="translate(111,178)"/>
<path d="M0 0 C2.0625 0.4375 2.0625 0.4375 4 1 C4 2.98 4 4.96 4 7 C2.68 7 1.36 7 0 7 C0 6.01 0 5.02 0 4 C-0.66 4 -1.32 4 -2 4 C-2.33 5.32 -2.66 6.64 -3 8 C-4.65 8 -6.3 8 -8 8 C-8 6.68 -8 5.36 -8 4 C-6.5459375 3.814375 -6.5459375 3.814375 -5.0625 3.625 C-3.5465625 3.315625 -3.5465625 3.315625 -2 3 C-1.67 2.34 -1.34 1.68 -1 1 C-0.67 0.67 -0.34 0.34 0 0 Z " fill="#B98208" transform="translate(204,162)"/>
<path d="M0 0 C2.05078125 0.03255208 4.1015625 0.06510417 6.15234375 0.09765625 C6.15234375 2.07765625 6.15234375 4.05765625 6.15234375 6.09765625 C3.51234375 6.09765625 0.87234375 6.09765625 -1.84765625 6.09765625 C-2.22984392 4.44150968 -2.56160727 2.77308601 -2.84765625 1.09765625 C-1.84765625 0.09765625 -1.84765625 0.09765625 0 0 Z " fill="#C7A13F" transform="translate(172.84765625,183.90234375)"/>
<path d="M0 0 C0.66 0.33 1.32 0.66 2 1 C4.0374763 1.22858114 6.08040303 1.41024278 8.125 1.5625 C9.76855469 1.68818359 9.76855469 1.68818359 11.4453125 1.81640625 C12.28835938 1.87699219 13.13140625 1.93757812 14 2 C14 1.34 14 0.68 14 0 C14.66 0 15.32 0 16 0 C16.33 1.32 16.66 2.64 17 4 C12.05 4 7.1 4 2 4 C1.67 5.32 1.34 6.64 1 8 C0.34 7.67 -0.32 7.34 -1 7 C-1.04254356 5.00045254 -1.04080783 2.99958364 -1 1 C-0.67 0.67 -0.34 0.34 0 0 Z " fill="#120200" transform="translate(303,180)"/>
<path d="M0 0 C6 0 6 0 8.375 1.625 C10.4131192 4.6037896 10.32152515 6.46322336 10 10 C9.71125 9.401875 9.4225 8.80375 9.125 8.1875 C7.95257974 5.80672208 7.95257974 5.80672208 6 3 C4.68 3 3.36 3 2 3 C1.67 6.3 1.34 9.6 1 13 C3.64 12.34 6.28 11.68 9 11 C7.875 12.5 7.875 12.5 6 14 C4.02 14 2.04 14 0 14 C0 9.38 0 4.76 0 0 Z " fill="#CAA035" transform="translate(86,176)"/>
<path d="M0 0 C1.7290774 -0.02725341 3.45828176 -0.04650987 5.1875 -0.0625 C6.15042969 -0.07410156 7.11335938 -0.08570313 8.10546875 -0.09765625 C10.93390235 -0.00223002 13.30888053 0.11225593 16 1 C18.48337927 4.1832407 18.330393 7.64154488 18.375 11.5625 C18.40335938 12.69816406 18.43171875 13.83382812 18.4609375 15.00390625 C18 18 18 18 16.1640625 19.96484375 C14 21 14 21 11 20 C12.32 19.67 13.64 19.34 15 19 C15.81788791 16.10441295 16.18892672 13.44535913 16.25 10.4375 C16.27578125 9.67308594 16.3015625 8.90867188 16.328125 8.12109375 C16.14216177 5.96695231 16.14216177 5.96695231 14.90234375 4.296875 C12.1515034 2.42155879 9.59306925 2.23475149 6.3125 1.8125 C5.13300781 1.65394531 3.95351562 1.49539062 2.73828125 1.33203125 C1.83464844 1.22246094 0.93101563 1.11289063 0 1 C0 0.67 0 0.34 0 0 Z " fill="#D0A32F" transform="translate(83,172)"/>
<path d="M0 0 C0.99 0 1.98 0 3 0 C3 5.28 3 10.56 3 16 C2.01 16 1.02 16 0 16 C0 10.72 0 5.44 0 0 Z " fill="#140200" transform="translate(250,176)"/>
<path d="M0 0 C3.3 0 6.6 0 10 0 C10 2.97 10 5.94 10 9 C8.68 9 7.36 9 6 9 C5.62875 7.6078125 5.62875 7.6078125 5.25 6.1875 C4.15227192 2.56657265 4.15227192 2.56657265 0 0 Z " fill="#150801" transform="translate(220,174)"/>
<path d="M0 0 C2.97 0.33 5.94 0.66 9 1 C9 2.32 9 3.64 9 5 C0.09 5 -8.82 5 -18 5 C-18 4.67 -18 4.34 -18 4 C-10.74 4 -3.48 4 4 4 C4 3.01 4 2.02 4 1 C2.68 0.67 1.36 0.34 0 0 Z " fill="#FCECAA" transform="translate(352,236)"/>
<path d="M0 0 C0.99 0 1.98 0 3 0 C3 5.94 3 11.88 3 18 C2.01 17.01 1.02 16.02 0 15 C0.66 15 1.32 15 2 15 C1.67 11.37 1.34 7.74 1 4 C-1.97 3.505 -1.97 3.505 -5 3 C-5 6.96 -5 10.92 -5 15 C-5.33 15 -5.66 15 -6 15 C-6 10.71 -6 6.42 -6 2 C-4.02 2 -2.04 2 0 2 C0 1.34 0 0.68 0 0 Z " fill="#C08F12" transform="translate(200,174)"/>
<path d="M0 0 C0.99 0.33 1.98 0.66 3 1 C3 6.61 3 12.22 3 18 C2.34 18.33 1.68 18.66 1 19 C0.01 18.34 -0.98 17.68 -2 17 C-1.34 17 -0.68 17 0 17 C0 11.39 0 5.78 0 0 Z " fill="#EEAD11" transform="translate(278,173)"/>
<path d="M0 0 C0.99 0 1.98 0 3 0 C3.33 0.66 3.66 1.32 4 2 C5.89533342 2.46523063 5.89533342 2.46523063 8.0625 2.625 C9.361875 2.74875 10.66125 2.8725 12 3 C12 3.99 12 4.98 12 6 C10.18757948 6.02687279 8.37504767 6.04633715 6.5625 6.0625 C5.55316406 6.07410156 4.54382813 6.08570313 3.50390625 6.09765625 C1 6 1 6 0 5 C-0.04063832 3.33382885 -0.042721 1.66611905 0 0 Z " fill="#190600" transform="translate(214,187)"/>
<path d="M0 0 C0.99 0.33 1.98 0.66 3 1 C2.34 1 1.68 1 1 1 C1.49113281 2.04220703 1.49113281 2.04220703 1.9921875 3.10546875 C3.12662831 6.36368828 3.20056055 8.87449502 3.125 12.3125 C3.10695312 13.38113281 3.08890625 14.44976562 3.0703125 15.55078125 C3.04710937 16.35902344 3.02390625 17.16726562 3 18 C2.01 18 1.02 18 0 18 C0 12.06 0 6.12 0 0 Z " fill="#100100" transform="translate(236,174)"/>
<path d="M0 0 C0.69287109 0.01804688 1.38574219 0.03609375 2.09960938 0.0546875 C3.79617664 0.10148936 5.49202476 0.17322376 7.1875 0.25 C7.1875 1.24 7.1875 2.23 7.1875 3.25 C6.1975 3.25 5.2075 3.25 4.1875 3.25 C4.1875 2.59 4.1875 1.93 4.1875 1.25 C-2.37844257 1.77395268 -2.37844257 1.77395268 -7.8125 5.25 C-8.8025 5.25 -9.7925 5.25 -10.8125 5.25 C-11.1425 6.9 -11.4725 8.55 -11.8125 10.25 C-12.1425 10.25 -12.4725 10.25 -12.8125 10.25 C-13.125 7.5 -13.125 7.5 -12.8125 4.25 C-8.91541681 0.05314118 -5.45692143 -0.27154059 0 0 Z " fill="#311300" transform="translate(225.8125,172.75)"/>
<path d="M0 0 C-1.32 0.33 -2.64 0.66 -4 1 C-4 1.66 -4 2.32 -4 3 C1.94 3 7.88 3 14 3 C14 3.33 14 3.66 14 4 C6.41 4 -1.18 4 -9 4 C-9 2.68 -9 1.36 -9 0 C-5.62182575 -0.84454356 -3.32534757 -1.10844919 0 0 Z " fill="#FDF1B4" transform="translate(50,237)"/>
<path d="M0 0 C1.32 0 2.64 0 4 0 C4.59456689 7.01588929 4.59456689 7.01588929 2.1875 11 C-2.45498257 13.91293024 -6.66027777 13.42081874 -12 13 C-12 12.34 -12 11.68 -12 11 C-11.32453125 10.93941406 -10.6490625 10.87882813 -9.953125 10.81640625 C-9.06109375 10.73261719 -8.1690625 10.64882812 -7.25 10.5625 C-6.36828125 10.48128906 -5.4865625 10.40007812 -4.578125 10.31640625 C-2.30649548 10.03761535 -0.20148177 9.61209423 2 9 C2.16677282 5.58343976 2.16677282 5.58343976 2 2 C1.34 1.34 0.68 0.68 0 0 Z " fill="#DBA82F" transform="translate(75,182)"/>
<path d="M0 0 C0.33 0 0.66 0 1 0 C1.08636719 0.68707031 1.17273438 1.37414062 1.26171875 2.08203125 C2.00977545 7.5894151 2.00977545 7.5894151 5 12.0625 C9.28256357 13.40080112 13.5341387 13.74852432 18 14 C17.67 14.66 17.34 15.32 17 16 C11.0630828 16.31246933 7.22695427 15.92709439 2 13 C0.05919887 10.03772459 -0.22792981 7.74961358 -0.125 4.25 C-0.10695313 3.45078125 -0.08890625 2.6515625 -0.0703125 1.828125 C-0.04710937 1.22484375 -0.02390625 0.6215625 0 0 Z " fill="#D9A833" transform="translate(300,179)"/>
<path d="M0 0 C1.95803507 -0.05389087 3.91648909 -0.09274217 5.875 -0.125 C7.51082031 -0.15980469 7.51082031 -0.15980469 9.1796875 -0.1953125 C12 0 12 0 14 2 C10.57905758 4.28062828 9.31812778 4.21925007 5.3125 4.125 C3.82169922 4.09792969 3.82169922 4.09792969 2.30078125 4.0703125 C1.54152344 4.04710937 0.78226563 4.02390625 0 4 C0 2.68 0 1.36 0 0 Z " fill="#331800" transform="translate(167,173)"/>
<path d="M0 0 C0.33 1.32 0.66 2.64 1 4 C-1.64458379 5.32229189 -3.67761301 5.09677194 -6.625 5.0625 C-7.62789063 5.05347656 -8.63078125 5.04445312 -9.6640625 5.03515625 C-10.43492187 5.02355469 -11.20578125 5.01195312 -12 5 C-12.33 4.01 -12.66 3.02 -13 2 C-8.71 2 -4.42 2 0 2 C0 1.34 0 0.68 0 0 Z " fill="#EBAF12" transform="translate(322,183)"/>
<path d="M0 0 C0.33 0 0.66 0 1 0 C1 4.29 1 8.58 1 13 C0.67 13 0.34 13 0 13 C0 11.02 0 9.04 0 7 C-4.455 7.495 -4.455 7.495 -9 8 C-9.33 6.68 -9.66 5.36 -10 4 C-6.7 4 -3.4 4 0 4 C0 2.68 0 1.36 0 0 Z " fill="#381C02" transform="translate(179,177)"/>
<path d="M0 0 C0.33 1.32 0.66 2.64 1 4 C-2.3 4 -5.6 4 -9 4 C-8.67 2.68 -8.34 1.36 -8 0 C-5.13822943 -1.43088528 -3.06624227 -0.59991697 0 0 Z " fill="#D7A82D" transform="translate(127,177)"/>
<path d="M0 0 C1.299375 0.680625 1.299375 0.680625 2.625 1.375 C5.71476907 2.86266659 8.72930848 3.9876431 12 5 C11.34 6.32 10.68 7.64 10 9 C7.36 9 4.72 9 2 9 C2.66 8.34 3.32 7.68 4 7 C5.32 7 6.64 7 8 7 C8.33 6.34 8.66 5.68 9 5 C7.329375 5.061875 7.329375 5.061875 5.625 5.125 C2 5 2 5 0 3 C0 2.01 0 1.02 0 0 Z " fill="#C9A02B" transform="translate(62,181)"/>
<path d="M0 0 C2.5625 0.1875 2.5625 0.1875 4.5625 2.1875 C4.5625 3.1775 4.5625 4.1675 4.5625 5.1875 C1.5925 5.1875 -1.3775 5.1875 -4.4375 5.1875 C-3.20220588 0.24632353 -3.20220588 0.24632353 0 0 Z " fill="#DEA930" transform="translate(310.4375,175.8125)"/>
<path d="M0 0 C0.99 0 1.98 0 3 0 C3 3.96 3 7.92 3 12 C-0.95744681 8.04255319 -0.95744681 8.04255319 -1.125 3.9375 C-1 1 -1 1 0 0 Z " fill="#1D0801" transform="translate(259,177)"/>
<path d="M0 0 C0 1.98 0 3.96 0 6 C-2.31 6 -4.62 6 -7 6 C-7 4.68 -7 3.36 -7 2 C-4 0 -4 0 0 0 Z " fill="#936A1A" transform="translate(110,164)"/>
<path d="M0 0 C7.59762024 -0.38999191 13.84466021 0.39241413 21 3 C16.94947864 4.49901184 12.98107592 3.73219392 8.8125 3.1875 C8.07580078 3.10435547 7.33910156 3.02121094 6.58007812 2.93554688 C4.70889435 2.69971231 2.85173719 2.35779329 1 2 C0.67 1.34 0.34 0.68 0 0 Z " fill="#E4B93F" transform="translate(323,231)"/>
<path d="M0 0 C2.64 0 5.28 0 8 0 C8.33 2.31 8.66 4.62 9 7 C4.545 5.02 4.545 5.02 0 3 C0 2.01 0 1.02 0 0 Z " fill="#DFAB1E" transform="translate(330,177)"/>
<path d="M0 0 C4.97631579 4.81578947 4.97631579 4.81578947 5.0625 9.125 C5.041875 10.07375 5.02125 11.0225 5 12 C3 8.25 3 8.25 3 6 C2.34 6 1.68 6 1 6 C1 7.65 1 9.3 1 11 C0.67 11 0.34 11 0 11 C-0.33 8.36 -0.66 5.72 -1 3 C-1.99 2.67 -2.98 2.34 -4 2 C-2.68 2 -1.36 2 0 2 C0 1.34 0 0.68 0 0 Z " fill="#3A2202" transform="translate(158,174)"/>
<path d="M0 0 C0.33 0 0.66 0 1 0 C1.2954439 5.02254631 0.98514628 7.89542386 -2 12 C-3.65 11.67 -5.3 11.34 -7 11 C-6.34 10.67 -5.68 10.34 -5 10 C-4.53476937 8.10466658 -4.53476937 8.10466658 -4.375 5.9375 C-4.25125 4.638125 -4.1275 3.33875 -4 2 C-3.01 3.32 -2.02 4.64 -1 6 C-0.67 4.02 -0.34 2.04 0 0 Z " fill="#3A2103" transform="translate(277,179)"/>
<path d="M0 0 C5.61 0 11.22 0 17 0 C17 0.33 17 0.66 17 1 C15.55367187 1.05607422 15.55367187 1.05607422 14.078125 1.11328125 C12.81484375 1.17902344 11.5515625 1.24476563 10.25 1.3125 C8.99703125 1.37050781 7.7440625 1.42851562 6.453125 1.48828125 C2.93357778 2.00984311 1.50052777 2.54755931 -1 5 C-2.2516467 7.08334635 -2.2516467 7.08334635 -3 9 C-3 7.02 -3 5.04 -3 3 C-3.66 2.67 -4.32 2.34 -5 2 C-3.35 2 -1.7 2 0 2 C0 1.34 0 0.68 0 0 Z " fill="#D9A837" transform="translate(215,172)"/>
<path d="M0 0 C0.33 0 0.66 0 1 0 C1 1.98 1 3.96 1 6 C-0.98 6.99 -0.98 6.99 -3 8 C-3 8.66 -3 9.32 -3 10 C-6.3 10 -9.6 10 -13 10 C-13.33 9.34 -13.66 8.68 -14 8 C-10.04 7.34 -6.08 6.68 -2 6 C-1.34 4.02 -0.68 2.04 0 0 Z " fill="#D19F2C" transform="translate(339,185)"/>
<path d="M0 0 C4.95 0 9.9 0 15 0 C15 0.33 15 0.66 15 1 C11.04 1 7.08 1 3 1 C3 1.66 3 2.32 3 3 C5.31 3.66 7.62 4.32 10 5 C10 5.33 10 5.66 10 6 C6.29706315 6.33663062 4.60465619 6.47736015 1.625 4.125 C0 2 0 2 0 0 Z " fill="#B98E2B" transform="translate(118,184)"/>
<path d="M0 0 C0.66 0 1.32 0 2 0 C2.125 5.75 2.125 5.75 1 8 C0.01 8 -0.98 8 -2 8 C-2 7.34 -2 6.68 -2 6 C-3.32 5.67 -4.64 5.34 -6 5 C-5.67 4.34 -5.34 3.68 -5 3 C-3.68 3 -2.36 3 -1 3 C-0.67 2.01 -0.34 1.02 0 0 Z " fill="#EBAF0A" transform="translate(202,166)"/>
<path d="M0 0 C0.33 1.32 0.66 2.64 1 4 C2.65 4.33 4.3 4.66 6 5 C5.67 5.66 5.34 6.32 5 7 C4.01 6.67 3.02 6.34 2 6 C-0.22574335 5.77548542 -2.45581519 5.59217122 -4.6875 5.4375 C-6.45673828 5.31181641 -6.45673828 5.31181641 -8.26171875 5.18359375 C-9.16535156 5.12300781 -10.06898438 5.06242188 -11 5 C-11 4.67 -11 4.34 -11 4 C-8.36 4 -5.72 4 -3 4 C-2.67 3.01 -2.34 2.02 -2 1 C-1.67 1.33 -1.34 1.66 -1 2 C-0.67 1.34 -0.34 0.68 0 0 Z " fill="#E7AE22" transform="translate(203,189)"/>
<path d="M0 0 C1.32 0.66 2.64 1.32 4 2 C1.44931155 4.35448165 0.28982642 4.98327924 -3.25 5.1875 C-4.1575 5.125625 -5.065 5.06375 -6 5 C-6.33 3.68 -6.66 2.36 -7 1 C-5.5459375 1.0309375 -5.5459375 1.0309375 -4.0625 1.0625 C-1.12534105 1.35618499 -1.12534105 1.35618499 0 0 Z " fill="#301902" transform="translate(225,182)"/>
<path d="M0 0 C1.65 0 3.3 0 5 0 C5 1.32 5 2.64 5 4 C2.36 4 -0.28 4 -3 4 C-3.33 3.01 -3.66 2.02 -4 1 C-2.68 1.33 -1.36 1.66 0 2 C0 1.34 0 0.68 0 0 Z " fill="#512D04" transform="translate(195,189)"/>
<path d="M0 0 C0.99 0 1.98 0 3 0 C5.1519437 3.22791555 5.20086443 4.28400809 5 8 C3.68 7.67 2.36 7.34 1 7 C0.67 4.69 0.34 2.38 0 0 Z " fill="#EFAE02" transform="translate(151,178)"/>
<path d="M0 0 C0.99 0.33 1.98 0.66 3 1 C3 6.61 3 12.22 3 18 C1.68 17.67 0.36 17.34 -1 17 C-0.01 17 0.98 17 2 17 C1.85786703 15.10388566 1.71113093 13.20811606 1.5625 11.3125 C1.44068359 9.72888672 1.44068359 9.72888672 1.31640625 8.11328125 C1.03548319 5.34913703 0.59843148 2.71054259 0 0 Z " fill="#291600" transform="translate(237,175)"/>
<path d="M0 0 C0.66 0.66 1.32 1.32 2 2 C-2.61965088 2.95946595 -6.68129125 2.96102244 -11.375 2.5625 C-12.62023437 2.46066406 -13.86546875 2.35882813 -15.1484375 2.25390625 C-16.55996094 2.12822266 -16.55996094 2.12822266 -18 2 C-18 1.67 -18 1.34 -18 1 C-11.9844314 0.30968885 -6.05668244 -0.32446513 0 0 Z " fill="#EAAB1C" transform="translate(236,170)"/>
<path d="M0 0 C0.99 0.495 0.99 0.495 2 1 C4.2072923 1.07092842 6.41667452 1.08415025 8.625 1.0625 C10.40777344 1.04896484 10.40777344 1.04896484 12.2265625 1.03515625 C13.59941406 1.01775391 13.59941406 1.01775391 15 1 C11.34375 4.96875 11.34375 4.96875 8.25 5.25 C7.5075 5.1675 6.765 5.085 6 5 C6 4.67 6 4.34 6 4 C4.02 3.34 2.04 2.68 0 2 C0 1.34 0 0.68 0 0 Z " fill="#ECB016" transform="translate(143,192)"/>
<path d="M0 0 C0.33 1.32 0.66 2.64 1 4 C-2.20380017 6.13586678 -3.01939967 6.23132175 -6.6875 6.125 C-7.89986328 6.09792969 -7.89986328 6.09792969 -9.13671875 6.0703125 C-10.05904297 6.03550781 -10.05904297 6.03550781 -11 6 C-9.68 5.67 -8.36 5.34 -7 5 C-7 4.34 -7 3.68 -7 3 C-5.5459375 2.5359375 -5.5459375 2.5359375 -4.0625 2.0625 C-1.15934208 1.30476658 -1.15934208 1.30476658 0 0 Z " fill="#2D1100" transform="translate(157,187)"/>
<path d="M0 0 C0.99 0 1.98 0 3 0 C3.4125 0.474375 3.825 0.94875 4.25 1.4375 C6.87524834 3.78147173 9.58502942 3.67783296 13 4 C13 5.32 13 6.64 13 8 C12.34 7.67 11.68 7.34 11 7 C11.33 6.34 11.66 5.68 12 5 C11.07767578 5.05220703 11.07767578 5.05220703 10.13671875 5.10546875 C9.32847656 5.13253906 8.52023437 5.15960938 7.6875 5.1875 C6.48673828 5.23970703 6.48673828 5.23970703 5.26171875 5.29296875 C3 5 3 5 1.20703125 3.61328125 C0 2 0 2 0 0 Z " fill="#C39428" transform="translate(306,185)"/>
<path d="M0 0 C3.26954202 0.56371414 4.82575883 1.49962266 7 4 C6 5 6 5 4.15234375 5.09765625 C2.1015625 5.06510417 0.05078125 5.03255208 -2 5 C-1.34 4.67 -0.68 4.34 0 4 C0 2.68 0 1.36 0 0 Z " fill="#ECAF15" transform="translate(324,184)"/>
<path d="M0 0 C0.99386719 0.00902344 1.98773438 0.01804688 3.01171875 0.02734375 C4.15060547 0.04474609 4.15060547 0.04474609 5.3125 0.0625 C5.3125 0.3925 5.3125 0.7225 5.3125 1.0625 C4.39017578 1.13597656 4.39017578 1.13597656 3.44921875 1.2109375 C2.64097656 1.28570312 1.83273438 1.36046875 1 1.4375 C-0.20076172 1.54191406 -0.20076172 1.54191406 -1.42578125 1.6484375 C-3.95974441 1.95814426 -3.95974441 1.95814426 -6.6875 4.0625 C-7.41715366 6.62532742 -7.41715366 6.62532742 -7.6875 9.0625 C-9.05491555 6.81028616 -9.72816478 5.53692242 -9.5 2.875 C-9.231875 2.276875 -8.96375 1.67875 -8.6875 1.0625 C-5.53819107 0.01273036 -3.29935544 -0.03881595 0 0 Z " fill="#DEAC30" transform="translate(69.6875,171.9375)"/>
<path d="M0 0 C0.99 0.99 1.98 1.98 3 3 C2.34 4.65 1.68 6.3 1 8 C-2.63 8 -6.26 8 -10 8 C-10 7.67 -10 7.34 -10 7 C-6.7 7 -3.4 7 0 7 C-0.7763932 3.9254644 -0.7763932 3.9254644 -3 2 C-2.01 2 -1.02 2 0 2 C0 1.34 0 0.68 0 0 Z " fill="#4A2F05" transform="translate(128,174)"/>
<path d="M0 0 C0.99386719 0.00902344 1.98773438 0.01804688 3.01171875 0.02734375 C4.15060547 0.04474609 4.15060547 0.04474609 5.3125 0.0625 C5.6425 0.7225 5.9725 1.3825 6.3125 2.0625 C5.66023438 2.01609375 5.00796875 1.9696875 4.3359375 1.921875 C-1.76704686 1.66983435 -4.9843115 2.10192021 -9.6875 6.0625 C-9.3575 4.4125 -9.0275 2.7625 -8.6875 1.0625 C-5.53819107 0.01273036 -3.29935544 -0.03881595 0 0 Z " fill="#D4A335" transform="translate(267.6875,171.9375)"/>
<path d="M0 0 C2.24973447 -0.054138 4.49984383 -0.09285491 6.75 -0.125 C8.00296875 -0.14820313 9.2559375 -0.17140625 10.546875 -0.1953125 C13.72820492 -0.01537302 15.36521896 0.31001418 18 2 C18 2.66 18 3.32 18 4 C13.25 3.125 13.25 3.125 11 2 C9.12943209 1.7724985 7.25314042 1.59037189 5.375 1.4375 C4.37210938 1.35371094 3.36921875 1.26992187 2.3359375 1.18359375 C1.56507813 1.12300781 0.79421875 1.06242188 0 1 C0 0.67 0 0.34 0 0 Z " fill="#D8A632" transform="translate(168,172)"/>
<path d="M0 0 C3.96 0.33 7.92 0.66 12 1 C12 1.66 12 2.32 12 3 C8.04 3 4.08 3 0 3 C0 2.01 0 1.02 0 0 Z " fill="#1E0500" transform="translate(214,197)"/>
<path d="M0 0 C2.64 0 5.28 0 8 0 C2.85714286 5.57142857 2.85714286 5.57142857 -1 6 C-0.67 4.02 -0.34 2.04 0 0 Z " fill="#ECAD11" transform="translate(264,194)"/>
<path d="M0 0 C0.99 0.33 1.98 0.66 3 1 C2.34 1 1.68 1 1 1 C1.12375 2.11375 1.12375 2.11375 1.25 3.25 C1 6 1 6 -0.875 8.3125 C-3 10 -3 10 -5 10 C-5 9.34 -5 8.68 -5 8 C-5.66 7.67 -6.32 7.34 -7 7 C-6.34 6.67 -5.68 6.34 -5 6 C-4.01 6.33 -3.02 6.66 -2 7 C-2 6.01 -2 5.02 -2 4 C-1.34 4 -0.68 4 0 4 C0 2.68 0 1.36 0 0 Z " fill="#ECAC10" transform="translate(298,188)"/>
<path d="M0 0 C1.98 0 3.96 0 6 0 C6 1.32 6 2.64 6 4 C4.02 4 2.04 4 0 4 C0 2.68 0 1.36 0 0 Z " fill="#E9B013" transform="translate(172,185)"/>
<path d="M0 0 C0.66 0 1.32 0 2 0 C2 1.65 2 3.3 2 5 C2.66 5.33 3.32 5.66 4 6 C2.68 6.99 1.36 7.98 0 9 C-1.36623674 6.26752652 -1.128426 4.01801098 -1 1 C-0.67 0.67 -0.34 0.34 0 0 Z " fill="#0B0201" transform="translate(116,177)"/>
<path d="M0 0 C0.66 0.33 1.32 0.66 2 1 C2 1.66 2 2.32 2 3 C4.97 3 7.94 3 11 3 C11 3.33 11 3.66 11 4 C4.565 4.495 4.565 4.495 -2 5 C-2.33 3.68 -2.66 2.36 -3 1 C-2.01 0.67 -1.02 0.34 0 0 Z " fill="#EDAD0E" transform="translate(117,168)"/>
<path d="M0 0 C0.33 0.66 0.66 1.32 1 2 C-4.94 2.495 -4.94 2.495 -11 3 C-11.33 2.34 -11.66 1.68 -12 1 C-8.0186217 -0.3271261 -4.14954773 -0.06915913 0 0 Z " fill="#FEFCE7" transform="translate(327,233)"/>
<path d="M0 0 C5.875 0.875 5.875 0.875 7 2 C7.04092937 4.33297433 7.04241723 6.66705225 7 9 C6.34 8.34 5.68 7.68 5 7 C5 5.68 5 4.36 5 3 C3.35 2.67 1.7 2.34 0 2 C0 1.34 0 0.68 0 0 Z " fill="#EDAD14" transform="translate(265,177)"/>
<path d="M0 0 C2.64 0 5.28 0 8 0 C8.33 1.65 8.66 3.3 9 5 C6.69 5 4.38 5 2 5 C3.32 4.34 4.64 3.68 6 3 C4.02 2.34 2.04 1.68 0 1 C0 0.67 0 0.34 0 0 Z " fill="#BA9235" transform="translate(170,176)"/>
<path d="M0 0 C2.64 0.99 5.28 1.98 8 3 C7.67 3.66 7.34 4.32 7 5 C4.83125748 4.49396008 3.00032373 4.00016187 1 3 C1 4.65 1 6.3 1 8 C0.67 8 0.34 8 0 8 C-0.38063221 5.6739143 -0.71269945 3.33944736 -1 1 C-0.67 0.67 -0.34 0.34 0 0 Z " fill="#DC9F0A" transform="translate(102,169)"/>
<path d="M0 0 C0.33 0 0.66 0 1 0 C1 2.31 1 4.62 1 7 C1.99 5.68 2.98 4.36 4 3 C4 5.31 4 7.62 4 10 C2.68 10 1.36 10 0 10 C0 6.7 0 3.4 0 0 Z " fill="#1C0400" transform="translate(82,190)"/>
<path d="M0 0 C0.99 0.33 1.98 0.66 3 1 C3 3.31 3 5.62 3 8 C2.01 8.33 1.02 8.66 0 9 C0 6.03 0 3.06 0 0 Z " fill="#0D0202" transform="translate(96,179)"/>
<path d="M0 0 C2.475 0.495 2.475 0.495 5 1 C5 2.32 5 3.64 5 5 C3.35 5 1.7 5 0 5 C0 3.35 0 1.7 0 0 Z " fill="#ECAE14" transform="translate(219,177)"/>
<path d="M0 0 C4.95 0 9.9 0 15 0 C15.33 0.66 15.66 1.32 16 2 C10.33333333 2 4.66666667 2 -1 2 C-0.67 1.34 -0.34 0.68 0 0 Z " fill="#EAAD18" transform="translate(61,171)"/>
<path d="M0 0 C0.66 0 1.32 0 2 0 C1 3 1 3 -1.0625 4.1875 C-4.85475122 5.23642055 -8.07062002 5.13319932 -12 5 C-12 4.67 -12 4.34 -12 4 C-10.02 4 -8.04 4 -6 4 C-6 3.34 -6 2.68 -6 2 C-4.02 2 -2.04 2 0 2 C0 1.34 0 0.68 0 0 Z " fill="#F0AB18" transform="translate(232,198)"/>
<path d="M0 0 C2 3 2 3 2 5 C4.97 5 7.94 5 11 5 C11 5.33 11 5.66 11 6 C7.37 6.33 3.74 6.66 0 7 C-1 2 -1 2 0 0 Z " fill="#ECB110" transform="translate(61,190)"/>
<path d="M0 0 C1.5 1.25 1.5 1.25 3 3 C3 4.32 3 5.64 3 7 C2.34 7 1.68 7 1 7 C1 6.01 1 5.02 1 4 C-1.31 3.67 -3.62 3.34 -6 3 C-6 2.67 -6 2.34 -6 2 C-4.02 2 -2.04 2 0 2 C0 1.34 0 0.68 0 0 Z " fill="#D39F16" transform="translate(130,186)"/>
<path d="M0 0 C0.99 0.33 1.98 0.66 3 1 C3.73046875 3.06640625 3.73046875 3.06640625 4.1875 5.5625 C4.34605469 6.38878906 4.50460938 7.21507812 4.66796875 8.06640625 C4.77753906 8.70449219 4.88710938 9.34257812 5 10 C4.34 10 3.68 10 3 10 C2.566875 9.1028125 2.566875 9.1028125 2.125 8.1875 C0.95257974 5.80672208 0.95257974 5.80672208 -1 3 C-0.67 2.01 -0.34 1.02 0 0 Z " fill="#EEB10E" transform="translate(57,173)"/>
<path d="M0 0 C3.125 -0.1875 3.125 -0.1875 6 0 C6 0.99 6 1.98 6 3 C3.36 3 0.72 3 -2 3 C-1.34 2.01 -0.68 1.02 0 0 Z " fill="#230D00" transform="translate(244,173)"/>
<path d="M0 0 C2 3 2 3 2 5 C2.66 5.33 3.32 5.66 4 6 C2.35 6.33 0.7 6.66 -1 7 C-1.66 5.68 -2.32 4.36 -3 3 C-2.01 2.01 -1.02 1.02 0 0 Z " fill="#311801" transform="translate(305,184)"/>
<path d="M0 0 C-2.35277269 2.72426311 -4.62496331 3.8141763 -8 5 C-8 4.34 -8 3.68 -8 3 C-8.66 2.67 -9.32 2.34 -10 2 C-6.3558226 -0.4294516 -4.28758728 -0.16179575 0 0 Z " fill="#351700" transform="translate(314,173)"/>
<path d="M0 0 C4.95 0 9.9 0 15 0 C15 0.99 15 1.98 15 3 C14.01 3 13.02 3 12 3 C12 2.34 12 1.68 12 1 C8.04 1 4.08 1 0 1 C0 0.67 0 0.34 0 0 Z " fill="#3E1E00" transform="translate(218,173)"/>
<path d="M0 0 C3.625 -0.1875 3.625 -0.1875 7 0 C6.67 0.99 6.34 1.98 6 3 C3.36 3 0.72 3 -2 3 C-1.34 2.01 -0.68 1.02 0 0 Z " fill="#E9AF19" transform="translate(64,186)"/>
<path d="M0 0 C1.485 0.99 1.485 0.99 3 2 C2.67 3.98 2.34 5.96 2 8 C1.01 7.67 0.02 7.34 -1 7 C-1.04254356 5.00045254 -1.04080783 2.99958364 -1 1 C-0.67 0.67 -0.34 0.34 0 0 Z " fill="#060004" transform="translate(303,180)"/>
<path d="M0 0 C2.97 0 5.94 0 9 0 C9.33 0.99 9.66 1.98 10 3 C8.68 3.33 7.36 3.66 6 4 C5.67 3.34 5.34 2.68 5 2 C2.47266765 1.34444881 2.47266765 1.34444881 0 1 C0 0.67 0 0.34 0 0 Z " fill="#BD9546" transform="translate(218,193)"/>
<path d="M0 0 C0.33 0.99 0.66 1.98 1 3 C1.66 3 2.32 3 3 3 C3 4.65 3 6.3 3 8 C2.01 8 1.02 8 0 8 C0 5.36 0 2.72 0 0 Z " fill="#0B0200" transform="translate(274,177)"/>
<path d="M0 0 C0.99 0.66 1.98 1.32 3 2 C3.29296875 4.1640625 3.29296875 4.1640625 3.1875 6.625 C3.16042969 7.44226563 3.13335937 8.25953125 3.10546875 9.1015625 C3.07066406 9.72804687 3.03585938 10.35453125 3 11 C2.67 11 2.34 11 2 11 C1.67 8.69 1.34 6.38 1 4 C0.01 4 -0.98 4 -2 4 C-1.34 2.68 -0.68 1.36 0 0 Z " fill="#2D1100" transform="translate(97,176)"/>
<path d="M0 0 C0.2475 0.61875 0.495 1.2375 0.75 1.875 C2.20628639 4.35068687 3.37812506 4.95125002 6 6 C4.68 6 3.36 6 2 6 C1.67 6.66 1.34 7.32 1 8 C-1 5 -1 5 -0.625 2.3125 C-0.41875 1.549375 -0.2125 0.78625 0 0 Z " fill="#D4A00F" transform="translate(80,195)"/>
<path d="M0 0 C0 1.32 0 2.64 0 4 C-0.66 4 -1.32 4 -2 4 C-2 3.34 -2 2.68 -2 2 C-5.3 2 -8.6 2 -12 2 C-12 1.67 -12 1.34 -12 1 C-10.37512529 0.83211627 -8.75009558 0.66573213 -7.125 0.5 C-6.22007812 0.4071875 -5.31515625 0.314375 -4.3828125 0.21875 C-2 0 -2 0 0 0 Z " fill="#462F02" transform="translate(228,196)"/>
<path d="M0 0 C2 3.875 2 3.875 2 5 C0.35 5 -1.3 5 -3 5 C-3 4.01 -3 3.02 -3 2 C-2.01 1.34 -1.02 0.68 0 0 Z " fill="#E8AE12" transform="translate(285,160)"/>
<path d="M0 0 C0.99 0 1.98 0 3 0 C3.33 2.31 3.66 4.62 4 7 C1.49962266 4.82575883 0.56371414 3.26954202 0 0 Z " fill="#0C0100" transform="translate(258,182)"/>
</svg>
